<svg width="297" height="95" viewBox="0 0 297 95" fill="none" xmlns="http://www.w3.org/2000/svg">
<path d="M0.5 12C0.5 5.64873 5.64873 0.5 12 0.5H285C291.351 0.5 296.5 5.64873 296.5 12V50C296.5 56.3513 291.351 61.5 285 61.5H12C5.64872 61.5 0.5 56.3513 0.5 50V12Z" fill="#FFFDF7"/>
<path d="M16.6364 17.1307V15.3636H25.9205V17.1307H22.3239V27H20.233V17.1307H16.6364ZM30.2173 27.1705C29.3423 27.1705 28.5866 26.9886 27.9503 26.625C27.3177 26.2576 26.831 25.7386 26.4901 25.0682C26.1491 24.3939 25.9787 23.6004 25.9787 22.6875C25.9787 21.7898 26.1491 21.0019 26.4901 20.3239C26.8348 19.642 27.3158 19.1117 27.9332 18.733C28.5507 18.3504 29.276 18.1591 30.1094 18.1591C30.6473 18.1591 31.1548 18.2462 31.6321 18.4205C32.1132 18.5909 32.5374 18.8561 32.9048 19.2159C33.276 19.5758 33.5677 20.0341 33.7798 20.5909C33.992 21.1439 34.098 21.803 34.098 22.5682V23.1989H26.9446V21.8125H32.1264C32.1226 21.4186 32.0374 21.0682 31.8707 20.7614C31.7041 20.4508 31.4711 20.2064 31.1719 20.0284C30.8764 19.8504 30.5317 19.7614 30.1378 19.7614C29.7173 19.7614 29.348 19.8636 29.0298 20.0682C28.7116 20.2689 28.4635 20.5341 28.2855 20.8636C28.1113 21.1894 28.0223 21.5473 28.0185 21.9375V23.1477C28.0185 23.6553 28.1113 24.0909 28.2969 24.4545C28.4825 24.8144 28.742 25.0909 29.0753 25.2841C29.4086 25.4735 29.7988 25.5682 30.2457 25.5682C30.545 25.5682 30.8158 25.5265 31.0582 25.4432C31.3007 25.3561 31.5109 25.2292 31.6889 25.0625C31.867 24.8958 32.0014 24.6894 32.0923 24.4432L34.0128 24.6591C33.8916 25.1667 33.6605 25.6098 33.3196 25.9886C32.9825 26.3636 32.5507 26.6553 32.0241 26.8636C31.4976 27.0682 30.8954 27.1705 30.2173 27.1705ZM35.8381 27V18.2727H43.2074V27H41.2244V19.9602H37.804V27H35.8381ZM49.1861 27.1705C48.3111 27.1705 47.5554 26.9886 46.919 26.625C46.2865 26.2576 45.7997 25.7386 45.4588 25.0682C45.1179 24.3939 44.9474 23.6004 44.9474 22.6875C44.9474 21.7898 45.1179 21.0019 45.4588 20.3239C45.8035 19.642 46.2846 19.1117 46.902 18.733C47.5194 18.3504 48.2448 18.1591 49.0781 18.1591C49.616 18.1591 50.1236 18.2462 50.6009 18.4205C51.0819 18.5909 51.5062 18.8561 51.8736 19.2159C52.2448 19.5758 52.5365 20.0341 52.7486 20.5909C52.9607 21.1439 53.0668 21.803 53.0668 22.5682V23.1989H45.9134V21.8125H51.0952C51.0914 21.4186 51.0062 21.0682 50.8395 20.7614C50.6728 20.4508 50.4399 20.2064 50.1406 20.0284C49.8452 19.8504 49.5005 19.7614 49.1065 19.7614C48.6861 19.7614 48.3168 19.8636 47.9986 20.0682C47.6804 20.2689 47.4323 20.5341 47.2543 20.8636C47.08 21.1894 46.991 21.5473 46.9872 21.9375V23.1477C46.9872 23.6553 47.08 24.0909 47.2656 24.4545C47.4512 24.8144 47.7107 25.0909 48.044 25.2841C48.3774 25.4735 48.7675 25.5682 49.2145 25.5682C49.5137 25.5682 49.7846 25.5265 50.027 25.4432C50.2694 25.3561 50.4796 25.2292 50.6577 25.0625C50.8357 24.8958 50.9702 24.6894 51.0611 24.4432L52.9815 24.6591C52.8603 25.1667 52.6293 25.6098 52.2884 25.9886C51.9512 26.3636 51.5194 26.6553 50.9929 26.8636C50.4664 27.0682 49.8641 27.1705 49.1861 27.1705ZM54.8068 30.2727V18.2727H56.8295V19.7159H56.9489C57.0549 19.5038 57.2045 19.2784 57.3977 19.0398C57.5909 18.7973 57.8523 18.5909 58.1818 18.4205C58.5114 18.2462 58.9318 18.1591 59.4432 18.1591C60.1174 18.1591 60.7254 18.3314 61.267 18.6761C61.8125 19.017 62.2443 19.5227 62.5625 20.1932C62.8845 20.8598 63.0455 21.678 63.0455 22.6477C63.0455 23.6061 62.8883 24.4205 62.5739 25.0909C62.2595 25.7614 61.8314 26.2727 61.2898 26.625C60.7481 26.9773 60.1345 27.1534 59.4489 27.1534C58.9489 27.1534 58.5341 27.0701 58.2045 26.9034C57.875 26.7367 57.6098 26.536 57.4091 26.3011C57.2121 26.0625 57.0587 25.8371 56.9489 25.625H56.8636V30.2727H54.8068ZM56.8239 22.6364C56.8239 23.2008 56.9034 23.6951 57.0625 24.1193C57.2254 24.5436 57.4583 24.875 57.7614 25.1136C58.0682 25.3485 58.4394 25.4659 58.875 25.4659C59.3295 25.4659 59.7102 25.3447 60.017 25.1023C60.3239 24.8561 60.5549 24.5208 60.7102 24.0966C60.8693 23.6686 60.9489 23.1818 60.9489 22.6364C60.9489 22.0947 60.8712 21.6136 60.7159 21.1932C60.5606 20.7727 60.3295 20.4432 60.0227 20.2045C59.7159 19.9659 59.3333 19.8466 58.875 19.8466C58.4356 19.8466 58.0625 19.9621 57.7557 20.1932C57.4489 20.4242 57.2159 20.7481 57.0568 21.1648C56.9015 21.5814 56.8239 22.072 56.8239 22.6364ZM66.1989 21.1136H68.7727C69.8864 21.1136 70.7481 21.3845 71.358 21.9261C71.9678 22.4678 72.2746 23.178 72.2784 24.0568C72.2746 24.6288 72.1345 25.1364 71.858 25.5795C71.5852 26.0227 71.1875 26.3712 70.6648 26.625C70.1458 26.875 69.5152 27 68.7727 27H64.8068V18.2727H66.7898V25.3125H68.7727C69.2197 25.3125 69.5871 25.1989 69.875 24.9716C70.1629 24.7405 70.3068 24.4451 70.3068 24.0852C70.3068 23.7064 70.1629 23.3977 69.875 23.1591C69.5871 22.9205 69.2197 22.8011 68.7727 22.8011H66.1989V21.1136ZM83.0327 24.608L85.6236 18.2727H87.2827L83.7543 27H82.3168L78.8679 18.2727H80.5099L83.0327 24.608ZM79.9929 18.2727V27H78.0099V18.2727H79.9929ZM86.1577 27V18.2727H88.1236V27H86.1577ZM91.5895 21.1136H94.1634C95.277 21.1136 96.1387 21.3845 96.7486 21.9261C97.3584 22.4678 97.6652 23.178 97.669 24.0568C97.6652 24.6288 97.5251 25.1364 97.2486 25.5795C96.9759 26.0227 96.5781 26.3712 96.0554 26.625C95.5365 26.875 94.9058 27 94.1634 27H90.1974V18.2727H92.1804V25.3125H94.1634C94.6103 25.3125 94.9777 25.1989 95.2656 24.9716C95.5535 24.7405 95.6974 24.4451 95.6974 24.0852C95.6974 23.7064 95.5535 23.3977 95.2656 23.1591C94.9777 22.9205 94.6103 22.8011 94.1634 22.8011H91.5895V21.1136ZM98.7543 27V18.2727H100.811V27H98.7543ZM110.707 27.1705C109.836 27.1705 109.088 26.9792 108.463 26.5966C107.842 26.214 107.363 25.6856 107.026 25.0114C106.692 24.3333 106.526 23.553 106.526 22.6705C106.526 21.7841 106.696 21.0019 107.037 20.3239C107.378 19.642 107.859 19.1117 108.48 18.733C109.105 18.3504 109.844 18.1591 110.696 18.1591C111.404 18.1591 112.031 18.2898 112.577 18.5511C113.126 18.8087 113.563 19.1742 113.889 19.6477C114.215 20.1174 114.401 20.6667 114.446 21.2955H112.48C112.401 20.875 112.211 20.5246 111.912 20.2443C111.616 19.9602 111.221 19.8182 110.724 19.8182C110.304 19.8182 109.935 19.9318 109.616 20.1591C109.298 20.3826 109.05 20.7045 108.872 21.125C108.698 21.5455 108.611 22.0492 108.611 22.6364C108.611 23.2311 108.698 23.7424 108.872 24.1705C109.046 24.5947 109.291 24.9223 109.605 25.1534C109.923 25.3807 110.296 25.4943 110.724 25.4943C111.027 25.4943 111.298 25.4375 111.537 25.3239C111.779 25.2064 111.982 25.0379 112.145 24.8182C112.308 24.5985 112.42 24.3314 112.48 24.017H114.446C114.397 24.6345 114.215 25.1818 113.901 25.6591C113.586 26.1326 113.158 26.5038 112.616 26.7727C112.075 27.0379 111.438 27.1705 110.707 27.1705ZM120.195 27V15.3636H127.678V17.1307H122.303V19.858H124.547C125.437 19.858 126.2 20.0038 126.837 20.2955C127.477 20.5833 127.967 20.9905 128.308 21.517C128.649 22.0436 128.82 22.6629 128.82 23.375C128.82 24.0909 128.649 24.7216 128.308 25.267C127.967 25.8087 127.477 26.233 126.837 26.5398C126.2 26.8466 125.437 27 124.547 27H120.195ZM122.303 25.2727H124.547C125.017 25.2727 125.414 25.1837 125.74 25.0057C126.066 24.8277 126.312 24.5928 126.479 24.3011C126.649 24.0095 126.734 23.6932 126.734 23.3523C126.734 22.8598 126.545 22.4413 126.166 22.0966C125.791 21.7481 125.251 21.5739 124.547 21.5739H122.303V25.2727ZM131.851 30.2727C131.571 30.2727 131.311 30.25 131.072 30.2045C130.838 30.1629 130.65 30.1136 130.51 30.0568L130.987 28.4545C131.286 28.5417 131.554 28.5833 131.788 28.5795C132.023 28.5758 132.23 28.5019 132.408 28.358C132.589 28.2178 132.743 27.983 132.868 27.6534L133.044 27.1818L129.879 18.2727H132.061L134.072 24.8636H134.163L136.18 18.2727H138.368L134.874 28.0568C134.711 28.5189 134.495 28.9148 134.226 29.2443C133.957 29.5777 133.627 29.8314 133.237 30.0057C132.851 30.1837 132.389 30.2727 131.851 30.2727ZM138.47 27L138.459 25.3068H138.76C138.987 25.3068 139.179 25.2557 139.334 25.1534C139.489 25.0511 139.618 24.8807 139.72 24.642C139.822 24.3996 139.902 24.0739 139.959 23.6648C140.016 23.2557 140.055 22.7462 140.078 22.1364L140.232 18.2727H146.595V27H144.607V19.9602H142.101L141.964 22.7727C141.93 23.5 141.849 24.1307 141.72 24.6648C141.595 25.1951 141.417 25.6326 141.186 25.9773C140.959 26.322 140.673 26.5795 140.328 26.75C139.983 26.9167 139.576 27 139.107 27H138.47ZM148.666 27V18.2727H150.723V21.7955H151.473L154.098 18.2727H156.575L153.342 22.5568L156.609 27H154.121L151.729 23.7102H150.723V27H148.666ZM161.223 27.1705C160.371 27.1705 159.632 26.983 159.007 26.608C158.382 26.233 157.897 25.7083 157.553 25.0341C157.212 24.3598 157.041 23.572 157.041 22.6705C157.041 21.7689 157.212 20.9792 157.553 20.3011C157.897 19.6231 158.382 19.0966 159.007 18.7216C159.632 18.3466 160.371 18.1591 161.223 18.1591C162.075 18.1591 162.814 18.3466 163.439 18.7216C164.064 19.0966 164.547 19.6231 164.888 20.3011C165.232 20.9792 165.405 21.7689 165.405 22.6705C165.405 23.572 165.232 24.3598 164.888 25.0341C164.547 25.7083 164.064 26.233 163.439 26.608C162.814 26.983 162.075 27.1705 161.223 27.1705ZM161.234 25.5227C161.696 25.5227 162.083 25.3958 162.393 25.142C162.704 24.8845 162.935 24.5398 163.087 24.108C163.242 23.6761 163.32 23.1951 163.32 22.6648C163.32 22.1307 163.242 21.6477 163.087 21.2159C162.935 20.7803 162.704 20.4337 162.393 20.1761C162.083 19.9186 161.696 19.7898 161.234 19.7898C160.761 19.7898 160.367 19.9186 160.053 20.1761C159.742 20.4337 159.509 20.7803 159.354 21.2159C159.202 21.6477 159.126 22.1307 159.126 22.6648C159.126 23.1951 159.202 23.6761 159.354 24.108C159.509 24.5398 159.742 24.8845 160.053 25.142C160.367 25.3958 160.761 25.5227 161.234 25.5227ZM169.134 24.2159L172.628 18.2727H174.741V27H172.753V21.0511L169.27 27H167.151V18.2727H169.134V24.2159ZM172.065 15.2727H173.605C173.605 15.9356 173.365 16.4735 172.884 16.8864C172.406 17.2955 171.759 17.5 170.94 17.5C170.13 17.5 169.484 17.2955 169.003 16.8864C168.526 16.4735 168.289 15.9356 168.293 15.2727H169.821C169.821 15.5455 169.904 15.7898 170.071 16.0057C170.241 16.2178 170.531 16.3239 170.94 16.3239C171.342 16.3239 171.628 16.2178 171.798 16.0057C171.973 15.7936 172.062 15.5492 172.065 15.2727ZM187.817 15.0455L188.533 16.375C188.279 16.5947 187.995 16.7538 187.68 16.8523C187.366 16.9508 186.997 17.0152 186.572 17.0455C186.152 17.072 185.652 17.0909 185.072 17.1023C184.421 17.1174 183.889 17.2405 183.476 17.4716C183.063 17.7027 182.747 18.053 182.527 18.5227C182.307 18.9886 182.163 19.5833 182.095 20.3068H182.192C182.464 19.7727 182.847 19.3655 183.339 19.0852C183.832 18.8049 184.41 18.6648 185.072 18.6648C185.796 18.6648 186.434 18.8277 186.987 19.1534C187.544 19.4754 187.978 19.9432 188.288 20.5568C188.603 21.1705 188.76 21.9129 188.76 22.7841C188.76 23.6818 188.591 24.4602 188.254 25.1193C187.917 25.7746 187.438 26.2803 186.817 26.6364C186.199 26.9924 185.466 27.1705 184.618 27.1705C183.773 27.1705 183.038 26.9867 182.413 26.6193C181.792 26.2481 181.311 25.7008 180.97 24.9773C180.633 24.25 180.464 23.3542 180.464 22.2898V21.5057C180.464 19.4527 180.847 17.9205 181.612 16.9091C182.377 15.8977 183.512 15.3826 185.016 15.3636C185.463 15.3561 185.862 15.3542 186.214 15.358C186.571 15.3617 186.881 15.3447 187.146 15.3068C187.411 15.2689 187.635 15.1818 187.817 15.0455ZM184.629 25.5227C185.05 25.5227 185.413 25.4148 185.72 25.1989C186.027 24.9792 186.262 24.6686 186.425 24.267C186.591 23.8655 186.675 23.3902 186.675 22.8409C186.675 22.2992 186.591 21.839 186.425 21.4602C186.258 21.0777 186.021 20.786 185.714 20.5852C185.408 20.3845 185.042 20.2841 184.618 20.2841C184.3 20.2841 184.014 20.3409 183.76 20.4545C183.506 20.5682 183.29 20.7348 183.112 20.9545C182.934 21.1742 182.798 21.4413 182.703 21.7557C182.608 22.0701 182.557 22.4318 182.55 22.8409C182.55 23.6629 182.735 24.3163 183.107 24.8011C183.478 25.2822 183.985 25.5227 184.629 25.5227ZM191.788 30.2727C191.508 30.2727 191.249 30.25 191.01 30.2045C190.775 30.1629 190.588 30.1136 190.447 30.0568L190.925 28.4545C191.224 28.5417 191.491 28.5833 191.726 28.5795C191.961 28.5758 192.167 28.5019 192.345 28.358C192.527 28.2178 192.68 27.983 192.805 27.6534L192.982 27.1818L189.817 18.2727H191.999L194.01 24.8636H194.101L196.118 18.2727H198.305L194.811 28.0568C194.648 28.5189 194.432 28.9148 194.163 29.2443C193.894 29.5777 193.565 29.8314 193.175 30.0057C192.788 30.1837 192.326 30.2727 191.788 30.2727ZM198.237 29.5341V25.3068H198.93C199.116 25.1629 199.271 24.9678 199.396 24.7216C199.521 24.4716 199.624 24.178 199.703 23.8409C199.786 23.5 199.855 23.1193 199.908 22.6989C199.961 22.2746 200.008 21.8182 200.05 21.3295L200.3 18.2727H206.607V25.3068H207.959V29.5341H205.97V27H200.26V29.5341H198.237ZM201.044 25.3068H204.641V19.9318H202.084L201.947 21.3295C201.872 22.2538 201.771 23.0455 201.646 23.7045C201.521 24.3636 201.321 24.8977 201.044 25.3068ZM213.358 27.1705C212.483 27.1705 211.727 26.9886 211.091 26.625C210.458 26.2576 209.972 25.7386 209.631 25.0682C209.29 24.3939 209.119 23.6004 209.119 22.6875C209.119 21.7898 209.29 21.0019 209.631 20.3239C209.975 19.642 210.456 19.1117 211.074 18.733C211.691 18.3504 212.417 18.1591 213.25 18.1591C213.788 18.1591 214.295 18.2462 214.773 18.4205C215.254 18.5909 215.678 18.8561 216.045 19.2159C216.417 19.5758 216.708 20.0341 216.92 20.5909C217.133 21.1439 217.239 21.803 217.239 22.5682V23.1989H210.085V21.8125H215.267C215.263 21.4186 215.178 21.0682 215.011 20.7614C214.845 20.4508 214.612 20.2064 214.312 20.0284C214.017 19.8504 213.672 19.7614 213.278 19.7614C212.858 19.7614 212.489 19.8636 212.17 20.0682C211.852 20.2689 211.604 20.5341 211.426 20.8636C211.252 21.1894 211.163 21.5473 211.159 21.9375V23.1477C211.159 23.6553 211.252 24.0909 211.438 24.4545C211.623 24.8144 211.883 25.0909 212.216 25.2841C212.549 25.4735 212.939 25.5682 213.386 25.5682C213.686 25.5682 213.956 25.5265 214.199 25.4432C214.441 25.3561 214.652 25.2292 214.83 25.0625C215.008 24.8958 215.142 24.6894 215.233 24.4432L217.153 24.6591C217.032 25.1667 216.801 25.6098 216.46 25.9886C216.123 26.3636 215.691 26.6553 215.165 26.8636C214.638 27.0682 214.036 27.1705 213.358 27.1705ZM224.001 24.608L226.592 18.2727H228.251L224.723 27H223.286L219.837 18.2727H221.479L224.001 24.608ZM220.962 18.2727V27H218.979V18.2727H220.962ZM227.126 27V18.2727H229.092V27H227.126ZM234.652 24.608H236.692C236.711 24.9337 236.857 25.1856 237.129 25.3636C237.402 25.5417 237.756 25.6307 238.192 25.6307C238.635 25.6307 239.008 25.5341 239.311 25.3409C239.618 25.1439 239.771 24.8466 239.771 24.4489C239.771 24.214 239.713 24.0076 239.595 23.8295C239.478 23.6477 239.313 23.5076 239.101 23.4091C238.889 23.3106 238.639 23.2614 238.351 23.2614H237.016V21.8011H238.351C238.779 21.8011 239.103 21.7027 239.322 21.5057C239.546 21.3087 239.658 21.0606 239.658 20.7614C239.658 20.4394 239.54 20.178 239.305 19.9773C239.074 19.7765 238.754 19.6761 238.345 19.6761C237.936 19.6761 237.595 19.7689 237.322 19.9545C237.054 20.1402 236.913 20.3788 236.902 20.6705H234.874C234.881 20.1629 235.033 19.7216 235.328 19.3466C235.627 18.9716 236.029 18.6799 236.533 18.4716C237.04 18.2633 237.612 18.1591 238.249 18.1591C238.93 18.1591 239.519 18.2614 240.016 18.4659C240.512 18.6705 240.894 18.9564 241.163 19.3239C241.432 19.6875 241.567 20.1155 241.567 20.608C241.567 21.0814 241.419 21.4735 241.124 21.7841C240.828 22.0909 240.43 22.3106 239.93 22.4432V22.5341C240.275 22.553 240.586 22.6515 240.862 22.8295C241.139 23.0038 241.358 23.2405 241.521 23.5398C241.684 23.839 241.766 24.1856 241.766 24.5795C241.766 25.1136 241.612 25.5758 241.305 25.9659C240.999 26.3523 240.576 26.6496 240.038 26.858C239.504 27.0663 238.893 27.1705 238.203 27.1705C237.533 27.1705 236.932 27.0701 236.402 26.8693C235.875 26.6648 235.457 26.3712 235.146 25.9886C234.836 25.6061 234.671 25.1458 234.652 24.608ZM242.612 29.5341V25.3068H243.305C243.491 25.1629 243.646 24.9678 243.771 24.7216C243.896 24.4716 243.999 24.178 244.078 23.8409C244.161 23.5 244.23 23.1193 244.283 22.6989C244.336 22.2746 244.383 21.8182 244.425 21.3295L244.675 18.2727H250.982V25.3068H252.334V29.5341H250.345V27H244.635V29.5341H242.612ZM245.419 25.3068H249.016V19.9318H246.459L246.322 21.3295C246.247 22.2538 246.146 23.0455 246.021 23.7045C245.896 24.3636 245.696 24.8977 245.419 25.3068ZM257.733 27.1705C256.858 27.1705 256.102 26.9886 255.466 26.625C254.833 26.2576 254.347 25.7386 254.006 25.0682C253.665 24.3939 253.494 23.6004 253.494 22.6875C253.494 21.7898 253.665 21.0019 254.006 20.3239C254.35 19.642 254.831 19.1117 255.449 18.733C256.066 18.3504 256.792 18.1591 257.625 18.1591C258.163 18.1591 258.67 18.2462 259.148 18.4205C259.629 18.5909 260.053 18.8561 260.42 19.2159C260.792 19.5758 261.083 20.0341 261.295 20.5909C261.508 21.1439 261.614 21.803 261.614 22.5682V23.1989H254.46V21.8125H259.642C259.638 21.4186 259.553 21.0682 259.386 20.7614C259.22 20.4508 258.987 20.2064 258.688 20.0284C258.392 19.8504 258.047 19.7614 257.653 19.7614C257.233 19.7614 256.864 19.8636 256.545 20.0682C256.227 20.2689 255.979 20.5341 255.801 20.8636C255.627 21.1894 255.538 21.5473 255.534 21.9375V23.1477C255.534 23.6553 255.627 24.0909 255.812 24.4545C255.998 24.8144 256.258 25.0909 256.591 25.2841C256.924 25.4735 257.314 25.5682 257.761 25.5682C258.061 25.5682 258.331 25.5265 258.574 25.4432C258.816 25.3561 259.027 25.2292 259.205 25.0625C259.383 24.8958 259.517 24.6894 259.608 24.4432L261.528 24.6591C261.407 25.1667 261.176 25.6098 260.835 25.9886C260.498 26.3636 260.066 26.6553 259.54 26.8636C259.013 27.0682 258.411 27.1705 257.733 27.1705ZM267.161 27.1705C266.289 27.1705 265.541 26.9792 264.916 26.5966C264.295 26.214 263.816 25.6856 263.479 25.0114C263.145 24.3333 262.979 23.553 262.979 22.6705C262.979 21.7841 263.149 21.0019 263.49 20.3239C263.831 19.642 264.312 19.1117 264.933 18.733C265.558 18.3504 266.297 18.1591 267.149 18.1591C267.857 18.1591 268.484 18.2898 269.03 18.5511C269.579 18.8087 270.017 19.1742 270.342 19.6477C270.668 20.1174 270.854 20.6667 270.899 21.2955H268.933C268.854 20.875 268.664 20.5246 268.365 20.2443C268.07 19.9602 267.674 19.8182 267.178 19.8182C266.757 19.8182 266.388 19.9318 266.07 20.1591C265.751 20.3826 265.503 20.7045 265.325 21.125C265.151 21.5455 265.064 22.0492 265.064 22.6364C265.064 23.2311 265.151 23.7424 265.325 24.1705C265.5 24.5947 265.744 24.9223 266.058 25.1534C266.376 25.3807 266.75 25.4943 267.178 25.4943C267.481 25.4943 267.751 25.4375 267.99 25.3239C268.232 25.2064 268.435 25.0379 268.598 24.8182C268.761 24.5985 268.873 24.3314 268.933 24.017H270.899C270.85 24.6345 270.668 25.1818 270.354 25.6591C270.039 26.1326 269.611 26.5038 269.07 26.7727C268.528 27.0379 267.892 27.1705 267.161 27.1705ZM273.98 21.1136H276.554C277.668 21.1136 278.529 21.3845 279.139 21.9261C279.749 22.4678 280.056 23.178 280.06 24.0568C280.056 24.6288 279.916 25.1364 279.639 25.5795C279.366 26.0227 278.969 26.3712 278.446 26.625C277.927 26.875 277.296 27 276.554 27H272.588V18.2727H274.571V25.3125H276.554C277.001 25.3125 277.368 25.1989 277.656 24.9716C277.944 24.7405 278.088 24.4451 278.088 24.0852C278.088 23.7064 277.944 23.3977 277.656 23.1591C277.368 22.9205 277.001 22.8011 276.554 22.8011H273.98V21.1136ZM16.5795 38.9602V37.2727H24.2159V38.9602H21.392V46H19.4034V38.9602H16.5795ZM25.8537 49.2727V37.2727H27.8764V38.7159H27.9957C28.1018 38.5038 28.2514 38.2784 28.4446 38.0398C28.6378 37.7973 28.8991 37.5909 29.2287 37.4205C29.5582 37.2462 29.9787 37.1591 30.4901 37.1591C31.1643 37.1591 31.7723 37.3314 32.3139 37.6761C32.8594 38.017 33.2912 38.5227 33.6094 39.1932C33.9313 39.8598 34.0923 40.678 34.0923 41.6477C34.0923 42.6061 33.9351 43.4205 33.6207 44.0909C33.3063 44.7614 32.8783 45.2727 32.3366 45.625C31.795 45.9773 31.1813 46.1534 30.4957 46.1534C29.9957 46.1534 29.581 46.0701 29.2514 45.9034C28.9219 45.7367 28.6567 45.536 28.456 45.3011C28.259 45.0625 28.1056 44.8371 27.9957 44.625H27.9105V49.2727H25.8537ZM27.8707 41.6364C27.8707 42.2008 27.9503 42.6951 28.1094 43.1193C28.2723 43.5436 28.5052 43.875 28.8082 44.1136C29.1151 44.3485 29.4863 44.4659 29.9219 44.4659C30.3764 44.4659 30.7571 44.3447 31.0639 44.1023C31.3707 43.8561 31.6018 43.5208 31.7571 43.0966C31.9162 42.6686 31.9957 42.1818 31.9957 41.6364C31.9957 41.0947 31.9181 40.6136 31.7628 40.1932C31.6075 39.7727 31.3764 39.4432 31.0696 39.2045C30.7628 38.9659 30.3802 38.8466 29.9219 38.8466C29.4825 38.8466 29.1094 38.9621 28.8026 39.1932C28.4957 39.4242 28.2628 39.7481 28.1037 40.1648C27.9484 40.5814 27.8707 41.072 27.8707 41.6364ZM39.7173 46.1705C38.8423 46.1705 38.0866 45.9886 37.4503 45.625C36.8177 45.2576 36.331 44.7386 35.9901 44.0682C35.6491 43.3939 35.4787 42.6004 35.4787 41.6875C35.4787 40.7898 35.6491 40.0019 35.9901 39.3239C36.3348 38.642 36.8158 38.1117 37.4332 37.733C38.0507 37.3504 38.776 37.1591 39.6094 37.1591C40.1473 37.1591 40.6548 37.2462 41.1321 37.4205C41.6132 37.5909 42.0374 37.8561 42.4048 38.2159C42.776 38.5758 43.0677 39.0341 43.2798 39.5909C43.492 40.1439 43.598 40.803 43.598 41.5682V42.1989H36.4446V40.8125H41.6264C41.6226 40.4186 41.5374 40.0682 41.3707 39.7614C41.2041 39.4508 40.9711 39.2064 40.6719 39.0284C40.3764 38.8504 40.0317 38.7614 39.6378 38.7614C39.2173 38.7614 38.848 38.8636 38.5298 39.0682C38.2116 39.2689 37.9635 39.5341 37.7855 39.8636C37.6113 40.1894 37.5223 40.5473 37.5185 40.9375V42.1477C37.5185 42.6553 37.6113 43.0909 37.7969 43.4545C37.9825 43.8144 38.242 44.0909 38.5753 44.2841C38.9086 44.4735 39.2988 44.5682 39.7457 44.5682C40.045 44.5682 40.3158 44.5265 40.5582 44.4432C40.8007 44.3561 41.0109 44.2292 41.1889 44.0625C41.367 43.8958 41.5014 43.6894 41.5923 43.4432L43.5128 43.6591C43.3916 44.1667 43.1605 44.6098 42.8196 44.9886C42.4825 45.3636 42.0507 45.6553 41.5241 45.8636C40.9976 46.0682 40.3954 46.1705 39.7173 46.1705ZM51.3324 40.7841V42.4716H46.6847V40.7841H51.3324ZM47.321 37.2727V46H45.3381V37.2727H47.321ZM52.679 37.2727V46H50.7017V37.2727H52.679ZM56.7429 43.2159L60.2372 37.2727H62.3509V46H60.3622V40.0511L56.8793 46H54.7599V37.2727H56.7429V43.2159ZM64.4631 49.2727V37.2727H66.4858V38.7159H66.6051C66.7112 38.5038 66.8608 38.2784 67.054 38.0398C67.2472 37.7973 67.5085 37.5909 67.8381 37.4205C68.1676 37.2462 68.5881 37.1591 69.0994 37.1591C69.7737 37.1591 70.3816 37.3314 70.9233 37.6761C71.4688 38.017 71.9006 38.5227 72.2188 39.1932C72.5407 39.8598 72.7017 40.678 72.7017 41.6477C72.7017 42.6061 72.5445 43.4205 72.2301 44.0909C71.9157 44.7614 71.4877 45.2727 70.946 45.625C70.4044 45.9773 69.7907 46.1534 69.1051 46.1534C68.6051 46.1534 68.1903 46.0701 67.8608 45.9034C67.5313 45.7367 67.2661 45.536 67.0653 45.3011C66.8684 45.0625 66.715 44.8371 66.6051 44.625H66.5199V49.2727H64.4631ZM66.4801 41.6364C66.4801 42.2008 66.5597 42.6951 66.7188 43.1193C66.8816 43.5436 67.1146 43.875 67.4176 44.1136C67.7244 44.3485 68.0956 44.4659 68.5312 44.4659C68.9858 44.4659 69.3665 44.3447 69.6733 44.1023C69.9801 43.8561 70.2112 43.5208 70.3665 43.0966C70.5256 42.6686 70.6051 42.1818 70.6051 41.6364C70.6051 41.0947 70.5275 40.6136 70.3722 40.1932C70.2169 39.7727 69.9858 39.4432 69.679 39.2045C69.3722 38.9659 68.9896 38.8466 68.5312 38.8466C68.0919 38.8466 67.7188 38.9621 67.4119 39.1932C67.1051 39.4242 66.8722 39.7481 66.7131 40.1648C66.5578 40.5814 66.4801 41.072 66.4801 41.6364ZM78.2699 46.1705C77.4176 46.1705 76.679 45.983 76.054 45.608C75.429 45.233 74.9441 44.7083 74.5994 44.0341C74.2585 43.3598 74.0881 42.572 74.0881 41.6705C74.0881 40.7689 74.2585 39.9792 74.5994 39.3011C74.9441 38.6231 75.429 38.0966 76.054 37.7216C76.679 37.3466 77.4176 37.1591 78.2699 37.1591C79.1222 37.1591 79.8608 37.3466 80.4858 37.7216C81.1108 38.0966 81.5938 38.6231 81.9347 39.3011C82.2794 39.9792 82.4517 40.7689 82.4517 41.6705C82.4517 42.572 82.2794 43.3598 81.9347 44.0341C81.5938 44.7083 81.1108 45.233 80.4858 45.608C79.8608 45.983 79.1222 46.1705 78.2699 46.1705ZM78.2812 44.5227C78.7434 44.5227 79.1297 44.3958 79.4403 44.142C79.7509 43.8845 79.982 43.5398 80.1335 43.108C80.2888 42.6761 80.3665 42.1951 80.3665 41.6648C80.3665 41.1307 80.2888 40.6477 80.1335 40.2159C79.982 39.7803 79.7509 39.4337 79.4403 39.1761C79.1297 38.9186 78.7434 38.7898 78.2812 38.7898C77.8078 38.7898 77.4138 38.9186 77.0994 39.1761C76.7888 39.4337 76.5559 39.7803 76.4006 40.2159C76.2491 40.6477 76.1733 41.1307 76.1733 41.6648C76.1733 42.1951 76.2491 42.6761 76.4006 43.108C76.5559 43.5398 76.7888 43.8845 77.0994 44.142C77.4138 44.3958 77.8078 44.5227 78.2812 44.5227ZM84.1974 46V37.2727H87.8622C88.8963 37.2727 89.7126 37.4792 90.3111 37.892C90.9134 38.3049 91.2145 38.8807 91.2145 39.6193C91.2145 40.108 91.044 40.5076 90.7031 40.8182C90.366 41.125 89.9058 41.3314 89.3224 41.4375C89.7808 41.4754 90.1823 41.5909 90.527 41.7841C90.8755 41.9773 91.1482 42.2311 91.3452 42.5455C91.5421 42.8598 91.6406 43.2216 91.6406 43.6307C91.6406 44.1117 91.5137 44.5303 91.2599 44.8864C91.0099 45.2386 90.6444 45.5133 90.1634 45.7102C89.6861 45.9034 89.1065 46 88.4247 46H84.1974ZM86.1236 44.3807H88.4247C88.8035 44.3807 89.1009 44.2917 89.3168 44.1136C89.5327 43.9318 89.6406 43.6856 89.6406 43.375C89.6406 43.0152 89.5327 42.733 89.3168 42.5284C89.1009 42.3201 88.8035 42.2159 88.4247 42.2159H86.1236V44.3807ZM86.1236 40.8864H87.902C88.1823 40.8864 88.4228 40.8466 88.6236 40.767C88.8243 40.6837 88.9777 40.5682 89.0838 40.4205C89.1899 40.2689 89.2429 40.089 89.2429 39.8807C89.2429 39.5814 89.1198 39.3466 88.8736 39.1761C88.6312 39.0057 88.294 38.9205 87.8622 38.9205H86.1236V40.8864ZM95.8494 46.1761C95.2964 46.1761 94.7983 46.0777 94.3551 45.8807C93.9157 45.6799 93.5672 45.3845 93.3097 44.9943C93.0559 44.6042 92.929 44.1231 92.929 43.5511C92.929 43.0587 93.0199 42.6515 93.2017 42.3295C93.3835 42.0076 93.6316 41.75 93.946 41.5568C94.2604 41.3636 94.6146 41.2178 95.0085 41.1193C95.4063 41.017 95.8172 40.9432 96.2415 40.8977C96.7528 40.8447 97.1676 40.7973 97.4858 40.7557C97.804 40.7102 98.035 40.642 98.179 40.5511C98.3267 40.4564 98.4006 40.3106 98.4006 40.1136V40.0795C98.4006 39.6515 98.2737 39.3201 98.0199 39.0852C97.7661 38.8504 97.4006 38.733 96.9233 38.733C96.4195 38.733 96.0199 38.8428 95.7244 39.0625C95.4328 39.2822 95.2358 39.5417 95.1335 39.8409L93.2131 39.5682C93.3646 39.0379 93.6146 38.5947 93.9631 38.2386C94.3116 37.8788 94.7377 37.6098 95.2415 37.4318C95.7453 37.25 96.3021 37.1591 96.9119 37.1591C97.3324 37.1591 97.7509 37.2083 98.1676 37.3068C98.5843 37.4053 98.965 37.5682 99.3097 37.7955C99.6544 38.0189 99.9309 38.3239 100.139 38.7102C100.351 39.0966 100.457 39.5795 100.457 40.1591V46H98.4801V44.8011H98.4119C98.2869 45.0436 98.1108 45.2708 97.8835 45.483C97.66 45.6913 97.3778 45.8598 97.0369 45.9886C96.6998 46.1136 96.304 46.1761 95.8494 46.1761ZM96.3835 44.6648C96.7964 44.6648 97.1544 44.5833 97.4574 44.4205C97.7604 44.2538 97.9934 44.0341 98.1562 43.7614C98.3229 43.4886 98.4062 43.1913 98.4062 42.8693V41.8409C98.3419 41.8939 98.232 41.9432 98.0767 41.9886C97.9252 42.0341 97.7547 42.0739 97.5653 42.108C97.3759 42.142 97.1884 42.1723 97.0028 42.1989C96.8172 42.2254 96.6563 42.2481 96.5199 42.267C96.2131 42.3087 95.9384 42.3769 95.696 42.4716C95.4536 42.5663 95.2623 42.6989 95.1222 42.8693C94.982 43.036 94.9119 43.2519 94.9119 43.517C94.9119 43.8958 95.0502 44.1818 95.3267 44.375C95.6032 44.5682 95.9555 44.6648 96.3835 44.6648ZM101.548 38.9602V37.2727H109.185V38.9602H106.361V46H104.372V38.9602H101.548ZM112.214 40.1136H114.788C115.902 40.1136 116.764 40.3845 117.374 40.9261C117.983 41.4678 118.29 42.178 118.294 43.0568C118.29 43.6288 118.15 44.1364 117.874 44.5795C117.601 45.0227 117.203 45.3712 116.68 45.625C116.161 45.875 115.531 46 114.788 46H110.822V37.2727H112.805V44.3125H114.788C115.235 44.3125 115.603 44.1989 115.891 43.9716C116.179 43.7405 116.322 43.4451 116.322 43.0852C116.322 42.7064 116.179 42.3977 115.891 42.1591C115.603 41.9205 115.235 41.8011 114.788 41.8011H112.214V40.1136ZM123.864 46.1705C122.992 46.1705 122.244 45.9792 121.619 45.5966C120.998 45.214 120.519 44.6856 120.182 44.0114C119.848 43.3333 119.682 42.553 119.682 41.6705C119.682 40.7841 119.852 40.0019 120.193 39.3239C120.534 38.642 121.015 38.1117 121.636 37.733C122.261 37.3504 123 37.1591 123.852 37.1591C124.561 37.1591 125.188 37.2898 125.733 37.5511C126.282 37.8087 126.72 38.1742 127.045 38.6477C127.371 39.1174 127.557 39.6667 127.602 40.2955H125.636C125.557 39.875 125.367 39.5246 125.068 39.2443C124.773 38.9602 124.377 38.8182 123.881 38.8182C123.46 38.8182 123.091 38.9318 122.773 39.1591C122.455 39.3826 122.206 39.7045 122.028 40.125C121.854 40.5455 121.767 41.0492 121.767 41.6364C121.767 42.2311 121.854 42.7424 122.028 43.1705C122.203 43.5947 122.447 43.9223 122.761 44.1534C123.08 44.3807 123.453 44.4943 123.881 44.4943C124.184 44.4943 124.455 44.4375 124.693 44.3239C124.936 44.2064 125.138 44.0379 125.301 43.8182C125.464 43.5985 125.576 43.3314 125.636 43.017H127.602C127.553 43.6345 127.371 44.1818 127.057 44.6591C126.742 45.1326 126.314 45.5038 125.773 45.7727C125.231 46.0379 124.595 46.1705 123.864 46.1705ZM134.45 46V38.9432H132.587C132.113 38.9432 131.75 39.053 131.496 39.2727C131.242 39.4924 131.117 39.7652 131.121 40.0909C131.117 40.4167 131.236 40.6856 131.479 40.8977C131.721 41.1098 132.068 41.2159 132.518 41.2159H135.098V42.7159H132.518C131.821 42.7159 131.219 42.6061 130.712 42.3864C130.204 42.1667 129.814 41.8561 129.541 41.4545C129.268 41.053 129.132 40.5833 129.132 40.0455C129.132 39.4848 129.27 38.9981 129.547 38.5852C129.827 38.1686 130.225 37.8466 130.74 37.6193C131.259 37.3883 131.875 37.2727 132.587 37.2727H136.376V46H134.45ZM128.814 46L131.251 41.5227H133.28L130.837 46H128.814ZM142.416 46V37.2727H144.473V40.7955H145.223L147.848 37.2727H150.325L147.092 41.5568L150.359 46H147.871L145.479 42.7102H144.473V46H142.416ZM155.494 46V37.2727H159.159C160.193 37.2727 161.009 37.4792 161.608 37.892C162.21 38.3049 162.511 38.8807 162.511 39.6193C162.511 40.108 162.341 40.5076 162 40.8182C161.663 41.125 161.203 41.3314 160.619 41.4375C161.078 41.4754 161.479 41.5909 161.824 41.7841C162.172 41.9773 162.445 42.2311 162.642 42.5455C162.839 42.8598 162.938 43.2216 162.938 43.6307C162.938 44.1117 162.811 44.5303 162.557 44.8864C162.307 45.2386 161.941 45.5133 161.46 45.7102C160.983 45.9034 160.403 46 159.722 46H155.494ZM157.42 44.3807H159.722C160.1 44.3807 160.398 44.2917 160.614 44.1136C160.83 43.9318 160.938 43.6856 160.938 43.375C160.938 43.0152 160.83 42.733 160.614 42.5284C160.398 42.3201 160.1 42.2159 159.722 42.2159H157.42V44.3807ZM157.42 40.8864H159.199C159.479 40.8864 159.72 40.8466 159.92 40.767C160.121 40.6837 160.275 40.5682 160.381 40.4205C160.487 40.2689 160.54 40.089 160.54 39.8807C160.54 39.5814 160.417 39.3466 160.17 39.1761C159.928 39.0057 159.591 38.9205 159.159 38.9205H157.42V40.8864ZM166.027 40.1136H168.601C169.714 40.1136 170.576 40.3845 171.186 40.9261C171.796 41.4678 172.103 42.178 172.107 43.0568C172.103 43.6288 171.963 44.1364 171.686 44.5795C171.413 45.0227 171.016 45.3712 170.493 45.625C169.974 45.875 169.343 46 168.601 46H164.635V37.2727H166.618V44.3125H168.601C169.048 44.3125 169.415 44.1989 169.703 43.9716C169.991 43.7405 170.135 43.4451 170.135 43.0852C170.135 42.7064 169.991 42.3977 169.703 42.1591C169.415 41.9205 169.048 41.8011 168.601 41.8011H166.027V40.1136ZM173.192 46V37.2727H175.249V46H173.192ZM181.176 46.1705C180.305 46.1705 179.557 45.9792 178.932 45.5966C178.311 45.214 177.831 44.6856 177.494 44.0114C177.161 43.3333 176.994 42.553 176.994 41.6705C176.994 40.7841 177.165 40.0019 177.506 39.3239C177.847 38.642 178.328 38.1117 178.949 37.733C179.574 37.3504 180.313 37.1591 181.165 37.1591C181.873 37.1591 182.5 37.2898 183.045 37.5511C183.595 37.8087 184.032 38.1742 184.358 38.6477C184.684 39.1174 184.869 39.6667 184.915 40.2955H182.949C182.869 39.875 182.68 39.5246 182.381 39.2443C182.085 38.9602 181.689 38.8182 181.193 38.8182C180.773 38.8182 180.403 38.9318 180.085 39.1591C179.767 39.3826 179.519 39.7045 179.341 40.125C179.167 40.5455 179.08 41.0492 179.08 41.6364C179.08 42.2311 179.167 42.7424 179.341 43.1705C179.515 43.5947 179.759 43.9223 180.074 44.1534C180.392 44.3807 180.765 44.4943 181.193 44.4943C181.496 44.4943 181.767 44.4375 182.006 44.3239C182.248 44.2064 182.451 44.0379 182.614 43.8182C182.777 43.5985 182.888 43.3314 182.949 43.017H184.915C184.866 43.6345 184.684 44.1818 184.369 44.6591C184.055 45.1326 183.627 45.5038 183.085 45.7727C182.544 46.0379 181.907 46.1705 181.176 46.1705ZM185.97 38.9602V37.2727H193.607V38.9602H190.783V46H188.794V38.9602H185.97ZM197.396 46.1761C196.843 46.1761 196.345 46.0777 195.902 45.8807C195.463 45.6799 195.114 45.3845 194.857 44.9943C194.603 44.6042 194.476 44.1231 194.476 43.5511C194.476 43.0587 194.567 42.6515 194.749 42.3295C194.93 42.0076 195.179 41.75 195.493 41.5568C195.807 41.3636 196.161 41.2178 196.555 41.1193C196.953 41.017 197.364 40.9432 197.788 40.8977C198.3 40.8447 198.714 40.7973 199.033 40.7557C199.351 40.7102 199.582 40.642 199.726 40.5511C199.874 40.4564 199.947 40.3106 199.947 40.1136V40.0795C199.947 39.6515 199.821 39.3201 199.567 39.0852C199.313 38.8504 198.947 38.733 198.47 38.733C197.966 38.733 197.567 38.8428 197.271 39.0625C196.98 39.2822 196.783 39.5417 196.68 39.8409L194.76 39.5682C194.911 39.0379 195.161 38.5947 195.51 38.2386C195.858 37.8788 196.285 37.6098 196.788 37.4318C197.292 37.25 197.849 37.1591 198.459 37.1591C198.879 37.1591 199.298 37.2083 199.714 37.3068C200.131 37.4053 200.512 37.5682 200.857 37.7955C201.201 38.0189 201.478 38.3239 201.686 38.7102C201.898 39.0966 202.004 39.5795 202.004 40.1591V46H200.027V44.8011H199.959C199.834 45.0436 199.658 45.2708 199.43 45.483C199.207 45.6913 198.925 45.8598 198.584 45.9886C198.247 46.1136 197.851 46.1761 197.396 46.1761ZM197.93 44.6648C198.343 44.6648 198.701 44.5833 199.004 44.4205C199.307 44.2538 199.54 44.0341 199.703 43.7614C199.87 43.4886 199.953 43.1913 199.953 42.8693V41.8409C199.889 41.8939 199.779 41.9432 199.624 41.9886C199.472 42.0341 199.302 42.0739 199.112 42.108C198.923 42.142 198.735 42.1723 198.55 42.1989C198.364 42.2254 198.203 42.2481 198.067 42.267C197.76 42.3087 197.485 42.3769 197.243 42.4716C197 42.5663 196.809 42.6989 196.669 42.8693C196.529 43.036 196.459 43.2519 196.459 43.517C196.459 43.8958 196.597 44.1818 196.874 44.375C197.15 44.5682 197.502 44.6648 197.93 44.6648ZM204.072 46V37.2727H207.737C208.771 37.2727 209.588 37.4792 210.186 37.892C210.788 38.3049 211.089 38.8807 211.089 39.6193C211.089 40.108 210.919 40.5076 210.578 40.8182C210.241 41.125 209.781 41.3314 209.197 41.4375C209.656 41.4754 210.057 41.5909 210.402 41.7841C210.75 41.9773 211.023 42.2311 211.22 42.5455C211.417 42.8598 211.516 43.2216 211.516 43.6307C211.516 44.1117 211.389 44.5303 211.135 44.8864C210.885 45.2386 210.519 45.5133 210.038 45.7102C209.561 45.9034 208.982 46 208.3 46H204.072ZM205.999 44.3807H208.3C208.679 44.3807 208.976 44.2917 209.192 44.1136C209.408 43.9318 209.516 43.6856 209.516 43.375C209.516 43.0152 209.408 42.733 209.192 42.5284C208.976 42.3201 208.679 42.2159 208.3 42.2159H205.999V44.3807ZM205.999 40.8864H207.777C208.057 40.8864 208.298 40.8466 208.499 40.767C208.699 40.6837 208.853 40.5682 208.959 40.4205C209.065 40.2689 209.118 40.089 209.118 39.8807C209.118 39.5814 208.995 39.3466 208.749 39.1761C208.506 39.0057 208.169 38.9205 207.737 38.9205H205.999V40.8864ZM213.213 46V37.2727H215.27V40.7955H216.02L218.645 37.2727H221.122L217.889 41.5568L221.156 46H218.668L216.276 42.7102H215.27V46H213.213ZM225.827 46.1705C224.952 46.1705 224.196 45.9886 223.56 45.625C222.927 45.2576 222.44 44.7386 222.099 44.0682C221.759 43.3939 221.588 42.6004 221.588 41.6875C221.588 40.7898 221.759 40.0019 222.099 39.3239C222.444 38.642 222.925 38.1117 223.543 37.733C224.16 37.3504 224.885 37.1591 225.719 37.1591C226.257 37.1591 226.764 37.2462 227.241 37.4205C227.723 37.5909 228.147 37.8561 228.514 38.2159C228.885 38.5758 229.177 39.0341 229.389 39.5909C229.601 40.1439 229.707 40.803 229.707 41.5682V42.1989H222.554V40.8125H227.736C227.732 40.4186 227.647 40.0682 227.48 39.7614C227.313 39.4508 227.08 39.2064 226.781 39.0284C226.486 38.8504 226.141 38.7614 225.747 38.7614C225.327 38.7614 224.957 38.8636 224.639 39.0682C224.321 39.2689 224.073 39.5341 223.895 39.8636C223.721 40.1894 223.632 40.5473 223.628 40.9375V42.1477C223.628 42.6553 223.721 43.0909 223.906 43.4545C224.092 43.8144 224.351 44.0909 224.685 44.2841C225.018 44.4735 225.408 44.5682 225.855 44.5682C226.154 44.5682 226.425 44.5265 226.668 44.4432C226.91 44.3561 227.12 44.2292 227.298 44.0625C227.476 43.8958 227.611 43.6894 227.702 43.4432L229.622 43.6591C229.501 44.1667 229.27 44.6098 228.929 44.9886C228.592 45.3636 228.16 45.6553 227.634 45.8636C227.107 46.0682 226.505 46.1705 225.827 46.1705ZM233.964 34.3636L233.777 42.5795H231.947L231.766 34.3636H233.964ZM232.862 46.125C232.518 46.125 232.222 46.0038 231.976 45.7614C231.733 45.5189 231.612 45.2235 231.612 44.875C231.612 44.5341 231.733 44.2424 231.976 44C232.222 43.7576 232.518 43.6364 232.862 43.6364C233.199 43.6364 233.491 43.7576 233.737 44C233.987 44.2424 234.112 44.5341 234.112 44.875C234.112 45.1061 234.054 45.3163 233.936 45.5057C233.822 45.6951 233.671 45.8466 233.482 45.9602C233.296 46.0701 233.089 46.125 232.862 46.125Z" fill="#1D1F20"/>
<path d="M0.5 12C0.5 5.64873 5.64873 0.5 12 0.5H285C291.351 0.5 296.5 5.64873 296.5 12V50C296.5 56.3513 291.351 61.5 285 61.5H12C5.64872 61.5 0.5 56.3513 0.5 50V12Z" stroke="#A9812A"/>
<path d="M31.0004 93.5L74.8086 61.5H43.646L31.0004 93.5Z" stroke="#A9812A"/>
<path d="M31.9033 92.5L76.0859 60L45.0006 59.5L31.9033 92.5Z" fill="#FFFDF7"/>
</svg>
