<svg width="353" height="77" viewBox="0 0 353 77" fill="none" xmlns="http://www.w3.org/2000/svg">
<path d="M0.5 12C0.5 5.64873 5.64873 0.5 12 0.5H341C347.351 0.5 352.5 5.64873 352.5 12V31C352.5 37.3513 347.351 42.5 341 42.5H12C5.64872 42.5 0.5 37.3513 0.5 31V12Z" fill="#FFFDF7"/>
<path d="M24.1193 27L20.2898 21.9148H19.2557V27H17.1477V15.3636H19.2557V20.1477H19.7841L23.9205 15.3636H26.517L21.9205 20.6705L26.7159 27H24.1193ZM28.0568 30.2727V18.2727H30.0795V19.7159H30.1989C30.3049 19.5038 30.4545 19.2784 30.6477 19.0398C30.8409 18.7973 31.1023 18.5909 31.4318 18.4205C31.7614 18.2462 32.1818 18.1591 32.6932 18.1591C33.3674 18.1591 33.9754 18.3314 34.517 18.6761C35.0625 19.017 35.4943 19.5227 35.8125 20.1932C36.1345 20.8598 36.2955 21.678 36.2955 22.6477C36.2955 23.6061 36.1383 24.4205 35.8239 25.0909C35.5095 25.7614 35.0814 26.2727 34.5398 26.625C33.9981 26.9773 33.3845 27.1534 32.6989 27.1534C32.1989 27.1534 31.7841 27.0701 31.4545 26.9034C31.125 26.7367 30.8598 26.536 30.6591 26.3011C30.4621 26.0625 30.3087 25.8371 30.1989 25.625H30.1136V30.2727H28.0568ZM30.0739 22.6364C30.0739 23.2008 30.1534 23.6951 30.3125 24.1193C30.4754 24.5436 30.7083 24.875 31.0114 25.1136C31.3182 25.3485 31.6894 25.4659 32.125 25.4659C32.5795 25.4659 32.9602 25.3447 33.267 25.1023C33.5739 24.8561 33.8049 24.5208 33.9602 24.0966C34.1193 23.6686 34.1989 23.1818 34.1989 22.6364C34.1989 22.0947 34.1212 21.6136 33.9659 21.1932C33.8106 20.7727 33.5795 20.4432 33.2727 20.2045C32.9659 19.9659 32.5833 19.8466 32.125 19.8466C31.6856 19.8466 31.3125 19.9621 31.0057 20.1932C30.6989 20.4242 30.4659 20.7481 30.3068 21.1648C30.1515 21.5814 30.0739 22.072 30.0739 22.6364ZM39.0384 30.2727C38.758 30.2727 38.4986 30.25 38.2599 30.2045C38.0251 30.1629 37.8376 30.1136 37.6974 30.0568L38.1747 28.4545C38.474 28.5417 38.741 28.5833 38.9759 28.5795C39.2107 28.5758 39.4171 28.5019 39.5952 28.358C39.777 28.2178 39.9304 27.983 40.0554 27.6534L40.2315 27.1818L37.0668 18.2727H39.2486L41.2599 24.8636H41.3509L43.3679 18.2727H45.5554L42.0611 28.0568C41.8982 28.5189 41.6823 28.9148 41.4134 29.2443C41.1444 29.5777 40.8149 29.8314 40.4247 30.0057C40.0384 30.1837 39.5762 30.2727 39.0384 30.2727ZM46.5014 19.9602V18.2727H54.1378V19.9602H51.3139V27H49.3253V19.9602H46.5014ZM59.223 27.1705C58.3707 27.1705 57.6321 26.983 57.0071 26.608C56.3821 26.233 55.8973 25.7083 55.5526 25.0341C55.2116 24.3598 55.0412 23.572 55.0412 22.6705C55.0412 21.7689 55.2116 20.9792 55.5526 20.3011C55.8973 19.6231 56.3821 19.0966 57.0071 18.7216C57.6321 18.3466 58.3707 18.1591 59.223 18.1591C60.0753 18.1591 60.8139 18.3466 61.4389 18.7216C62.0639 19.0966 62.5469 19.6231 62.8878 20.3011C63.2325 20.9792 63.4048 21.7689 63.4048 22.6705C63.4048 23.572 63.2325 24.3598 62.8878 25.0341C62.5469 25.7083 62.0639 26.233 61.4389 26.608C60.8139 26.983 60.0753 27.1705 59.223 27.1705ZM59.2344 25.5227C59.6965 25.5227 60.0829 25.3958 60.3935 25.142C60.7041 24.8845 60.9351 24.5398 61.0866 24.108C61.242 23.6761 61.3196 23.1951 61.3196 22.6648C61.3196 22.1307 61.242 21.6477 61.0866 21.2159C60.9351 20.7803 60.7041 20.4337 60.3935 20.1761C60.0829 19.9186 59.6965 19.7898 59.2344 19.7898C58.7609 19.7898 58.367 19.9186 58.0526 20.1761C57.742 20.4337 57.509 20.7803 57.3537 21.2159C57.2022 21.6477 57.1264 22.1307 57.1264 22.6648C57.1264 23.1951 57.2022 23.6761 57.3537 24.108C57.509 24.5398 57.742 24.8845 58.0526 25.142C58.367 25.3958 58.7609 25.5227 59.2344 25.5227ZM67.6676 15.3636L67.4801 23.5795H65.6506L65.4688 15.3636H67.6676ZM66.5653 27.125C66.2206 27.125 65.9252 27.0038 65.679 26.7614C65.4366 26.5189 65.3153 26.2235 65.3153 25.875C65.3153 25.5341 65.4366 25.2424 65.679 25C65.9252 24.7576 66.2206 24.6364 66.5653 24.6364C66.9025 24.6364 67.1941 24.7576 67.4403 25C67.6903 25.2424 67.8153 25.5341 67.8153 25.875C67.8153 26.1061 67.7566 26.3163 67.6392 26.5057C67.5256 26.6951 67.3741 26.8466 67.1847 26.9602C66.9991 27.0701 66.7926 27.125 66.5653 27.125ZM74.1477 27V15.3636H81.6307V17.1307H76.2557V19.858H78.5C79.3902 19.858 80.1534 20.0038 80.7898 20.2955C81.4299 20.5833 81.9205 20.9905 82.2614 21.517C82.6023 22.0436 82.7727 22.6629 82.7727 23.375C82.7727 24.0909 82.6023 24.7216 82.2614 25.267C81.9205 25.8087 81.4299 26.233 80.7898 26.5398C80.1534 26.8466 79.3902 27 78.5 27H74.1477ZM76.2557 25.2727H78.5C78.9697 25.2727 79.3674 25.1837 79.6932 25.0057C80.0189 24.8277 80.2652 24.5928 80.4318 24.3011C80.6023 24.0095 80.6875 23.6932 80.6875 23.3523C80.6875 22.8598 80.4981 22.4413 80.1193 22.0966C79.7443 21.7481 79.2045 21.5739 78.5 21.5739H76.2557V25.2727ZM85.804 30.2727C85.5237 30.2727 85.2642 30.25 85.0256 30.2045C84.7907 30.1629 84.6032 30.1136 84.4631 30.0568L84.9403 28.4545C85.2396 28.5417 85.5066 28.5833 85.7415 28.5795C85.9763 28.5758 86.1828 28.5019 86.3608 28.358C86.5426 28.2178 86.696 27.983 86.821 27.6534L86.9972 27.1818L83.8324 18.2727H86.0142L88.0256 24.8636H88.1165L90.1335 18.2727H92.321L88.8267 28.0568C88.6638 28.5189 88.4479 28.9148 88.179 29.2443C87.91 29.5777 87.5805 29.8314 87.1903 30.0057C86.804 30.1837 86.3419 30.2727 85.804 30.2727ZM92.2528 29.5341V25.3068H92.946C93.1316 25.1629 93.2869 24.9678 93.4119 24.7216C93.5369 24.4716 93.6392 24.178 93.7188 23.8409C93.8021 23.5 93.8703 23.1193 93.9233 22.6989C93.9763 22.2746 94.0237 21.8182 94.0653 21.3295L94.3153 18.2727H100.622V25.3068H101.974V29.5341H99.9858V27H94.2756V29.5341H92.2528ZM95.0597 25.3068H98.6562V19.9318H96.0994L95.9631 21.3295C95.8873 22.2538 95.7869 23.0455 95.6619 23.7045C95.5369 24.3636 95.3362 24.8977 95.0597 25.3068ZM107.374 27.1705C106.499 27.1705 105.743 26.9886 105.107 26.625C104.474 26.2576 103.987 25.7386 103.646 25.0682C103.305 24.3939 103.135 23.6004 103.135 22.6875C103.135 21.7898 103.305 21.0019 103.646 20.3239C103.991 19.642 104.472 19.1117 105.089 18.733C105.707 18.3504 106.432 18.1591 107.266 18.1591C107.804 18.1591 108.311 18.2462 108.788 18.4205C109.269 18.5909 109.694 18.8561 110.061 19.2159C110.432 19.5758 110.724 20.0341 110.936 20.5909C111.148 21.1439 111.254 21.803 111.254 22.5682V23.1989H104.101V21.8125H109.283C109.279 21.4186 109.194 21.0682 109.027 20.7614C108.86 20.4508 108.627 20.2064 108.328 20.0284C108.033 19.8504 107.688 19.7614 107.294 19.7614C106.874 19.7614 106.504 19.8636 106.186 20.0682C105.868 20.2689 105.62 20.5341 105.442 20.8636C105.268 21.1894 105.179 21.5473 105.175 21.9375V23.1477C105.175 23.6553 105.268 24.0909 105.453 24.4545C105.639 24.8144 105.898 25.0909 106.232 25.2841C106.565 25.4735 106.955 25.5682 107.402 25.5682C107.701 25.5682 107.972 25.5265 108.214 25.4432C108.457 25.3561 108.667 25.2292 108.845 25.0625C109.023 24.8958 109.158 24.6894 109.249 24.4432L111.169 24.6591C111.048 25.1667 110.817 25.6098 110.476 25.9886C110.139 26.3636 109.707 26.6553 109.18 26.8636C108.654 27.0682 108.052 27.1705 107.374 27.1705ZM118.017 24.608L120.608 18.2727H122.267L118.739 27H117.301L113.852 18.2727H115.494L118.017 24.608ZM114.977 18.2727V27H112.994V18.2727H114.977ZM121.142 27V18.2727H123.108V27H121.142ZM128.668 24.608H130.707C130.726 24.9337 130.872 25.1856 131.145 25.3636C131.418 25.5417 131.772 25.6307 132.207 25.6307C132.651 25.6307 133.024 25.5341 133.327 25.3409C133.634 25.1439 133.787 24.8466 133.787 24.4489C133.787 24.214 133.728 24.0076 133.611 23.8295C133.493 23.6477 133.329 23.5076 133.116 23.4091C132.904 23.3106 132.654 23.2614 132.366 23.2614H131.031V21.8011H132.366C132.795 21.8011 133.118 21.7027 133.338 21.5057C133.562 21.3087 133.673 21.0606 133.673 20.7614C133.673 20.4394 133.556 20.178 133.321 19.9773C133.09 19.7765 132.77 19.6761 132.361 19.6761C131.952 19.6761 131.611 19.7689 131.338 19.9545C131.069 20.1402 130.929 20.3788 130.918 20.6705H128.889C128.897 20.1629 129.048 19.7216 129.344 19.3466C129.643 18.9716 130.045 18.6799 130.548 18.4716C131.056 18.2633 131.628 18.1591 132.264 18.1591C132.946 18.1591 133.535 18.2614 134.031 18.4659C134.527 18.6705 134.91 18.9564 135.179 19.3239C135.448 19.6875 135.582 20.1155 135.582 20.608C135.582 21.0814 135.435 21.4735 135.139 21.7841C134.844 22.0909 134.446 22.3106 133.946 22.4432V22.5341C134.291 22.553 134.601 22.6515 134.878 22.8295C135.154 23.0038 135.374 23.2405 135.537 23.5398C135.7 23.839 135.781 24.1856 135.781 24.5795C135.781 25.1136 135.628 25.5758 135.321 25.9659C135.014 26.3523 134.592 26.6496 134.054 26.858C133.52 27.0663 132.908 27.1705 132.219 27.1705C131.548 27.1705 130.948 27.0701 130.418 26.8693C129.891 26.6648 129.473 26.3712 129.162 25.9886C128.851 25.6061 128.687 25.1458 128.668 24.608ZM136.628 29.5341V25.3068H137.321C137.507 25.1629 137.662 24.9678 137.787 24.7216C137.912 24.4716 138.014 24.178 138.094 23.8409C138.177 23.5 138.245 23.1193 138.298 22.6989C138.351 22.2746 138.399 21.8182 138.44 21.3295L138.69 18.2727H144.997V25.3068H146.349V29.5341H144.361V27H138.651V29.5341H136.628ZM139.435 25.3068H143.031V19.9318H140.474L140.338 21.3295C140.262 22.2538 140.162 23.0455 140.037 23.7045C139.912 24.3636 139.711 24.8977 139.435 25.3068ZM151.749 27.1705C150.874 27.1705 150.118 26.9886 149.482 26.625C148.849 26.2576 148.362 25.7386 148.021 25.0682C147.68 24.3939 147.51 23.6004 147.51 22.6875C147.51 21.7898 147.68 21.0019 148.021 20.3239C148.366 19.642 148.847 19.1117 149.464 18.733C150.082 18.3504 150.807 18.1591 151.641 18.1591C152.179 18.1591 152.686 18.2462 153.163 18.4205C153.644 18.5909 154.069 18.8561 154.436 19.2159C154.807 19.5758 155.099 20.0341 155.311 20.5909C155.523 21.1439 155.629 21.803 155.629 22.5682V23.1989H148.476V21.8125H153.658C153.654 21.4186 153.569 21.0682 153.402 20.7614C153.235 20.4508 153.002 20.2064 152.703 20.0284C152.408 19.8504 152.063 19.7614 151.669 19.7614C151.249 19.7614 150.879 19.8636 150.561 20.0682C150.243 20.2689 149.995 20.5341 149.817 20.8636C149.643 21.1894 149.554 21.5473 149.55 21.9375V23.1477C149.55 23.6553 149.643 24.0909 149.828 24.4545C150.014 24.8144 150.273 25.0909 150.607 25.2841C150.94 25.4735 151.33 25.5682 151.777 25.5682C152.076 25.5682 152.347 25.5265 152.589 25.4432C152.832 25.3561 153.042 25.2292 153.22 25.0625C153.398 24.8958 153.533 24.6894 153.624 24.4432L155.544 24.6591C155.423 25.1667 155.192 25.6098 154.851 25.9886C154.514 26.3636 154.082 26.6553 153.555 26.8636C153.029 27.0682 152.427 27.1705 151.749 27.1705ZM161.176 27.1705C160.305 27.1705 159.557 26.9792 158.932 26.5966C158.311 26.214 157.831 25.6856 157.494 25.0114C157.161 24.3333 156.994 23.553 156.994 22.6705C156.994 21.7841 157.165 21.0019 157.506 20.3239C157.847 19.642 158.328 19.1117 158.949 18.733C159.574 18.3504 160.313 18.1591 161.165 18.1591C161.873 18.1591 162.5 18.2898 163.045 18.5511C163.595 18.8087 164.032 19.1742 164.358 19.6477C164.684 20.1174 164.869 20.6667 164.915 21.2955H162.949C162.869 20.875 162.68 20.5246 162.381 20.2443C162.085 19.9602 161.689 19.8182 161.193 19.8182C160.773 19.8182 160.403 19.9318 160.085 20.1591C159.767 20.3826 159.519 20.7045 159.341 21.125C159.167 21.5455 159.08 22.0492 159.08 22.6364C159.08 23.2311 159.167 23.7424 159.341 24.1705C159.515 24.5947 159.759 24.9223 160.074 25.1534C160.392 25.3807 160.765 25.4943 161.193 25.4943C161.496 25.4943 161.767 25.4375 162.006 25.3239C162.248 25.2064 162.451 25.0379 162.614 24.8182C162.777 24.5985 162.888 24.3314 162.949 24.017H164.915C164.866 24.6345 164.684 25.1818 164.369 25.6591C164.055 26.1326 163.627 26.5038 163.085 26.7727C162.544 27.0379 161.907 27.1705 161.176 27.1705ZM167.996 21.1136H170.57C171.683 21.1136 172.545 21.3845 173.155 21.9261C173.765 22.4678 174.071 23.178 174.075 24.0568C174.071 24.6288 173.931 25.1364 173.655 25.5795C173.382 26.0227 172.984 26.3712 172.462 26.625C171.943 26.875 171.312 27 170.57 27H166.604V18.2727H168.587V25.3125H170.57C171.017 25.3125 171.384 25.1989 171.672 24.9716C171.96 24.7405 172.104 24.4451 172.104 24.0852C172.104 23.7064 171.96 23.3977 171.672 23.1591C171.384 22.9205 171.017 22.8011 170.57 22.8011H167.996V21.1136ZM179.807 27V18.2727H187.176V27H185.193V19.9602H181.773V27H179.807ZM189.291 30.2727V18.2727H191.314V19.7159H191.433C191.539 19.5038 191.689 19.2784 191.882 19.0398C192.075 18.7973 192.337 18.5909 192.666 18.4205C192.996 18.2462 193.416 18.1591 193.928 18.1591C194.602 18.1591 195.21 18.3314 195.751 18.6761C196.297 19.017 196.729 19.5227 197.047 20.1932C197.369 20.8598 197.53 21.678 197.53 22.6477C197.53 23.6061 197.373 24.4205 197.058 25.0909C196.744 25.7614 196.316 26.2727 195.774 26.625C195.232 26.9773 194.619 27.1534 193.933 27.1534C193.433 27.1534 193.018 27.0701 192.689 26.9034C192.359 26.7367 192.094 26.536 191.893 26.3011C191.696 26.0625 191.543 25.8371 191.433 25.625H191.348V30.2727H189.291ZM191.308 22.6364C191.308 23.2008 191.388 23.6951 191.547 24.1193C191.71 24.5436 191.943 24.875 192.246 25.1136C192.553 25.3485 192.924 25.4659 193.359 25.4659C193.814 25.4659 194.195 25.3447 194.501 25.1023C194.808 24.8561 195.039 24.5208 195.195 24.0966C195.354 23.6686 195.433 23.1818 195.433 22.6364C195.433 22.0947 195.356 21.6136 195.2 21.1932C195.045 20.7727 194.814 20.4432 194.507 20.2045C194.2 19.9659 193.818 19.8466 193.359 19.8466C192.92 19.8466 192.547 19.9621 192.24 20.1932C191.933 20.4242 191.7 20.7481 191.541 21.1648C191.386 21.5814 191.308 22.072 191.308 22.6364ZM203.098 27.1705C202.246 27.1705 201.507 26.983 200.882 26.608C200.257 26.233 199.772 25.7083 199.428 25.0341C199.087 24.3598 198.916 23.572 198.916 22.6705C198.916 21.7689 199.087 20.9792 199.428 20.3011C199.772 19.6231 200.257 19.0966 200.882 18.7216C201.507 18.3466 202.246 18.1591 203.098 18.1591C203.95 18.1591 204.689 18.3466 205.314 18.7216C205.939 19.0966 206.422 19.6231 206.763 20.3011C207.107 20.9792 207.28 21.7689 207.28 22.6705C207.28 23.572 207.107 24.3598 206.763 25.0341C206.422 25.7083 205.939 26.233 205.314 26.608C204.689 26.983 203.95 27.1705 203.098 27.1705ZM203.109 25.5227C203.571 25.5227 203.958 25.3958 204.268 25.142C204.579 24.8845 204.81 24.5398 204.962 24.108C205.117 23.6761 205.195 23.1951 205.195 22.6648C205.195 22.1307 205.117 21.6477 204.962 21.2159C204.81 20.7803 204.579 20.4337 204.268 20.1761C203.958 19.9186 203.571 19.7898 203.109 19.7898C202.636 19.7898 202.242 19.9186 201.928 20.1761C201.617 20.4337 201.384 20.7803 201.229 21.2159C201.077 21.6477 201.001 22.1307 201.001 22.6648C201.001 23.1951 201.077 23.6761 201.229 24.108C201.384 24.5398 201.617 24.8845 201.928 25.142C202.242 25.3958 202.636 25.5227 203.109 25.5227ZM214.798 18.2727V19.9602H211.037V27H209.026V18.2727H214.798ZM217.726 30.2727C217.446 30.2727 217.186 30.25 216.947 30.2045C216.713 30.1629 216.525 30.1136 216.385 30.0568L216.862 28.4545C217.161 28.5417 217.429 28.5833 217.663 28.5795C217.898 28.5758 218.105 28.5019 218.283 28.358C218.464 28.2178 218.618 27.983 218.743 27.6534L218.919 27.1818L215.754 18.2727H217.936L219.947 24.8636H220.038L222.055 18.2727H224.243L220.749 28.0568C220.586 28.5189 220.37 28.9148 220.101 29.2443C219.832 29.5777 219.502 29.8314 219.112 30.0057C218.726 30.1837 218.264 30.2727 217.726 30.2727ZM224.345 27L224.334 25.3068H224.635C224.862 25.3068 225.054 25.2557 225.209 25.1534C225.364 25.0511 225.493 24.8807 225.595 24.642C225.697 24.3996 225.777 24.0739 225.834 23.6648C225.891 23.2557 225.93 22.7462 225.953 22.1364L226.107 18.2727H232.47V27H230.482V19.9602H227.976L227.839 22.7727C227.805 23.5 227.724 24.1307 227.595 24.6648C227.47 25.1951 227.292 25.6326 227.061 25.9773C226.834 26.322 226.548 26.5795 226.203 26.75C225.858 26.9167 225.451 27 224.982 27H224.345ZM236.524 24.2159L240.018 18.2727H242.132V27H240.143V21.0511L236.661 27H234.541V18.2727H236.524V24.2159ZM244.244 27V18.2727H247.909C248.943 18.2727 249.759 18.4792 250.358 18.892C250.96 19.3049 251.261 19.8807 251.261 20.6193C251.261 21.108 251.091 21.5076 250.75 21.8182C250.413 22.125 249.953 22.3314 249.369 22.4375C249.828 22.4754 250.229 22.5909 250.574 22.7841C250.922 22.9773 251.195 23.2311 251.392 23.5455C251.589 23.8598 251.688 24.2216 251.688 24.6307C251.688 25.1117 251.561 25.5303 251.307 25.8864C251.057 26.2386 250.691 26.5133 250.21 26.7102C249.733 26.9034 249.153 27 248.472 27H244.244ZM246.17 25.3807H248.472C248.85 25.3807 249.148 25.2917 249.364 25.1136C249.58 24.9318 249.688 24.6856 249.688 24.375C249.688 24.0152 249.58 23.733 249.364 23.5284C249.148 23.3201 248.85 23.2159 248.472 23.2159H246.17V25.3807ZM246.17 21.8864H247.949C248.229 21.8864 248.47 21.8466 248.67 21.767C248.871 21.6837 249.025 21.5682 249.131 21.4205C249.237 21.2689 249.29 21.089 249.29 20.8807C249.29 20.5814 249.167 20.3466 248.92 20.1761C248.678 20.0057 248.341 19.9205 247.909 19.9205H246.17V21.8864ZM255.896 27.1761C255.343 27.1761 254.845 27.0777 254.402 26.8807C253.963 26.6799 253.614 26.3845 253.357 25.9943C253.103 25.6042 252.976 25.1231 252.976 24.5511C252.976 24.0587 253.067 23.6515 253.249 23.3295C253.43 23.0076 253.679 22.75 253.993 22.5568C254.307 22.3636 254.661 22.2178 255.055 22.1193C255.453 22.017 255.864 21.9432 256.288 21.8977C256.8 21.8447 257.214 21.7973 257.533 21.7557C257.851 21.7102 258.082 21.642 258.226 21.5511C258.374 21.4564 258.447 21.3106 258.447 21.1136V21.0795C258.447 20.6515 258.321 20.3201 258.067 20.0852C257.813 19.8504 257.447 19.733 256.97 19.733C256.466 19.733 256.067 19.8428 255.771 20.0625C255.48 20.2822 255.283 20.5417 255.18 20.8409L253.26 20.5682C253.411 20.0379 253.661 19.5947 254.01 19.2386C254.358 18.8788 254.785 18.6098 255.288 18.4318C255.792 18.25 256.349 18.1591 256.959 18.1591C257.379 18.1591 257.798 18.2083 258.214 18.3068C258.631 18.4053 259.012 18.5682 259.357 18.7955C259.701 19.0189 259.978 19.3239 260.186 19.7102C260.398 20.0966 260.504 20.5795 260.504 21.1591V27H258.527V25.8011H258.459C258.334 26.0436 258.158 26.2708 257.93 26.483C257.707 26.6913 257.425 26.8598 257.084 26.9886C256.747 27.1136 256.351 27.1761 255.896 27.1761ZM256.43 25.6648C256.843 25.6648 257.201 25.5833 257.504 25.4205C257.807 25.2538 258.04 25.0341 258.203 24.7614C258.37 24.4886 258.453 24.1913 258.453 23.8693V22.8409C258.389 22.8939 258.279 22.9432 258.124 22.9886C257.972 23.0341 257.802 23.0739 257.612 23.108C257.423 23.142 257.235 23.1723 257.05 23.1989C256.864 23.2254 256.703 23.2481 256.567 23.267C256.26 23.3087 255.985 23.3769 255.743 23.4716C255.5 23.5663 255.309 23.6989 255.169 23.8693C255.029 24.036 254.959 24.2519 254.959 24.517C254.959 24.8958 255.097 25.1818 255.374 25.375C255.65 25.5682 256.002 25.6648 256.43 25.6648ZM261.595 19.9602V18.2727H269.232V19.9602H266.408V27H264.419V19.9602H261.595ZM272.261 21.1136H274.835C275.949 21.1136 276.811 21.3845 277.42 21.9261C278.03 22.4678 278.337 23.178 278.341 24.0568C278.337 24.6288 278.197 25.1364 277.92 25.5795C277.648 26.0227 277.25 26.3712 276.727 26.625C276.208 26.875 275.578 27 274.835 27H270.869V18.2727H272.852V25.3125H274.835C275.282 25.3125 275.65 25.1989 275.938 24.9716C276.225 24.7405 276.369 24.4451 276.369 24.0852C276.369 23.7064 276.225 23.3977 275.938 23.1591C275.65 22.9205 275.282 22.8011 274.835 22.8011H272.261V21.1136ZM288.033 29.9659V15.3636H290.095V29.9659H288.033ZM288.033 27.1705C287.393 27.1705 286.807 27.0625 286.277 26.8466C285.747 26.6307 285.288 26.3239 284.902 25.9261C284.519 25.5284 284.222 25.0549 284.01 24.5057C283.802 23.9527 283.697 23.3409 283.697 22.6705C283.697 22 283.802 21.3883 284.01 20.8352C284.222 20.2822 284.519 19.8068 284.902 19.4091C285.288 19.0076 285.747 18.6989 286.277 18.483C286.807 18.267 287.393 18.1591 288.033 18.1591H288.47V27.1705H288.033ZM288.033 25.5114H288.288V19.8182H288.033C287.669 19.8182 287.347 19.8939 287.067 20.0455C286.79 20.1932 286.557 20.3996 286.368 20.6648C286.182 20.9261 286.04 21.2292 285.942 21.5739C285.847 21.9148 285.8 22.2803 285.8 22.6705C285.8 23.1894 285.885 23.6648 286.055 24.0966C286.226 24.5246 286.476 24.8674 286.805 25.125C287.139 25.3826 287.548 25.5114 288.033 25.5114ZM290.095 27.1705H289.658V18.1591H290.095C290.735 18.1591 291.321 18.267 291.851 18.483C292.381 18.6989 292.838 19.0076 293.22 19.4091C293.607 19.8068 293.904 20.2822 294.112 20.8352C294.324 21.3883 294.43 22 294.43 22.6705C294.43 23.3409 294.324 23.9527 294.112 24.5057C293.904 25.0549 293.607 25.5284 293.22 25.9261C292.838 26.3239 292.381 26.6307 291.851 26.8466C291.321 27.0625 290.735 27.1705 290.095 27.1705ZM290.095 25.5114C290.463 25.5114 290.785 25.4375 291.061 25.2898C291.338 25.142 291.569 24.9375 291.754 24.6761C291.944 24.4148 292.086 24.1136 292.18 23.7727C292.275 23.428 292.322 23.0606 292.322 22.6705C292.322 22.1515 292.239 21.6761 292.072 21.2443C291.906 20.8125 291.656 20.4678 291.322 20.2102C290.993 19.9489 290.584 19.8182 290.095 19.8182H289.839V25.5114H290.095ZM298.149 24.2159L301.643 18.2727H303.757V27H301.768V21.0511L298.286 27H296.166V18.2727H298.149V24.2159ZM305.386 24.608H307.426C307.445 24.9337 307.591 25.1856 307.864 25.3636C308.136 25.5417 308.491 25.6307 308.926 25.6307C309.369 25.6307 309.742 25.5341 310.045 25.3409C310.352 25.1439 310.506 24.8466 310.506 24.4489C310.506 24.214 310.447 24.0076 310.33 23.8295C310.212 23.6477 310.047 23.5076 309.835 23.4091C309.623 23.3106 309.373 23.2614 309.085 23.2614H307.75V21.8011H309.085C309.513 21.8011 309.837 21.7027 310.057 21.5057C310.28 21.3087 310.392 21.0606 310.392 20.7614C310.392 20.4394 310.275 20.178 310.04 19.9773C309.809 19.7765 309.489 19.6761 309.08 19.6761C308.67 19.6761 308.33 19.7689 308.057 19.9545C307.788 20.1402 307.648 20.3788 307.636 20.6705H305.608C305.616 20.1629 305.767 19.7216 306.062 19.3466C306.362 18.9716 306.763 18.6799 307.267 18.4716C307.775 18.2633 308.347 18.1591 308.983 18.1591C309.665 18.1591 310.254 18.2614 310.75 18.4659C311.246 18.6705 311.629 18.9564 311.898 19.3239C312.167 19.6875 312.301 20.1155 312.301 20.608C312.301 21.0814 312.153 21.4735 311.858 21.7841C311.563 22.0909 311.165 22.3106 310.665 22.4432V22.5341C311.009 22.553 311.32 22.6515 311.597 22.8295C311.873 23.0038 312.093 23.2405 312.256 23.5398C312.419 23.839 312.5 24.1856 312.5 24.5795C312.5 25.1136 312.347 25.5758 312.04 25.9659C311.733 26.3523 311.311 26.6496 310.773 26.858C310.239 27.0663 309.627 27.1705 308.938 27.1705C308.267 27.1705 307.667 27.0701 307.136 26.8693C306.61 26.6648 306.191 26.3712 305.881 25.9886C305.57 25.6061 305.405 25.1458 305.386 24.608ZM314.119 30.2727V18.2727H316.142V19.7159H316.261C316.367 19.5038 316.517 19.2784 316.71 19.0398C316.903 18.7973 317.165 18.5909 317.494 18.4205C317.824 18.2462 318.244 18.1591 318.756 18.1591C319.43 18.1591 320.038 18.3314 320.58 18.6761C321.125 19.017 321.557 19.5227 321.875 20.1932C322.197 20.8598 322.358 21.678 322.358 22.6477C322.358 23.6061 322.201 24.4205 321.886 25.0909C321.572 25.7614 321.144 26.2727 320.602 26.625C320.061 26.9773 319.447 27.1534 318.761 27.1534C318.261 27.1534 317.847 27.0701 317.517 26.9034C317.188 26.7367 316.922 26.536 316.722 26.3011C316.525 26.0625 316.371 25.8371 316.261 25.625H316.176V30.2727H314.119ZM316.136 22.6364C316.136 23.2008 316.216 23.6951 316.375 24.1193C316.538 24.5436 316.771 24.875 317.074 25.1136C317.381 25.3485 317.752 25.4659 318.188 25.4659C318.642 25.4659 319.023 25.3447 319.33 25.1023C319.636 24.8561 319.867 24.5208 320.023 24.0966C320.182 23.6686 320.261 23.1818 320.261 22.6364C320.261 22.0947 320.184 21.6136 320.028 21.1932C319.873 20.7727 319.642 20.4432 319.335 20.2045C319.028 19.9659 318.646 19.8466 318.188 19.8466C317.748 19.8466 317.375 19.9621 317.068 20.1932C316.761 20.4242 316.528 20.7481 316.369 21.1648C316.214 21.5814 316.136 22.072 316.136 22.6364ZM325.101 30.2727C324.821 30.2727 324.561 30.25 324.322 30.2045C324.088 30.1629 323.9 30.1136 323.76 30.0568L324.237 28.4545C324.536 28.5417 324.804 28.5833 325.038 28.5795C325.273 28.5758 325.48 28.5019 325.658 28.358C325.839 28.2178 325.993 27.983 326.118 27.6534L326.294 27.1818L323.129 18.2727H325.311L327.322 24.8636H327.413L329.43 18.2727H331.618L328.124 28.0568C327.961 28.5189 327.745 28.9148 327.476 29.2443C327.207 29.5777 326.877 29.8314 326.487 30.0057C326.101 30.1837 325.639 30.2727 325.101 30.2727ZM333.761 27.125C333.417 27.125 333.121 27.0038 332.875 26.7614C332.629 26.5189 332.508 26.2235 332.511 25.875C332.508 25.5341 332.629 25.2424 332.875 25C333.121 24.7576 333.417 24.6364 333.761 24.6364C334.095 24.6364 334.384 24.7576 334.631 25C334.881 25.2424 335.008 25.5341 335.011 25.875C335.008 26.1061 334.947 26.3163 334.83 26.5057C334.716 26.6951 334.564 26.8466 334.375 26.9602C334.189 27.0701 333.985 27.125 333.761 27.125Z" fill="#1D1F20"/>
<path d="M0.5 12C0.5 5.64873 5.64873 0.5 12 0.5H341C347.351 0.5 352.5 5.64873 352.5 12V31C352.5 37.3513 347.351 42.5 341 42.5H12C5.64872 42.5 0.5 37.3513 0.5 31V12Z" stroke="#A9812A"/>
<path d="M109.001 75.5L57.5859 43.5H94.1595L109.001 75.5Z" stroke="#A9812A"/>
<path d="M107.94 74.5L56.0859 42L92.5689 41.5L107.94 74.5Z" fill="#FFFDF7"/>
</svg>
