<svg width="297" height="95" viewBox="0 0 297 95" fill="none" xmlns="http://www.w3.org/2000/svg">
<path d="M0.5 12C0.5 5.64873 5.64873 0.5 12 0.5H267C273.351 0.5 278.5 5.64873 278.5 12V50C278.5 56.3513 273.351 61.5 267 61.5H12C5.64873 61.5 0.5 56.3513 0.5 50V12Z" fill="#FFFDF7"/>
<path d="M24.1193 27L20.2898 21.9148H19.2557V27H17.1477V15.3636H19.2557V20.1477H19.7841L23.9205 15.3636H26.517L21.9205 20.6705L26.7159 27H24.1193ZM27.4545 27L27.4432 25.3068H27.7443C27.9716 25.3068 28.1629 25.2557 28.3182 25.1534C28.4735 25.0511 28.6023 24.8807 28.7045 24.642C28.8068 24.3996 28.8864 24.0739 28.9432 23.6648C29 23.2557 29.0398 22.7462 29.0625 22.1364L29.2159 18.2727H35.5795V27H33.5909V19.9602H31.0852L30.9489 22.7727C30.9148 23.5 30.8333 24.1307 30.7045 24.6648C30.5795 25.1951 30.4015 25.6326 30.1705 25.9773C29.9432 26.322 29.6572 26.5795 29.3125 26.75C28.9678 26.9167 28.5606 27 28.0909 27H27.4545ZM40.1619 27.1761C39.6089 27.1761 39.1108 27.0777 38.6676 26.8807C38.2282 26.6799 37.8797 26.3845 37.6222 25.9943C37.3684 25.6042 37.2415 25.1231 37.2415 24.5511C37.2415 24.0587 37.3324 23.6515 37.5142 23.3295C37.696 23.0076 37.9441 22.75 38.2585 22.5568C38.5729 22.3636 38.9271 22.2178 39.321 22.1193C39.7188 22.017 40.1297 21.9432 40.554 21.8977C41.0653 21.8447 41.4801 21.7973 41.7983 21.7557C42.1165 21.7102 42.3475 21.642 42.4915 21.5511C42.6392 21.4564 42.7131 21.3106 42.7131 21.1136V21.0795C42.7131 20.6515 42.5862 20.3201 42.3324 20.0852C42.0786 19.8504 41.7131 19.733 41.2358 19.733C40.732 19.733 40.3324 19.8428 40.0369 20.0625C39.7453 20.2822 39.5483 20.5417 39.446 20.8409L37.5256 20.5682C37.6771 20.0379 37.9271 19.5947 38.2756 19.2386C38.6241 18.8788 39.0502 18.6098 39.554 18.4318C40.0578 18.25 40.6146 18.1591 41.2244 18.1591C41.6449 18.1591 42.0634 18.2083 42.4801 18.3068C42.8968 18.4053 43.2775 18.5682 43.6222 18.7955C43.9669 19.0189 44.2434 19.3239 44.4517 19.7102C44.6638 20.0966 44.7699 20.5795 44.7699 21.1591V27H42.7926V25.8011H42.7244C42.5994 26.0436 42.4233 26.2708 42.196 26.483C41.9725 26.6913 41.6903 26.8598 41.3494 26.9886C41.0123 27.1136 40.6165 27.1761 40.1619 27.1761ZM40.696 25.6648C41.1089 25.6648 41.4669 25.5833 41.7699 25.4205C42.0729 25.2538 42.3059 25.0341 42.4688 24.7614C42.6354 24.4886 42.7188 24.1913 42.7188 23.8693V22.8409C42.6544 22.8939 42.5445 22.9432 42.3892 22.9886C42.2377 23.0341 42.0672 23.0739 41.8778 23.108C41.6884 23.142 41.5009 23.1723 41.3153 23.1989C41.1297 23.2254 40.9688 23.2481 40.8324 23.267C40.5256 23.3087 40.2509 23.3769 40.0085 23.4716C39.7661 23.5663 39.5748 23.6989 39.4347 23.8693C39.2945 24.036 39.2244 24.2519 39.2244 24.517C39.2244 24.8958 39.3627 25.1818 39.6392 25.375C39.9157 25.5682 40.268 25.6648 40.696 25.6648ZM50.6449 27.1705C49.7737 27.1705 49.0256 26.9792 48.4006 26.5966C47.7794 26.214 47.3002 25.6856 46.9631 25.0114C46.6297 24.3333 46.4631 23.553 46.4631 22.6705C46.4631 21.7841 46.6335 21.0019 46.9744 20.3239C47.3153 19.642 47.7964 19.1117 48.4176 18.733C49.0426 18.3504 49.7813 18.1591 50.6335 18.1591C51.3419 18.1591 51.9688 18.2898 52.5142 18.5511C53.0634 18.8087 53.5009 19.1742 53.8267 19.6477C54.1525 20.1174 54.3381 20.6667 54.3835 21.2955H52.4176C52.3381 20.875 52.1487 20.5246 51.8494 20.2443C51.554 19.9602 51.1581 19.8182 50.6619 19.8182C50.2415 19.8182 49.8722 19.9318 49.554 20.1591C49.2358 20.3826 48.9877 20.7045 48.8097 21.125C48.6354 21.5455 48.5483 22.0492 48.5483 22.6364C48.5483 23.2311 48.6354 23.7424 48.8097 24.1705C48.9839 24.5947 49.2282 24.9223 49.5426 25.1534C49.8608 25.3807 50.2339 25.4943 50.6619 25.4943C50.965 25.4943 51.2358 25.4375 51.4744 25.3239C51.7169 25.2064 51.9195 25.0379 52.0824 24.8182C52.2453 24.5985 52.357 24.3314 52.4176 24.017H54.3835C54.3343 24.6345 54.1525 25.1818 53.8381 25.6591C53.5237 26.1326 53.0956 26.5038 52.554 26.7727C52.0123 27.0379 51.3759 27.1705 50.6449 27.1705ZM59.8793 27.1705C59.008 27.1705 58.2599 26.9792 57.6349 26.5966C57.0137 26.214 56.5346 25.6856 56.1974 25.0114C55.8641 24.3333 55.6974 23.553 55.6974 22.6705C55.6974 21.7841 55.8679 21.0019 56.2088 20.3239C56.5497 19.642 57.0308 19.1117 57.652 18.733C58.277 18.3504 59.0156 18.1591 59.8679 18.1591C60.5762 18.1591 61.2031 18.2898 61.7486 18.5511C62.2978 18.8087 62.7353 19.1742 63.0611 19.6477C63.3868 20.1174 63.5724 20.6667 63.6179 21.2955H61.652C61.5724 20.875 61.383 20.5246 61.0838 20.2443C60.7884 19.9602 60.3925 19.8182 59.8963 19.8182C59.4759 19.8182 59.1065 19.9318 58.7884 20.1591C58.4702 20.3826 58.2221 20.7045 58.044 21.125C57.8698 21.5455 57.7827 22.0492 57.7827 22.6364C57.7827 23.2311 57.8698 23.7424 58.044 24.1705C58.2183 24.5947 58.4626 24.9223 58.777 25.1534C59.0952 25.3807 59.4683 25.4943 59.8963 25.4943C60.1993 25.4943 60.4702 25.4375 60.7088 25.3239C60.9512 25.2064 61.1539 25.0379 61.3168 24.8182C61.4796 24.5985 61.5914 24.3314 61.652 24.017H63.6179C63.5687 24.6345 63.3868 25.1818 63.0724 25.6591C62.758 26.1326 62.33 26.5038 61.7884 26.7727C61.2467 27.0379 60.6103 27.1705 59.8793 27.1705ZM67.7216 25.4091L67.6477 26.0341C67.5947 26.5114 67.5 26.9962 67.3636 27.4886C67.2311 27.9848 67.0909 28.4413 66.9432 28.858C66.7955 29.2746 66.6761 29.6023 66.5852 29.8409H65.1989C65.2519 29.6098 65.3239 29.2955 65.4148 28.8977C65.5095 28.5 65.6004 28.053 65.6875 27.5568C65.7746 27.0606 65.8333 26.5568 65.8636 26.0455L65.9034 25.4091H67.7216ZM77.4986 27.1705C76.6236 27.1705 75.8679 26.9886 75.2315 26.625C74.599 26.2576 74.1122 25.7386 73.7713 25.0682C73.4304 24.3939 73.2599 23.6004 73.2599 22.6875C73.2599 21.7898 73.4304 21.0019 73.7713 20.3239C74.116 19.642 74.5971 19.1117 75.2145 18.733C75.8319 18.3504 76.5573 18.1591 77.3906 18.1591C77.9285 18.1591 78.4361 18.2462 78.9134 18.4205C79.3944 18.5909 79.8187 18.8561 80.1861 19.2159C80.5573 19.5758 80.849 20.0341 81.0611 20.5909C81.2732 21.1439 81.3793 21.803 81.3793 22.5682V23.1989H74.2259V21.8125H79.4077C79.4039 21.4186 79.3187 21.0682 79.152 20.7614C78.9853 20.4508 78.7524 20.2064 78.4531 20.0284C78.1577 19.8504 77.813 19.7614 77.419 19.7614C76.9986 19.7614 76.6293 19.8636 76.3111 20.0682C75.9929 20.2689 75.7448 20.5341 75.5668 20.8636C75.3925 21.1894 75.3035 21.5473 75.2997 21.9375V23.1477C75.2997 23.6553 75.3925 24.0909 75.5781 24.4545C75.7637 24.8144 76.0232 25.0909 76.3565 25.2841C76.6899 25.4735 77.08 25.5682 77.527 25.5682C77.8262 25.5682 78.0971 25.5265 78.3395 25.4432C78.5819 25.3561 78.7921 25.2292 78.9702 25.0625C79.1482 24.8958 79.2827 24.6894 79.3736 24.4432L81.294 24.6591C81.1728 25.1667 80.9418 25.6098 80.6009 25.9886C80.2637 26.3636 79.8319 26.6553 79.3054 26.8636C78.7789 27.0682 78.1766 27.1705 77.4986 27.1705ZM96.2273 25.3125L96.0568 29.5H94.1193V27H93.0909V25.3125H96.2273ZM83.1193 18.2727H85.1023V25.3068H87.8466V18.2727H89.8295V25.3068H92.5739V18.2727H94.5568V27H83.1193V18.2727ZM101.624 27.1705C100.749 27.1705 99.9929 26.9886 99.3565 26.625C98.724 26.2576 98.2372 25.7386 97.8963 25.0682C97.5554 24.3939 97.3849 23.6004 97.3849 22.6875C97.3849 21.7898 97.5554 21.0019 97.8963 20.3239C98.241 19.642 98.7221 19.1117 99.3395 18.733C99.9569 18.3504 100.682 18.1591 101.516 18.1591C102.054 18.1591 102.561 18.2462 103.038 18.4205C103.519 18.5909 103.944 18.8561 104.311 19.2159C104.682 19.5758 104.974 20.0341 105.186 20.5909C105.398 21.1439 105.504 21.803 105.504 22.5682V23.1989H98.3509V21.8125H103.533C103.529 21.4186 103.444 21.0682 103.277 20.7614C103.11 20.4508 102.877 20.2064 102.578 20.0284C102.283 19.8504 101.938 19.7614 101.544 19.7614C101.124 19.7614 100.754 19.8636 100.436 20.0682C100.118 20.2689 99.8698 20.5341 99.6918 20.8636C99.5175 21.1894 99.4285 21.5473 99.4247 21.9375V23.1477C99.4247 23.6553 99.5175 24.0909 99.7031 24.4545C99.8887 24.8144 100.148 25.0909 100.482 25.2841C100.815 25.4735 101.205 25.5682 101.652 25.5682C101.951 25.5682 102.222 25.5265 102.464 25.4432C102.707 25.3561 102.917 25.2292 103.095 25.0625C103.273 24.8958 103.408 24.6894 103.499 24.4432L105.419 24.6591C105.298 25.1667 105.067 25.6098 104.726 25.9886C104.389 26.3636 103.957 26.6553 103.43 26.8636C102.904 27.0682 102.302 27.1705 101.624 27.1705ZM99.7599 16.9886C99.4607 16.9886 99.2012 16.8826 98.9815 16.6705C98.7656 16.4583 98.6577 16.2083 98.6577 15.9205C98.6577 15.6174 98.7656 15.3636 98.9815 15.1591C99.2012 14.9508 99.4607 14.8466 99.7599 14.8466C100.067 14.8466 100.324 14.9508 100.533 15.1591C100.745 15.3636 100.851 15.6174 100.851 15.9205C100.851 16.2083 100.745 16.4583 100.533 16.6705C100.324 16.8826 100.067 16.9886 99.7599 16.9886ZM103.169 16.9886C102.87 16.9886 102.61 16.8826 102.391 16.6705C102.175 16.4583 102.067 16.2083 102.067 15.9205C102.067 15.6174 102.175 15.3636 102.391 15.1591C102.61 14.9508 102.87 14.8466 103.169 14.8466C103.476 14.8466 103.733 14.9508 103.942 15.1591C104.154 15.3636 104.26 15.6174 104.26 15.9205C104.26 16.2083 104.154 16.4583 103.942 16.6705C103.733 16.8826 103.476 16.9886 103.169 16.9886ZM113.196 24.2159L116.69 18.2727H118.804V27H116.815V21.0511L113.332 27H111.213V18.2727H113.196V24.2159ZM124.283 27L124.271 25.3068H124.572C124.8 25.3068 124.991 25.2557 125.146 25.1534C125.302 25.0511 125.43 24.8807 125.533 24.642C125.635 24.3996 125.714 24.0739 125.771 23.6648C125.828 23.2557 125.868 22.7462 125.891 22.1364L126.044 18.2727H132.408V27H130.419V19.9602H127.913L127.777 22.7727C127.743 23.5 127.661 24.1307 127.533 24.6648C127.408 25.1951 127.23 25.6326 126.999 25.9773C126.771 26.322 126.485 26.5795 126.141 26.75C125.796 26.9167 125.389 27 124.919 27H124.283ZM139.087 21.8466V23.5398H134.388V21.8466H139.087ZM136.018 18.2727V27H133.956V18.2727H136.018ZM141.723 27.1705C140.882 27.1705 140.153 26.9792 139.536 26.5966C138.922 26.214 138.446 25.6837 138.109 25.0057C137.772 24.3277 137.604 23.5436 137.604 22.6534C137.604 21.7633 137.772 20.9811 138.109 20.3068C138.446 19.6326 138.922 19.1061 139.536 18.7273C140.153 18.3485 140.882 18.1591 141.723 18.1591C142.56 18.1591 143.286 18.3485 143.899 18.7273C144.517 19.1061 144.994 19.6326 145.331 20.3068C145.672 20.9811 145.842 21.7633 145.842 22.6534C145.842 23.5436 145.672 24.3277 145.331 25.0057C144.994 25.6837 144.517 26.214 143.899 26.5966C143.286 26.9792 142.56 27.1705 141.723 27.1705ZM141.723 25.4659C142.219 25.4659 142.625 25.3409 142.939 25.0909C143.253 24.8409 143.484 24.5038 143.632 24.0795C143.78 23.6553 143.854 23.1799 143.854 22.6534C143.854 22.1269 143.78 21.6515 143.632 21.2273C143.484 20.803 143.253 20.4678 142.939 20.2216C142.625 19.9716 142.219 19.8466 141.723 19.8466C141.223 19.8466 140.814 19.9716 140.496 20.2216C140.181 20.4678 139.95 20.803 139.803 21.2273C139.655 21.6515 139.581 22.1269 139.581 22.6534C139.581 23.1837 139.655 23.661 139.803 24.0852C139.95 24.5095 140.181 24.8466 140.496 25.0966C140.814 25.3428 141.223 25.4659 141.723 25.4659ZM154.661 15.0455L155.376 16.375C155.123 16.5947 154.839 16.7538 154.524 16.8523C154.21 16.9508 153.84 17.0152 153.416 17.0455C152.996 17.072 152.496 17.0909 151.916 17.1023C151.265 17.1174 150.732 17.2405 150.32 17.4716C149.907 17.7027 149.59 18.053 149.371 18.5227C149.151 18.9886 149.007 19.5833 148.939 20.3068H149.036C149.308 19.7727 149.691 19.3655 150.183 19.0852C150.676 18.8049 151.253 18.6648 151.916 18.6648C152.64 18.6648 153.278 18.8277 153.831 19.1534C154.388 19.4754 154.821 19.9432 155.132 20.5568C155.446 21.1705 155.604 21.9129 155.604 22.7841C155.604 23.6818 155.435 24.4602 155.098 25.1193C154.761 25.7746 154.282 26.2803 153.661 26.6364C153.043 26.9924 152.31 27.1705 151.462 27.1705C150.617 27.1705 149.882 26.9867 149.257 26.6193C148.636 26.2481 148.155 25.7008 147.814 24.9773C147.477 24.25 147.308 23.3542 147.308 22.2898V21.5057C147.308 19.4527 147.691 17.9205 148.456 16.9091C149.221 15.8977 150.356 15.3826 151.859 15.3636C152.306 15.3561 152.706 15.3542 153.058 15.358C153.414 15.3617 153.725 15.3447 153.99 15.3068C154.255 15.2689 154.479 15.1818 154.661 15.0455ZM151.473 25.5227C151.893 25.5227 152.257 25.4148 152.564 25.1989C152.871 24.9792 153.106 24.6686 153.268 24.267C153.435 23.8655 153.518 23.3902 153.518 22.8409C153.518 22.2992 153.435 21.839 153.268 21.4602C153.102 21.0777 152.865 20.786 152.558 20.5852C152.251 20.3845 151.886 20.2841 151.462 20.2841C151.143 20.2841 150.857 20.3409 150.604 20.4545C150.35 20.5682 150.134 20.7348 149.956 20.9545C149.778 21.1742 149.642 21.4413 149.547 21.7557C149.452 22.0701 149.401 22.4318 149.393 22.8409C149.393 23.6629 149.579 24.3163 149.95 24.8011C150.321 25.2822 150.829 25.5227 151.473 25.5227ZM159.337 24.2159L162.831 18.2727H164.945V27H162.956V21.0511L159.473 27H157.354V18.2727H159.337V24.2159ZM172.08 24.608L174.67 18.2727H176.33L172.801 27H171.364L167.915 18.2727H169.557L172.08 24.608ZM169.04 18.2727V27H167.057V18.2727H169.04ZM175.205 27V18.2727H177.17V27H175.205ZM183.051 27.1705C182.199 27.1705 181.46 26.983 180.835 26.608C180.21 26.233 179.725 25.7083 179.381 25.0341C179.04 24.3598 178.869 23.572 178.869 22.6705C178.869 21.7689 179.04 20.9792 179.381 20.3011C179.725 19.6231 180.21 19.0966 180.835 18.7216C181.46 18.3466 182.199 18.1591 183.051 18.1591C183.903 18.1591 184.642 18.3466 185.267 18.7216C185.892 19.0966 186.375 19.6231 186.716 20.3011C187.061 20.9792 187.233 21.7689 187.233 22.6705C187.233 23.572 187.061 24.3598 186.716 25.0341C186.375 25.7083 185.892 26.233 185.267 26.608C184.642 26.983 183.903 27.1705 183.051 27.1705ZM183.062 25.5227C183.525 25.5227 183.911 25.3958 184.222 25.142C184.532 24.8845 184.763 24.5398 184.915 24.108C185.07 23.6761 185.148 23.1951 185.148 22.6648C185.148 22.1307 185.07 21.6477 184.915 21.2159C184.763 20.7803 184.532 20.4337 184.222 20.1761C183.911 19.9186 183.525 19.7898 183.062 19.7898C182.589 19.7898 182.195 19.9186 181.881 20.1761C181.57 20.4337 181.337 20.7803 181.182 21.2159C181.03 21.6477 180.955 22.1307 180.955 22.6648C180.955 23.1951 181.03 23.6761 181.182 24.108C181.337 24.5398 181.57 24.8845 181.881 25.142C182.195 25.3958 182.589 25.5227 183.062 25.5227ZM192.842 27.1705C191.967 27.1705 191.212 26.9886 190.575 26.625C189.943 26.2576 189.456 25.7386 189.115 25.0682C188.774 24.3939 188.604 23.6004 188.604 22.6875C188.604 21.7898 188.774 21.0019 189.115 20.3239C189.46 19.642 189.941 19.1117 190.558 18.733C191.176 18.3504 191.901 18.1591 192.734 18.1591C193.272 18.1591 193.78 18.2462 194.257 18.4205C194.738 18.5909 195.162 18.8561 195.53 19.2159C195.901 19.5758 196.193 20.0341 196.405 20.5909C196.617 21.1439 196.723 21.803 196.723 22.5682V23.1989H189.57V21.8125H194.751C194.748 21.4186 194.662 21.0682 194.496 20.7614C194.329 20.4508 194.096 20.2064 193.797 20.0284C193.501 19.8504 193.157 19.7614 192.763 19.7614C192.342 19.7614 191.973 19.8636 191.655 20.0682C191.337 20.2689 191.089 20.5341 190.911 20.8636C190.736 21.1894 190.647 21.5473 190.643 21.9375V23.1477C190.643 23.6553 190.736 24.0909 190.922 24.4545C191.107 24.8144 191.367 25.0909 191.7 25.2841C192.034 25.4735 192.424 25.5682 192.871 25.5682C193.17 25.5682 193.441 25.5265 193.683 25.4432C193.926 25.3561 194.136 25.2292 194.314 25.0625C194.492 24.8958 194.626 24.6894 194.717 24.4432L196.638 24.6591C196.517 25.1667 196.286 25.6098 195.945 25.9886C195.607 26.3636 195.176 26.6553 194.649 26.8636C194.123 27.0682 193.52 27.1705 192.842 27.1705ZM22.0795 43.608L24.6705 37.2727H26.3295L22.8011 46H21.3636L17.9148 37.2727H19.5568L22.0795 43.608ZM19.0398 37.2727V46H17.0568V37.2727H19.0398ZM25.2045 46V37.2727H27.1705V46H25.2045ZM33.0511 46.1705C32.1989 46.1705 31.4602 45.983 30.8352 45.608C30.2102 45.233 29.7254 44.7083 29.3807 44.0341C29.0398 43.3598 28.8693 42.572 28.8693 41.6705C28.8693 40.7689 29.0398 39.9792 29.3807 39.3011C29.7254 38.6231 30.2102 38.0966 30.8352 37.7216C31.4602 37.3466 32.1989 37.1591 33.0511 37.1591C33.9034 37.1591 34.642 37.3466 35.267 37.7216C35.892 38.0966 36.375 38.6231 36.7159 39.3011C37.0606 39.9792 37.233 40.7689 37.233 41.6705C37.233 42.572 37.0606 43.3598 36.7159 44.0341C36.375 44.7083 35.892 45.233 35.267 45.608C34.642 45.983 33.9034 46.1705 33.0511 46.1705ZM33.0625 44.5227C33.5246 44.5227 33.911 44.3958 34.2216 44.142C34.5322 43.8845 34.7633 43.5398 34.9148 43.108C35.0701 42.6761 35.1477 42.1951 35.1477 41.6648C35.1477 41.1307 35.0701 40.6477 34.9148 40.2159C34.7633 39.7803 34.5322 39.4337 34.2216 39.1761C33.911 38.9186 33.5246 38.7898 33.0625 38.7898C32.589 38.7898 32.1951 38.9186 31.8807 39.1761C31.5701 39.4337 31.3371 39.7803 31.1818 40.2159C31.0303 40.6477 30.9545 41.1307 30.9545 41.6648C30.9545 42.1951 31.0303 42.6761 31.1818 43.108C31.3371 43.5398 31.5701 43.8845 31.8807 44.142C32.1951 44.3958 32.589 44.5227 33.0625 44.5227ZM38.9787 49.2727V37.2727H41.0014V38.7159H41.1207C41.2268 38.5038 41.3764 38.2784 41.5696 38.0398C41.7628 37.7973 42.0241 37.5909 42.3537 37.4205C42.6832 37.2462 43.1037 37.1591 43.6151 37.1591C44.2893 37.1591 44.8973 37.3314 45.4389 37.6761C45.9844 38.017 46.4162 38.5227 46.7344 39.1932C47.0563 39.8598 47.2173 40.678 47.2173 41.6477C47.2173 42.6061 47.0601 43.4205 46.7457 44.0909C46.4313 44.7614 46.0033 45.2727 45.4616 45.625C44.92 45.9773 44.3063 46.1534 43.6207 46.1534C43.1207 46.1534 42.706 46.0701 42.3764 45.9034C42.0469 45.7367 41.7817 45.536 41.581 45.3011C41.384 45.0625 41.2306 44.8371 41.1207 44.625H41.0355V49.2727H38.9787ZM40.9957 41.6364C40.9957 42.2008 41.0753 42.6951 41.2344 43.1193C41.3973 43.5436 41.6302 43.875 41.9332 44.1136C42.2401 44.3485 42.6113 44.4659 43.0469 44.4659C43.5014 44.4659 43.8821 44.3447 44.1889 44.1023C44.4957 43.8561 44.7268 43.5208 44.8821 43.0966C45.0412 42.6686 45.1207 42.1818 45.1207 41.6364C45.1207 41.0947 45.0431 40.6136 44.8878 40.1932C44.7325 39.7727 44.5014 39.4432 44.1946 39.2045C43.8878 38.9659 43.5052 38.8466 43.0469 38.8466C42.6075 38.8466 42.2344 38.9621 41.9276 39.1932C41.6207 39.4242 41.3878 39.7481 41.2287 40.1648C41.0734 40.5814 40.9957 41.072 40.9957 41.6364ZM52.7855 46.1705C51.9332 46.1705 51.1946 45.983 50.5696 45.608C49.9446 45.233 49.4598 44.7083 49.1151 44.0341C48.7741 43.3598 48.6037 42.572 48.6037 41.6705C48.6037 40.7689 48.7741 39.9792 49.1151 39.3011C49.4598 38.6231 49.9446 38.0966 50.5696 37.7216C51.1946 37.3466 51.9332 37.1591 52.7855 37.1591C53.6378 37.1591 54.3764 37.3466 55.0014 37.7216C55.6264 38.0966 56.1094 38.6231 56.4503 39.3011C56.795 39.9792 56.9673 40.7689 56.9673 41.6705C56.9673 42.572 56.795 43.3598 56.4503 44.0341C56.1094 44.7083 55.6264 45.233 55.0014 45.608C54.3764 45.983 53.6378 46.1705 52.7855 46.1705ZM52.7969 44.5227C53.259 44.5227 53.6454 44.3958 53.956 44.142C54.2666 43.8845 54.4976 43.5398 54.6491 43.108C54.8045 42.6761 54.8821 42.1951 54.8821 41.6648C54.8821 41.1307 54.8045 40.6477 54.6491 40.2159C54.4976 39.7803 54.2666 39.4337 53.956 39.1761C53.6454 38.9186 53.259 38.7898 52.7969 38.7898C52.3234 38.7898 51.9295 38.9186 51.6151 39.1761C51.3045 39.4337 51.0715 39.7803 50.9162 40.2159C50.7647 40.6477 50.6889 41.1307 50.6889 41.6648C50.6889 42.1951 50.7647 42.6761 50.9162 43.108C51.0715 43.5398 51.3045 43.8845 51.6151 44.142C51.9295 44.3958 52.3234 44.5227 52.7969 44.5227ZM57.8168 46L61.0384 41.4943L57.8452 37.2727H60.2202L62.7031 40.7898H63.1918V37.2727H65.2486V40.7898H65.7259L68.2088 37.2727H70.5838L67.4077 41.4943L70.6122 46H68.1861L65.7031 42.4773H65.2486V46H63.1918V42.4773H62.7372L60.2429 46H57.8168ZM75.6861 46.1705C74.8111 46.1705 74.0554 45.9886 73.419 45.625C72.7865 45.2576 72.2997 44.7386 71.9588 44.0682C71.6179 43.3939 71.4474 42.6004 71.4474 41.6875C71.4474 40.7898 71.6179 40.0019 71.9588 39.3239C72.3035 38.642 72.7846 38.1117 73.402 37.733C74.0194 37.3504 74.7448 37.1591 75.5781 37.1591C76.116 37.1591 76.6236 37.2462 77.1009 37.4205C77.5819 37.5909 78.0062 37.8561 78.3736 38.2159C78.7448 38.5758 79.0365 39.0341 79.2486 39.5909C79.4607 40.1439 79.5668 40.803 79.5668 41.5682V42.1989H72.4134V40.8125H77.5952C77.5914 40.4186 77.5062 40.0682 77.3395 39.7614C77.1728 39.4508 76.9399 39.2064 76.6406 39.0284C76.3452 38.8504 76.0005 38.7614 75.6065 38.7614C75.1861 38.7614 74.8168 38.8636 74.4986 39.0682C74.1804 39.2689 73.9323 39.5341 73.7543 39.8636C73.58 40.1894 73.491 40.5473 73.4872 40.9375V42.1477C73.4872 42.6553 73.58 43.0909 73.7656 43.4545C73.9512 43.8144 74.2107 44.0909 74.544 44.2841C74.8774 44.4735 75.2675 44.5682 75.7145 44.5682C76.0137 44.5682 76.2846 44.5265 76.527 44.4432C76.7694 44.3561 76.9796 44.2292 77.1577 44.0625C77.3357 43.8958 77.4702 43.6894 77.5611 43.4432L79.4815 43.6591C79.3603 44.1667 79.1293 44.6098 78.7884 44.9886C78.4512 45.3636 78.0194 45.6553 77.4929 45.8636C76.9664 46.0682 76.3641 46.1705 75.6861 46.1705ZM87.3011 40.7841V42.4716H82.6534V40.7841H87.3011ZM83.2898 37.2727V46H81.3068V37.2727H83.2898ZM88.6477 37.2727V46H86.6705V37.2727H88.6477ZM94.5355 46.1705C93.6832 46.1705 92.9446 45.983 92.3196 45.608C91.6946 45.233 91.2098 44.7083 90.8651 44.0341C90.5241 43.3598 90.3537 42.572 90.3537 41.6705C90.3537 40.7689 90.5241 39.9792 90.8651 39.3011C91.2098 38.6231 91.6946 38.0966 92.3196 37.7216C92.9446 37.3466 93.6832 37.1591 94.5355 37.1591C95.3878 37.1591 96.1264 37.3466 96.7514 37.7216C97.3764 38.0966 97.8594 38.6231 98.2003 39.3011C98.545 39.9792 98.7173 40.7689 98.7173 41.6705C98.7173 42.572 98.545 43.3598 98.2003 44.0341C97.8594 44.7083 97.3764 45.233 96.7514 45.608C96.1264 45.983 95.3878 46.1705 94.5355 46.1705ZM94.5469 44.5227C95.009 44.5227 95.3954 44.3958 95.706 44.142C96.0166 43.8845 96.2476 43.5398 96.3991 43.108C96.5545 42.6761 96.6321 42.1951 96.6321 41.6648C96.6321 41.1307 96.5545 40.6477 96.3991 40.2159C96.2476 39.7803 96.0166 39.4337 95.706 39.1761C95.3954 38.9186 95.009 38.7898 94.5469 38.7898C94.0734 38.7898 93.6795 38.9186 93.3651 39.1761C93.0545 39.4337 92.8215 39.7803 92.6662 40.2159C92.5147 40.6477 92.4389 41.1307 92.4389 41.6648C92.4389 42.1951 92.5147 42.6761 92.6662 43.108C92.8215 43.5398 93.0545 43.8845 93.3651 44.142C93.6795 44.3958 94.0734 44.5227 94.5469 44.5227ZM104.327 46.1705C103.452 46.1705 102.696 45.9886 102.06 45.625C101.427 45.2576 100.94 44.7386 100.599 44.0682C100.259 43.3939 100.088 42.6004 100.088 41.6875C100.088 40.7898 100.259 40.0019 100.599 39.3239C100.944 38.642 101.425 38.1117 102.043 37.733C102.66 37.3504 103.385 37.1591 104.219 37.1591C104.757 37.1591 105.264 37.2462 105.741 37.4205C106.223 37.5909 106.647 37.8561 107.014 38.2159C107.385 38.5758 107.677 39.0341 107.889 39.5909C108.101 40.1439 108.207 40.803 108.207 41.5682V42.1989H101.054V40.8125H106.236C106.232 40.4186 106.147 40.0682 105.98 39.7614C105.813 39.4508 105.58 39.2064 105.281 39.0284C104.986 38.8504 104.641 38.7614 104.247 38.7614C103.827 38.7614 103.457 38.8636 103.139 39.0682C102.821 39.2689 102.573 39.5341 102.395 39.8636C102.221 40.1894 102.132 40.5473 102.128 40.9375V42.1477C102.128 42.6553 102.221 43.0909 102.406 43.4545C102.592 43.8144 102.851 44.0909 103.185 44.2841C103.518 44.4735 103.908 44.5682 104.355 44.5682C104.654 44.5682 104.925 44.5265 105.168 44.4432C105.41 44.3561 105.62 44.2292 105.798 44.0625C105.976 43.8958 106.111 43.6894 106.202 43.4432L108.122 43.6591C108.001 44.1667 107.77 44.6098 107.429 44.9886C107.092 45.3636 106.66 45.6553 106.134 45.8636C105.607 46.0682 105.005 46.1705 104.327 46.1705ZM119.911 40.7841V42.4716H115.263V40.7841H119.911ZM115.899 37.2727V46H113.916V37.2727H115.899ZM121.257 37.2727V46H119.28V37.2727H121.257ZM125.849 46.1761C125.296 46.1761 124.798 46.0777 124.355 45.8807C123.916 45.6799 123.567 45.3845 123.31 44.9943C123.056 44.6042 122.929 44.1231 122.929 43.5511C122.929 43.0587 123.02 42.6515 123.202 42.3295C123.384 42.0076 123.632 41.75 123.946 41.5568C124.26 41.3636 124.615 41.2178 125.009 41.1193C125.406 41.017 125.817 40.9432 126.241 40.8977C126.753 40.8447 127.168 40.7973 127.486 40.7557C127.804 40.7102 128.035 40.642 128.179 40.5511C128.327 40.4564 128.401 40.3106 128.401 40.1136V40.0795C128.401 39.6515 128.274 39.3201 128.02 39.0852C127.766 38.8504 127.401 38.733 126.923 38.733C126.42 38.733 126.02 38.8428 125.724 39.0625C125.433 39.2822 125.236 39.5417 125.134 39.8409L123.213 39.5682C123.365 39.0379 123.615 38.5947 123.963 38.2386C124.312 37.8788 124.738 37.6098 125.241 37.4318C125.745 37.25 126.302 37.1591 126.912 37.1591C127.332 37.1591 127.751 37.2083 128.168 37.3068C128.584 37.4053 128.965 37.5682 129.31 37.7955C129.654 38.0189 129.931 38.3239 130.139 38.7102C130.351 39.0966 130.457 39.5795 130.457 40.1591V46H128.48V44.8011H128.412C128.287 45.0436 128.111 45.2708 127.884 45.483C127.66 45.6913 127.378 45.8598 127.037 45.9886C126.7 46.1136 126.304 46.1761 125.849 46.1761ZM126.384 44.6648C126.796 44.6648 127.154 44.5833 127.457 44.4205C127.76 44.2538 127.993 44.0341 128.156 43.7614C128.323 43.4886 128.406 43.1913 128.406 42.8693V41.8409C128.342 41.8939 128.232 41.9432 128.077 41.9886C127.925 42.0341 127.755 42.0739 127.565 42.108C127.376 42.142 127.188 42.1723 127.003 42.1989C126.817 42.2254 126.656 42.2481 126.52 42.267C126.213 42.3087 125.938 42.3769 125.696 42.4716C125.454 42.5663 125.262 42.6989 125.122 42.8693C124.982 43.036 124.912 43.2519 124.912 43.517C124.912 43.8958 125.05 44.1818 125.327 44.375C125.603 44.5682 125.955 44.6648 126.384 44.6648ZM136.494 46V37.2727H140.159C141.193 37.2727 142.009 37.4792 142.608 37.892C143.21 38.3049 143.511 38.8807 143.511 39.6193C143.511 40.108 143.341 40.5076 143 40.8182C142.663 41.125 142.203 41.3314 141.619 41.4375C142.078 41.4754 142.479 41.5909 142.824 41.7841C143.172 41.9773 143.445 42.2311 143.642 42.5455C143.839 42.8598 143.938 43.2216 143.938 43.6307C143.938 44.1117 143.811 44.5303 143.557 44.8864C143.307 45.2386 142.941 45.5133 142.46 45.7102C141.983 45.9034 141.403 46 140.722 46H136.494ZM138.42 44.3807H140.722C141.1 44.3807 141.398 44.2917 141.614 44.1136C141.83 43.9318 141.938 43.6856 141.938 43.375C141.938 43.0152 141.83 42.733 141.614 42.5284C141.398 42.3201 141.1 42.2159 140.722 42.2159H138.42V44.3807ZM138.42 40.8864H140.199C140.479 40.8864 140.72 40.8466 140.92 40.767C141.121 40.6837 141.275 40.5682 141.381 40.4205C141.487 40.2689 141.54 40.089 141.54 39.8807C141.54 39.5814 141.417 39.3466 141.17 39.1761C140.928 39.0057 140.591 38.9205 140.159 38.9205H138.42V40.8864ZM147.317 37.2727L149.078 40.4943L150.868 37.2727H153.044L150.413 41.6364L153.089 46H150.925L149.078 42.858L147.249 46H145.067L147.726 41.6364L145.135 37.2727H147.317ZM158.114 46.1705C157.261 46.1705 156.523 45.983 155.898 45.608C155.273 45.233 154.788 44.7083 154.443 44.0341C154.102 43.3598 153.932 42.572 153.932 41.6705C153.932 40.7689 154.102 39.9792 154.443 39.3011C154.788 38.6231 155.273 38.0966 155.898 37.7216C156.523 37.3466 157.261 37.1591 158.114 37.1591C158.966 37.1591 159.705 37.3466 160.33 37.7216C160.955 38.0966 161.438 38.6231 161.778 39.3011C162.123 39.9792 162.295 40.7689 162.295 41.6705C162.295 42.572 162.123 43.3598 161.778 44.0341C161.438 44.7083 160.955 45.233 160.33 45.608C159.705 45.983 158.966 46.1705 158.114 46.1705ZM158.125 44.5227C158.587 44.5227 158.973 44.3958 159.284 44.142C159.595 43.8845 159.826 43.5398 159.977 43.108C160.133 42.6761 160.21 42.1951 160.21 41.6648C160.21 41.1307 160.133 40.6477 159.977 40.2159C159.826 39.7803 159.595 39.4337 159.284 39.1761C158.973 38.9186 158.587 38.7898 158.125 38.7898C157.652 38.7898 157.258 38.9186 156.943 39.1761C156.633 39.4337 156.4 39.7803 156.244 40.2159C156.093 40.6477 156.017 41.1307 156.017 41.6648C156.017 42.1951 156.093 42.6761 156.244 43.108C156.4 43.5398 156.633 43.8845 156.943 44.142C157.258 44.3958 157.652 44.5227 158.125 44.5227ZM163.268 48.5341V44.3068H163.962C164.147 44.1629 164.303 43.9678 164.428 43.7216C164.553 43.4716 164.655 43.178 164.734 42.8409C164.818 42.5 164.886 42.1193 164.939 41.6989C164.992 41.2746 165.039 40.8182 165.081 40.3295L165.331 37.2727H171.638V44.3068H172.99V48.5341H171.001V46H165.291V48.5341H163.268ZM166.075 44.3068H169.672V38.9318H167.115L166.979 40.3295C166.903 41.2538 166.803 42.0455 166.678 42.7045C166.553 43.3636 166.352 43.8977 166.075 44.3068ZM178.389 46.1705C177.514 46.1705 176.759 45.9886 176.122 45.625C175.49 45.2576 175.003 44.7386 174.662 44.0682C174.321 43.3939 174.151 42.6004 174.151 41.6875C174.151 40.7898 174.321 40.0019 174.662 39.3239C175.007 38.642 175.488 38.1117 176.105 37.733C176.723 37.3504 177.448 37.1591 178.281 37.1591C178.819 37.1591 179.327 37.2462 179.804 37.4205C180.285 37.5909 180.709 37.8561 181.077 38.2159C181.448 38.5758 181.74 39.0341 181.952 39.5909C182.164 40.1439 182.27 40.803 182.27 41.5682V42.1989H175.116V40.8125H180.298C180.295 40.4186 180.209 40.0682 180.043 39.7614C179.876 39.4508 179.643 39.2064 179.344 39.0284C179.048 38.8504 178.704 38.7614 178.31 38.7614C177.889 38.7614 177.52 38.8636 177.202 39.0682C176.884 39.2689 176.635 39.5341 176.457 39.8636C176.283 40.1894 176.194 40.5473 176.19 40.9375V42.1477C176.19 42.6553 176.283 43.0909 176.469 43.4545C176.654 43.8144 176.914 44.0909 177.247 44.2841C177.58 44.4735 177.971 44.5682 178.418 44.5682C178.717 44.5682 178.988 44.5265 179.23 44.4432C179.473 44.3561 179.683 44.2292 179.861 44.0625C180.039 43.8958 180.173 43.6894 180.264 43.4432L182.185 43.6591C182.063 44.1667 181.832 44.6098 181.491 44.9886C181.154 45.3636 180.723 45.6553 180.196 45.8636C179.67 46.0682 179.067 46.1705 178.389 46.1705ZM187.979 46V37.2727H195.348V46H193.365V38.9602H189.945V46H187.979ZM197.463 49.2727V37.2727H199.486V38.7159H199.605C199.711 38.5038 199.861 38.2784 200.054 38.0398C200.247 37.7973 200.509 37.5909 200.838 37.4205C201.168 37.2462 201.588 37.1591 202.099 37.1591C202.774 37.1591 203.382 37.3314 203.923 37.6761C204.469 38.017 204.901 38.5227 205.219 39.1932C205.541 39.8598 205.702 40.678 205.702 41.6477C205.702 42.6061 205.545 43.4205 205.23 44.0909C204.916 44.7614 204.488 45.2727 203.946 45.625C203.404 45.9773 202.791 46.1534 202.105 46.1534C201.605 46.1534 201.19 46.0701 200.861 45.9034C200.531 45.7367 200.266 45.536 200.065 45.3011C199.868 45.0625 199.715 44.8371 199.605 44.625H199.52V49.2727H197.463ZM199.48 41.6364C199.48 42.2008 199.56 42.6951 199.719 43.1193C199.882 43.5436 200.115 43.875 200.418 44.1136C200.724 44.3485 201.096 44.4659 201.531 44.4659C201.986 44.4659 202.366 44.3447 202.673 44.1023C202.98 43.8561 203.211 43.5208 203.366 43.0966C203.526 42.6686 203.605 42.1818 203.605 41.6364C203.605 41.0947 203.527 40.6136 203.372 40.1932C203.217 39.7727 202.986 39.4432 202.679 39.2045C202.372 38.9659 201.99 38.8466 201.531 38.8466C201.092 38.8466 200.719 38.9621 200.412 39.1932C200.105 39.4242 199.872 39.7481 199.713 40.1648C199.558 40.5814 199.48 41.072 199.48 41.6364ZM211.27 46.1705C210.418 46.1705 209.679 45.983 209.054 45.608C208.429 45.233 207.944 44.7083 207.599 44.0341C207.259 43.3598 207.088 42.572 207.088 41.6705C207.088 40.7689 207.259 39.9792 207.599 39.3011C207.944 38.6231 208.429 38.0966 209.054 37.7216C209.679 37.3466 210.418 37.1591 211.27 37.1591C212.122 37.1591 212.861 37.3466 213.486 37.7216C214.111 38.0966 214.594 38.6231 214.935 39.3011C215.279 39.9792 215.452 40.7689 215.452 41.6705C215.452 42.572 215.279 43.3598 214.935 44.0341C214.594 44.7083 214.111 45.233 213.486 45.608C212.861 45.983 212.122 46.1705 211.27 46.1705ZM211.281 44.5227C211.743 44.5227 212.13 44.3958 212.44 44.142C212.751 43.8845 212.982 43.5398 213.134 43.108C213.289 42.6761 213.366 42.1951 213.366 41.6648C213.366 41.1307 213.289 40.6477 213.134 40.2159C212.982 39.7803 212.751 39.4337 212.44 39.1761C212.13 38.9186 211.743 38.7898 211.281 38.7898C210.808 38.7898 210.414 38.9186 210.099 39.1761C209.789 39.4337 209.556 39.7803 209.401 40.2159C209.249 40.6477 209.173 41.1307 209.173 41.6648C209.173 42.1951 209.249 42.6761 209.401 43.108C209.556 43.5398 209.789 43.8845 210.099 44.142C210.414 44.3958 210.808 44.5227 211.281 44.5227ZM216.425 48.5341V44.3068H217.118C217.304 44.1629 217.459 43.9678 217.584 43.7216C217.709 43.4716 217.811 43.178 217.891 42.8409C217.974 42.5 218.042 42.1193 218.095 41.6989C218.148 41.2746 218.196 40.8182 218.237 40.3295L218.487 37.2727H224.794V44.3068H226.146V48.5341H224.158V46H218.447V48.5341H216.425ZM219.232 44.3068H222.828V38.9318H220.271L220.135 40.3295C220.059 41.2538 219.959 42.0455 219.834 42.7045C219.709 43.3636 219.508 43.8977 219.232 44.3068ZM230.193 46.1761C229.64 46.1761 229.142 46.0777 228.699 45.8807C228.259 45.6799 227.911 45.3845 227.653 44.9943C227.4 44.6042 227.273 44.1231 227.273 43.5511C227.273 43.0587 227.364 42.6515 227.545 42.3295C227.727 42.0076 227.975 41.75 228.29 41.5568C228.604 41.3636 228.958 41.2178 229.352 41.1193C229.75 41.017 230.161 40.9432 230.585 40.8977C231.097 40.8447 231.511 40.7973 231.83 40.7557C232.148 40.7102 232.379 40.642 232.523 40.5511C232.67 40.4564 232.744 40.3106 232.744 40.1136V40.0795C232.744 39.6515 232.617 39.3201 232.364 39.0852C232.11 38.8504 231.744 38.733 231.267 38.733C230.763 38.733 230.364 38.8428 230.068 39.0625C229.777 39.2822 229.58 39.5417 229.477 39.8409L227.557 39.5682C227.708 39.0379 227.958 38.5947 228.307 38.2386C228.655 37.8788 229.081 37.6098 229.585 37.4318C230.089 37.25 230.646 37.1591 231.256 37.1591C231.676 37.1591 232.095 37.2083 232.511 37.3068C232.928 37.4053 233.309 37.5682 233.653 37.7955C233.998 38.0189 234.275 38.3239 234.483 38.7102C234.695 39.0966 234.801 39.5795 234.801 40.1591V46H232.824V44.8011H232.756C232.631 45.0436 232.455 45.2708 232.227 45.483C232.004 45.6913 231.722 45.8598 231.381 45.9886C231.044 46.1136 230.648 46.1761 230.193 46.1761ZM230.727 44.6648C231.14 44.6648 231.498 44.5833 231.801 44.4205C232.104 44.2538 232.337 44.0341 232.5 43.7614C232.667 43.4886 232.75 43.1913 232.75 42.8693V41.8409C232.686 41.8939 232.576 41.9432 232.42 41.9886C232.269 42.0341 232.098 42.0739 231.909 42.108C231.72 42.142 231.532 42.1723 231.347 42.1989C231.161 42.2254 231 42.2481 230.864 42.267C230.557 42.3087 230.282 42.3769 230.04 42.4716C229.797 42.5663 229.606 42.6989 229.466 42.8693C229.326 43.036 229.256 43.2519 229.256 43.517C229.256 43.8958 229.394 44.1818 229.67 44.375C229.947 44.5682 230.299 44.6648 230.727 44.6648ZM241.477 40.8466V42.5398H236.778V40.8466H241.477ZM238.409 37.2727V46H236.347V37.2727H238.409ZM244.114 46.1705C243.273 46.1705 242.544 45.9792 241.926 45.5966C241.313 45.214 240.837 44.6837 240.5 44.0057C240.163 43.3277 239.994 42.5436 239.994 41.6534C239.994 40.7633 240.163 39.9811 240.5 39.3068C240.837 38.6326 241.313 38.1061 241.926 37.7273C242.544 37.3485 243.273 37.1591 244.114 37.1591C244.951 37.1591 245.676 37.3485 246.29 37.7273C246.907 38.1061 247.384 38.6326 247.722 39.3068C248.063 39.9811 248.233 40.7633 248.233 41.6534C248.233 42.5436 248.063 43.3277 247.722 44.0057C247.384 44.6837 246.907 45.214 246.29 45.5966C245.676 45.9792 244.951 46.1705 244.114 46.1705ZM244.114 44.4659C244.61 44.4659 245.015 44.3409 245.33 44.0909C245.644 43.8409 245.875 43.5038 246.023 43.0795C246.17 42.6553 246.244 42.1799 246.244 41.6534C246.244 41.1269 246.17 40.6515 246.023 40.2273C245.875 39.803 245.644 39.4678 245.33 39.2216C245.015 38.9716 244.61 38.8466 244.114 38.8466C243.614 38.8466 243.205 38.9716 242.886 39.2216C242.572 39.4678 242.341 39.803 242.193 40.2273C242.045 40.6515 241.972 41.1269 241.972 41.6534C241.972 42.1837 242.045 42.661 242.193 43.0852C242.341 43.5095 242.572 43.8466 242.886 44.0966C243.205 44.3428 243.614 44.4659 244.114 44.4659ZM249.095 38.9602V37.2727H256.732V38.9602H253.908V46H251.919V38.9602H249.095ZM260.886 34.3636L260.699 42.5795H258.869L258.688 34.3636H260.886ZM259.784 46.125C259.439 46.125 259.144 46.0038 258.898 45.7614C258.655 45.5189 258.534 45.2235 258.534 44.875C258.534 44.5341 258.655 44.2424 258.898 44C259.144 43.7576 259.439 43.6364 259.784 43.6364C260.121 43.6364 260.413 43.7576 260.659 44C260.909 44.2424 261.034 44.5341 261.034 44.875C261.034 45.1061 260.975 45.3163 260.858 45.5057C260.744 45.6951 260.593 45.8466 260.403 45.9602C260.218 46.0701 260.011 46.125 259.784 46.125Z" fill="#1D1F20"/>
<path d="M0.5 12C0.5 5.64873 5.64873 0.5 12 0.5H267C273.351 0.5 278.5 5.64873 278.5 12V50C278.5 56.3513 273.351 61.5 267 61.5H12C5.64873 61.5 0.5 56.3513 0.5 50V12Z" stroke="#A9812A"/>
<path d="M31.0004 93.5L74.8086 61.5H43.646L31.0004 93.5Z" stroke="#A9812A"/>
<path d="M31.9033 92.5L76.0859 60L45.0006 59.5L31.9033 92.5Z" fill="#FFFDF7"/>
</svg>
