<svg width="371" height="77" viewBox="0 0 371 77" fill="none" xmlns="http://www.w3.org/2000/svg">
<path d="M0.5 12C0.5 5.64873 5.64873 0.5 12 0.5H359C365.351 0.5 370.5 5.64873 370.5 12V31C370.5 37.3513 365.351 42.5 359 42.5H12C5.64872 42.5 0.5 37.3513 0.5 31V12Z" fill="#FFFDF7"/>
<path d="M16.392 29.8068V25.2784H17.1705C17.4318 25.0701 17.6761 24.7765 17.9034 24.3977C18.1307 24.0189 18.3239 23.5 18.483 22.8409C18.642 22.1818 18.7519 21.3295 18.8125 20.2841L19.1193 15.3636H26.5568V25.2784H27.8523V29.7955H25.8295V27H18.4148V29.8068H16.392ZM19.625 25.2784H24.5341V17.1307H21.017L20.8352 20.2841C20.786 21.0758 20.7064 21.7841 20.5966 22.4091C20.4867 23.0341 20.3485 23.5852 20.1818 24.0625C20.0152 24.536 19.8295 24.9413 19.625 25.2784ZM31.9901 27.1761C31.437 27.1761 30.9389 27.0777 30.4957 26.8807C30.0563 26.6799 29.7079 26.3845 29.4503 25.9943C29.1965 25.6042 29.0696 25.1231 29.0696 24.5511C29.0696 24.0587 29.1605 23.6515 29.3423 23.3295C29.5241 23.0076 29.7723 22.75 30.0866 22.5568C30.401 22.3636 30.7552 22.2178 31.1491 22.1193C31.5469 22.017 31.9579 21.9432 32.3821 21.8977C32.8935 21.8447 33.3082 21.7973 33.6264 21.7557C33.9446 21.7102 34.1757 21.642 34.3196 21.5511C34.4673 21.4564 34.5412 21.3106 34.5412 21.1136V21.0795C34.5412 20.6515 34.4143 20.3201 34.1605 20.0852C33.9067 19.8504 33.5412 19.733 33.0639 19.733C32.5601 19.733 32.1605 19.8428 31.8651 20.0625C31.5734 20.2822 31.3764 20.5417 31.2741 20.8409L29.3537 20.5682C29.5052 20.0379 29.7552 19.5947 30.1037 19.2386C30.4522 18.8788 30.8783 18.6098 31.3821 18.4318C31.8859 18.25 32.4427 18.1591 33.0526 18.1591C33.473 18.1591 33.8916 18.2083 34.3082 18.3068C34.7249 18.4053 35.1056 18.5682 35.4503 18.7955C35.795 19.0189 36.0715 19.3239 36.2798 19.7102C36.492 20.0966 36.598 20.5795 36.598 21.1591V27H34.6207V25.8011H34.5526C34.4276 26.0436 34.2514 26.2708 34.0241 26.483C33.8007 26.6913 33.5185 26.8598 33.1776 26.9886C32.8404 27.1136 32.4446 27.1761 31.9901 27.1761ZM32.5241 25.6648C32.937 25.6648 33.295 25.5833 33.598 25.4205C33.901 25.2538 34.134 25.0341 34.2969 24.7614C34.4635 24.4886 34.5469 24.1913 34.5469 23.8693V22.8409C34.4825 22.8939 34.3726 22.9432 34.2173 22.9886C34.0658 23.0341 33.8954 23.0739 33.706 23.108C33.5166 23.142 33.3291 23.1723 33.1435 23.1989C32.9579 23.2254 32.7969 23.2481 32.6605 23.267C32.3537 23.3087 32.0791 23.3769 31.8366 23.4716C31.5942 23.5663 31.4029 23.6989 31.2628 23.8693C31.1226 24.036 31.0526 24.2519 31.0526 24.517C31.0526 24.8958 31.1908 25.1818 31.4673 25.375C31.7438 25.5682 32.0961 25.6648 32.5241 25.6648ZM38.098 27L41.3196 22.4943L38.1264 18.2727H40.5014L42.9844 21.7898H43.473V18.2727H45.5298V21.7898H46.0071L48.4901 18.2727H50.8651L47.6889 22.4943L50.8935 27H48.4673L45.9844 23.4773H45.5298V27H43.473V23.4773H43.0185L40.5241 27H38.098ZM55.9673 27.1705C55.0923 27.1705 54.3366 26.9886 53.7003 26.625C53.0677 26.2576 52.581 25.7386 52.2401 25.0682C51.8991 24.3939 51.7287 23.6004 51.7287 22.6875C51.7287 21.7898 51.8991 21.0019 52.2401 20.3239C52.5848 19.642 53.0658 19.1117 53.6832 18.733C54.3007 18.3504 55.026 18.1591 55.8594 18.1591C56.3973 18.1591 56.9048 18.2462 57.3821 18.4205C57.8632 18.5909 58.2874 18.8561 58.6548 19.2159C59.026 19.5758 59.3177 20.0341 59.5298 20.5909C59.742 21.1439 59.848 21.803 59.848 22.5682V23.1989H52.6946V21.8125H57.8764C57.8726 21.4186 57.7874 21.0682 57.6207 20.7614C57.4541 20.4508 57.2211 20.2064 56.9219 20.0284C56.6264 19.8504 56.2817 19.7614 55.8878 19.7614C55.4673 19.7614 55.098 19.8636 54.7798 20.0682C54.4616 20.2689 54.2135 20.5341 54.0355 20.8636C53.8613 21.1894 53.7723 21.5473 53.7685 21.9375V23.1477C53.7685 23.6553 53.8613 24.0909 54.0469 24.4545C54.2325 24.8144 54.492 25.0909 54.8253 25.2841C55.1586 25.4735 55.5488 25.5682 55.9957 25.5682C56.295 25.5682 56.5658 25.5265 56.8082 25.4432C57.0507 25.3561 57.2609 25.2292 57.4389 25.0625C57.617 24.8958 57.7514 24.6894 57.8423 24.4432L59.7628 24.6591C59.6416 25.1667 59.4105 25.6098 59.0696 25.9886C58.7325 26.3636 58.3007 26.6553 57.7741 26.8636C57.2476 27.0682 56.6454 27.1705 55.9673 27.1705ZM65.0795 19.9602V18.2727H72.7159V19.9602H69.892V27H67.9034V19.9602H65.0795ZM74.3537 30.2727V18.2727H76.3764V19.7159H76.4957C76.6018 19.5038 76.7514 19.2784 76.9446 19.0398C77.1378 18.7973 77.3991 18.5909 77.7287 18.4205C78.0582 18.2462 78.4787 18.1591 78.9901 18.1591C79.6643 18.1591 80.2723 18.3314 80.8139 18.6761C81.3594 19.017 81.7912 19.5227 82.1094 20.1932C82.4313 20.8598 82.5923 21.678 82.5923 22.6477C82.5923 23.6061 82.4351 24.4205 82.1207 25.0909C81.8063 25.7614 81.3783 26.2727 80.8366 26.625C80.295 26.9773 79.6813 27.1534 78.9957 27.1534C78.4957 27.1534 78.081 27.0701 77.7514 26.9034C77.4219 26.7367 77.1567 26.536 76.956 26.3011C76.759 26.0625 76.6056 25.8371 76.4957 25.625H76.4105V30.2727H74.3537ZM76.3707 22.6364C76.3707 23.2008 76.4503 23.6951 76.6094 24.1193C76.7723 24.5436 77.0052 24.875 77.3082 25.1136C77.6151 25.3485 77.9863 25.4659 78.4219 25.4659C78.8764 25.4659 79.2571 25.3447 79.5639 25.1023C79.8707 24.8561 80.1018 24.5208 80.2571 24.0966C80.4162 23.6686 80.4957 23.1818 80.4957 22.6364C80.4957 22.0947 80.4181 21.6136 80.2628 21.1932C80.1075 20.7727 79.8764 20.4432 79.5696 20.2045C79.2628 19.9659 78.8802 19.8466 78.4219 19.8466C77.9825 19.8466 77.6094 19.9621 77.3026 20.1932C76.9957 20.4242 76.7628 20.7481 76.6037 21.1648C76.4484 21.5814 76.3707 22.072 76.3707 22.6364ZM88.2173 27.1705C87.3423 27.1705 86.5866 26.9886 85.9503 26.625C85.3177 26.2576 84.831 25.7386 84.4901 25.0682C84.1491 24.3939 83.9787 23.6004 83.9787 22.6875C83.9787 21.7898 84.1491 21.0019 84.4901 20.3239C84.8348 19.642 85.3158 19.1117 85.9332 18.733C86.5507 18.3504 87.276 18.1591 88.1094 18.1591C88.6473 18.1591 89.1548 18.2462 89.6321 18.4205C90.1132 18.5909 90.5374 18.8561 90.9048 19.2159C91.276 19.5758 91.5677 20.0341 91.7798 20.5909C91.992 21.1439 92.098 21.803 92.098 22.5682V23.1989H84.9446V21.8125H90.1264C90.1226 21.4186 90.0374 21.0682 89.8707 20.7614C89.7041 20.4508 89.4711 20.2064 89.1719 20.0284C88.8764 19.8504 88.5317 19.7614 88.1378 19.7614C87.7173 19.7614 87.348 19.8636 87.0298 20.0682C86.7116 20.2689 86.4635 20.5341 86.2855 20.8636C86.1113 21.1894 86.0223 21.5473 86.0185 21.9375V23.1477C86.0185 23.6553 86.1113 24.0909 86.2969 24.4545C86.4825 24.8144 86.742 25.0909 87.0753 25.2841C87.4086 25.4735 87.7988 25.5682 88.2457 25.5682C88.545 25.5682 88.8158 25.5265 89.0582 25.4432C89.3007 25.3561 89.5109 25.2292 89.6889 25.0625C89.867 24.8958 90.0014 24.6894 90.0923 24.4432L92.0128 24.6591C91.8916 25.1667 91.6605 25.6098 91.3196 25.9886C90.9825 26.3636 90.5507 26.6553 90.0241 26.8636C89.4976 27.0682 88.8954 27.1705 88.2173 27.1705ZM99.8324 21.7841V23.4716H95.1847V21.7841H99.8324ZM95.821 18.2727V27H93.8381V18.2727H95.821ZM101.179 18.2727V27H99.2017V18.2727H101.179ZM105.771 27.1761C105.218 27.1761 104.72 27.0777 104.277 26.8807C103.838 26.6799 103.489 26.3845 103.232 25.9943C102.978 25.6042 102.851 25.1231 102.851 24.5511C102.851 24.0587 102.942 23.6515 103.124 23.3295C103.305 23.0076 103.554 22.75 103.868 22.5568C104.182 22.3636 104.536 22.2178 104.93 22.1193C105.328 22.017 105.739 21.9432 106.163 21.8977C106.675 21.8447 107.089 21.7973 107.408 21.7557C107.726 21.7102 107.957 21.642 108.101 21.5511C108.249 21.4564 108.322 21.3106 108.322 21.1136V21.0795C108.322 20.6515 108.196 20.3201 107.942 20.0852C107.688 19.8504 107.322 19.733 106.845 19.733C106.341 19.733 105.942 19.8428 105.646 20.0625C105.355 20.2822 105.158 20.5417 105.055 20.8409L103.135 20.5682C103.286 20.0379 103.536 19.5947 103.885 19.2386C104.233 18.8788 104.66 18.6098 105.163 18.4318C105.667 18.25 106.224 18.1591 106.834 18.1591C107.254 18.1591 107.673 18.2083 108.089 18.3068C108.506 18.4053 108.887 18.5682 109.232 18.7955C109.576 19.0189 109.853 19.3239 110.061 19.7102C110.273 20.0966 110.379 20.5795 110.379 21.1591V27H108.402V25.8011H108.334C108.209 26.0436 108.033 26.2708 107.805 26.483C107.582 26.6913 107.3 26.8598 106.959 26.9886C106.622 27.1136 106.226 27.1761 105.771 27.1761ZM106.305 25.6648C106.718 25.6648 107.076 25.5833 107.379 25.4205C107.682 25.2538 107.915 25.0341 108.078 24.7614C108.245 24.4886 108.328 24.1913 108.328 23.8693V22.8409C108.264 22.8939 108.154 22.9432 107.999 22.9886C107.847 23.0341 107.677 23.0739 107.487 23.108C107.298 23.142 107.11 23.1723 106.925 23.1989C106.739 23.2254 106.578 23.2481 106.442 23.267C106.135 23.3087 105.86 23.3769 105.618 23.4716C105.375 23.5663 105.184 23.6989 105.044 23.8693C104.904 24.036 104.834 24.2519 104.834 24.517C104.834 24.8958 104.972 25.1818 105.249 25.375C105.525 25.5682 105.877 25.6648 106.305 25.6648ZM111.879 27L115.101 22.4943L111.908 18.2727H114.283L116.766 21.7898H117.254V18.2727H119.311V21.7898H119.788L122.271 18.2727H124.646L121.47 22.4943L124.675 27H122.249L119.766 23.4773H119.311V27H117.254V23.4773H116.8L114.305 27H111.879ZM129.749 27.1705C128.874 27.1705 128.118 26.9886 127.482 26.625C126.849 26.2576 126.362 25.7386 126.021 25.0682C125.68 24.3939 125.51 23.6004 125.51 22.6875C125.51 21.7898 125.68 21.0019 126.021 20.3239C126.366 19.642 126.847 19.1117 127.464 18.733C128.082 18.3504 128.807 18.1591 129.641 18.1591C130.179 18.1591 130.686 18.2462 131.163 18.4205C131.644 18.5909 132.069 18.8561 132.436 19.2159C132.807 19.5758 133.099 20.0341 133.311 20.5909C133.523 21.1439 133.629 21.803 133.629 22.5682V23.1989H126.476V21.8125H131.658C131.654 21.4186 131.569 21.0682 131.402 20.7614C131.235 20.4508 131.002 20.2064 130.703 20.0284C130.408 19.8504 130.063 19.7614 129.669 19.7614C129.249 19.7614 128.879 19.8636 128.561 20.0682C128.243 20.2689 127.995 20.5341 127.817 20.8636C127.643 21.1894 127.554 21.5473 127.55 21.9375V23.1477C127.55 23.6553 127.643 24.0909 127.828 24.4545C128.014 24.8144 128.273 25.0909 128.607 25.2841C128.94 25.4735 129.33 25.5682 129.777 25.5682C130.076 25.5682 130.347 25.5265 130.589 25.4432C130.832 25.3561 131.042 25.2292 131.22 25.0625C131.398 24.8958 131.533 24.6894 131.624 24.4432L133.544 24.6591C133.423 25.1667 133.192 25.6098 132.851 25.9886C132.514 26.3636 132.082 26.6553 131.555 26.8636C131.029 27.0682 130.427 27.1705 129.749 27.1705ZM127.885 16.9886C127.586 16.9886 127.326 16.8826 127.107 16.6705C126.891 16.4583 126.783 16.2083 126.783 15.9205C126.783 15.6174 126.891 15.3636 127.107 15.1591C127.326 14.9508 127.586 14.8466 127.885 14.8466C128.192 14.8466 128.449 14.9508 128.658 15.1591C128.87 15.3636 128.976 15.6174 128.976 15.9205C128.976 16.2083 128.87 16.4583 128.658 16.6705C128.449 16.8826 128.192 16.9886 127.885 16.9886ZM131.294 16.9886C130.995 16.9886 130.735 16.8826 130.516 16.6705C130.3 16.4583 130.192 16.2083 130.192 15.9205C130.192 15.6174 130.3 15.3636 130.516 15.1591C130.735 14.9508 130.995 14.8466 131.294 14.8466C131.601 14.8466 131.858 14.9508 132.067 15.1591C132.279 15.3636 132.385 15.6174 132.385 15.9205C132.385 16.2083 132.279 16.4583 132.067 16.6705C131.858 16.8826 131.601 16.9886 131.294 16.9886ZM135.369 30.2727V18.2727H137.392V19.7159H137.511C137.617 19.5038 137.767 19.2784 137.96 19.0398C138.153 18.7973 138.415 18.5909 138.744 18.4205C139.074 18.2462 139.494 18.1591 140.006 18.1591C140.68 18.1591 141.288 18.3314 141.83 18.6761C142.375 19.017 142.807 19.5227 143.125 20.1932C143.447 20.8598 143.608 21.678 143.608 22.6477C143.608 23.6061 143.451 24.4205 143.136 25.0909C142.822 25.7614 142.394 26.2727 141.852 26.625C141.311 26.9773 140.697 27.1534 140.011 27.1534C139.511 27.1534 139.097 27.0701 138.767 26.9034C138.438 26.7367 138.172 26.536 137.972 26.3011C137.775 26.0625 137.621 25.8371 137.511 25.625H137.426V30.2727H135.369ZM137.386 22.6364C137.386 23.2008 137.466 23.6951 137.625 24.1193C137.788 24.5436 138.021 24.875 138.324 25.1136C138.631 25.3485 139.002 25.4659 139.438 25.4659C139.892 25.4659 140.273 25.3447 140.58 25.1023C140.886 24.8561 141.117 24.5208 141.273 24.0966C141.432 23.6686 141.511 23.1818 141.511 22.6364C141.511 22.0947 141.434 21.6136 141.278 21.1932C141.123 20.7727 140.892 20.4432 140.585 20.2045C140.278 19.9659 139.896 19.8466 139.438 19.8466C138.998 19.8466 138.625 19.9621 138.318 20.1932C138.011 20.4242 137.778 20.7481 137.619 21.1648C137.464 21.5814 137.386 22.072 137.386 22.6364ZM146.761 21.1136H149.335C150.449 21.1136 151.311 21.3845 151.92 21.9261C152.53 22.4678 152.837 23.178 152.841 24.0568C152.837 24.6288 152.697 25.1364 152.42 25.5795C152.148 26.0227 151.75 26.3712 151.227 26.625C150.708 26.875 150.078 27 149.335 27H145.369V18.2727H147.352V25.3125H149.335C149.782 25.3125 150.15 25.1989 150.438 24.9716C150.725 24.7405 150.869 24.4451 150.869 24.0852C150.869 23.7064 150.725 23.3977 150.438 23.1591C150.15 22.9205 149.782 22.8011 149.335 22.8011H146.761V21.1136ZM153.926 27V18.2727H155.983V27H153.926ZM162.072 27V18.2727H169.442V27H167.459V19.9602H164.038V27H162.072ZM175.364 27.1705C174.511 27.1705 173.773 26.983 173.148 26.608C172.523 26.233 172.038 25.7083 171.693 25.0341C171.352 24.3598 171.182 23.572 171.182 22.6705C171.182 21.7689 171.352 20.9792 171.693 20.3011C172.038 19.6231 172.523 19.0966 173.148 18.7216C173.773 18.3466 174.511 18.1591 175.364 18.1591C176.216 18.1591 176.955 18.3466 177.58 18.7216C178.205 19.0966 178.688 19.6231 179.028 20.3011C179.373 20.9792 179.545 21.7689 179.545 22.6705C179.545 23.572 179.373 24.3598 179.028 25.0341C178.688 25.7083 178.205 26.233 177.58 26.608C176.955 26.983 176.216 27.1705 175.364 27.1705ZM175.375 25.5227C175.837 25.5227 176.223 25.3958 176.534 25.142C176.845 24.8845 177.076 24.5398 177.227 24.108C177.383 23.6761 177.46 23.1951 177.46 22.6648C177.46 22.1307 177.383 21.6477 177.227 21.2159C177.076 20.7803 176.845 20.4337 176.534 20.1761C176.223 19.9186 175.837 19.7898 175.375 19.7898C174.902 19.7898 174.508 19.9186 174.193 20.1761C173.883 20.4337 173.65 20.7803 173.494 21.2159C173.343 21.6477 173.267 22.1307 173.267 22.6648C173.267 23.1951 173.343 23.6761 173.494 24.108C173.65 24.5398 173.883 24.8845 174.193 25.142C174.508 25.3958 174.902 25.5227 175.375 25.5227ZM185.098 27.1705C184.227 27.1705 183.479 26.9792 182.854 26.5966C182.232 26.214 181.753 25.6856 181.416 25.0114C181.083 24.3333 180.916 23.553 180.916 22.6705C180.916 21.7841 181.087 21.0019 181.428 20.3239C181.768 19.642 182.25 19.1117 182.871 18.733C183.496 18.3504 184.234 18.1591 185.087 18.1591C185.795 18.1591 186.422 18.2898 186.967 18.5511C187.517 18.8087 187.954 19.1742 188.28 19.6477C188.606 20.1174 188.791 20.6667 188.837 21.2955H186.871C186.791 20.875 186.602 20.5246 186.303 20.2443C186.007 19.9602 185.611 19.8182 185.115 19.8182C184.695 19.8182 184.325 19.9318 184.007 20.1591C183.689 20.3826 183.441 20.7045 183.263 21.125C183.089 21.5455 183.001 22.0492 183.001 22.6364C183.001 23.2311 183.089 23.7424 183.263 24.1705C183.437 24.5947 183.681 24.9223 183.996 25.1534C184.314 25.3807 184.687 25.4943 185.115 25.4943C185.418 25.4943 185.689 25.4375 185.928 25.3239C186.17 25.2064 186.373 25.0379 186.536 24.8182C186.698 24.5985 186.81 24.3314 186.871 24.017H188.837C188.787 24.6345 188.606 25.1818 188.291 25.6591C187.977 26.1326 187.549 26.5038 187.007 26.7727C186.465 27.0379 185.829 27.1705 185.098 27.1705ZM189.892 19.9602V18.2727H197.528V19.9602H194.705V27H192.716V19.9602H189.892ZM201.318 27.1761C200.765 27.1761 200.267 27.0777 199.824 26.8807C199.384 26.6799 199.036 26.3845 198.778 25.9943C198.525 25.6042 198.398 25.1231 198.398 24.5511C198.398 24.0587 198.489 23.6515 198.67 23.3295C198.852 23.0076 199.1 22.75 199.415 22.5568C199.729 22.3636 200.083 22.2178 200.477 22.1193C200.875 22.017 201.286 21.9432 201.71 21.8977C202.222 21.8447 202.636 21.7973 202.955 21.7557C203.273 21.7102 203.504 21.642 203.648 21.5511C203.795 21.4564 203.869 21.3106 203.869 21.1136V21.0795C203.869 20.6515 203.742 20.3201 203.489 20.0852C203.235 19.8504 202.869 19.733 202.392 19.733C201.888 19.733 201.489 19.8428 201.193 20.0625C200.902 20.2822 200.705 20.5417 200.602 20.8409L198.682 20.5682C198.833 20.0379 199.083 19.5947 199.432 19.2386C199.78 18.8788 200.206 18.6098 200.71 18.4318C201.214 18.25 201.771 18.1591 202.381 18.1591C202.801 18.1591 203.22 18.2083 203.636 18.3068C204.053 18.4053 204.434 18.5682 204.778 18.7955C205.123 19.0189 205.4 19.3239 205.608 19.7102C205.82 20.0966 205.926 20.5795 205.926 21.1591V27H203.949V25.8011H203.881C203.756 26.0436 203.58 26.2708 203.352 26.483C203.129 26.6913 202.847 26.8598 202.506 26.9886C202.169 27.1136 201.773 27.1761 201.318 27.1761ZM201.852 25.6648C202.265 25.6648 202.623 25.5833 202.926 25.4205C203.229 25.2538 203.462 25.0341 203.625 24.7614C203.792 24.4886 203.875 24.1913 203.875 23.8693V22.8409C203.811 22.8939 203.701 22.9432 203.545 22.9886C203.394 23.0341 203.223 23.0739 203.034 23.108C202.845 23.142 202.657 23.1723 202.472 23.1989C202.286 23.2254 202.125 23.2481 201.989 23.267C201.682 23.3087 201.407 23.3769 201.165 23.4716C200.922 23.5663 200.731 23.6989 200.591 23.8693C200.451 24.036 200.381 24.2519 200.381 24.517C200.381 24.8958 200.519 25.1818 200.795 25.375C201.072 25.5682 201.424 25.6648 201.852 25.6648ZM207.994 27V18.2727H211.659C212.693 18.2727 213.509 18.4792 214.108 18.892C214.71 19.3049 215.011 19.8807 215.011 20.6193C215.011 21.108 214.841 21.5076 214.5 21.8182C214.163 22.125 213.703 22.3314 213.119 22.4375C213.578 22.4754 213.979 22.5909 214.324 22.7841C214.672 22.9773 214.945 23.2311 215.142 23.5455C215.339 23.8598 215.438 24.2216 215.438 24.6307C215.438 25.1117 215.311 25.5303 215.057 25.8864C214.807 26.2386 214.441 26.5133 213.96 26.7102C213.483 26.9034 212.903 27 212.222 27H207.994ZM209.92 25.3807H212.222C212.6 25.3807 212.898 25.2917 213.114 25.1136C213.33 24.9318 213.438 24.6856 213.438 24.375C213.438 24.0152 213.33 23.733 213.114 23.5284C212.898 23.3201 212.6 23.2159 212.222 23.2159H209.92V25.3807ZM209.92 21.8864H211.699C211.979 21.8864 212.22 21.8466 212.42 21.767C212.621 21.6837 212.775 21.5682 212.881 21.4205C212.987 21.2689 213.04 21.089 213.04 20.8807C213.04 20.5814 212.917 20.3466 212.67 20.1761C212.428 20.0057 212.091 19.9205 211.659 19.9205H209.92V21.8864ZM219.118 24.2159L222.612 18.2727H224.726V27H222.737V21.0511L219.254 27H217.135V18.2727H219.118V24.2159ZM226.236 27L226.224 25.3068H226.526C226.753 25.3068 226.944 25.2557 227.099 25.1534C227.255 25.0511 227.384 24.8807 227.486 24.642C227.588 24.3996 227.668 24.0739 227.724 23.6648C227.781 23.2557 227.821 22.7462 227.844 22.1364L227.997 18.2727H234.361V27H232.372V19.9602H229.866L229.73 22.7727C229.696 23.5 229.615 24.1307 229.486 24.6648C229.361 25.1951 229.183 25.6326 228.952 25.9773C228.724 26.322 228.438 26.5795 228.094 26.75C227.749 26.9167 227.342 27 226.872 27H226.236ZM238.415 24.2159L241.909 18.2727H244.023V27H242.034V21.0511L238.551 27H236.432V18.2727H238.415V24.2159ZM248.55 25.4091L248.476 26.0341C248.423 26.5114 248.328 26.9962 248.192 27.4886C248.059 27.9848 247.919 28.4413 247.771 28.858C247.624 29.2746 247.504 29.6023 247.413 29.8409H246.027C246.08 29.6098 246.152 29.2955 246.243 28.8977C246.338 28.5 246.429 28.053 246.516 27.5568C246.603 27.0606 246.661 26.5568 246.692 26.0455L246.732 25.4091H248.55ZM260.457 21.7841V23.4716H255.81V21.7841H260.457ZM256.446 18.2727V27H254.463V18.2727H256.446ZM261.804 18.2727V27H259.827V18.2727H261.804ZM265.868 24.2159L269.362 18.2727H271.476V27H269.487V21.0511L266.004 27H263.885V18.2727H265.868V24.2159ZM280.878 18.2727V27H278.901V18.2727H280.878ZM279.952 22.2159V23.8977C279.728 23.9962 279.474 24.0852 279.19 24.1648C278.91 24.2405 278.613 24.3011 278.298 24.3466C277.988 24.392 277.677 24.4148 277.366 24.4148C276.2 24.4148 275.277 24.1534 274.599 23.6307C273.925 23.1042 273.588 22.2841 273.588 21.1705V18.2614H275.554V21.1705C275.554 21.5455 275.62 21.8466 275.753 22.0739C275.885 22.3011 276.086 22.4678 276.355 22.5739C276.624 22.6761 276.961 22.7273 277.366 22.7273C277.821 22.7273 278.253 22.6818 278.662 22.5909C279.071 22.5 279.501 22.375 279.952 22.2159ZM286.811 27.1705C285.936 27.1705 285.18 26.9886 284.544 26.625C283.911 26.2576 283.425 25.7386 283.084 25.0682C282.743 24.3939 282.572 23.6004 282.572 22.6875C282.572 21.7898 282.743 21.0019 283.084 20.3239C283.429 19.642 283.91 19.1117 284.527 18.733C285.144 18.3504 285.87 18.1591 286.703 18.1591C287.241 18.1591 287.749 18.2462 288.226 18.4205C288.707 18.5909 289.131 18.8561 289.499 19.2159C289.87 19.5758 290.161 20.0341 290.374 20.5909C290.586 21.1439 290.692 21.803 290.692 22.5682V23.1989H283.538V21.8125H288.72C288.716 21.4186 288.631 21.0682 288.464 20.7614C288.298 20.4508 288.065 20.2064 287.766 20.0284C287.47 19.8504 287.125 19.7614 286.732 19.7614C286.311 19.7614 285.942 19.8636 285.624 20.0682C285.305 20.2689 285.057 20.5341 284.879 20.8636C284.705 21.1894 284.616 21.5473 284.612 21.9375V23.1477C284.612 23.6553 284.705 24.0909 284.891 24.4545C285.076 24.8144 285.336 25.0909 285.669 25.2841C286.002 25.4735 286.393 25.5682 286.839 25.5682C287.139 25.5682 287.41 25.5265 287.652 25.4432C287.894 25.3561 288.105 25.2292 288.283 25.0625C288.461 24.8958 288.595 24.6894 288.686 24.4432L290.607 24.6591C290.485 25.1667 290.254 25.6098 289.913 25.9886C289.576 26.3636 289.144 26.6553 288.618 26.8636C288.091 27.0682 287.489 27.1705 286.811 27.1705ZM298.205 18.2727V19.9602H294.443V27H292.432V18.2727H298.205ZM303.301 27.1705C302.449 27.1705 301.71 26.983 301.085 26.608C300.46 26.233 299.975 25.7083 299.631 25.0341C299.29 24.3598 299.119 23.572 299.119 22.6705C299.119 21.7689 299.29 20.9792 299.631 20.3011C299.975 19.6231 300.46 19.0966 301.085 18.7216C301.71 18.3466 302.449 18.1591 303.301 18.1591C304.153 18.1591 304.892 18.3466 305.517 18.7216C306.142 19.0966 306.625 19.6231 306.966 20.3011C307.311 20.9792 307.483 21.7689 307.483 22.6705C307.483 23.572 307.311 24.3598 306.966 25.0341C306.625 25.7083 306.142 26.233 305.517 26.608C304.892 26.983 304.153 27.1705 303.301 27.1705ZM303.312 25.5227C303.775 25.5227 304.161 25.3958 304.472 25.142C304.782 24.8845 305.013 24.5398 305.165 24.108C305.32 23.6761 305.398 23.1951 305.398 22.6648C305.398 22.1307 305.32 21.6477 305.165 21.2159C305.013 20.7803 304.782 20.4337 304.472 20.1761C304.161 19.9186 303.775 19.7898 303.312 19.7898C302.839 19.7898 302.445 19.9186 302.131 20.1761C301.82 20.4337 301.587 20.7803 301.432 21.2159C301.28 21.6477 301.205 22.1307 301.205 22.6648C301.205 23.1951 301.28 23.6761 301.432 24.108C301.587 24.5398 301.82 24.8845 302.131 25.142C302.445 25.3958 302.839 25.5227 303.312 25.5227ZM317.004 27.1705C316.133 27.1705 315.385 26.9792 314.76 26.5966C314.139 26.214 313.66 25.6856 313.322 25.0114C312.989 24.3333 312.822 23.553 312.822 22.6705C312.822 21.7841 312.993 21.0019 313.334 20.3239C313.675 19.642 314.156 19.1117 314.777 18.733C315.402 18.3504 316.141 18.1591 316.993 18.1591C317.701 18.1591 318.328 18.2898 318.874 18.5511C319.423 18.8087 319.86 19.1742 320.186 19.6477C320.512 20.1174 320.697 20.6667 320.743 21.2955H318.777C318.697 20.875 318.508 20.5246 318.209 20.2443C317.913 19.9602 317.518 19.8182 317.021 19.8182C316.601 19.8182 316.232 19.9318 315.913 20.1591C315.595 20.3826 315.347 20.7045 315.169 21.125C314.995 21.5455 314.908 22.0492 314.908 22.6364C314.908 23.2311 314.995 23.7424 315.169 24.1705C315.343 24.5947 315.588 24.9223 315.902 25.1534C316.22 25.3807 316.593 25.4943 317.021 25.4943C317.324 25.4943 317.595 25.4375 317.834 25.3239C318.076 25.2064 318.279 25.0379 318.442 24.8182C318.605 24.5985 318.716 24.3314 318.777 24.017H320.743C320.694 24.6345 320.512 25.1818 320.197 25.6591C319.883 26.1326 319.455 26.5038 318.913 26.7727C318.372 27.0379 317.735 27.1705 317.004 27.1705ZM326.295 27.1705C325.42 27.1705 324.665 26.9886 324.028 26.625C323.396 26.2576 322.909 25.7386 322.568 25.0682C322.227 24.3939 322.057 23.6004 322.057 22.6875C322.057 21.7898 322.227 21.0019 322.568 20.3239C322.913 19.642 323.394 19.1117 324.011 18.733C324.629 18.3504 325.354 18.1591 326.188 18.1591C326.725 18.1591 327.233 18.2462 327.71 18.4205C328.191 18.5909 328.616 18.8561 328.983 19.2159C329.354 19.5758 329.646 20.0341 329.858 20.5909C330.07 21.1439 330.176 21.803 330.176 22.5682V23.1989H323.023V21.8125H328.205C328.201 21.4186 328.116 21.0682 327.949 20.7614C327.782 20.4508 327.549 20.2064 327.25 20.0284C326.955 19.8504 326.61 19.7614 326.216 19.7614C325.795 19.7614 325.426 19.8636 325.108 20.0682C324.79 20.2689 324.542 20.5341 324.364 20.8636C324.189 21.1894 324.1 21.5473 324.097 21.9375V23.1477C324.097 23.6553 324.189 24.0909 324.375 24.4545C324.561 24.8144 324.82 25.0909 325.153 25.2841C325.487 25.4735 325.877 25.5682 326.324 25.5682C326.623 25.5682 326.894 25.5265 327.136 25.4432C327.379 25.3561 327.589 25.2292 327.767 25.0625C327.945 24.8958 328.08 24.6894 328.17 24.4432L330.091 24.6591C329.97 25.1667 329.739 25.6098 329.398 25.9886C329.061 26.3636 328.629 26.6553 328.102 26.8636C327.576 27.0682 326.973 27.1705 326.295 27.1705ZM338.911 15.0455L339.626 16.375C339.373 16.5947 339.089 16.7538 338.774 16.8523C338.46 16.9508 338.09 17.0152 337.666 17.0455C337.246 17.072 336.746 17.0909 336.166 17.1023C335.515 17.1174 334.982 17.2405 334.57 17.4716C334.157 17.7027 333.84 18.053 333.621 18.5227C333.401 18.9886 333.257 19.5833 333.189 20.3068H333.286C333.558 19.7727 333.941 19.3655 334.433 19.0852C334.926 18.8049 335.503 18.6648 336.166 18.6648C336.89 18.6648 337.528 18.8277 338.081 19.1534C338.638 19.4754 339.071 19.9432 339.382 20.5568C339.696 21.1705 339.854 21.9129 339.854 22.7841C339.854 23.6818 339.685 24.4602 339.348 25.1193C339.011 25.7746 338.532 26.2803 337.911 26.6364C337.293 26.9924 336.56 27.1705 335.712 27.1705C334.867 27.1705 334.132 26.9867 333.507 26.6193C332.886 26.2481 332.405 25.7008 332.064 24.9773C331.727 24.25 331.558 23.3542 331.558 22.2898V21.5057C331.558 19.4527 331.941 17.9205 332.706 16.9091C333.471 15.8977 334.606 15.3826 336.109 15.3636C336.556 15.3561 336.956 15.3542 337.308 15.358C337.664 15.3617 337.975 15.3447 338.24 15.3068C338.505 15.2689 338.729 15.1818 338.911 15.0455ZM335.723 25.5227C336.143 25.5227 336.507 25.4148 336.814 25.1989C337.121 24.9792 337.356 24.6686 337.518 24.267C337.685 23.8655 337.768 23.3902 337.768 22.8409C337.768 22.2992 337.685 21.839 337.518 21.4602C337.352 21.0777 337.115 20.786 336.808 20.5852C336.501 20.3845 336.136 20.2841 335.712 20.2841C335.393 20.2841 335.107 20.3409 334.854 20.4545C334.6 20.5682 334.384 20.7348 334.206 20.9545C334.028 21.1742 333.892 21.4413 333.797 21.7557C333.702 22.0701 333.651 22.4318 333.643 22.8409C333.643 23.6629 333.829 24.3163 334.2 24.8011C334.571 25.2822 335.079 25.5227 335.723 25.5227ZM345.467 27.1705C344.592 27.1705 343.837 26.9886 343.2 26.625C342.568 26.2576 342.081 25.7386 341.74 25.0682C341.399 24.3939 341.229 23.6004 341.229 22.6875C341.229 21.7898 341.399 21.0019 341.74 20.3239C342.085 19.642 342.566 19.1117 343.183 18.733C343.801 18.3504 344.526 18.1591 345.359 18.1591C345.897 18.1591 346.405 18.2462 346.882 18.4205C347.363 18.5909 347.787 18.8561 348.155 19.2159C348.526 19.5758 348.818 20.0341 349.03 20.5909C349.242 21.1439 349.348 21.803 349.348 22.5682V23.1989H342.195V21.8125H347.376C347.373 21.4186 347.287 21.0682 347.121 20.7614C346.954 20.4508 346.721 20.2064 346.422 20.0284C346.126 19.8504 345.782 19.7614 345.388 19.7614C344.967 19.7614 344.598 19.8636 344.28 20.0682C343.962 20.2689 343.714 20.5341 343.536 20.8636C343.361 21.1894 343.272 21.5473 343.268 21.9375V23.1477C343.268 23.6553 343.361 24.0909 343.547 24.4545C343.732 24.8144 343.992 25.0909 344.325 25.2841C344.659 25.4735 345.049 25.5682 345.496 25.5682C345.795 25.5682 346.066 25.5265 346.308 25.4432C346.551 25.3561 346.761 25.2292 346.939 25.0625C347.117 24.8958 347.251 24.6894 347.342 24.4432L349.263 24.6591C349.142 25.1667 348.911 25.6098 348.57 25.9886C348.232 26.3636 347.801 26.6553 347.274 26.8636C346.748 27.0682 346.145 27.1705 345.467 27.1705ZM352.355 27.125C352.01 27.125 351.715 27.0038 351.469 26.7614C351.223 26.5189 351.101 26.2235 351.105 25.875C351.101 25.5341 351.223 25.2424 351.469 25C351.715 24.7576 352.01 24.6364 352.355 24.6364C352.688 24.6364 352.978 24.7576 353.224 25C353.474 25.2424 353.601 25.5341 353.605 25.875C353.601 26.1061 353.541 26.3163 353.423 26.5057C353.31 26.6951 353.158 26.8466 352.969 26.9602C352.783 27.0701 352.579 27.125 352.355 27.125Z" fill="#1D1F20"/>
<path d="M0.5 12C0.5 5.64873 5.64873 0.5 12 0.5H359C365.351 0.5 370.5 5.64873 370.5 12V31C370.5 37.3513 365.351 42.5 359 42.5H12C5.64872 42.5 0.5 37.3513 0.5 31V12Z" stroke="#A9812A"/>
<path d="M31.0004 75.5L74.8086 43.5H43.646L31.0004 75.5Z" stroke="#A9812A"/>
<path d="M31.9033 74.5L76.0859 42L45.0006 41.5L31.9033 74.5Z" fill="#FFFDF7"/>
</svg>
