<svg width="299" height="95" viewBox="0 0 299 95" fill="none" xmlns="http://www.w3.org/2000/svg">
<path d="M0.5 12C0.5 5.64873 5.64873 0.5 12 0.5H287C293.351 0.5 298.5 5.64873 298.5 12V50C298.5 56.3513 293.351 61.5 287 61.5H12C5.64872 61.5 0.5 56.3513 0.5 50V12Z" fill="#FFFDF7"/>
<path d="M27.5455 21.1818C27.5455 22.4356 27.3106 23.5095 26.8409 24.4034C26.375 25.2936 25.7386 25.9754 24.9318 26.4489C24.1288 26.9223 23.2178 27.1591 22.1989 27.1591C21.1799 27.1591 20.267 26.9223 19.4602 26.4489C18.6572 25.9716 18.0208 25.2879 17.5511 24.3977C17.0852 23.5038 16.8523 22.4318 16.8523 21.1818C16.8523 19.928 17.0852 18.8561 17.5511 17.9659C18.0208 17.072 18.6572 16.3883 19.4602 15.9148C20.267 15.4413 21.1799 15.2045 22.1989 15.2045C23.2178 15.2045 24.1288 15.4413 24.9318 15.9148C25.7386 16.3883 26.375 17.072 26.8409 17.9659C27.3106 18.8561 27.5455 19.928 27.5455 21.1818ZM25.4261 21.1818C25.4261 20.2992 25.2879 19.5549 25.0114 18.9489C24.7386 18.339 24.3598 17.8788 23.875 17.5682C23.3902 17.2538 22.8314 17.0966 22.1989 17.0966C21.5663 17.0966 21.0076 17.2538 20.5227 17.5682C20.0379 17.8788 19.6572 18.339 19.3807 18.9489C19.108 19.5549 18.9716 20.2992 18.9716 21.1818C18.9716 22.0644 19.108 22.8106 19.3807 23.4205C19.6572 24.0265 20.0379 24.4867 20.5227 24.8011C21.0076 25.1117 21.5663 25.267 22.1989 25.267C22.8314 25.267 23.3902 25.1117 23.875 24.8011C24.3598 24.4867 24.7386 24.0265 25.0114 23.4205C25.2879 22.8106 25.4261 22.0644 25.4261 21.1818ZM31.4304 24.2159L34.9247 18.2727H37.0384V27H35.0497V21.0511L31.5668 27H29.4474V18.2727H31.4304V24.2159ZM34.3622 15.2727H35.902C35.902 15.9356 35.6615 16.4735 35.1804 16.8864C34.7031 17.2955 34.0554 17.5 33.2372 17.5C32.4266 17.5 31.7808 17.2955 31.2997 16.8864C30.8224 16.4735 30.5857 15.9356 30.5895 15.2727H32.1179C32.1179 15.5455 32.2012 15.7898 32.3679 16.0057C32.5384 16.2178 32.8281 16.3239 33.2372 16.3239C33.6387 16.3239 33.9247 16.2178 34.0952 16.0057C34.2694 15.7936 34.3584 15.5492 34.3622 15.2727ZM41.5653 25.4091L41.4915 26.0341C41.4384 26.5114 41.3438 26.9962 41.2074 27.4886C41.0748 27.9848 40.9347 28.4413 40.7869 28.858C40.6392 29.2746 40.5199 29.6023 40.429 29.8409H39.0426C39.0956 29.6098 39.1676 29.2955 39.2585 28.8977C39.3532 28.5 39.4441 28.053 39.5312 27.5568C39.6184 27.0606 39.6771 26.5568 39.7074 26.0455L39.7472 25.4091H41.5653ZM53.473 21.7841V23.4716H48.8253V21.7841H53.473ZM49.4616 18.2727V27H47.4787V18.2727H49.4616ZM54.8196 18.2727V27H52.8423V18.2727H54.8196ZM57.8665 30.2727C57.5862 30.2727 57.3267 30.25 57.0881 30.2045C56.8532 30.1629 56.6657 30.1136 56.5256 30.0568L57.0028 28.4545C57.3021 28.5417 57.5691 28.5833 57.804 28.5795C58.0388 28.5758 58.2453 28.5019 58.4233 28.358C58.6051 28.2178 58.7585 27.983 58.8835 27.6534L59.0597 27.1818L55.8949 18.2727H58.0767L60.0881 24.8636H60.179L62.196 18.2727H64.3835L60.8892 28.0568C60.7263 28.5189 60.5104 28.9148 60.2415 29.2443C59.9725 29.5777 59.643 29.8314 59.2528 30.0057C58.8665 30.1837 58.4044 30.2727 57.8665 30.2727ZM69.7756 27V18.2727H71.8324V21.7955H72.5824L75.2074 18.2727H77.6847L74.4517 22.5568L77.7188 27H75.2301L72.8381 23.7102H71.8324V27H69.7756ZM81.3963 27.1761C80.8433 27.1761 80.3452 27.0777 79.902 26.8807C79.4626 26.6799 79.1141 26.3845 78.8565 25.9943C78.6027 25.6042 78.4759 25.1231 78.4759 24.5511C78.4759 24.0587 78.5668 23.6515 78.7486 23.3295C78.9304 23.0076 79.1785 22.75 79.4929 22.5568C79.8073 22.3636 80.1615 22.2178 80.5554 22.1193C80.9531 22.017 81.3641 21.9432 81.7884 21.8977C82.2997 21.8447 82.7145 21.7973 83.0327 21.7557C83.3509 21.7102 83.5819 21.642 83.7259 21.5511C83.8736 21.4564 83.9474 21.3106 83.9474 21.1136V21.0795C83.9474 20.6515 83.8205 20.3201 83.5668 20.0852C83.313 19.8504 82.9474 19.733 82.4702 19.733C81.9664 19.733 81.5668 19.8428 81.2713 20.0625C80.9796 20.2822 80.7827 20.5417 80.6804 20.8409L78.7599 20.5682C78.9115 20.0379 79.1615 19.5947 79.5099 19.2386C79.8584 18.8788 80.2846 18.6098 80.7884 18.4318C81.2921 18.25 81.849 18.1591 82.4588 18.1591C82.8793 18.1591 83.2978 18.2083 83.7145 18.3068C84.1312 18.4053 84.5118 18.5682 84.8565 18.7955C85.2012 19.0189 85.4777 19.3239 85.6861 19.7102C85.8982 20.0966 86.0043 20.5795 86.0043 21.1591V27H84.027V25.8011H83.9588C83.8338 26.0436 83.6577 26.2708 83.4304 26.483C83.2069 26.6913 82.9247 26.8598 82.5838 26.9886C82.2467 27.1136 81.8509 27.1761 81.3963 27.1761ZM81.9304 25.6648C82.3433 25.6648 82.7012 25.5833 83.0043 25.4205C83.3073 25.2538 83.5402 25.0341 83.7031 24.7614C83.8698 24.4886 83.9531 24.1913 83.9531 23.8693V22.8409C83.8887 22.8939 83.7789 22.9432 83.6236 22.9886C83.4721 23.0341 83.3016 23.0739 83.1122 23.108C82.9228 23.142 82.7353 23.1723 82.5497 23.1989C82.3641 23.2254 82.2031 23.2481 82.0668 23.267C81.7599 23.3087 81.4853 23.3769 81.2429 23.4716C81.0005 23.5663 80.8092 23.6989 80.669 23.8693C80.5289 24.036 80.4588 24.2519 80.4588 24.517C80.4588 24.8958 80.5971 25.1818 80.8736 25.375C81.1501 25.5682 81.5024 25.6648 81.9304 25.6648ZM88.0724 27V18.2727H90.1293V21.7955H90.8793L93.5043 18.2727H95.9815L92.7486 22.5568L96.0156 27H93.527L91.1349 23.7102H90.1293V27H88.0724ZM101.151 27V18.2727H104.815C105.849 18.2727 106.666 18.4792 107.264 18.892C107.866 19.3049 108.168 19.8807 108.168 20.6193C108.168 21.108 107.997 21.5076 107.656 21.8182C107.319 22.125 106.859 22.3314 106.276 22.4375C106.734 22.4754 107.135 22.5909 107.48 22.7841C107.829 22.9773 108.101 23.2311 108.298 23.5455C108.495 23.8598 108.594 24.2216 108.594 24.6307C108.594 25.1117 108.467 25.5303 108.213 25.8864C107.963 26.2386 107.598 26.5133 107.116 26.7102C106.639 26.9034 106.06 27 105.378 27H101.151ZM103.077 25.3807H105.378C105.757 25.3807 106.054 25.2917 106.27 25.1136C106.486 24.9318 106.594 24.6856 106.594 24.375C106.594 24.0152 106.486 23.733 106.27 23.5284C106.054 23.3201 105.757 23.2159 105.378 23.2159H103.077V25.3807ZM103.077 21.8864H104.855C105.135 21.8864 105.376 21.8466 105.577 21.767C105.777 21.6837 105.931 21.5682 106.037 21.4205C106.143 21.2689 106.196 21.089 106.196 20.8807C106.196 20.5814 106.073 20.3466 105.827 20.1761C105.584 20.0057 105.247 19.9205 104.815 19.9205H103.077V21.8864ZM114.098 27.1705C113.227 27.1705 112.479 26.9792 111.854 26.5966C111.232 26.214 110.753 25.6856 110.416 25.0114C110.083 24.3333 109.916 23.553 109.916 22.6705C109.916 21.7841 110.087 21.0019 110.428 20.3239C110.768 19.642 111.25 19.1117 111.871 18.733C112.496 18.3504 113.234 18.1591 114.087 18.1591C114.795 18.1591 115.422 18.2898 115.967 18.5511C116.517 18.8087 116.954 19.1742 117.28 19.6477C117.606 20.1174 117.791 20.6667 117.837 21.2955H115.871C115.791 20.875 115.602 20.5246 115.303 20.2443C115.007 19.9602 114.611 19.8182 114.115 19.8182C113.695 19.8182 113.325 19.9318 113.007 20.1591C112.689 20.3826 112.441 20.7045 112.263 21.125C112.089 21.5455 112.001 22.0492 112.001 22.6364C112.001 23.2311 112.089 23.7424 112.263 24.1705C112.437 24.5947 112.681 24.9223 112.996 25.1534C113.314 25.3807 113.687 25.4943 114.115 25.4943C114.418 25.4943 114.689 25.4375 114.928 25.3239C115.17 25.2064 115.373 25.0379 115.536 24.8182C115.698 24.5985 115.81 24.3314 115.871 24.017H117.837C117.787 24.6345 117.606 25.1818 117.291 25.6591C116.977 26.1326 116.549 26.5038 116.007 26.7727C115.465 27.0379 114.829 27.1705 114.098 27.1705ZM123.389 27.1705C122.514 27.1705 121.759 26.9886 121.122 26.625C120.49 26.2576 120.003 25.7386 119.662 25.0682C119.321 24.3939 119.151 23.6004 119.151 22.6875C119.151 21.7898 119.321 21.0019 119.662 20.3239C120.007 19.642 120.488 19.1117 121.105 18.733C121.723 18.3504 122.448 18.1591 123.281 18.1591C123.819 18.1591 124.327 18.2462 124.804 18.4205C125.285 18.5909 125.709 18.8561 126.077 19.2159C126.448 19.5758 126.74 20.0341 126.952 20.5909C127.164 21.1439 127.27 21.803 127.27 22.5682V23.1989H120.116V21.8125H125.298C125.295 21.4186 125.209 21.0682 125.043 20.7614C124.876 20.4508 124.643 20.2064 124.344 20.0284C124.048 19.8504 123.704 19.7614 123.31 19.7614C122.889 19.7614 122.52 19.8636 122.202 20.0682C121.884 20.2689 121.635 20.5341 121.457 20.8636C121.283 21.1894 121.194 21.5473 121.19 21.9375V23.1477C121.19 23.6553 121.283 24.0909 121.469 24.4545C121.654 24.8144 121.914 25.0909 122.247 25.2841C122.58 25.4735 122.971 25.5682 123.418 25.5682C123.717 25.5682 123.988 25.5265 124.23 25.4432C124.473 25.3561 124.683 25.2292 124.861 25.0625C125.039 24.8958 125.173 24.6894 125.264 24.4432L127.185 24.6591C127.063 25.1667 126.832 25.6098 126.491 25.9886C126.154 26.3636 125.723 26.6553 125.196 26.8636C124.67 27.0682 124.067 27.1705 123.389 27.1705ZM121.526 16.9886C121.226 16.9886 120.967 16.8826 120.747 16.6705C120.531 16.4583 120.423 16.2083 120.423 15.9205C120.423 15.6174 120.531 15.3636 120.747 15.1591C120.967 14.9508 121.226 14.8466 121.526 14.8466C121.832 14.8466 122.09 14.9508 122.298 15.1591C122.51 15.3636 122.616 15.6174 122.616 15.9205C122.616 16.2083 122.51 16.4583 122.298 16.6705C122.09 16.8826 121.832 16.9886 121.526 16.9886ZM124.935 16.9886C124.635 16.9886 124.376 16.8826 124.156 16.6705C123.94 16.4583 123.832 16.2083 123.832 15.9205C123.832 15.6174 123.94 15.3636 124.156 15.1591C124.376 14.9508 124.635 14.8466 124.935 14.8466C125.241 14.8466 125.499 14.9508 125.707 15.1591C125.92 15.3636 126.026 15.6174 126.026 15.9205C126.026 16.2083 125.92 16.4583 125.707 16.6705C125.499 16.8826 125.241 16.9886 124.935 16.9886ZM134.257 30.2727C133.977 30.2727 133.717 30.25 133.479 30.2045C133.244 30.1629 133.056 30.1136 132.916 30.0568L133.393 28.4545C133.693 28.5417 133.96 28.5833 134.195 28.5795C134.429 28.5758 134.636 28.5019 134.814 28.358C134.996 28.2178 135.149 27.983 135.274 27.6534L135.45 27.1818L132.286 18.2727H134.467L136.479 24.8636H136.57L138.587 18.2727H140.774L137.28 28.0568C137.117 28.5189 136.901 28.9148 136.632 29.2443C136.363 29.5777 136.034 29.8314 135.643 30.0057C135.257 30.1837 134.795 30.2727 134.257 30.2727ZM140.706 29.5341V25.3068H141.399C141.585 25.1629 141.74 24.9678 141.865 24.7216C141.99 24.4716 142.092 24.178 142.172 23.8409C142.255 23.5 142.323 23.1193 142.376 22.6989C142.429 22.2746 142.477 21.8182 142.518 21.3295L142.768 18.2727H149.075V25.3068H150.428V29.5341H148.439V27H142.729V29.5341H140.706ZM143.513 25.3068H147.109V19.9318H144.553L144.416 21.3295C144.34 22.2538 144.24 23.0455 144.115 23.7045C143.99 24.3636 143.789 24.8977 143.513 25.3068ZM155.77 27.1705C154.918 27.1705 154.179 26.983 153.554 26.608C152.929 26.233 152.444 25.7083 152.099 25.0341C151.759 24.3598 151.588 23.572 151.588 22.6705C151.588 21.7689 151.759 20.9792 152.099 20.3011C152.444 19.6231 152.929 19.0966 153.554 18.7216C154.179 18.3466 154.918 18.1591 155.77 18.1591C156.622 18.1591 157.361 18.3466 157.986 18.7216C158.611 19.0966 159.094 19.6231 159.435 20.3011C159.779 20.9792 159.952 21.7689 159.952 22.6705C159.952 23.572 159.779 24.3598 159.435 25.0341C159.094 25.7083 158.611 26.233 157.986 26.608C157.361 26.983 156.622 27.1705 155.77 27.1705ZM155.781 25.5227C156.243 25.5227 156.63 25.3958 156.94 25.142C157.251 24.8845 157.482 24.5398 157.634 24.108C157.789 23.6761 157.866 23.1951 157.866 22.6648C157.866 22.1307 157.789 21.6477 157.634 21.2159C157.482 20.7803 157.251 20.4337 156.94 20.1761C156.63 19.9186 156.243 19.7898 155.781 19.7898C155.308 19.7898 154.914 19.9186 154.599 20.1761C154.289 20.4337 154.056 20.7803 153.901 21.2159C153.749 21.6477 153.673 22.1307 153.673 22.6648C153.673 23.1951 153.749 23.6761 153.901 24.108C154.056 24.5398 154.289 24.8845 154.599 25.142C154.914 25.3958 155.308 25.5227 155.781 25.5227ZM168.692 15.0455L169.408 16.375C169.154 16.5947 168.87 16.7538 168.555 16.8523C168.241 16.9508 167.872 17.0152 167.447 17.0455C167.027 17.072 166.527 17.0909 165.947 17.1023C165.296 17.1174 164.764 17.2405 164.351 17.4716C163.938 17.7027 163.622 18.053 163.402 18.5227C163.182 18.9886 163.038 19.5833 162.97 20.3068H163.067C163.339 19.7727 163.722 19.3655 164.214 19.0852C164.707 18.8049 165.285 18.6648 165.947 18.6648C166.671 18.6648 167.309 18.8277 167.862 19.1534C168.419 19.4754 168.853 19.9432 169.163 20.5568C169.478 21.1705 169.635 21.9129 169.635 22.7841C169.635 23.6818 169.466 24.4602 169.129 25.1193C168.792 25.7746 168.313 26.2803 167.692 26.6364C167.074 26.9924 166.341 27.1705 165.493 27.1705C164.648 27.1705 163.913 26.9867 163.288 26.6193C162.667 26.2481 162.186 25.7008 161.845 24.9773C161.508 24.25 161.339 23.3542 161.339 22.2898V21.5057C161.339 19.4527 161.722 17.9205 162.487 16.9091C163.252 15.8977 164.387 15.3826 165.891 15.3636C166.338 15.3561 166.737 15.3542 167.089 15.358C167.446 15.3617 167.756 15.3447 168.021 15.3068C168.286 15.2689 168.51 15.1818 168.692 15.0455ZM165.504 25.5227C165.925 25.5227 166.288 25.4148 166.595 25.1989C166.902 24.9792 167.137 24.6686 167.3 24.267C167.466 23.8655 167.55 23.3902 167.55 22.8409C167.55 22.2992 167.466 21.839 167.3 21.4602C167.133 21.0777 166.896 20.786 166.589 20.5852C166.283 20.3845 165.917 20.2841 165.493 20.2841C165.175 20.2841 164.889 20.3409 164.635 20.4545C164.381 20.5682 164.165 20.7348 163.987 20.9545C163.809 21.1742 163.673 21.4413 163.578 21.7557C163.483 22.0701 163.432 22.4318 163.425 22.8409C163.425 23.6629 163.61 24.3163 163.982 24.8011C164.353 25.2822 164.86 25.5227 165.504 25.5227ZM177.379 21.7841V23.4716H172.732V21.7841H177.379ZM173.368 18.2727V27H171.385V18.2727H173.368ZM178.726 18.2727V27H176.749V18.2727H178.726ZM184.614 27.1705C183.761 27.1705 183.023 26.983 182.398 26.608C181.773 26.233 181.288 25.7083 180.943 25.0341C180.602 24.3598 180.432 23.572 180.432 22.6705C180.432 21.7689 180.602 20.9792 180.943 20.3011C181.288 19.6231 181.773 19.0966 182.398 18.7216C183.023 18.3466 183.761 18.1591 184.614 18.1591C185.466 18.1591 186.205 18.3466 186.83 18.7216C187.455 19.0966 187.938 19.6231 188.278 20.3011C188.623 20.9792 188.795 21.7689 188.795 22.6705C188.795 23.572 188.623 24.3598 188.278 25.0341C187.938 25.7083 187.455 26.233 186.83 26.608C186.205 26.983 185.466 27.1705 184.614 27.1705ZM184.625 25.5227C185.087 25.5227 185.473 25.3958 185.784 25.142C186.095 24.8845 186.326 24.5398 186.477 24.108C186.633 23.6761 186.71 23.1951 186.71 22.6648C186.71 22.1307 186.633 21.6477 186.477 21.2159C186.326 20.7803 186.095 20.4337 185.784 20.1761C185.473 19.9186 185.087 19.7898 184.625 19.7898C184.152 19.7898 183.758 19.9186 183.443 20.1761C183.133 20.4337 182.9 20.7803 182.744 21.2159C182.593 21.6477 182.517 22.1307 182.517 22.6648C182.517 23.1951 182.593 23.6761 182.744 24.108C182.9 24.5398 183.133 24.8845 183.443 25.142C183.758 25.3958 184.152 25.5227 184.625 25.5227ZM209.453 21.3068V23H193.453V21.3068H209.453ZM220.473 21.7841V23.4716H215.825V21.7841H220.473ZM216.462 18.2727V27H214.479V18.2727H216.462ZM221.82 18.2727V27H219.842V18.2727H221.82ZM225.884 24.2159L229.378 18.2727H231.491V27H229.503V21.0511L226.02 27H223.901V18.2727H225.884V24.2159ZM233.604 27V18.2727H235.661V21.7955H236.411L239.036 18.2727H241.513L238.28 22.5568L241.547 27H239.058L236.666 23.7102H235.661V27H233.604ZM245.224 27.1761C244.671 27.1761 244.173 27.0777 243.73 26.8807C243.291 26.6799 242.942 26.3845 242.685 25.9943C242.431 25.6042 242.304 25.1231 242.304 24.5511C242.304 24.0587 242.395 23.6515 242.577 23.3295C242.759 23.0076 243.007 22.75 243.321 22.5568C243.635 22.3636 243.99 22.2178 244.384 22.1193C244.781 22.017 245.192 21.9432 245.616 21.8977C246.128 21.8447 246.543 21.7973 246.861 21.7557C247.179 21.7102 247.41 21.642 247.554 21.5511C247.702 21.4564 247.776 21.3106 247.776 21.1136V21.0795C247.776 20.6515 247.649 20.3201 247.395 20.0852C247.141 19.8504 246.776 19.733 246.298 19.733C245.795 19.733 245.395 19.8428 245.099 20.0625C244.808 20.2822 244.611 20.5417 244.509 20.8409L242.588 20.5682C242.74 20.0379 242.99 19.5947 243.338 19.2386C243.687 18.8788 244.113 18.6098 244.616 18.4318C245.12 18.25 245.677 18.1591 246.287 18.1591C246.707 18.1591 247.126 18.2083 247.543 18.3068C247.959 18.4053 248.34 18.5682 248.685 18.7955C249.029 19.0189 249.306 19.3239 249.514 19.7102C249.726 20.0966 249.832 20.5795 249.832 21.1591V27H247.855V25.8011H247.787C247.662 26.0436 247.486 26.2708 247.259 26.483C247.035 26.6913 246.753 26.8598 246.412 26.9886C246.075 27.1136 245.679 27.1761 245.224 27.1761ZM245.759 25.6648C246.171 25.6648 246.529 25.5833 246.832 25.4205C247.135 25.2538 247.368 25.0341 247.531 24.7614C247.698 24.4886 247.781 24.1913 247.781 23.8693V22.8409C247.717 22.8939 247.607 22.9432 247.452 22.9886C247.3 23.0341 247.13 23.0739 246.94 23.108C246.751 23.142 246.563 23.1723 246.378 23.1989C246.192 23.2254 246.031 23.2481 245.895 23.267C245.588 23.3087 245.313 23.3769 245.071 23.4716C244.829 23.5663 244.637 23.6989 244.497 23.8693C244.357 24.036 244.287 24.2519 244.287 24.517C244.287 24.8958 244.425 25.1818 244.702 25.375C244.978 25.5682 245.33 25.6648 245.759 25.6648ZM251.901 27V18.2727H253.957V21.7955H254.707L257.332 18.2727H259.81L256.577 22.5568L259.844 27H257.355L254.963 23.7102H253.957V27H251.901ZM262.993 24.2159L266.487 18.2727H268.601V27H266.612V21.0511L263.129 27H261.01V18.2727H262.993V24.2159ZM272.395 18.2727L274.156 21.4943L275.946 18.2727H278.122L275.491 22.6364L278.168 27H276.003L274.156 23.858L272.327 27H270.145L272.804 22.6364L270.213 18.2727H272.395ZM20.8636 46.1705C19.9924 46.1705 19.2443 45.9792 18.6193 45.5966C17.9981 45.214 17.5189 44.6856 17.1818 44.0114C16.8485 43.3333 16.6818 42.553 16.6818 41.6705C16.6818 40.7841 16.8523 40.0019 17.1932 39.3239C17.5341 38.642 18.0152 38.1117 18.6364 37.733C19.2614 37.3504 20 37.1591 20.8523 37.1591C21.5606 37.1591 22.1875 37.2898 22.733 37.5511C23.2822 37.8087 23.7197 38.1742 24.0455 38.6477C24.3712 39.1174 24.5568 39.6667 24.6023 40.2955H22.6364C22.5568 39.875 22.3674 39.5246 22.0682 39.2443C21.7727 38.9602 21.3769 38.8182 20.8807 38.8182C20.4602 38.8182 20.0909 38.9318 19.7727 39.1591C19.4545 39.3826 19.2064 39.7045 19.0284 40.125C18.8542 40.5455 18.767 41.0492 18.767 41.6364C18.767 42.2311 18.8542 42.7424 19.0284 43.1705C19.2027 43.5947 19.447 43.9223 19.7614 44.1534C20.0795 44.3807 20.4527 44.4943 20.8807 44.4943C21.1837 44.4943 21.4545 44.4375 21.6932 44.3239C21.9356 44.2064 22.1383 44.0379 22.3011 43.8182C22.464 43.5985 22.5758 43.3314 22.6364 43.017H24.6023C24.553 43.6345 24.3712 44.1818 24.0568 44.6591C23.7424 45.1326 23.3144 45.5038 22.7727 45.7727C22.2311 46.0379 21.5947 46.1705 20.8636 46.1705ZM25.6577 38.9602V37.2727H33.294V38.9602H30.4702V46H28.4815V38.9602H25.6577ZM36.2102 49.2727C35.9299 49.2727 35.6705 49.25 35.4318 49.2045C35.197 49.1629 35.0095 49.1136 34.8693 49.0568L35.3466 47.4545C35.6458 47.5417 35.9129 47.5833 36.1477 47.5795C36.3826 47.5758 36.589 47.5019 36.767 47.358C36.9489 47.2178 37.1023 46.983 37.2273 46.6534L37.4034 46.1818L34.2386 37.2727H36.4205L38.4318 43.8636H38.5227L40.5398 37.2727H42.7273L39.233 47.0568C39.0701 47.5189 38.8542 47.9148 38.5852 48.2443C38.3163 48.5777 37.9867 48.8314 37.5966 49.0057C37.2102 49.1837 36.7481 49.2727 36.2102 49.2727ZM44.1506 46V37.2727H51.5199V46H49.5369V38.9602H46.1165V46H44.1506ZM57.4986 46.1705C56.6236 46.1705 55.8679 45.9886 55.2315 45.625C54.599 45.2576 54.1122 44.7386 53.7713 44.0682C53.4304 43.3939 53.2599 42.6004 53.2599 41.6875C53.2599 40.7898 53.4304 40.0019 53.7713 39.3239C54.116 38.642 54.5971 38.1117 55.2145 37.733C55.8319 37.3504 56.5573 37.1591 57.3906 37.1591C57.9285 37.1591 58.4361 37.2462 58.9134 37.4205C59.3944 37.5909 59.8187 37.8561 60.1861 38.2159C60.5573 38.5758 60.849 39.0341 61.0611 39.5909C61.2732 40.1439 61.3793 40.803 61.3793 41.5682V42.1989H54.2259V40.8125H59.4077C59.4039 40.4186 59.3187 40.0682 59.152 39.7614C58.9853 39.4508 58.7524 39.2064 58.4531 39.0284C58.1577 38.8504 57.813 38.7614 57.419 38.7614C56.9986 38.7614 56.6293 38.8636 56.3111 39.0682C55.9929 39.2689 55.7448 39.5341 55.5668 39.8636C55.3925 40.1894 55.3035 40.5473 55.2997 40.9375V42.1477C55.2997 42.6553 55.3925 43.0909 55.5781 43.4545C55.7637 43.8144 56.0232 44.0909 56.3565 44.2841C56.6899 44.4735 57.08 44.5682 57.527 44.5682C57.8262 44.5682 58.0971 44.5265 58.3395 44.4432C58.5819 44.3561 58.7921 44.2292 58.9702 44.0625C59.1482 43.8958 59.2827 43.6894 59.3736 43.4432L61.294 43.6591C61.1728 44.1667 60.9418 44.6098 60.6009 44.9886C60.2637 45.3636 59.8319 45.6553 59.3054 45.8636C58.7789 46.0682 58.1766 46.1705 57.4986 46.1705ZM69.1136 40.7841V42.4716H64.4659V40.7841H69.1136ZM65.1023 37.2727V46H63.1193V37.2727H65.1023ZM70.4602 37.2727V46H68.483V37.2727H70.4602ZM76.4048 46.1705C75.5298 46.1705 74.7741 45.9886 74.1378 45.625C73.5052 45.2576 73.0185 44.7386 72.6776 44.0682C72.3366 43.3939 72.1662 42.6004 72.1662 41.6875C72.1662 40.7898 72.3366 40.0019 72.6776 39.3239C73.0223 38.642 73.5033 38.1117 74.1207 37.733C74.7382 37.3504 75.4635 37.1591 76.2969 37.1591C76.8348 37.1591 77.3423 37.2462 77.8196 37.4205C78.3007 37.5909 78.7249 37.8561 79.0923 38.2159C79.4635 38.5758 79.7552 39.0341 79.9673 39.5909C80.1795 40.1439 80.2855 40.803 80.2855 41.5682V42.1989H73.1321V40.8125H78.3139C78.3101 40.4186 78.2249 40.0682 78.0582 39.7614C77.8916 39.4508 77.6586 39.2064 77.3594 39.0284C77.0639 38.8504 76.7192 38.7614 76.3253 38.7614C75.9048 38.7614 75.5355 38.8636 75.2173 39.0682C74.8991 39.2689 74.651 39.5341 74.473 39.8636C74.2988 40.1894 74.2098 40.5473 74.206 40.9375V42.1477C74.206 42.6553 74.2988 43.0909 74.4844 43.4545C74.67 43.8144 74.9295 44.0909 75.2628 44.2841C75.5961 44.4735 75.9863 44.5682 76.4332 44.5682C76.7325 44.5682 77.0033 44.5265 77.2457 44.4432C77.4882 44.3561 77.6984 44.2292 77.8764 44.0625C78.0545 43.8958 78.1889 43.6894 78.2798 43.4432L80.2003 43.6591C80.0791 44.1667 79.848 44.6098 79.5071 44.9886C79.17 45.3636 78.7382 45.6553 78.2116 45.8636C77.6851 46.0682 77.0829 46.1705 76.4048 46.1705ZM82.0256 46V37.2727H84.0824V40.7955H84.8324L87.4574 37.2727H89.9347L86.7017 41.5568L89.9688 46H87.4801L85.0881 42.7102H84.0824V46H82.0256ZM97.0866 43.2159L100.581 37.2727H102.695V46H100.706V40.0511L97.223 46H95.1037V37.2727H97.0866V43.2159ZM108.776 46V37.2727H112.44C113.474 37.2727 114.291 37.4792 114.889 37.892C115.491 38.3049 115.793 38.8807 115.793 39.6193C115.793 40.108 115.622 40.5076 115.281 40.8182C114.944 41.125 114.484 41.3314 113.901 41.4375C114.359 41.4754 114.76 41.5909 115.105 41.7841C115.454 41.9773 115.726 42.2311 115.923 42.5455C116.12 42.8598 116.219 43.2216 116.219 43.6307C116.219 44.1117 116.092 44.5303 115.838 44.8864C115.588 45.2386 115.223 45.5133 114.741 45.7102C114.264 45.9034 113.685 46 113.003 46H108.776ZM110.702 44.3807H113.003C113.382 44.3807 113.679 44.2917 113.895 44.1136C114.111 43.9318 114.219 43.6856 114.219 43.375C114.219 43.0152 114.111 42.733 113.895 42.5284C113.679 42.3201 113.382 42.2159 113.003 42.2159H110.702V44.3807ZM110.702 40.8864H112.48C112.76 40.8864 113.001 40.8466 113.202 40.767C113.402 40.6837 113.556 40.5682 113.662 40.4205C113.768 40.2689 113.821 40.089 113.821 39.8807C113.821 39.5814 113.698 39.3466 113.452 39.1761C113.209 39.0057 112.872 38.9205 112.44 38.9205H110.702V40.8864ZM119.308 40.1136H121.882C122.996 40.1136 123.857 40.3845 124.467 40.9261C125.077 41.4678 125.384 42.178 125.388 43.0568C125.384 43.6288 125.244 44.1364 124.967 44.5795C124.695 45.0227 124.297 45.3712 123.774 45.625C123.255 45.875 122.625 46 121.882 46H117.916V37.2727H119.899V44.3125H121.882C122.329 44.3125 122.696 44.1989 122.984 43.9716C123.272 43.7405 123.416 43.4451 123.416 43.0852C123.416 42.7064 123.272 42.3977 122.984 42.1591C122.696 41.9205 122.329 41.8011 121.882 41.8011H119.308V40.1136ZM126.473 46V37.2727H128.53V46H126.473ZM134.457 46.1705C133.586 46.1705 132.838 45.9792 132.213 45.5966C131.592 45.214 131.113 44.6856 130.776 44.0114C130.442 43.3333 130.276 42.553 130.276 41.6705C130.276 40.7841 130.446 40.0019 130.787 39.3239C131.128 38.642 131.609 38.1117 132.23 37.733C132.855 37.3504 133.594 37.1591 134.446 37.1591C135.154 37.1591 135.781 37.2898 136.327 37.5511C136.876 37.8087 137.313 38.1742 137.639 38.6477C137.965 39.1174 138.151 39.6667 138.196 40.2955H136.23C136.151 39.875 135.961 39.5246 135.662 39.2443C135.366 38.9602 134.971 38.8182 134.474 38.8182C134.054 38.8182 133.685 38.9318 133.366 39.1591C133.048 39.3826 132.8 39.7045 132.622 40.125C132.448 40.5455 132.361 41.0492 132.361 41.6364C132.361 42.2311 132.448 42.7424 132.622 43.1705C132.796 43.5947 133.041 43.9223 133.355 44.1534C133.673 44.3807 134.046 44.4943 134.474 44.4943C134.777 44.4943 135.048 44.4375 135.287 44.3239C135.529 44.2064 135.732 44.0379 135.895 43.8182C136.058 43.5985 136.17 43.3314 136.23 43.017H138.196C138.147 43.6345 137.965 44.1818 137.651 44.6591C137.336 45.1326 136.908 45.5038 136.366 45.7727C135.825 46.0379 135.188 46.1705 134.457 46.1705ZM143.692 46.1705C142.839 46.1705 142.101 45.983 141.476 45.608C140.851 45.233 140.366 44.7083 140.021 44.0341C139.68 43.3598 139.51 42.572 139.51 41.6705C139.51 40.7689 139.68 39.9792 140.021 39.3011C140.366 38.6231 140.851 38.0966 141.476 37.7216C142.101 37.3466 142.839 37.1591 143.692 37.1591C144.544 37.1591 145.283 37.3466 145.908 37.7216C146.533 38.0966 147.016 38.6231 147.357 39.3011C147.701 39.9792 147.874 40.7689 147.874 41.6705C147.874 42.572 147.701 43.3598 147.357 44.0341C147.016 44.7083 146.533 45.233 145.908 45.608C145.283 45.983 144.544 46.1705 143.692 46.1705ZM143.703 44.5227C144.165 44.5227 144.552 44.3958 144.862 44.142C145.173 43.8845 145.404 43.5398 145.555 43.108C145.711 42.6761 145.788 42.1951 145.788 41.6648C145.788 41.1307 145.711 40.6477 145.555 40.2159C145.404 39.7803 145.173 39.4337 144.862 39.1761C144.552 38.9186 144.165 38.7898 143.703 38.7898C143.23 38.7898 142.836 38.9186 142.521 39.1761C142.211 39.4337 141.978 39.7803 141.822 40.2159C141.671 40.6477 141.595 41.1307 141.595 41.6648C141.595 42.1951 141.671 42.6761 141.822 43.108C141.978 43.5398 142.211 43.8845 142.521 44.142C142.836 44.3958 143.23 44.5227 143.703 44.5227ZM149.619 46V37.2727H151.676V40.7955H152.426L155.051 37.2727H157.528L154.295 41.5568L157.562 46H155.074L152.682 42.7102H151.676V46H149.619ZM160.712 43.2159L164.206 37.2727H166.32V46H164.331V40.0511L160.848 46H158.729V37.2727H160.712V43.2159ZM170.114 37.2727L171.875 40.4943L173.665 37.2727H175.841L173.21 41.6364L175.886 46H173.722L171.875 42.858L170.045 46H167.864L170.523 41.6364L167.932 37.2727H170.114ZM188.395 34.0455L189.111 35.375C188.857 35.5947 188.573 35.7538 188.259 35.8523C187.944 35.9508 187.575 36.0152 187.151 36.0455C186.73 36.072 186.23 36.0909 185.651 36.1023C184.999 36.1174 184.467 36.2405 184.054 36.4716C183.641 36.7027 183.325 37.053 183.105 37.5227C182.885 37.9886 182.741 38.5833 182.673 39.3068H182.77C183.043 38.7727 183.425 38.3655 183.918 38.0852C184.41 37.8049 184.988 37.6648 185.651 37.6648C186.374 37.6648 187.012 37.8277 187.565 38.1534C188.122 38.4754 188.556 38.9432 188.866 39.5568C189.181 40.1705 189.338 40.9129 189.338 41.7841C189.338 42.6818 189.17 43.4602 188.832 44.1193C188.495 44.7746 188.016 45.2803 187.395 45.6364C186.777 45.9924 186.045 46.1705 185.196 46.1705C184.351 46.1705 183.616 45.9867 182.991 45.6193C182.37 45.2481 181.889 44.7008 181.548 43.9773C181.211 43.25 181.043 42.3542 181.043 41.2898V40.5057C181.043 38.4527 181.425 36.9205 182.19 35.9091C182.955 34.8977 184.09 34.3826 185.594 34.3636C186.041 34.3561 186.44 34.3542 186.793 34.358C187.149 34.3617 187.459 34.3447 187.724 34.3068C187.99 34.2689 188.213 34.1818 188.395 34.0455ZM185.207 44.5227C185.628 44.5227 185.991 44.4148 186.298 44.1989C186.605 43.9792 186.84 43.6686 187.003 43.267C187.17 42.8655 187.253 42.3902 187.253 41.8409C187.253 41.2992 187.17 40.839 187.003 40.4602C186.836 40.0777 186.599 39.786 186.293 39.5852C185.986 39.3845 185.62 39.2841 185.196 39.2841C184.878 39.2841 184.592 39.3409 184.338 39.4545C184.084 39.5682 183.868 39.7348 183.69 39.9545C183.512 40.1742 183.376 40.4413 183.281 40.7557C183.187 41.0701 183.135 41.4318 183.128 41.8409C183.128 42.6629 183.313 43.3163 183.685 43.8011C184.056 44.2822 184.563 44.5227 185.207 44.5227ZM194.895 46.1705C194.043 46.1705 193.304 45.983 192.679 45.608C192.054 45.233 191.569 44.7083 191.224 44.0341C190.884 43.3598 190.713 42.572 190.713 41.6705C190.713 40.7689 190.884 39.9792 191.224 39.3011C191.569 38.6231 192.054 38.0966 192.679 37.7216C193.304 37.3466 194.043 37.1591 194.895 37.1591C195.747 37.1591 196.486 37.3466 197.111 37.7216C197.736 38.0966 198.219 38.6231 198.56 39.3011C198.904 39.9792 199.077 40.7689 199.077 41.6705C199.077 42.572 198.904 43.3598 198.56 44.0341C198.219 44.7083 197.736 45.233 197.111 45.608C196.486 45.983 195.747 46.1705 194.895 46.1705ZM194.906 44.5227C195.368 44.5227 195.755 44.3958 196.065 44.142C196.376 43.8845 196.607 43.5398 196.759 43.108C196.914 42.6761 196.991 42.1951 196.991 41.6648C196.991 41.1307 196.914 40.6477 196.759 40.2159C196.607 39.7803 196.376 39.4337 196.065 39.1761C195.755 38.9186 195.368 38.7898 194.906 38.7898C194.433 38.7898 194.039 38.9186 193.724 39.1761C193.414 39.4337 193.181 39.7803 193.026 40.2159C192.874 40.6477 192.798 41.1307 192.798 41.6648C192.798 42.1951 192.874 42.6761 193.026 43.108C193.181 43.5398 193.414 43.8845 193.724 44.142C194.039 44.3958 194.433 44.5227 194.906 44.5227ZM200.822 49.2727V37.2727H202.845V38.7159H202.964C203.071 38.5038 203.22 38.2784 203.413 38.0398C203.607 37.7973 203.868 37.5909 204.197 37.4205C204.527 37.2462 204.947 37.1591 205.459 37.1591C206.133 37.1591 206.741 37.3314 207.283 37.6761C207.828 38.017 208.26 38.5227 208.578 39.1932C208.9 39.8598 209.061 40.678 209.061 41.6477C209.061 42.6061 208.904 43.4205 208.589 44.0909C208.275 44.7614 207.847 45.2727 207.305 45.625C206.764 45.9773 206.15 46.1534 205.464 46.1534C204.964 46.1534 204.55 46.0701 204.22 45.9034C203.891 45.7367 203.625 45.536 203.425 45.3011C203.228 45.0625 203.074 44.8371 202.964 44.625H202.879V49.2727H200.822ZM202.839 41.6364C202.839 42.2008 202.919 42.6951 203.078 43.1193C203.241 43.5436 203.474 43.875 203.777 44.1136C204.084 44.3485 204.455 44.4659 204.891 44.4659C205.345 44.4659 205.726 44.3447 206.033 44.1023C206.339 43.8561 206.571 43.5208 206.726 43.0966C206.885 42.6686 206.964 42.1818 206.964 41.6364C206.964 41.0947 206.887 40.6136 206.732 40.1932C206.576 39.7727 206.345 39.4432 206.038 39.2045C205.732 38.9659 205.349 38.8466 204.891 38.8466C204.451 38.8466 204.078 38.9621 203.771 39.1932C203.464 39.4242 203.232 39.7481 203.072 40.1648C202.917 40.5814 202.839 41.072 202.839 41.6364ZM210.05 48.5341V44.3068H210.743C210.929 44.1629 211.084 43.9678 211.209 43.7216C211.334 43.4716 211.436 43.178 211.516 42.8409C211.599 42.5 211.667 42.1193 211.72 41.6989C211.773 41.2746 211.821 40.8182 211.862 40.3295L212.112 37.2727H218.419V44.3068H219.771V48.5341H217.783V46H212.072V48.5341H210.05ZM212.857 44.3068H216.453V38.9318H213.896L213.76 40.3295C213.684 41.2538 213.584 42.0455 213.459 42.7045C213.334 43.3636 213.133 43.8977 212.857 44.3068ZM225.915 40.8466V42.5398H221.216V40.8466H225.915ZM222.847 37.2727V46H220.784V37.2727H222.847ZM228.551 46.1705C227.71 46.1705 226.981 45.9792 226.364 45.5966C225.75 45.214 225.275 44.6837 224.938 44.0057C224.6 43.3277 224.432 42.5436 224.432 41.6534C224.432 40.7633 224.6 39.9811 224.938 39.3068C225.275 38.6326 225.75 38.1061 226.364 37.7273C226.981 37.3485 227.71 37.1591 228.551 37.1591C229.388 37.1591 230.114 37.3485 230.727 37.7273C231.345 38.1061 231.822 38.6326 232.159 39.3068C232.5 39.9811 232.67 40.7633 232.67 41.6534C232.67 42.5436 232.5 43.3277 232.159 44.0057C231.822 44.6837 231.345 45.214 230.727 45.5966C230.114 45.9792 229.388 46.1705 228.551 46.1705ZM228.551 44.4659C229.047 44.4659 229.453 44.3409 229.767 44.0909C230.081 43.8409 230.313 43.5038 230.46 43.0795C230.608 42.6553 230.682 42.1799 230.682 41.6534C230.682 41.1269 230.608 40.6515 230.46 40.2273C230.313 39.803 230.081 39.4678 229.767 39.2216C229.453 38.9716 229.047 38.8466 228.551 38.8466C228.051 38.8466 227.642 38.9716 227.324 39.2216C227.009 39.4678 226.778 39.803 226.631 40.2273C226.483 40.6515 226.409 41.1269 226.409 41.6534C226.409 42.1837 226.483 42.661 226.631 43.0852C226.778 43.5095 227.009 43.8466 227.324 44.0966C227.642 44.3428 228.051 44.4659 228.551 44.4659ZM234.494 49.2727V37.2727H236.517V38.7159H236.636C236.742 38.5038 236.892 38.2784 237.085 38.0398C237.278 37.7973 237.54 37.5909 237.869 37.4205C238.199 37.2462 238.619 37.1591 239.131 37.1591C239.805 37.1591 240.413 37.3314 240.955 37.6761C241.5 38.017 241.932 38.5227 242.25 39.1932C242.572 39.8598 242.733 40.678 242.733 41.6477C242.733 42.6061 242.576 43.4205 242.261 44.0909C241.947 44.7614 241.519 45.2727 240.977 45.625C240.436 45.9773 239.822 46.1534 239.136 46.1534C238.636 46.1534 238.222 46.0701 237.892 45.9034C237.563 45.7367 237.297 45.536 237.097 45.3011C236.9 45.0625 236.746 44.8371 236.636 44.625H236.551V49.2727H234.494ZM236.511 41.6364C236.511 42.2008 236.591 42.6951 236.75 43.1193C236.913 43.5436 237.146 43.875 237.449 44.1136C237.756 44.3485 238.127 44.4659 238.562 44.4659C239.017 44.4659 239.398 44.3447 239.705 44.1023C240.011 43.8561 240.242 43.5208 240.398 43.0966C240.557 42.6686 240.636 42.1818 240.636 41.6364C240.636 41.0947 240.559 40.6136 240.403 40.1932C240.248 39.7727 240.017 39.4432 239.71 39.2045C239.403 38.9659 239.021 38.8466 238.562 38.8466C238.123 38.8466 237.75 38.9621 237.443 39.1932C237.136 39.4242 236.903 39.7481 236.744 40.1648C236.589 40.5814 236.511 41.072 236.511 41.6364ZM248.301 46.1705C247.449 46.1705 246.71 45.983 246.085 45.608C245.46 45.233 244.975 44.7083 244.631 44.0341C244.29 43.3598 244.119 42.572 244.119 41.6705C244.119 40.7689 244.29 39.9792 244.631 39.3011C244.975 38.6231 245.46 38.0966 246.085 37.7216C246.71 37.3466 247.449 37.1591 248.301 37.1591C249.153 37.1591 249.892 37.3466 250.517 37.7216C251.142 38.0966 251.625 38.6231 251.966 39.3011C252.311 39.9792 252.483 40.7689 252.483 41.6705C252.483 42.572 252.311 43.3598 251.966 44.0341C251.625 44.7083 251.142 45.233 250.517 45.608C249.892 45.983 249.153 46.1705 248.301 46.1705ZM248.312 44.5227C248.775 44.5227 249.161 44.3958 249.472 44.142C249.782 43.8845 250.013 43.5398 250.165 43.108C250.32 42.6761 250.398 42.1951 250.398 41.6648C250.398 41.1307 250.32 40.6477 250.165 40.2159C250.013 39.7803 249.782 39.4337 249.472 39.1761C249.161 38.9186 248.775 38.7898 248.312 38.7898C247.839 38.7898 247.445 38.9186 247.131 39.1761C246.82 39.4337 246.587 39.7803 246.432 40.2159C246.28 40.6477 246.205 41.1307 246.205 41.6648C246.205 42.1951 246.28 42.6761 246.432 43.108C246.587 43.5398 246.82 43.8845 247.131 44.142C247.445 44.3958 247.839 44.5227 248.312 44.5227ZM254.229 46V37.2727H257.893C258.928 37.2727 259.744 37.4792 260.342 37.892C260.945 38.3049 261.246 38.8807 261.246 39.6193C261.246 40.108 261.075 40.5076 260.734 40.8182C260.397 41.125 259.937 41.3314 259.354 41.4375C259.812 41.4754 260.214 41.5909 260.558 41.7841C260.907 41.9773 261.179 42.2311 261.376 42.5455C261.573 42.8598 261.672 43.2216 261.672 43.6307C261.672 44.1117 261.545 44.5303 261.291 44.8864C261.041 45.2386 260.676 45.5133 260.195 45.7102C259.717 45.9034 259.138 46 258.456 46H254.229ZM256.155 44.3807H258.456C258.835 44.3807 259.132 44.2917 259.348 44.1136C259.564 43.9318 259.672 43.6856 259.672 43.375C259.672 43.0152 259.564 42.733 259.348 42.5284C259.132 42.3201 258.835 42.2159 258.456 42.2159H256.155V44.3807ZM256.155 40.8864H257.933C258.214 40.8864 258.454 40.8466 258.655 40.767C258.856 40.6837 259.009 40.5682 259.115 40.4205C259.221 40.2689 259.274 40.089 259.274 39.8807C259.274 39.5814 259.151 39.3466 258.905 39.1761C258.662 39.0057 258.325 38.9205 257.893 38.9205H256.155V40.8864ZM264.636 46.125C264.292 46.125 263.996 46.0038 263.75 45.7614C263.504 45.5189 263.383 45.2235 263.386 44.875C263.383 44.5341 263.504 44.2424 263.75 44C263.996 43.7576 264.292 43.6364 264.636 43.6364C264.97 43.6364 265.259 43.7576 265.506 44C265.756 44.2424 265.883 44.5341 265.886 44.875C265.883 45.1061 265.822 45.3163 265.705 45.5057C265.591 45.6951 265.439 45.8466 265.25 45.9602C265.064 46.0701 264.86 46.125 264.636 46.125Z" fill="#1D1F20"/>
<path d="M0.5 12C0.5 5.64873 5.64873 0.5 12 0.5H287C293.351 0.5 298.5 5.64873 298.5 12V50C298.5 56.3513 293.351 61.5 287 61.5H12C5.64872 61.5 0.5 56.3513 0.5 50V12Z" stroke="#A9812A"/>
<path d="M109.001 93.5L57.5859 61.5H94.1595L109.001 93.5Z" stroke="#A9812A"/>
<path d="M107.94 92.5L56.0859 60L92.5689 59.5L107.94 92.5Z" fill="#FFFDF7"/>
</svg>
