<svg width="346" height="208" viewBox="0 0 346 208" fill="none" xmlns="http://www.w3.org/2000/svg">
<rect x="69" y="8" width="2" height="150" fill="#A2ACB1"/>
<rect x="69" y="159" width="2" height="261" transform="rotate(-90 69 159)" fill="#A2ACB1"/>
<rect x="70" y="8" width="260" height="2" fill="#E1E7EB"/>
<rect x="70" y="45" width="260" height="2" fill="#E1E7EB"/>
<rect x="70" y="82" width="260" height="2" fill="#E1E7EB"/>
<rect x="70" y="119" width="260" height="2" fill="#E1E7EB"/>
<rect x="63.418" y="8" width="14" height="2" fill="#A2ACB1"/>
<rect x="63.418" y="45" width="14" height="2" fill="#A2ACB1"/>
<rect x="63.418" y="82" width="14" height="2" fill="#A2ACB1"/>
<rect x="63.418" y="119" width="14" height="2" fill="#A2ACB1"/>
<rect x="330" y="151" width="14" height="2" transform="rotate(90 330 151)" fill="#A2ACB1"/>
<rect x="286.832" y="151" width="14" height="2" transform="rotate(90 286.832 151)" fill="#A2ACB1"/>
<rect x="243.668" y="151" width="14" height="2" transform="rotate(90 243.668 151)" fill="#A2ACB1"/>
<rect x="200.5" y="151" width="14" height="2" transform="rotate(90 200.5 151)" fill="#A2ACB1"/>
<rect x="157.332" y="151" width="14" height="2" transform="rotate(90 157.332 151)" fill="#A2ACB1"/>
<rect x="114.168" y="151" width="14" height="2" transform="rotate(90 114.168 151)" fill="#A2ACB1"/>
<path d="M330 17C305 17 231.5 27 163 70.5" stroke="#73C062" stroke-width="4" stroke-linecap="round" stroke-linejoin="round" stroke-dasharray="7 7"/>
<path d="M157.5 74C133.5 90.5 118.5 111.5 112.5 124.5" stroke="#49813C" stroke-width="4" stroke-linecap="round" stroke-linejoin="round"/>
<path d="M99.7777 181.777V180.448L102.884 177.571C103.148 177.316 103.37 177.086 103.549 176.881C103.731 176.676 103.869 176.476 103.962 176.28C104.056 176.081 104.103 175.867 104.103 175.637C104.103 175.381 104.045 175.161 103.928 174.976C103.812 174.789 103.653 174.645 103.451 174.546C103.249 174.444 103.021 174.392 102.765 174.392C102.498 174.392 102.265 174.446 102.066 174.554C101.867 174.662 101.714 174.817 101.606 175.019C101.498 175.221 101.444 175.461 101.444 175.739H99.6925C99.6925 175.168 99.8217 174.672 100.08 174.252C100.339 173.831 100.701 173.506 101.167 173.276C101.633 173.046 102.17 172.931 102.778 172.931C103.403 172.931 103.947 173.042 104.41 173.263C104.876 173.482 105.238 173.786 105.496 174.175C105.755 174.564 105.884 175.01 105.884 175.513C105.884 175.843 105.819 176.168 105.688 176.489C105.56 176.81 105.332 177.167 105.002 177.559C104.673 177.948 104.208 178.415 103.609 178.961L102.335 180.209V180.269H105.999V181.777H99.7777ZM110.758 181.969C110.025 181.966 109.395 181.786 108.866 181.428C108.341 181.07 107.936 180.551 107.652 179.873C107.37 179.194 107.231 178.377 107.234 177.422C107.234 176.471 107.375 175.659 107.656 174.989C107.94 174.319 108.345 173.809 108.87 173.459C109.399 173.107 110.028 172.931 110.758 172.931C111.488 172.931 112.116 173.107 112.642 173.459C113.17 173.811 113.576 174.323 113.86 174.993C114.145 175.661 114.285 176.471 114.282 177.422C114.282 178.38 114.14 179.198 113.856 179.877C113.575 180.556 113.172 181.074 112.646 181.432C112.12 181.79 111.491 181.969 110.758 181.969ZM110.758 180.439C111.258 180.439 111.657 180.188 111.956 179.685C112.254 179.182 112.402 178.428 112.399 177.422C112.399 176.76 112.331 176.209 112.194 175.769C112.061 175.328 111.87 174.998 111.623 174.776C111.379 174.554 111.091 174.444 110.758 174.444C110.261 174.444 109.863 174.692 109.565 175.189C109.267 175.686 109.116 176.431 109.113 177.422C109.113 178.093 109.18 178.652 109.314 179.101C109.45 179.547 109.642 179.882 109.889 180.107C110.136 180.328 110.426 180.439 110.758 180.439ZM115.598 181.777V180.448L118.705 177.571C118.969 177.316 119.19 177.086 119.369 176.881C119.551 176.676 119.689 176.476 119.783 176.28C119.876 176.081 119.923 175.867 119.923 175.637C119.923 175.381 119.865 175.161 119.749 174.976C119.632 174.789 119.473 174.645 119.271 174.546C119.07 174.444 118.841 174.392 118.585 174.392C118.318 174.392 118.085 174.446 117.886 174.554C117.688 174.662 117.534 174.817 117.426 175.019C117.318 175.221 117.264 175.461 117.264 175.739H115.513C115.513 175.168 115.642 174.672 115.901 174.252C116.159 173.831 116.521 173.506 116.987 173.276C117.453 173.046 117.99 172.931 118.598 172.931C119.223 172.931 119.767 173.042 120.23 173.263C120.696 173.482 121.058 173.786 121.317 174.175C121.575 174.564 121.705 175.01 121.705 175.513C121.705 175.843 121.639 176.168 121.509 176.489C121.381 176.81 121.152 177.167 120.822 177.559C120.493 177.948 120.028 178.415 119.429 178.961L118.155 180.209V180.269H121.82V181.777H115.598ZM126.578 181.969C125.846 181.966 125.215 181.786 124.686 181.428C124.161 181.07 123.756 180.551 123.472 179.873C123.191 179.194 123.051 178.377 123.054 177.422C123.054 176.471 123.195 175.659 123.476 174.989C123.76 174.319 124.165 173.809 124.691 173.459C125.219 173.107 125.848 172.931 126.578 172.931C127.309 172.931 127.936 173.107 128.462 173.459C128.99 173.811 129.397 174.323 129.681 174.993C129.965 175.661 130.105 176.471 130.103 177.422C130.103 178.38 129.961 179.198 129.676 179.877C129.395 180.556 128.992 181.074 128.466 181.432C127.941 181.79 127.311 181.969 126.578 181.969ZM126.578 180.439C127.078 180.439 127.478 180.188 127.776 179.685C128.074 179.182 128.222 178.428 128.219 177.422C128.219 176.76 128.151 176.209 128.015 175.769C127.881 175.328 127.691 174.998 127.444 174.776C127.199 174.554 126.911 174.444 126.578 174.444C126.081 174.444 125.684 174.692 125.385 175.189C125.087 175.686 124.936 176.431 124.934 177.422C124.934 178.093 125 178.652 125.134 179.101C125.27 179.547 125.462 179.882 125.709 180.107C125.956 180.328 126.246 180.439 126.578 180.439Z" fill="#1D1F20"/>
<path d="M142.664 181.777V180.448L145.771 177.571C146.035 177.316 146.257 177.086 146.436 176.881C146.618 176.676 146.755 176.476 146.849 176.28C146.943 176.081 146.99 175.867 146.99 175.637C146.99 175.381 146.931 175.161 146.815 174.976C146.699 174.789 146.539 174.645 146.338 174.546C146.136 174.444 145.907 174.392 145.652 174.392C145.385 174.392 145.152 174.446 144.953 174.554C144.754 174.662 144.6 174.817 144.493 175.019C144.385 175.221 144.331 175.461 144.331 175.739H142.579C142.579 175.168 142.708 174.672 142.967 174.252C143.225 173.831 143.588 173.506 144.054 173.276C144.52 173.046 145.056 172.931 145.664 172.931C146.289 172.931 146.833 173.042 147.297 173.263C147.762 173.482 148.125 173.786 148.383 174.175C148.642 174.564 148.771 175.01 148.771 175.513C148.771 175.843 148.706 176.168 148.575 176.489C148.447 176.81 148.218 177.167 147.889 177.559C147.559 177.948 147.095 178.415 146.495 178.961L145.221 180.209V180.269H148.886V181.777H142.664ZM153.645 181.969C152.912 181.966 152.281 181.786 151.753 181.428C151.227 181.07 150.822 180.551 150.538 179.873C150.257 179.194 150.118 178.377 150.121 177.422C150.121 176.471 150.261 175.659 150.543 174.989C150.827 174.319 151.232 173.809 151.757 173.459C152.286 173.107 152.915 172.931 153.645 172.931C154.375 172.931 155.003 173.107 155.528 173.459C156.057 173.811 156.463 174.323 156.747 174.993C157.031 175.661 157.172 176.471 157.169 177.422C157.169 178.38 157.027 179.198 156.743 179.877C156.462 180.556 156.058 181.074 155.533 181.432C155.007 181.79 154.378 181.969 153.645 181.969ZM153.645 180.439C154.145 180.439 154.544 180.188 154.842 179.685C155.141 179.182 155.288 178.428 155.286 177.422C155.286 176.76 155.217 176.209 155.081 175.769C154.947 175.328 154.757 174.998 154.51 174.776C154.266 174.554 153.977 174.444 153.645 174.444C153.148 174.444 152.75 174.692 152.452 175.189C152.153 175.686 152.003 176.431 152 177.422C152 178.093 152.067 178.652 152.2 179.101C152.337 179.547 152.528 179.882 152.776 180.107C153.023 180.328 153.312 180.439 153.645 180.439ZM158.485 181.777V180.448L161.591 177.571C161.855 177.316 162.077 177.086 162.256 176.881C162.438 176.676 162.576 176.476 162.669 176.28C162.763 176.081 162.81 175.867 162.81 175.637C162.81 175.381 162.752 175.161 162.635 174.976C162.519 174.789 162.36 174.645 162.158 174.546C161.956 174.444 161.728 174.392 161.472 174.392C161.205 174.392 160.972 174.446 160.773 174.554C160.574 174.662 160.421 174.817 160.313 175.019C160.205 175.221 160.151 175.461 160.151 175.739H158.4C158.4 175.168 158.529 174.672 158.787 174.252C159.046 173.831 159.408 173.506 159.874 173.276C160.34 173.046 160.877 172.931 161.485 172.931C162.11 172.931 162.654 173.042 163.117 173.263C163.583 173.482 163.945 173.786 164.203 174.175C164.462 174.564 164.591 175.01 164.591 175.513C164.591 175.843 164.526 176.168 164.395 176.489C164.267 176.81 164.039 177.167 163.709 177.559C163.38 177.948 162.915 178.415 162.316 178.961L161.042 180.209V180.269H164.706V181.777H158.485ZM169.269 181.897C168.633 181.897 168.066 181.787 167.569 181.569C167.075 181.347 166.684 181.043 166.397 180.657C166.113 180.267 165.967 179.819 165.958 179.31H167.816C167.827 179.523 167.897 179.711 168.025 179.873C168.156 180.032 168.329 180.155 168.545 180.243C168.761 180.331 169.004 180.375 169.273 180.375C169.555 180.375 169.803 180.326 170.019 180.226C170.235 180.127 170.404 179.989 170.526 179.813C170.648 179.637 170.71 179.434 170.71 179.203C170.71 178.971 170.644 178.765 170.513 178.586C170.386 178.404 170.201 178.262 169.96 178.159C169.721 178.057 169.437 178.006 169.107 178.006H168.293V176.651H169.107C169.386 176.651 169.631 176.603 169.844 176.506C170.06 176.409 170.228 176.276 170.347 176.105C170.467 175.932 170.526 175.73 170.526 175.5C170.526 175.282 170.474 175.09 170.369 174.925C170.266 174.757 170.121 174.627 169.934 174.533C169.749 174.439 169.533 174.392 169.286 174.392C169.036 174.392 168.808 174.438 168.6 174.529C168.393 174.617 168.227 174.743 168.102 174.908C167.977 175.073 167.91 175.266 167.901 175.488H166.133C166.141 174.985 166.285 174.542 166.563 174.158C166.842 173.775 167.217 173.475 167.688 173.259C168.163 173.04 168.698 172.931 169.295 172.931C169.897 172.931 170.424 173.04 170.876 173.259C171.327 173.478 171.678 173.773 171.928 174.145C172.181 174.515 172.306 174.929 172.303 175.39C172.306 175.878 172.154 176.286 171.847 176.613C171.543 176.939 171.147 177.147 170.658 177.235V177.303C171.3 177.385 171.789 177.608 172.124 177.972C172.462 178.333 172.63 178.784 172.627 179.327C172.63 179.824 172.487 180.266 172.197 180.652C171.91 181.039 171.513 181.343 171.008 181.564C170.502 181.786 169.923 181.897 169.269 181.897Z" fill="#1D1F20"/>
<path d="M185.547 181.777V180.448L188.654 177.571C188.918 177.316 189.14 177.086 189.319 176.881C189.5 176.676 189.638 176.476 189.732 176.28C189.826 176.081 189.873 175.867 189.873 175.637C189.873 175.381 189.814 175.161 189.698 174.976C189.581 174.789 189.422 174.645 189.221 174.546C189.019 174.444 188.79 174.392 188.534 174.392C188.267 174.392 188.034 174.446 187.836 174.554C187.637 174.662 187.483 174.817 187.375 175.019C187.267 175.221 187.213 175.461 187.213 175.739H185.462C185.462 175.168 185.591 174.672 185.85 174.252C186.108 173.831 186.471 173.506 186.936 173.276C187.402 173.046 187.939 172.931 188.547 172.931C189.172 172.931 189.716 173.042 190.179 173.263C190.645 173.482 191.007 173.786 191.266 174.175C191.525 174.564 191.654 175.01 191.654 175.513C191.654 175.843 191.588 176.168 191.458 176.489C191.33 176.81 191.101 177.167 190.772 177.559C190.442 177.948 189.978 178.415 189.378 178.961L188.104 180.209V180.269H191.769V181.777H185.547ZM196.528 181.969C195.795 181.966 195.164 181.786 194.636 181.428C194.11 181.07 193.705 180.551 193.421 179.873C193.14 179.194 193.001 178.377 193.004 177.422C193.004 176.471 193.144 175.659 193.425 174.989C193.71 174.319 194.114 173.809 194.64 173.459C195.168 173.107 195.798 172.931 196.528 172.931C197.258 172.931 197.886 173.107 198.411 173.459C198.94 173.811 199.346 174.323 199.63 174.993C199.914 175.661 200.055 176.471 200.052 177.422C200.052 178.38 199.91 179.198 199.626 179.877C199.344 180.556 198.941 181.074 198.415 181.432C197.89 181.79 197.261 181.969 196.528 181.969ZM196.528 180.439C197.028 180.439 197.427 180.188 197.725 179.685C198.023 179.182 198.171 178.428 198.168 177.422C198.168 176.76 198.1 176.209 197.964 175.769C197.83 175.328 197.64 174.998 197.393 174.776C197.148 174.554 196.86 174.444 196.528 174.444C196.031 174.444 195.633 174.692 195.335 175.189C195.036 175.686 194.886 176.431 194.883 177.422C194.883 178.093 194.95 178.652 195.083 179.101C195.219 179.547 195.411 179.882 195.658 180.107C195.906 180.328 196.195 180.439 196.528 180.439ZM201.368 181.777V180.448L204.474 177.571C204.738 177.316 204.96 177.086 205.139 176.881C205.321 176.676 205.458 176.476 205.552 176.28C205.646 176.081 205.693 175.867 205.693 175.637C205.693 175.381 205.635 175.161 205.518 174.976C205.402 174.789 205.243 174.645 205.041 174.546C204.839 174.444 204.61 174.392 204.355 174.392C204.088 174.392 203.855 174.446 203.656 174.554C203.457 174.662 203.304 174.817 203.196 175.019C203.088 175.221 203.034 175.461 203.034 175.739H201.282C201.282 175.168 201.412 174.672 201.67 174.252C201.929 173.831 202.291 173.506 202.757 173.276C203.223 173.046 203.76 172.931 204.368 172.931C204.993 172.931 205.537 173.042 206 173.263C206.466 173.482 206.828 173.786 207.086 174.175C207.345 174.564 207.474 175.01 207.474 175.513C207.474 175.843 207.409 176.168 207.278 176.489C207.15 176.81 206.922 177.167 206.592 177.559C206.262 177.948 205.798 178.415 205.199 178.961L203.924 180.209V180.269H207.589V181.777H201.368ZM212.276 181.897C211.827 181.894 211.393 181.819 210.976 181.671C210.561 181.523 210.189 181.283 209.859 180.951C209.53 180.618 209.268 180.178 209.075 179.63C208.885 179.081 208.79 178.408 208.79 177.61C208.793 176.877 208.876 176.222 209.041 175.645C209.209 175.066 209.447 174.574 209.757 174.171C210.07 173.767 210.443 173.461 210.878 173.25C211.313 173.037 211.8 172.931 212.339 172.931C212.922 172.931 213.436 173.044 213.882 173.272C214.328 173.496 214.686 173.801 214.956 174.188C215.229 174.574 215.393 175.007 215.45 175.488H213.631C213.56 175.184 213.411 174.945 213.183 174.772C212.956 174.598 212.675 174.512 212.339 174.512C211.771 174.512 211.339 174.759 211.044 175.253C210.751 175.748 210.602 176.419 210.597 177.269H210.656C210.787 177.01 210.963 176.79 211.185 176.608C211.409 176.424 211.663 176.283 211.947 176.186C212.234 176.087 212.537 176.037 212.855 176.037C213.372 176.037 213.832 176.159 214.236 176.404C214.639 176.645 214.957 176.978 215.19 177.401C215.423 177.824 215.54 178.309 215.54 178.854C215.54 179.445 215.402 179.971 215.126 180.431C214.854 180.891 214.472 181.252 213.98 181.513C213.491 181.772 212.923 181.9 212.276 181.897ZM212.267 180.448C212.551 180.448 212.805 180.38 213.03 180.243C213.254 180.107 213.43 179.922 213.558 179.689C213.686 179.456 213.75 179.195 213.75 178.905C213.75 178.615 213.686 178.355 213.558 178.125C213.433 177.895 213.26 177.712 213.038 177.576C212.817 177.439 212.564 177.371 212.28 177.371C212.067 177.371 211.869 177.411 211.688 177.49C211.509 177.57 211.351 177.681 211.214 177.823C211.081 177.965 210.976 178.13 210.899 178.317C210.822 178.502 210.784 178.699 210.784 178.909C210.784 179.191 210.848 179.448 210.976 179.681C211.107 179.914 211.283 180.1 211.504 180.239C211.729 180.378 211.983 180.448 212.267 180.448Z" fill="#1D1F20"/>
<path d="M228.434 181.777V180.448L231.54 177.571C231.805 177.316 232.026 177.086 232.205 176.881C232.387 176.676 232.525 176.476 232.619 176.28C232.712 176.081 232.759 175.867 232.759 175.637C232.759 175.381 232.701 175.161 232.585 174.976C232.468 174.789 232.309 174.645 232.107 174.546C231.906 174.444 231.677 174.392 231.421 174.392C231.154 174.392 230.921 174.446 230.722 174.554C230.523 174.662 230.37 174.817 230.262 175.019C230.154 175.221 230.1 175.461 230.1 175.739H228.349C228.349 175.168 228.478 174.672 228.737 174.252C228.995 173.831 229.357 173.506 229.823 173.276C230.289 173.046 230.826 172.931 231.434 172.931C232.059 172.931 232.603 173.042 233.066 173.263C233.532 173.482 233.894 173.786 234.153 174.175C234.411 174.564 234.54 175.01 234.54 175.513C234.54 175.843 234.475 176.168 234.344 176.489C234.217 176.81 233.988 177.167 233.658 177.559C233.329 177.948 232.864 178.415 232.265 178.961L230.991 180.209V180.269H234.656V181.777H228.434ZM239.414 181.969C238.681 181.966 238.051 181.786 237.522 181.428C236.997 181.07 236.592 180.551 236.308 179.873C236.027 179.194 235.887 178.377 235.89 177.422C235.89 176.471 236.031 175.659 236.312 174.989C236.596 174.319 237.001 173.809 237.527 173.459C238.055 173.107 238.684 172.931 239.414 172.931C240.145 172.931 240.772 173.107 241.298 173.459C241.826 173.811 242.233 174.323 242.517 174.993C242.801 175.661 242.941 176.471 242.939 177.422C242.939 178.38 242.797 179.198 242.512 179.877C242.231 180.556 241.828 181.074 241.302 181.432C240.777 181.79 240.147 181.969 239.414 181.969ZM239.414 180.439C239.914 180.439 240.314 180.188 240.612 179.685C240.91 179.182 241.058 178.428 241.055 177.422C241.055 176.76 240.987 176.209 240.85 175.769C240.717 175.328 240.527 174.998 240.279 174.776C240.035 174.554 239.747 174.444 239.414 174.444C238.917 174.444 238.52 174.692 238.221 175.189C237.923 175.686 237.772 176.431 237.77 177.422C237.77 178.093 237.836 178.652 237.97 179.101C238.106 179.547 238.298 179.882 238.545 180.107C238.792 180.328 239.082 180.439 239.414 180.439ZM244.254 181.777V180.448L247.361 177.571C247.625 177.316 247.847 177.086 248.026 176.881C248.207 176.676 248.345 176.476 248.439 176.28C248.533 176.081 248.58 175.867 248.58 175.637C248.58 175.381 248.521 175.161 248.405 174.976C248.288 174.789 248.129 174.645 247.928 174.546C247.726 174.444 247.497 174.392 247.241 174.392C246.974 174.392 246.741 174.446 246.543 174.554C246.344 174.662 246.19 174.817 246.082 175.019C245.974 175.221 245.92 175.461 245.92 175.739H244.169C244.169 175.168 244.298 174.672 244.557 174.252C244.815 173.831 245.178 173.506 245.643 173.276C246.109 173.046 246.646 172.931 247.254 172.931C247.879 172.931 248.423 173.042 248.886 173.263C249.352 173.482 249.714 173.786 249.973 174.175C250.232 174.564 250.361 175.01 250.361 175.513C250.361 175.843 250.295 176.168 250.165 176.489C250.037 176.81 249.808 177.167 249.479 177.559C249.149 177.948 248.685 178.415 248.085 178.961L246.811 180.209V180.269H250.476V181.777H244.254ZM254.971 172.931C255.419 172.931 255.851 173.006 256.266 173.157C256.684 173.307 257.056 173.547 257.382 173.877C257.712 174.206 257.972 174.644 258.162 175.189C258.355 175.732 258.453 176.398 258.456 177.188C258.456 177.929 258.373 178.591 258.205 179.174C258.04 179.753 257.803 180.246 257.493 180.652C257.184 181.059 256.81 181.368 256.373 181.581C255.935 181.792 255.446 181.897 254.907 181.897C254.324 181.897 253.81 181.784 253.364 181.56C252.918 181.333 252.559 181.025 252.286 180.635C252.016 180.243 251.853 179.803 251.796 179.314H253.615C253.686 179.632 253.836 179.88 254.063 180.056C254.29 180.229 254.571 180.316 254.907 180.316C255.475 180.316 255.907 180.069 256.202 179.574C256.498 179.077 256.647 178.397 256.65 177.533H256.59C256.459 177.789 256.283 178.009 256.061 178.194C255.84 178.375 255.586 178.516 255.299 178.615C255.015 178.715 254.712 178.765 254.391 178.765C253.877 178.765 253.418 178.644 253.015 178.402C252.611 178.161 252.293 177.828 252.06 177.405C251.827 176.982 251.711 176.499 251.711 175.956C251.708 175.371 251.843 174.85 252.115 174.392C252.388 173.935 252.769 173.577 253.257 173.319C253.749 173.057 254.32 172.928 254.971 172.931ZM254.983 174.38C254.696 174.38 254.441 174.448 254.216 174.584C253.995 174.721 253.819 174.904 253.688 175.134C253.56 175.364 253.498 175.621 253.5 175.905C253.5 176.192 253.563 176.451 253.688 176.681C253.816 176.908 253.989 177.09 254.208 177.226C254.429 177.36 254.682 177.426 254.966 177.426C255.179 177.426 255.377 177.387 255.559 177.307C255.74 177.228 255.898 177.118 256.032 176.979C256.168 176.837 256.275 176.674 256.351 176.489C256.428 176.304 256.466 176.108 256.466 175.901C256.463 175.625 256.398 175.373 256.27 175.142C256.142 174.912 255.966 174.728 255.742 174.588C255.517 174.449 255.265 174.38 254.983 174.38Z" fill="#1D1F20"/>
<path d="M271.321 181.777V180.448L274.427 177.571C274.691 177.316 274.913 177.086 275.092 176.881C275.274 176.676 275.412 176.476 275.505 176.28C275.599 176.081 275.646 175.867 275.646 175.637C275.646 175.381 275.588 175.161 275.471 174.976C275.355 174.789 275.196 174.645 274.994 174.546C274.792 174.444 274.564 174.392 274.308 174.392C274.041 174.392 273.808 174.446 273.609 174.554C273.41 174.662 273.257 174.817 273.149 175.019C273.041 175.221 272.987 175.461 272.987 175.739H271.235C271.235 175.168 271.365 174.672 271.623 174.252C271.882 173.831 272.244 173.506 272.71 173.276C273.176 173.046 273.713 172.931 274.321 172.931C274.946 172.931 275.49 173.042 275.953 173.263C276.419 173.482 276.781 173.786 277.039 174.175C277.298 174.564 277.427 175.01 277.427 175.513C277.427 175.843 277.362 176.168 277.231 176.489C277.103 176.81 276.875 177.167 276.545 177.559C276.216 177.948 275.751 178.415 275.152 178.961L273.877 180.209V180.269H277.542V181.777H271.321ZM282.301 181.969C281.568 181.966 280.938 181.786 280.409 181.428C279.884 181.07 279.479 180.551 279.195 179.873C278.913 179.194 278.774 178.377 278.777 177.422C278.777 176.471 278.918 175.659 279.199 174.989C279.483 174.319 279.888 173.809 280.413 173.459C280.942 173.107 281.571 172.931 282.301 172.931C283.031 172.931 283.659 173.107 284.185 173.459C284.713 173.811 285.119 174.323 285.403 174.993C285.688 175.661 285.828 176.471 285.825 177.422C285.825 178.38 285.683 179.198 285.399 179.877C285.118 180.556 284.714 181.074 284.189 181.432C283.663 181.79 283.034 181.969 282.301 181.969ZM282.301 180.439C282.801 180.439 283.2 180.188 283.499 179.685C283.797 179.182 283.945 178.428 283.942 177.422C283.942 176.76 283.874 176.209 283.737 175.769C283.604 175.328 283.413 174.998 283.166 174.776C282.922 174.554 282.634 174.444 282.301 174.444C281.804 174.444 281.406 174.692 281.108 175.189C280.81 175.686 280.659 176.431 280.656 177.422C280.656 178.093 280.723 178.652 280.857 179.101C280.993 179.547 281.185 179.882 281.432 180.107C281.679 180.328 281.969 180.439 282.301 180.439ZM290.367 181.897C289.73 181.897 289.164 181.787 288.667 181.569C288.172 181.347 287.782 181.043 287.495 180.657C287.211 180.267 287.064 179.819 287.056 179.31H288.914C288.925 179.523 288.995 179.711 289.123 179.873C289.253 180.032 289.426 180.155 289.642 180.243C289.858 180.331 290.101 180.375 290.371 180.375C290.652 180.375 290.901 180.326 291.117 180.226C291.333 180.127 291.502 179.989 291.624 179.813C291.746 179.637 291.807 179.434 291.807 179.203C291.807 178.971 291.742 178.765 291.611 178.586C291.483 178.404 291.299 178.262 291.057 178.159C290.819 178.057 290.534 178.006 290.205 178.006H289.391V176.651H290.205C290.483 176.651 290.729 176.603 290.942 176.506C291.158 176.409 291.326 176.276 291.445 176.105C291.564 175.932 291.624 175.73 291.624 175.5C291.624 175.282 291.571 175.09 291.466 174.925C291.364 174.757 291.219 174.627 291.032 174.533C290.847 174.439 290.631 174.392 290.384 174.392C290.134 174.392 289.905 174.438 289.698 174.529C289.49 174.617 289.324 174.743 289.199 174.908C289.074 175.073 289.007 175.266 288.999 175.488H287.23C287.239 174.985 287.382 174.542 287.661 174.158C287.939 173.775 288.314 173.475 288.786 173.259C289.26 173.04 289.796 172.931 290.392 172.931C290.995 172.931 291.522 173.04 291.973 173.259C292.425 173.478 292.776 173.773 293.026 174.145C293.279 174.515 293.404 174.929 293.401 175.39C293.404 175.878 293.252 176.286 292.945 176.613C292.641 176.939 292.245 177.147 291.756 177.235V177.303C292.398 177.385 292.887 177.608 293.222 177.972C293.56 178.333 293.728 178.784 293.725 179.327C293.728 179.824 293.584 180.266 293.294 180.652C293.007 181.039 292.611 181.343 292.105 181.564C291.6 181.786 291.02 181.897 290.367 181.897ZM295.051 181.777V180.448L298.158 177.571C298.422 177.316 298.643 177.086 298.822 176.881C299.004 176.676 299.142 176.476 299.236 176.28C299.33 176.081 299.376 175.867 299.376 175.637C299.376 175.381 299.318 175.161 299.202 174.976C299.085 174.789 298.926 174.645 298.724 174.546C298.523 174.444 298.294 174.392 298.038 174.392C297.771 174.392 297.538 174.446 297.339 174.554C297.141 174.662 296.987 174.817 296.879 175.019C296.771 175.221 296.717 175.461 296.717 175.739H294.966C294.966 175.168 295.095 174.672 295.354 174.252C295.612 173.831 295.974 173.506 296.44 173.276C296.906 173.046 297.443 172.931 298.051 172.931C298.676 172.931 299.22 173.042 299.683 173.263C300.149 173.482 300.511 173.786 300.77 174.175C301.028 174.564 301.158 175.01 301.158 175.513C301.158 175.843 301.092 176.168 300.962 176.489C300.834 176.81 300.605 177.167 300.276 177.559C299.946 177.948 299.482 178.415 298.882 178.961L297.608 180.209V180.269H301.273V181.777H295.051Z" fill="#1D1F20"/>
<path d="M314.207 181.777V180.448L317.314 177.571C317.578 177.316 317.8 177.086 317.979 176.881C318.161 176.676 318.298 176.476 318.392 176.28C318.486 176.081 318.533 175.867 318.533 175.637C318.533 175.381 318.474 175.161 318.358 174.976C318.241 174.789 318.082 174.645 317.881 174.546C317.679 174.444 317.45 174.392 317.195 174.392C316.928 174.392 316.695 174.446 316.496 174.554C316.297 174.662 316.143 174.817 316.036 175.019C315.928 175.221 315.874 175.461 315.874 175.739H314.122C314.122 175.168 314.251 174.672 314.51 174.252C314.768 173.831 315.131 173.506 315.597 173.276C316.063 173.046 316.599 172.931 317.207 172.931C317.832 172.931 318.376 173.042 318.839 173.263C319.305 173.482 319.668 173.786 319.926 174.175C320.185 174.564 320.314 175.01 320.314 175.513C320.314 175.843 320.249 176.168 320.118 176.489C319.99 176.81 319.761 177.167 319.432 177.559C319.102 177.948 318.638 178.415 318.038 178.961L316.764 180.209V180.269H320.429V181.777H314.207ZM325.188 181.969C324.455 181.966 323.824 181.786 323.296 181.428C322.77 181.07 322.365 180.551 322.081 179.873C321.8 179.194 321.661 178.377 321.664 177.422C321.664 176.471 321.804 175.659 322.086 174.989C322.37 174.319 322.775 173.809 323.3 173.459C323.828 173.107 324.458 172.931 325.188 172.931C325.918 172.931 326.546 173.107 327.071 173.459C327.6 173.811 328.006 174.323 328.29 174.993C328.574 175.661 328.715 176.471 328.712 177.422C328.712 178.38 328.57 179.198 328.286 179.877C328.005 180.556 327.601 181.074 327.076 181.432C326.55 181.79 325.921 181.969 325.188 181.969ZM325.188 180.439C325.688 180.439 326.087 180.188 326.385 179.685C326.684 179.182 326.831 178.428 326.828 177.422C326.828 176.76 326.76 176.209 326.624 175.769C326.49 175.328 326.3 174.998 326.053 174.776C325.809 174.554 325.52 174.444 325.188 174.444C324.691 174.444 324.293 174.692 323.995 175.189C323.696 175.686 323.546 176.431 323.543 177.422C323.543 178.093 323.61 178.652 323.743 179.101C323.88 179.547 324.071 179.882 324.319 180.107C324.566 180.328 324.855 180.439 325.188 180.439ZM333.254 181.897C332.617 181.897 332.05 181.787 331.553 181.569C331.059 181.347 330.668 181.043 330.381 180.657C330.097 180.267 329.951 179.819 329.942 179.31H331.8C331.812 179.523 331.881 179.711 332.009 179.873C332.14 180.032 332.313 180.155 332.529 180.243C332.745 180.331 332.988 180.375 333.258 180.375C333.539 180.375 333.788 180.326 334.004 180.226C334.219 180.127 334.388 179.989 334.511 179.813C334.633 179.637 334.694 179.434 334.694 179.203C334.694 178.971 334.629 178.765 334.498 178.586C334.37 178.404 334.185 178.262 333.944 178.159C333.705 178.057 333.421 178.006 333.092 178.006H332.278V176.651H333.092C333.37 176.651 333.616 176.603 333.829 176.506C334.045 176.409 334.212 176.276 334.332 176.105C334.451 175.932 334.511 175.73 334.511 175.5C334.511 175.282 334.458 175.09 334.353 174.925C334.251 174.757 334.106 174.627 333.918 174.533C333.734 174.439 333.518 174.392 333.271 174.392C333.021 174.392 332.792 174.438 332.585 174.529C332.377 174.617 332.211 174.743 332.086 174.908C331.961 175.073 331.894 175.266 331.886 175.488H330.117C330.126 174.985 330.269 174.542 330.548 174.158C330.826 173.775 331.201 173.475 331.673 173.259C332.147 173.04 332.683 172.931 333.279 172.931C333.881 172.931 334.408 173.04 334.86 173.259C335.312 173.478 335.663 173.773 335.913 174.145C336.165 174.515 336.29 174.929 336.288 175.39C336.29 175.878 336.138 176.286 335.832 176.613C335.528 176.939 335.131 177.147 334.643 177.235V177.303C335.285 177.385 335.773 177.608 336.109 177.972C336.447 178.333 336.614 178.784 336.612 179.327C336.614 179.824 336.471 180.266 336.181 180.652C335.894 181.039 335.498 181.343 334.992 181.564C334.487 181.786 333.907 181.897 333.254 181.897ZM341.125 181.897C340.523 181.897 339.986 181.786 339.515 181.564C339.046 181.343 338.674 181.037 338.398 180.648C338.123 180.259 337.979 179.813 337.968 179.31H339.757C339.777 179.648 339.919 179.922 340.184 180.132C340.448 180.343 340.762 180.448 341.125 180.448C341.415 180.448 341.671 180.384 341.892 180.256C342.117 180.125 342.292 179.945 342.417 179.715C342.544 179.482 342.608 179.215 342.608 178.914C342.608 178.607 342.543 178.337 342.412 178.104C342.284 177.871 342.107 177.689 341.88 177.559C341.652 177.428 341.392 177.361 341.1 177.358C340.844 177.358 340.596 177.411 340.354 177.516C340.115 177.621 339.929 177.765 339.796 177.946L338.155 177.652L338.569 173.05H343.904V174.559H340.09L339.864 176.745H339.915C340.069 176.529 340.3 176.35 340.61 176.208C340.919 176.066 341.266 175.995 341.65 175.995C342.175 175.995 342.644 176.118 343.056 176.365C343.468 176.613 343.793 176.952 344.032 177.384C344.27 177.813 344.388 178.307 344.385 178.867C344.388 179.455 344.252 179.978 343.976 180.435C343.703 180.89 343.321 181.248 342.83 181.509C342.341 181.767 341.773 181.897 341.125 181.897Z" fill="#1D1F20"/>
<path d="M3.22301 12V10.6705L6.32955 7.79403C6.59375 7.53835 6.81534 7.30824 6.99432 7.10369C7.17614 6.89915 7.31392 6.69886 7.40767 6.50284C7.50142 6.30398 7.5483 6.08949 7.5483 5.85938C7.5483 5.60369 7.49006 5.38352 7.37358 5.19886C7.2571 5.01136 7.09801 4.8679 6.89631 4.76847C6.6946 4.66619 6.46591 4.61506 6.21023 4.61506C5.94318 4.61506 5.71023 4.66903 5.51136 4.77699C5.3125 4.88494 5.15909 5.03977 5.05114 5.24148C4.94318 5.44318 4.8892 5.68324 4.8892 5.96165H3.13778C3.13778 5.39062 3.26705 4.89489 3.52557 4.47443C3.78409 4.05398 4.14631 3.72869 4.61222 3.49858C5.07813 3.26847 5.61506 3.15341 6.22301 3.15341C6.84801 3.15341 7.39205 3.2642 7.85511 3.4858C8.32102 3.70455 8.68324 4.00852 8.94176 4.39773C9.20028 4.78693 9.32955 5.23295 9.32955 5.7358C9.32955 6.06534 9.2642 6.39062 9.13352 6.71165C9.00568 7.03267 8.77699 7.3892 8.44744 7.78125C8.1179 8.17045 7.65341 8.63778 7.05398 9.18324L5.77983 10.4318V10.4915H9.4446V12H3.22301ZM14.2035 12.1918C13.4705 12.1889 12.8398 12.0085 12.3114 11.6506C11.7859 11.2926 11.381 10.7741 11.0969 10.0952C10.8157 9.41619 10.6765 8.59943 10.6793 7.64489C10.6793 6.69318 10.82 5.8821 11.1012 5.21165C11.3853 4.54119 11.7901 4.03125 12.3157 3.68182C12.8441 3.32955 13.4734 3.15341 14.2035 3.15341C14.9336 3.15341 15.5614 3.32955 16.087 3.68182C16.6154 4.03409 17.0217 4.54545 17.3058 5.21591C17.5898 5.88352 17.7305 6.69318 17.7276 7.64489C17.7276 8.60227 17.5856 9.42045 17.3015 10.0994C17.0202 10.7784 16.6168 11.2969 16.0913 11.6548C15.5657 12.0128 14.9364 12.1918 14.2035 12.1918ZM14.2035 10.6619C14.7035 10.6619 15.1026 10.4105 15.4009 9.90767C15.6992 9.40483 15.8469 8.65057 15.8441 7.64489C15.8441 6.98295 15.7759 6.43182 15.6396 5.99148C15.506 5.55114 15.3157 5.22017 15.0685 4.99858C14.8242 4.77699 14.5359 4.66619 14.2035 4.66619C13.7063 4.66619 13.3086 4.91477 13.0103 5.41193C12.712 5.90909 12.5614 6.65341 12.5586 7.64489C12.5586 8.31534 12.6254 8.875 12.7589 9.32386C12.8952 9.76989 13.087 10.1051 13.3342 10.3295C13.5813 10.5511 13.8711 10.6619 14.2035 10.6619ZM22.4652 12.1918C21.7322 12.1889 21.1016 12.0085 20.5732 11.6506C20.0476 11.2926 19.6428 10.7741 19.3587 10.0952C19.0774 9.41619 18.9382 8.59943 18.9411 7.64489C18.9411 6.69318 19.0817 5.8821 19.3629 5.21165C19.647 4.54119 20.0518 4.03125 20.5774 3.68182C21.1058 3.32955 21.7351 3.15341 22.4652 3.15341C23.1953 3.15341 23.8232 3.32955 24.3487 3.68182C24.8771 4.03409 25.2834 4.54545 25.5675 5.21591C25.8516 5.88352 25.9922 6.69318 25.9893 7.64489C25.9893 8.60227 25.8473 9.42045 25.5632 10.0994C25.282 10.7784 24.8786 11.2969 24.353 11.6548C23.8274 12.0128 23.1982 12.1918 22.4652 12.1918ZM22.4652 10.6619C22.9652 10.6619 23.3643 10.4105 23.6626 9.90767C23.9609 9.40483 24.1087 8.65057 24.1058 7.64489C24.1058 6.98295 24.0376 6.43182 23.9013 5.99148C23.7678 5.55114 23.5774 5.22017 23.3303 4.99858C23.0859 4.77699 22.7976 4.66619 22.4652 4.66619C21.968 4.66619 21.5703 4.91477 21.272 5.41193C20.9737 5.90909 20.8232 6.65341 20.8203 7.64489C20.8203 8.31534 20.8871 8.875 21.0206 9.32386C21.157 9.76989 21.3487 10.1051 21.5959 10.3295C21.843 10.5511 22.1328 10.6619 22.4652 10.6619ZM29.7585 6.8821V5.45455H35.6903V6.8821H33.581V12H31.8509V6.8821H29.7585ZM37.9286 7.46591H39.8846C40.7511 7.46591 41.4272 7.6733 41.913 8.08807C42.3988 8.5 42.6417 9.05114 42.6417 9.74148C42.6417 10.1903 42.5323 10.5852 42.3136 10.9261C42.0948 11.2642 41.7795 11.5284 41.3675 11.7188C40.9556 11.9062 40.4613 12 39.8846 12H36.7908V5.45455H38.5252V10.5724H39.8846C40.1886 10.5724 40.4386 10.4957 40.6346 10.3423C40.8306 10.1889 40.93 9.9929 40.9329 9.75426C40.93 9.50142 40.8306 9.29545 40.6346 9.13636C40.4386 8.97443 40.1886 8.89347 39.8846 8.89347H37.9286V7.46591ZM43.3448 12V5.45455H45.1602V12H43.3448ZM49.5685 12.1278C48.8981 12.1278 48.3214 11.9858 47.8384 11.7017C47.3583 11.4148 46.989 11.017 46.7305 10.5085C46.4748 10 46.3469 9.41477 46.3469 8.75284C46.3469 8.08239 46.4762 7.49432 46.7347 6.98864C46.9961 6.48011 47.3668 6.08381 47.8469 5.79972C48.3271 5.51278 48.8981 5.36932 49.56 5.36932C50.131 5.36932 50.631 5.47301 51.06 5.6804C51.489 5.88778 51.8285 6.17898 52.0785 6.55398C52.3285 6.92898 52.4663 7.36932 52.4918 7.875H50.7788C50.7305 7.5483 50.6026 7.28551 50.3952 7.08665C50.1907 6.88494 49.9222 6.78409 49.5898 6.78409C49.3086 6.78409 49.0629 6.8608 48.8526 7.0142C48.6452 7.16477 48.4833 7.38494 48.3668 7.67472C48.2504 7.96449 48.1921 8.31534 48.1921 8.72727C48.1921 9.14489 48.2489 9.5 48.3626 9.79261C48.479 10.0852 48.6424 10.3082 48.8526 10.4616C49.0629 10.6151 49.3086 10.6918 49.5898 10.6918C49.7972 10.6918 49.9833 10.6491 50.1481 10.5639C50.3157 10.4787 50.4535 10.3551 50.5614 10.1932C50.6722 10.0284 50.7447 9.83097 50.7788 9.60085H52.4918C52.4634 10.1009 52.3271 10.5412 52.0827 10.9219C51.8413 11.2997 51.5075 11.5952 51.0813 11.8082C50.6552 12.0213 50.1509 12.1278 49.5685 12.1278Z" fill="#1D1F20"/>
<path d="M9.23473 39.7727V48.5H7.38956V41.5241H7.33842L5.33984 42.777V41.1406L7.50036 39.7727H9.23473ZM14.4964 48.6193C13.8942 48.6193 13.3572 48.5085 12.8857 48.2869C12.4169 48.0653 12.0447 47.7599 11.7692 47.3707C11.4936 46.9815 11.3501 46.5355 11.3388 46.0327H13.1286C13.1484 46.3707 13.2905 46.6449 13.5547 46.8551C13.8189 47.0653 14.1328 47.1705 14.4964 47.1705C14.7862 47.1705 15.0419 47.1065 15.2635 46.9787C15.4879 46.848 15.6626 46.6676 15.7876 46.4375C15.9155 46.2045 15.9794 45.9375 15.9794 45.6364C15.9794 45.3295 15.9141 45.0597 15.7834 44.8267C15.6555 44.5937 15.478 44.4119 15.2507 44.2812C15.0234 44.1506 14.7635 44.0838 14.4709 44.081C14.2152 44.081 13.9666 44.1335 13.7251 44.2386C13.4865 44.3437 13.3004 44.4872 13.1669 44.669L11.5263 44.375L11.9396 39.7727H17.2749V41.2812H13.4609L13.2351 43.4673H13.2862C13.4396 43.2514 13.6712 43.0724 13.9808 42.9304C14.2905 42.7884 14.6371 42.7173 15.0206 42.7173C15.5462 42.7173 16.0149 42.8409 16.4268 43.0881C16.8388 43.3352 17.1641 43.6747 17.4027 44.1065C17.6413 44.5355 17.7592 45.0298 17.7564 45.5895C17.7592 46.1776 17.6229 46.7003 17.3473 47.1577C17.0746 47.6122 16.6925 47.9702 16.201 48.2315C15.7124 48.4901 15.1442 48.6193 14.4964 48.6193ZM22.4652 48.6918C21.7322 48.6889 21.1016 48.5085 20.5732 48.1506C20.0476 47.7926 19.6428 47.2741 19.3587 46.5952C19.0774 45.9162 18.9382 45.0994 18.9411 44.1449C18.9411 43.1932 19.0817 42.3821 19.3629 41.7116C19.647 41.0412 20.0518 40.5312 20.5774 40.1818C21.1058 39.8295 21.7351 39.6534 22.4652 39.6534C23.1953 39.6534 23.8232 39.8295 24.3487 40.1818C24.8771 40.5341 25.2834 41.0455 25.5675 41.7159C25.8516 42.3835 25.9922 43.1932 25.9893 44.1449C25.9893 45.1023 25.8473 45.9205 25.5632 46.5994C25.282 47.2784 24.8786 47.7969 24.353 48.1548C23.8274 48.5128 23.1982 48.6918 22.4652 48.6918ZM22.4652 47.1619C22.9652 47.1619 23.3643 46.9105 23.6626 46.4077C23.9609 45.9048 24.1087 45.1506 24.1058 44.1449C24.1058 43.483 24.0376 42.9318 23.9013 42.4915C23.7678 42.0511 23.5774 41.7202 23.3303 41.4986C23.0859 41.277 22.7976 41.1662 22.4652 41.1662C21.968 41.1662 21.5703 41.4148 21.272 41.9119C20.9737 42.4091 20.8232 43.1534 20.8203 44.1449C20.8203 44.8153 20.8871 45.375 21.0206 45.8239C21.157 46.2699 21.3487 46.6051 21.5959 46.8295C21.843 47.0511 22.1328 47.1619 22.4652 47.1619ZM29.7585 43.3821V41.9545H35.6903V43.3821H33.581V48.5H31.8509V43.3821H29.7585ZM37.9286 43.9659H39.8846C40.7511 43.9659 41.4272 44.1733 41.913 44.5881C42.3988 45 42.6417 45.5511 42.6417 46.2415C42.6417 46.6903 42.5323 47.0852 42.3136 47.4261C42.0948 47.7642 41.7795 48.0284 41.3675 48.2188C40.9556 48.4062 40.4613 48.5 39.8846 48.5H36.7908V41.9545H38.5252V47.0724H39.8846C40.1886 47.0724 40.4386 46.9957 40.6346 46.8423C40.8306 46.6889 40.93 46.4929 40.9329 46.2543C40.93 46.0014 40.8306 45.7955 40.6346 45.6364C40.4386 45.4744 40.1886 45.3935 39.8846 45.3935H37.9286V43.9659ZM43.3448 48.5V41.9545H45.1602V48.5H43.3448ZM49.5685 48.6278C48.8981 48.6278 48.3214 48.4858 47.8384 48.2017C47.3583 47.9148 46.989 47.517 46.7305 47.0085C46.4748 46.5 46.3469 45.9148 46.3469 45.2528C46.3469 44.5824 46.4762 43.9943 46.7347 43.4886C46.9961 42.9801 47.3668 42.5838 47.8469 42.2997C48.3271 42.0128 48.8981 41.8693 49.56 41.8693C50.131 41.8693 50.631 41.973 51.06 42.1804C51.489 42.3878 51.8285 42.679 52.0785 43.054C52.3285 43.429 52.4663 43.8693 52.4918 44.375H50.7788C50.7305 44.0483 50.6026 43.7855 50.3952 43.5866C50.1907 43.3849 49.9222 43.2841 49.5898 43.2841C49.3086 43.2841 49.0629 43.3608 48.8526 43.5142C48.6452 43.6648 48.4833 43.8849 48.3668 44.1747C48.2504 44.4645 48.1921 44.8153 48.1921 45.2273C48.1921 45.6449 48.2489 46 48.3626 46.2926C48.479 46.5852 48.6424 46.8082 48.8526 46.9616C49.0629 47.1151 49.3086 47.1918 49.5898 47.1918C49.7972 47.1918 49.9833 47.1491 50.1481 47.0639C50.3157 46.9787 50.4535 46.8551 50.5614 46.6932C50.6722 46.5284 50.7447 46.331 50.7788 46.1009H52.4918C52.4634 46.6009 52.3271 47.0412 52.0827 47.4219C51.8413 47.7997 51.5075 48.0952 51.0813 48.3082C50.6552 48.5213 50.1509 48.6278 49.5685 48.6278Z" fill="#1D1F20"/>
<path d="M8.70739 76.2727V85H6.86222V78.0241H6.81108L4.8125 79.277V77.6406L6.97301 76.2727H8.70739ZM14.2035 85.1918C13.4705 85.1889 12.8398 85.0085 12.3114 84.6506C11.7859 84.2926 11.381 83.7741 11.0969 83.0952C10.8157 82.4162 10.6765 81.5994 10.6793 80.6449C10.6793 79.6932 10.82 78.8821 11.1012 78.2116C11.3853 77.5412 11.7901 77.0312 12.3157 76.6818C12.8441 76.3295 13.4734 76.1534 14.2035 76.1534C14.9336 76.1534 15.5614 76.3295 16.087 76.6818C16.6154 77.0341 17.0217 77.5455 17.3058 78.2159C17.5898 78.8835 17.7305 79.6932 17.7276 80.6449C17.7276 81.6023 17.5856 82.4205 17.3015 83.0994C17.0202 83.7784 16.6168 84.2969 16.0913 84.6548C15.5657 85.0128 14.9364 85.1918 14.2035 85.1918ZM14.2035 83.6619C14.7035 83.6619 15.1026 83.4105 15.4009 82.9077C15.6992 82.4048 15.8469 81.6506 15.8441 80.6449C15.8441 79.983 15.7759 79.4318 15.6396 78.9915C15.506 78.5511 15.3157 78.2202 15.0685 77.9986C14.8242 77.777 14.5359 77.6662 14.2035 77.6662C13.7063 77.6662 13.3086 77.9148 13.0103 78.4119C12.712 78.9091 12.5614 79.6534 12.5586 80.6449C12.5586 81.3153 12.6254 81.875 12.7589 82.3239C12.8952 82.7699 13.087 83.1051 13.3342 83.3295C13.5813 83.5511 13.8711 83.6619 14.2035 83.6619ZM22.4652 85.1918C21.7322 85.1889 21.1016 85.0085 20.5732 84.6506C20.0476 84.2926 19.6428 83.7741 19.3587 83.0952C19.0774 82.4162 18.9382 81.5994 18.9411 80.6449C18.9411 79.6932 19.0817 78.8821 19.3629 78.2116C19.647 77.5412 20.0518 77.0312 20.5774 76.6818C21.1058 76.3295 21.7351 76.1534 22.4652 76.1534C23.1953 76.1534 23.8232 76.3295 24.3487 76.6818C24.8771 77.0341 25.2834 77.5455 25.5675 78.2159C25.8516 78.8835 25.9922 79.6932 25.9893 80.6449C25.9893 81.6023 25.8473 82.4205 25.5632 83.0994C25.282 83.7784 24.8786 84.2969 24.353 84.6548C23.8274 85.0128 23.1982 85.1918 22.4652 85.1918ZM22.4652 83.6619C22.9652 83.6619 23.3643 83.4105 23.6626 82.9077C23.9609 82.4048 24.1087 81.6506 24.1058 80.6449C24.1058 79.983 24.0376 79.4318 23.9013 78.9915C23.7678 78.5511 23.5774 78.2202 23.3303 77.9986C23.0859 77.777 22.7976 77.6662 22.4652 77.6662C21.968 77.6662 21.5703 77.9148 21.272 78.4119C20.9737 78.9091 20.8232 79.6534 20.8203 80.6449C20.8203 81.3153 20.8871 81.875 21.0206 82.3239C21.157 82.7699 21.3487 83.1051 21.5959 83.3295C21.843 83.5511 22.1328 83.6619 22.4652 83.6619ZM29.7585 79.8821V78.4545H35.6903V79.8821H33.581V85H31.8509V79.8821H29.7585ZM37.9286 80.4659H39.8846C40.7511 80.4659 41.4272 80.6733 41.913 81.0881C42.3988 81.5 42.6417 82.0511 42.6417 82.7415C42.6417 83.1903 42.5323 83.5852 42.3136 83.9261C42.0948 84.2642 41.7795 84.5284 41.3675 84.7188C40.9556 84.9062 40.4613 85 39.8846 85H36.7908V78.4545H38.5252V83.5724H39.8846C40.1886 83.5724 40.4386 83.4957 40.6346 83.3423C40.8306 83.1889 40.93 82.9929 40.9329 82.7543C40.93 82.5014 40.8306 82.2955 40.6346 82.1364C40.4386 81.9744 40.1886 81.8935 39.8846 81.8935H37.9286V80.4659ZM43.3448 85V78.4545H45.1602V85H43.3448ZM49.5685 85.1278C48.8981 85.1278 48.3214 84.9858 47.8384 84.7017C47.3583 84.4148 46.989 84.017 46.7305 83.5085C46.4748 83 46.3469 82.4148 46.3469 81.7528C46.3469 81.0824 46.4762 80.4943 46.7347 79.9886C46.9961 79.4801 47.3668 79.0838 47.8469 78.7997C48.3271 78.5128 48.8981 78.3693 49.56 78.3693C50.131 78.3693 50.631 78.473 51.06 78.6804C51.489 78.8878 51.8285 79.179 52.0785 79.554C52.3285 79.929 52.4663 80.3693 52.4918 80.875H50.7788C50.7305 80.5483 50.6026 80.2855 50.3952 80.0866C50.1907 79.8849 49.9222 79.7841 49.5898 79.7841C49.3086 79.7841 49.0629 79.8608 48.8526 80.0142C48.6452 80.1648 48.4833 80.3849 48.3668 80.6747C48.2504 80.9645 48.1921 81.3153 48.1921 81.7273C48.1921 82.1449 48.2489 82.5 48.3626 82.7926C48.479 83.0852 48.6424 83.3082 48.8526 83.4616C49.0629 83.6151 49.3086 83.6918 49.5898 83.6918C49.7972 83.6918 49.9833 83.6491 50.1481 83.5639C50.3157 83.4787 50.4535 83.3551 50.5614 83.1932C50.6722 83.0284 50.7447 82.831 50.7788 82.6009H52.4918C52.4634 83.1009 52.3271 83.5412 52.0827 83.9219C51.8413 84.2997 51.5075 84.5952 51.0813 84.8082C50.6552 85.0213 50.1509 85.1278 49.5685 85.1278Z" fill="#1D1F20"/>
<path d="M14.4964 121.619C13.8942 121.619 13.3572 121.509 12.8857 121.287C12.4169 121.065 12.0447 120.76 11.7692 120.371C11.4936 119.982 11.3501 119.536 11.3388 119.033H13.1286C13.1484 119.371 13.2905 119.645 13.5547 119.855C13.8189 120.065 14.1328 120.17 14.4964 120.17C14.7862 120.17 15.0419 120.107 15.2635 119.979C15.4879 119.848 15.6626 119.668 15.7876 119.438C15.9155 119.205 15.9794 118.937 15.9794 118.636C15.9794 118.33 15.9141 118.06 15.7834 117.827C15.6555 117.594 15.478 117.412 15.2507 117.281C15.0234 117.151 14.7635 117.084 14.4709 117.081C14.2152 117.081 13.9666 117.134 13.7251 117.239C13.4865 117.344 13.3004 117.487 13.1669 117.669L11.5263 117.375L11.9396 112.773H17.2749V114.281H13.4609L13.2351 116.467H13.2862C13.4396 116.251 13.6712 116.072 13.9808 115.93C14.2905 115.788 14.6371 115.717 15.0206 115.717C15.5462 115.717 16.0149 115.841 16.4268 116.088C16.8388 116.335 17.1641 116.675 17.4027 117.107C17.6413 117.536 17.7592 118.03 17.7564 118.589C17.7592 119.178 17.6229 119.7 17.3473 120.158C17.0746 120.612 16.6925 120.97 16.201 121.232C15.7124 121.49 15.1442 121.619 14.4964 121.619ZM22.4652 121.692C21.7322 121.689 21.1016 121.509 20.5732 121.151C20.0476 120.793 19.6428 120.274 19.3587 119.595C19.0774 118.916 18.9382 118.099 18.9411 117.145C18.9411 116.193 19.0817 115.382 19.3629 114.712C19.647 114.041 20.0518 113.531 20.5774 113.182C21.1058 112.83 21.7351 112.653 22.4652 112.653C23.1953 112.653 23.8232 112.83 24.3487 113.182C24.8771 113.534 25.2834 114.045 25.5675 114.716C25.8516 115.384 25.9922 116.193 25.9893 117.145C25.9893 118.102 25.8473 118.92 25.5632 119.599C25.282 120.278 24.8786 120.797 24.353 121.155C23.8274 121.513 23.1982 121.692 22.4652 121.692ZM22.4652 120.162C22.9652 120.162 23.3643 119.911 23.6626 119.408C23.9609 118.905 24.1087 118.151 24.1058 117.145C24.1058 116.483 24.0376 115.932 23.9013 115.491C23.7678 115.051 23.5774 114.72 23.3303 114.499C23.0859 114.277 22.7976 114.166 22.4652 114.166C21.968 114.166 21.5703 114.415 21.272 114.912C20.9737 115.409 20.8232 116.153 20.8203 117.145C20.8203 117.815 20.8871 118.375 21.0206 118.824C21.157 119.27 21.3487 119.605 21.5959 119.83C21.843 120.051 22.1328 120.162 22.4652 120.162ZM29.7585 116.382V114.955H35.6903V116.382H33.581V121.5H31.8509V116.382H29.7585ZM37.9286 116.966H39.8846C40.7511 116.966 41.4272 117.173 41.913 117.588C42.3988 118 42.6417 118.551 42.6417 119.241C42.6417 119.69 42.5323 120.085 42.3136 120.426C42.0948 120.764 41.7795 121.028 41.3675 121.219C40.9556 121.406 40.4613 121.5 39.8846 121.5H36.7908V114.955H38.5252V120.072H39.8846C40.1886 120.072 40.4386 119.996 40.6346 119.842C40.8306 119.689 40.93 119.493 40.9329 119.254C40.93 119.001 40.8306 118.795 40.6346 118.636C40.4386 118.474 40.1886 118.393 39.8846 118.393H37.9286V116.966ZM43.3448 121.5V114.955H45.1602V121.5H43.3448ZM49.5685 121.628C48.8981 121.628 48.3214 121.486 47.8384 121.202C47.3583 120.915 46.989 120.517 46.7305 120.009C46.4748 119.5 46.3469 118.915 46.3469 118.253C46.3469 117.582 46.4762 116.994 46.7347 116.489C46.9961 115.98 47.3668 115.584 47.8469 115.3C48.3271 115.013 48.8981 114.869 49.56 114.869C50.131 114.869 50.631 114.973 51.06 115.18C51.489 115.388 51.8285 115.679 52.0785 116.054C52.3285 116.429 52.4663 116.869 52.4918 117.375H50.7788C50.7305 117.048 50.6026 116.786 50.3952 116.587C50.1907 116.385 49.9222 116.284 49.5898 116.284C49.3086 116.284 49.0629 116.361 48.8526 116.514C48.6452 116.665 48.4833 116.885 48.3668 117.175C48.2504 117.464 48.1921 117.815 48.1921 118.227C48.1921 118.645 48.2489 119 48.3626 119.293C48.479 119.585 48.6424 119.808 48.8526 119.962C49.0629 120.115 49.3086 120.192 49.5898 120.192C49.7972 120.192 49.9833 120.149 50.1481 120.064C50.3157 119.979 50.4535 119.855 50.5614 119.693C50.6722 119.528 50.7447 119.331 50.7788 119.101H52.4918C52.4634 119.601 52.3271 120.041 52.0827 120.422C51.8413 120.8 51.5075 121.095 51.0813 121.308C50.6552 121.521 50.1509 121.628 49.5685 121.628Z" fill="#1D1F20"/>
<path d="M3.09091 200.959L3.15909 199.084L1.57386 200.09L1.16477 199.374L2.83523 198.505L1.16477 197.635L1.57386 196.919L3.15909 197.925L3.09091 196.05H3.90909L3.84091 197.925L5.42614 196.919L5.83523 197.635L4.16477 198.505L5.83523 199.374L5.42614 200.09L3.84091 199.084L3.90909 200.959H3.09091ZM7.55682 204.777V196.05H8.61364V199.936H13.267V196.05H14.3239V204.777H13.267V200.874H8.61364V204.777H7.55682ZM16.951 207.232C16.7805 207.232 16.6286 207.218 16.495 207.189C16.3615 207.164 16.2692 207.138 16.218 207.113L16.4737 206.226C16.718 206.289 16.9339 206.311 17.1214 206.294C17.3089 206.277 17.4751 206.194 17.62 206.043C17.7678 205.895 17.9027 205.655 18.0249 205.323L18.2124 204.811L15.7919 198.232H16.8828L18.6896 203.448H18.7578L20.5646 198.232H21.6555L18.8771 205.732C18.7521 206.07 18.5973 206.35 18.4126 206.571C18.228 206.796 18.0135 206.962 17.7692 207.07C17.5277 207.178 17.255 207.232 16.951 207.232ZM22.5739 204.777L25.233 201.453L22.608 198.232H23.8011L25.983 201.027H26.5284V198.232H27.5341V201.027H28.0625L30.2443 198.232H31.4375L28.8295 201.453L31.4716 204.777H30.2614L28.0455 201.965H27.5341V204.777H26.5284V201.965H26.017L23.7841 204.777H22.5739ZM35.3835 204.914C34.7528 204.914 34.2088 204.775 33.7514 204.496C33.2969 204.215 32.946 203.823 32.6989 203.32C32.4545 202.814 32.3324 202.226 32.3324 201.556C32.3324 200.885 32.4545 200.294 32.6989 199.783C32.946 199.269 33.2898 198.868 33.7301 198.581C34.1733 198.292 34.6903 198.147 35.2812 198.147C35.6222 198.147 35.9588 198.203 36.2912 198.317C36.6236 198.431 36.9261 198.615 37.1989 198.871C37.4716 199.124 37.6889 199.459 37.8509 199.877C38.0128 200.294 38.0938 200.809 38.0938 201.419V201.846H33.0483V200.976H37.071C37.071 200.607 36.9972 200.277 36.8494 199.988C36.7045 199.698 36.4972 199.469 36.2273 199.301C35.9602 199.134 35.6449 199.05 35.2812 199.05C34.8807 199.05 34.5341 199.15 34.2415 199.348C33.9517 199.544 33.7287 199.8 33.5724 200.115C33.4162 200.431 33.3381 200.769 33.3381 201.13V201.709C33.3381 202.203 33.4233 202.623 33.5938 202.966C33.767 203.307 34.0071 203.567 34.3139 203.746C34.6207 203.922 34.9773 204.01 35.3835 204.01C35.6477 204.01 35.8864 203.973 36.0994 203.9C36.3153 203.823 36.5014 203.709 36.6577 203.559C36.8139 203.405 36.9347 203.215 37.0199 202.988L37.9915 203.26C37.8892 203.59 37.7173 203.88 37.4759 204.13C37.2344 204.377 36.9361 204.57 36.581 204.709C36.2259 204.846 35.8267 204.914 35.3835 204.914ZM44.0043 201.044V201.982H40.3906V201.044H44.0043ZM40.6293 198.232V204.777H39.6236V198.232H40.6293ZM44.7713 198.232V204.777H43.7656V198.232H44.7713ZM49.2841 206.652V203.84H49.8295C49.9631 203.701 50.0781 203.55 50.1747 203.388C50.2713 203.226 50.3551 203.034 50.4261 202.813C50.5 202.588 50.5625 202.316 50.6136 201.995C50.6648 201.671 50.7102 201.28 50.75 200.823L50.9716 198.232H55.1307V203.84H56.1364V206.652H55.1307V204.777H50.2898V206.652H49.2841ZM50.9716 203.84H54.125V199.169H51.9091L51.7386 200.823C51.6676 201.507 51.5795 202.105 51.4744 202.617C51.3693 203.128 51.2017 203.536 50.9716 203.84ZM56.8917 204.777V203.84H57.1303C57.3263 203.84 57.4897 203.801 57.6204 203.725C57.7511 203.645 57.8562 203.507 57.9357 203.311C58.0181 203.113 58.0806 202.837 58.1232 202.485C58.1687 202.13 58.2013 201.678 58.2212 201.13L58.3406 198.232H62.7042V204.777H61.6985V199.169H59.2951L59.1928 201.505C59.1701 202.042 59.1218 202.515 59.0479 202.924C58.9769 203.33 58.8675 203.671 58.7198 203.946C58.5749 204.222 58.3817 204.429 58.1403 204.569C57.8988 204.708 57.5962 204.777 57.2326 204.777H56.8917ZM68.4869 204.777V199.152H66.7482C66.3562 199.152 66.0479 199.243 65.8235 199.425C65.5991 199.607 65.4869 199.857 65.4869 200.175C65.4869 200.488 65.5877 200.733 65.7894 200.912C65.994 201.091 66.2738 201.181 66.6289 201.181H68.7425V202.118H66.6289C66.1857 202.118 65.8036 202.04 65.4826 201.884C65.1616 201.728 64.9144 201.505 64.7411 201.215C64.5678 200.922 64.4812 200.576 64.4812 200.175C64.4812 199.772 64.5721 199.425 64.7539 199.135C64.9357 198.846 65.1957 198.623 65.5337 198.466C65.8746 198.31 66.2795 198.232 66.7482 198.232H69.4414V204.777H68.4869ZM64.1232 204.777L65.9812 201.522H67.0721L65.2141 204.777H64.1232ZM76.5888 204.931C76.174 204.931 75.7976 204.853 75.4595 204.696C75.1214 204.537 74.853 204.309 74.6541 204.01C74.4553 203.709 74.3558 203.346 74.3558 202.919C74.3558 202.544 74.4297 202.24 74.5774 202.007C74.7251 201.772 74.9226 201.587 75.1697 201.453C75.4169 201.32 75.6896 201.221 75.9879 201.155C76.2891 201.087 76.5916 201.033 76.8956 200.993C77.2933 200.942 77.6158 200.904 77.8629 200.878C78.1129 200.85 78.2947 200.803 78.4084 200.738C78.5249 200.672 78.5831 200.559 78.5831 200.397V200.363C78.5831 199.942 78.468 199.615 78.2379 199.382C78.0107 199.15 77.6655 199.033 77.2024 199.033C76.7223 199.033 76.3459 199.138 76.0732 199.348C75.8004 199.559 75.6087 199.783 75.4979 200.022L74.5433 199.681C74.7138 199.283 74.9411 198.973 75.2251 198.752C75.5121 198.527 75.8246 198.371 76.1626 198.283C76.5036 198.192 76.8388 198.147 77.1683 198.147C77.3786 198.147 77.62 198.172 77.8928 198.223C78.1683 198.272 78.4339 198.373 78.6896 198.526C78.9482 198.679 79.1626 198.911 79.3331 199.221C79.5036 199.53 79.5888 199.945 79.5888 200.465V204.777H78.5831V203.891H78.532C78.4638 204.033 78.3501 204.185 78.1911 204.347C78.032 204.509 77.8203 204.647 77.5561 204.76C77.2919 204.874 76.9695 204.931 76.5888 204.931ZM76.7422 204.027C77.1399 204.027 77.4751 203.949 77.7479 203.793C78.0234 203.637 78.2308 203.435 78.37 203.188C78.5121 202.941 78.5831 202.681 78.5831 202.408V201.488C78.5405 201.539 78.4467 201.586 78.3018 201.628C78.1598 201.668 77.995 201.703 77.8075 201.735C77.6229 201.763 77.4425 201.789 77.2663 201.811C77.093 201.831 76.9524 201.848 76.8445 201.863C76.5831 201.897 76.3388 201.952 76.1115 202.029C75.8871 202.103 75.7053 202.215 75.5661 202.365C75.4297 202.513 75.3615 202.715 75.3615 202.971C75.3615 203.32 75.4908 203.584 75.7493 203.763C76.0107 203.939 76.3416 204.027 76.7422 204.027ZM85.805 201.044V201.982H82.1914V201.044H85.805ZM82.43 198.232V204.777H81.4244V198.232H82.43ZM86.5721 198.232V204.777H85.5664V198.232H86.5721ZM90.3349 204.931C89.9201 204.931 89.5437 204.853 89.2056 204.696C88.8675 204.537 88.5991 204.309 88.4002 204.01C88.2013 203.709 88.1019 203.346 88.1019 202.919C88.1019 202.544 88.1758 202.24 88.3235 202.007C88.4712 201.772 88.6687 201.587 88.9158 201.453C89.163 201.32 89.4357 201.221 89.734 201.155C90.0352 201.087 90.3377 201.033 90.6417 200.993C91.0394 200.942 91.3619 200.904 91.609 200.878C91.859 200.85 92.0408 200.803 92.1545 200.738C92.271 200.672 92.3292 200.559 92.3292 200.397V200.363C92.3292 199.942 92.2141 199.615 91.984 199.382C91.7567 199.15 91.4116 199.033 90.9485 199.033C90.4684 199.033 90.092 199.138 89.8192 199.348C89.5465 199.559 89.3548 199.783 89.244 200.022L88.2894 199.681C88.4599 199.283 88.6871 198.973 88.9712 198.752C89.2582 198.527 89.5707 198.371 89.9087 198.283C90.2496 198.192 90.5849 198.147 90.9144 198.147C91.1246 198.147 91.3661 198.172 91.6388 198.223C91.9144 198.272 92.18 198.373 92.4357 198.526C92.6942 198.679 92.9087 198.911 93.0792 199.221C93.2496 199.53 93.3349 199.945 93.3349 200.465V204.777H92.3292V203.891H92.2781C92.2099 204.033 92.0962 204.185 91.9371 204.347C91.7781 204.509 91.5664 204.647 91.3022 204.76C91.038 204.874 90.7156 204.931 90.3349 204.931ZM90.4883 204.027C90.886 204.027 91.2212 203.949 91.494 203.793C91.7695 203.637 91.9769 203.435 92.1161 203.188C92.2582 202.941 92.3292 202.681 92.3292 202.408V201.488C92.2866 201.539 92.1928 201.586 92.0479 201.628C91.9059 201.668 91.7411 201.703 91.5536 201.735C91.369 201.763 91.1886 201.789 91.0124 201.811C90.8391 201.831 90.6985 201.848 90.5906 201.863C90.3292 201.897 90.0849 201.952 89.8576 202.029C89.6332 202.103 89.4513 202.215 89.3121 202.365C89.1758 202.513 89.1076 202.715 89.1076 202.971C89.1076 203.32 89.2369 203.584 89.4954 203.763C89.7567 203.939 90.0877 204.027 90.4883 204.027ZM94.5909 204.777V203.84H94.8295C95.0256 203.84 95.1889 203.801 95.3196 203.725C95.4503 203.645 95.5554 203.507 95.6349 203.311C95.7173 203.113 95.7798 202.837 95.8224 202.485C95.8679 202.13 95.9006 201.678 95.9205 201.13L96.0398 198.232H100.403V204.777H99.3977V199.169H96.9943L96.892 201.505C96.8693 202.042 96.821 202.515 96.7472 202.924C96.6761 203.33 96.5668 203.671 96.419 203.946C96.2741 204.222 96.081 204.429 95.8395 204.569C95.598 204.708 95.2955 204.777 94.9318 204.777H94.5909ZM103.254 203.294L106.408 198.232H107.567V204.777H106.561V199.715L103.425 204.777H102.249V198.232H103.254V203.294ZM109 203.107H110.074C110.096 203.402 110.23 203.627 110.474 203.78C110.721 203.934 111.042 204.01 111.437 204.01C111.841 204.01 112.186 203.928 112.473 203.763C112.76 203.596 112.903 203.326 112.903 202.953C112.903 202.735 112.849 202.544 112.741 202.382C112.633 202.218 112.481 202.09 112.285 201.999C112.089 201.908 111.858 201.863 111.591 201.863H110.466V200.959H111.591C111.991 200.959 112.287 200.868 112.477 200.686C112.67 200.505 112.767 200.277 112.767 200.005C112.767 199.712 112.663 199.478 112.456 199.301C112.248 199.123 111.954 199.033 111.574 199.033C111.19 199.033 110.87 199.12 110.615 199.293C110.359 199.463 110.224 199.684 110.21 199.953H109.153C109.164 199.601 109.272 199.29 109.477 199.02C109.681 198.748 109.96 198.534 110.312 198.381C110.664 198.225 111.068 198.147 111.522 198.147C111.983 198.147 112.382 198.228 112.72 198.39C113.061 198.549 113.324 198.766 113.508 199.042C113.696 199.314 113.789 199.624 113.789 199.971C113.789 200.34 113.686 200.638 113.478 200.865C113.271 201.093 113.011 201.255 112.699 201.351V201.419C112.946 201.436 113.16 201.516 113.342 201.658C113.527 201.797 113.67 201.98 113.772 202.208C113.875 202.432 113.926 202.681 113.926 202.953C113.926 203.351 113.819 203.698 113.606 203.993C113.393 204.286 113.1 204.513 112.728 204.675C112.356 204.834 111.931 204.914 111.454 204.914C110.991 204.914 110.576 204.838 110.21 204.688C109.843 204.534 109.552 204.323 109.336 204.053C109.123 203.78 109.011 203.465 109 203.107ZM117.265 204.931C116.85 204.931 116.473 204.853 116.135 204.696C115.797 204.537 115.529 204.309 115.33 204.01C115.131 203.709 115.032 203.346 115.032 202.919C115.032 202.544 115.105 202.24 115.253 202.007C115.401 201.772 115.598 201.587 115.846 201.453C116.093 201.32 116.365 201.221 116.664 201.155C116.965 201.087 117.267 201.033 117.571 200.993C117.969 200.942 118.292 200.904 118.539 200.878C118.789 200.85 118.971 200.803 119.084 200.738C119.201 200.672 119.259 200.559 119.259 200.397V200.363C119.259 199.942 119.144 199.615 118.914 199.382C118.686 199.15 118.341 199.033 117.878 199.033C117.398 199.033 117.022 199.138 116.749 199.348C116.476 199.559 116.284 199.783 116.174 200.022L115.219 199.681C115.39 199.283 115.617 198.973 115.901 198.752C116.188 198.527 116.5 198.371 116.838 198.283C117.179 198.192 117.515 198.147 117.844 198.147C118.054 198.147 118.296 198.172 118.569 198.223C118.844 198.272 119.11 198.373 119.365 198.526C119.624 198.679 119.838 198.911 120.009 199.221C120.179 199.53 120.265 199.945 120.265 200.465V204.777H119.259V203.891H119.208C119.14 204.033 119.026 204.185 118.867 204.347C118.708 204.509 118.496 204.647 118.232 204.76C117.968 204.874 117.645 204.931 117.265 204.931ZM117.418 204.027C117.816 204.027 118.151 203.949 118.424 203.793C118.699 203.637 118.907 203.435 119.046 203.188C119.188 202.941 119.259 202.681 119.259 202.408V201.488C119.216 201.539 119.123 201.586 118.978 201.628C118.836 201.668 118.671 201.703 118.483 201.735C118.299 201.763 118.118 201.789 117.942 201.811C117.769 201.831 117.628 201.848 117.52 201.863C117.259 201.897 117.015 201.952 116.787 202.029C116.563 202.103 116.381 202.215 116.242 202.365C116.105 202.513 116.037 202.715 116.037 202.971C116.037 203.32 116.167 203.584 116.425 203.763C116.686 203.939 117.017 204.027 117.418 204.027ZM125.475 204.777V198.232H130.623V204.777H129.617V199.169H126.481V204.777H125.475ZM135.204 204.914C134.573 204.914 134.029 204.775 133.572 204.496C133.117 204.215 132.766 203.823 132.519 203.32C132.275 202.814 132.153 202.226 132.153 201.556C132.153 200.885 132.275 200.294 132.519 199.783C132.766 199.269 133.11 198.868 133.55 198.581C133.994 198.292 134.511 198.147 135.102 198.147C135.442 198.147 135.779 198.203 136.112 198.317C136.444 198.431 136.746 198.615 137.019 198.871C137.292 199.124 137.509 199.459 137.671 199.877C137.833 200.294 137.914 200.809 137.914 201.419V201.846H132.869V200.976H136.891C136.891 200.607 136.817 200.277 136.67 199.988C136.525 199.698 136.317 199.469 136.048 199.301C135.781 199.134 135.465 199.05 135.102 199.05C134.701 199.05 134.354 199.15 134.062 199.348C133.772 199.544 133.549 199.8 133.393 200.115C133.237 200.431 133.158 200.769 133.158 201.13V201.709C133.158 202.203 133.244 202.623 133.414 202.966C133.587 203.307 133.827 203.567 134.134 203.746C134.441 203.922 134.798 204.01 135.204 204.01C135.468 204.01 135.707 203.973 135.92 203.9C136.136 203.823 136.322 203.709 136.478 203.559C136.634 203.405 136.755 203.215 136.84 202.988L137.812 203.26C137.71 203.59 137.538 203.88 137.296 204.13C137.055 204.377 136.756 204.57 136.401 204.709C136.046 204.846 135.647 204.914 135.204 204.914ZM139.444 207.232V198.232H140.415V199.272H140.535C140.609 199.158 140.711 199.013 140.842 198.837C140.975 198.658 141.165 198.499 141.413 198.36C141.663 198.218 142.001 198.147 142.427 198.147C142.978 198.147 143.464 198.284 143.884 198.56C144.305 198.836 144.633 199.226 144.869 199.732C145.104 200.238 145.222 200.834 145.222 201.522C145.222 202.215 145.104 202.816 144.869 203.324C144.633 203.83 144.306 204.222 143.888 204.5C143.471 204.776 142.989 204.914 142.444 204.914C142.023 204.914 141.687 204.844 141.434 204.705C141.181 204.563 140.987 204.402 140.85 204.223C140.714 204.042 140.609 203.891 140.535 203.772H140.45V207.232H139.444ZM140.433 201.505C140.433 201.999 140.505 202.435 140.65 202.813C140.795 203.188 141.006 203.482 141.285 203.695C141.563 203.905 141.904 204.01 142.308 204.01C142.728 204.01 143.079 203.9 143.36 203.678C143.644 203.453 143.857 203.152 143.999 202.775C144.144 202.394 144.217 201.971 144.217 201.505C144.217 201.044 144.146 200.63 144.004 200.26C143.864 199.888 143.653 199.594 143.369 199.378C143.087 199.159 142.734 199.05 142.308 199.05C141.898 199.05 141.555 199.154 141.276 199.361C140.998 199.566 140.788 199.853 140.646 200.222C140.504 200.588 140.433 201.016 140.433 201.505ZM149.415 204.914C148.802 204.914 148.273 204.769 147.83 204.479C147.387 204.189 147.046 203.79 146.808 203.282C146.569 202.773 146.45 202.192 146.45 201.539C146.45 200.874 146.572 200.287 146.816 199.779C147.063 199.267 147.407 198.868 147.847 198.581C148.29 198.292 148.808 198.147 149.398 198.147C149.859 198.147 150.273 198.232 150.643 198.402C151.012 198.573 151.315 198.811 151.55 199.118C151.786 199.425 151.933 199.783 151.989 200.192H150.984C150.907 199.894 150.737 199.63 150.472 199.4C150.211 199.167 149.859 199.05 149.415 199.05C149.023 199.05 148.68 199.152 148.384 199.357C148.092 199.559 147.863 199.844 147.698 200.213C147.536 200.58 147.455 201.01 147.455 201.505C147.455 202.01 147.535 202.451 147.694 202.826C147.856 203.201 148.083 203.492 148.376 203.699C148.671 203.907 149.018 204.01 149.415 204.01C149.677 204.01 149.914 203.965 150.127 203.874C150.34 203.783 150.521 203.652 150.668 203.482C150.816 203.311 150.921 203.107 150.984 202.868H151.989C151.933 203.255 151.792 203.603 151.567 203.912C151.346 204.219 151.052 204.463 150.685 204.645C150.322 204.824 149.898 204.914 149.415 204.914ZM153.46 204.777V198.232H158.607V204.777H157.602V199.169H154.465V204.777H153.46ZM163.188 204.914C162.558 204.914 162.013 204.775 161.556 204.496C161.102 204.215 160.751 203.823 160.504 203.32C160.259 202.814 160.137 202.226 160.137 201.556C160.137 200.885 160.259 200.294 160.504 199.783C160.751 199.269 161.094 198.868 161.535 198.581C161.978 198.292 162.495 198.147 163.086 198.147C163.427 198.147 163.763 198.203 164.096 198.317C164.428 198.431 164.731 198.615 165.004 198.871C165.276 199.124 165.494 199.459 165.656 199.877C165.817 200.294 165.898 200.809 165.898 201.419V201.846H160.853V200.976H164.876C164.876 200.607 164.802 200.277 164.654 199.988C164.509 199.698 164.302 199.469 164.032 199.301C163.765 199.134 163.45 199.05 163.086 199.05C162.685 199.05 162.339 199.15 162.046 199.348C161.756 199.544 161.533 199.8 161.377 200.115C161.221 200.431 161.143 200.769 161.143 201.13V201.709C161.143 202.203 161.228 202.623 161.398 202.966C161.572 203.307 161.812 203.567 162.119 203.746C162.425 203.922 162.782 204.01 163.188 204.01C163.452 204.01 163.691 203.973 163.904 203.9C164.12 203.823 164.306 203.709 164.462 203.559C164.619 203.405 164.739 203.215 164.825 202.988L165.796 203.26C165.694 203.59 165.522 203.88 165.281 204.13C165.039 204.377 164.741 204.57 164.386 204.709C164.031 204.846 163.631 204.914 163.188 204.914ZM167.428 204.777V198.232H168.434V201.078H169.099L171.451 198.232H172.746L170.104 201.385L172.781 204.777H171.485L169.337 202.016H168.434V204.777H167.428ZM173.499 199.169V198.232H178.817V199.169H176.669V204.777H175.663V199.169H173.499ZM181.289 203.294L184.443 198.232H185.602V204.777H184.596V199.715L181.46 204.777H180.284V198.232H181.289V203.294ZM187.444 204.777V198.232H190.12C190.825 198.232 191.384 198.391 191.799 198.709C192.214 199.027 192.421 199.448 192.421 199.971C192.421 200.368 192.303 200.676 192.067 200.895C191.832 201.111 191.529 201.257 191.16 201.334C191.401 201.368 191.636 201.453 191.863 201.59C192.093 201.726 192.283 201.914 192.434 202.152C192.585 202.388 192.66 202.678 192.66 203.022C192.66 203.357 192.575 203.657 192.404 203.921C192.234 204.185 191.989 204.394 191.671 204.547C191.353 204.701 190.972 204.777 190.529 204.777H187.444ZM188.398 203.857H190.529C190.876 203.857 191.147 203.775 191.343 203.61C191.539 203.445 191.637 203.221 191.637 202.936C191.637 202.598 191.539 202.333 191.343 202.14C191.147 201.944 190.876 201.846 190.529 201.846H188.398V203.857ZM188.398 200.976H190.12C190.39 200.976 190.621 200.939 190.815 200.865C191.008 200.789 191.156 200.681 191.258 200.542C191.363 200.4 191.415 200.232 191.415 200.039C191.415 199.763 191.3 199.547 191.07 199.391C190.84 199.232 190.523 199.152 190.12 199.152H188.398V200.976ZM197.557 207.232V198.232H198.529V199.272H198.648C198.722 199.158 198.824 199.013 198.955 198.837C199.088 198.658 199.279 198.499 199.526 198.36C199.776 198.218 200.114 198.147 200.54 198.147C201.091 198.147 201.577 198.284 201.998 198.56C202.418 198.836 202.746 199.226 202.982 199.732C203.218 200.238 203.336 200.834 203.336 201.522C203.336 202.215 203.218 202.816 202.982 203.324C202.746 203.83 202.419 204.222 202.002 204.5C201.584 204.776 201.103 204.914 200.557 204.914C200.137 204.914 199.8 204.844 199.547 204.705C199.294 204.563 199.1 204.402 198.963 204.223C198.827 204.042 198.722 203.891 198.648 203.772H198.563V207.232H197.557ZM198.546 201.505C198.546 201.999 198.618 202.435 198.763 202.813C198.908 203.188 199.12 203.482 199.398 203.695C199.676 203.905 200.017 204.01 200.421 204.01C200.841 204.01 201.192 203.9 201.473 203.678C201.757 203.453 201.971 203.152 202.113 202.775C202.257 202.394 202.33 201.971 202.33 201.505C202.33 201.044 202.259 200.63 202.117 200.26C201.978 199.888 201.766 199.594 201.482 199.378C201.201 199.159 200.847 199.05 200.421 199.05C200.012 199.05 199.668 199.154 199.39 199.361C199.111 199.566 198.901 199.853 198.759 200.222C198.617 200.588 198.546 201.016 198.546 201.505ZM206.796 204.931C206.381 204.931 206.005 204.853 205.667 204.696C205.328 204.537 205.06 204.309 204.861 204.01C204.662 203.709 204.563 203.346 204.563 202.919C204.563 202.544 204.637 202.24 204.784 202.007C204.932 201.772 205.13 201.587 205.377 201.453C205.624 201.32 205.897 201.221 206.195 201.155C206.496 201.087 206.799 201.033 207.103 200.993C207.5 200.942 207.823 200.904 208.07 200.878C208.32 200.85 208.502 200.803 208.615 200.738C208.732 200.672 208.79 200.559 208.79 200.397V200.363C208.79 199.942 208.675 199.615 208.445 199.382C208.218 199.15 207.873 199.033 207.409 199.033C206.929 199.033 206.553 199.138 206.28 199.348C206.007 199.559 205.816 199.783 205.705 200.022L204.75 199.681C204.921 199.283 205.148 198.973 205.432 198.752C205.719 198.527 206.032 198.371 206.37 198.283C206.711 198.192 207.046 198.147 207.375 198.147C207.586 198.147 207.827 198.172 208.1 198.223C208.375 198.272 208.641 198.373 208.897 198.526C209.155 198.679 209.37 198.911 209.54 199.221C209.711 199.53 209.796 199.945 209.796 200.465V204.777H208.79V203.891H208.739C208.671 204.033 208.557 204.185 208.398 204.347C208.239 204.509 208.027 204.647 207.763 204.76C207.499 204.874 207.176 204.931 206.796 204.931ZM206.949 204.027C207.347 204.027 207.682 203.949 207.955 203.793C208.23 203.637 208.438 203.435 208.577 203.188C208.719 202.941 208.79 202.681 208.79 202.408V201.488C208.748 201.539 208.654 201.586 208.509 201.628C208.367 201.668 208.202 201.703 208.015 201.735C207.83 201.763 207.65 201.789 207.473 201.811C207.3 201.831 207.159 201.848 207.051 201.863C206.79 201.897 206.546 201.952 206.319 202.029C206.094 202.103 205.912 202.215 205.773 202.365C205.637 202.513 205.569 202.715 205.569 202.971C205.569 203.32 205.698 203.584 205.956 203.763C206.218 203.939 206.549 204.027 206.949 204.027ZM211.222 203.107H212.296C212.319 203.402 212.452 203.627 212.697 203.78C212.944 203.934 213.265 204.01 213.66 204.01C214.063 204.01 214.408 203.928 214.695 203.763C214.982 203.596 215.126 203.326 215.126 202.953C215.126 202.735 215.072 202.544 214.964 202.382C214.856 202.218 214.704 202.09 214.508 201.999C214.312 201.908 214.08 201.863 213.813 201.863H212.688V200.959H213.813C214.214 200.959 214.509 200.868 214.7 200.686C214.893 200.505 214.989 200.277 214.989 200.005C214.989 199.712 214.886 199.478 214.678 199.301C214.471 199.123 214.177 199.033 213.796 199.033C213.413 199.033 213.093 199.12 212.837 199.293C212.582 199.463 212.447 199.684 212.433 199.953H211.376C211.387 199.601 211.495 199.29 211.7 199.02C211.904 198.748 212.183 198.534 212.535 198.381C212.887 198.225 213.29 198.147 213.745 198.147C214.205 198.147 214.604 198.228 214.942 198.39C215.283 198.549 215.546 198.766 215.731 199.042C215.918 199.314 216.012 199.624 216.012 199.971C216.012 200.34 215.908 200.638 215.701 200.865C215.494 201.093 215.234 201.255 214.921 201.351V201.419C215.168 201.436 215.383 201.516 215.565 201.658C215.749 201.797 215.893 201.98 215.995 202.208C216.097 202.432 216.148 202.681 216.148 202.953C216.148 203.351 216.042 203.698 215.829 203.993C215.616 204.286 215.323 204.513 214.951 204.675C214.579 204.834 214.154 204.914 213.677 204.914C213.214 204.914 212.799 204.838 212.433 204.688C212.066 204.534 211.775 204.323 211.559 204.053C211.346 203.78 211.234 203.465 211.222 203.107ZM217.561 204.777V198.232H220.237C220.942 198.232 221.501 198.391 221.916 198.709C222.331 199.027 222.538 199.448 222.538 199.971C222.538 200.368 222.42 200.676 222.185 200.895C221.949 201.111 221.646 201.257 221.277 201.334C221.518 201.368 221.753 201.453 221.98 201.59C222.21 201.726 222.401 201.914 222.551 202.152C222.702 202.388 222.777 202.678 222.777 203.022C222.777 203.357 222.692 203.657 222.521 203.921C222.351 204.185 222.107 204.394 221.788 204.547C221.47 204.701 221.089 204.777 220.646 204.777H217.561ZM218.516 203.857H220.646C220.993 203.857 221.264 203.775 221.46 203.61C221.656 203.445 221.754 203.221 221.754 202.936C221.754 202.598 221.656 202.333 221.46 202.14C221.264 201.944 220.993 201.846 220.646 201.846H218.516V203.857ZM218.516 200.976H220.237C220.507 200.976 220.739 200.939 220.932 200.865C221.125 200.789 221.273 200.681 221.375 200.542C221.48 200.4 221.533 200.232 221.533 200.039C221.533 199.763 221.418 199.547 221.188 199.391C220.957 199.232 220.641 199.152 220.237 199.152H218.516V200.976ZM225.305 203.294L228.458 198.232H229.618V204.777H228.612V199.715L225.475 204.777H224.299V198.232H225.305V203.294ZM230.569 199.169V198.232H235.887V199.169H233.739V204.777H232.734V199.169H230.569ZM238.36 203.294L241.513 198.232H242.672V204.777H241.667V199.715L238.53 204.777H237.354V198.232H238.36V203.294ZM248.452 204.777V199.152H246.713C246.321 199.152 246.013 199.243 245.788 199.425C245.564 199.607 245.452 199.857 245.452 200.175C245.452 200.488 245.553 200.733 245.754 200.912C245.959 201.091 246.239 201.181 246.594 201.181H248.707V202.118H246.594C246.151 202.118 245.768 202.04 245.447 201.884C245.126 201.728 244.879 201.505 244.706 201.215C244.533 200.922 244.446 200.576 244.446 200.175C244.446 199.772 244.537 199.425 244.719 199.135C244.901 198.846 245.161 198.623 245.499 198.466C245.839 198.31 246.244 198.232 246.713 198.232H249.406V204.777H248.452ZM244.088 204.777L245.946 201.522H247.037L245.179 204.777H244.088ZM254.627 204.777V198.232H259.775V204.777H258.77V199.169H255.633V204.777H254.627ZM263.538 204.931C263.123 204.931 262.747 204.853 262.409 204.696C262.071 204.537 261.802 204.309 261.603 204.01C261.404 203.709 261.305 203.346 261.305 202.919C261.305 202.544 261.379 202.24 261.527 202.007C261.674 201.772 261.872 201.587 262.119 201.453C262.366 201.32 262.639 201.221 262.937 201.155C263.238 201.087 263.541 201.033 263.845 200.993C264.243 200.942 264.565 200.904 264.812 200.878C265.062 200.85 265.244 200.803 265.358 200.738C265.474 200.672 265.532 200.559 265.532 200.397V200.363C265.532 199.942 265.417 199.615 265.187 199.382C264.96 199.15 264.615 199.033 264.152 199.033C263.672 199.033 263.295 199.138 263.022 199.348C262.75 199.559 262.558 199.783 262.447 200.022L261.493 199.681C261.663 199.283 261.89 198.973 262.174 198.752C262.461 198.527 262.774 198.371 263.112 198.283C263.453 198.192 263.788 198.147 264.118 198.147C264.328 198.147 264.569 198.172 264.842 198.223C265.118 198.272 265.383 198.373 265.639 198.526C265.897 198.679 266.112 198.911 266.282 199.221C266.453 199.53 266.538 199.945 266.538 200.465V204.777H265.532V203.891H265.481C265.413 204.033 265.299 204.185 265.14 204.347C264.981 204.509 264.77 204.647 264.505 204.76C264.241 204.874 263.919 204.931 263.538 204.931ZM263.691 204.027C264.089 204.027 264.424 203.949 264.697 203.793C264.973 203.637 265.18 203.435 265.319 203.188C265.461 202.941 265.532 202.681 265.532 202.408V201.488C265.49 201.539 265.396 201.586 265.251 201.628C265.109 201.668 264.944 201.703 264.757 201.735C264.572 201.763 264.392 201.789 264.216 201.811C264.042 201.831 263.902 201.848 263.794 201.863C263.532 201.897 263.288 201.952 263.061 202.029C262.836 202.103 262.654 202.215 262.515 202.365C262.379 202.513 262.311 202.715 262.311 202.971C262.311 203.32 262.44 203.584 262.699 203.763C262.96 203.939 263.291 204.027 263.691 204.027ZM268.374 207.232V198.232H269.345V199.272H269.464C269.538 199.158 269.641 199.013 269.771 198.837C269.905 198.658 270.095 198.499 270.342 198.36C270.592 198.218 270.93 198.147 271.357 198.147C271.908 198.147 272.393 198.284 272.814 198.56C273.234 198.836 273.563 199.226 273.798 199.732C274.034 200.238 274.152 200.834 274.152 201.522C274.152 202.215 274.034 202.816 273.798 203.324C273.563 203.83 273.236 204.222 272.818 204.5C272.401 204.776 271.919 204.914 271.374 204.914C270.953 204.914 270.616 204.844 270.364 204.705C270.111 204.563 269.916 204.402 269.78 204.223C269.643 204.042 269.538 203.891 269.464 203.772H269.379V207.232H268.374ZM269.362 201.505C269.362 201.999 269.435 202.435 269.58 202.813C269.724 203.188 269.936 203.482 270.214 203.695C270.493 203.905 270.834 204.01 271.237 204.01C271.658 204.01 272.009 203.9 272.29 203.678C272.574 203.453 272.787 203.152 272.929 202.775C273.074 202.394 273.146 201.971 273.146 201.505C273.146 201.044 273.075 200.63 272.933 200.26C272.794 199.888 272.582 199.594 272.298 199.378C272.017 199.159 271.663 199.05 271.237 199.05C270.828 199.05 270.484 199.154 270.206 199.361C269.928 199.566 269.717 199.853 269.575 200.222C269.433 200.588 269.362 201.016 269.362 201.505ZM275.686 204.777V198.232H276.692V201.078H277.357L279.709 198.232H281.004L278.362 201.385L281.038 204.777H279.743L277.595 202.016H276.692V204.777H275.686ZM284.058 204.931C283.643 204.931 283.266 204.853 282.928 204.696C282.59 204.537 282.322 204.309 282.123 204.01C281.924 203.709 281.825 203.346 281.825 202.919C281.825 202.544 281.898 202.24 282.046 202.007C282.194 201.772 282.391 201.587 282.638 201.453C282.886 201.32 283.158 201.221 283.457 201.155C283.758 201.087 284.06 201.033 284.364 200.993C284.762 200.942 285.085 200.904 285.332 200.878C285.582 200.85 285.763 200.803 285.877 200.738C285.994 200.672 286.052 200.559 286.052 200.397V200.363C286.052 199.942 285.937 199.615 285.707 199.382C285.479 199.15 285.134 199.033 284.671 199.033C284.191 199.033 283.815 199.138 283.542 199.348C283.269 199.559 283.077 199.783 282.967 200.022L282.012 199.681C282.183 199.283 282.41 198.973 282.694 198.752C282.981 198.527 283.293 198.371 283.631 198.283C283.972 198.192 284.308 198.147 284.637 198.147C284.847 198.147 285.089 198.172 285.362 198.223C285.637 198.272 285.903 198.373 286.158 198.526C286.417 198.679 286.631 198.911 286.802 199.221C286.972 199.53 287.058 199.945 287.058 200.465V204.777H286.052V203.891H286.001C285.933 204.033 285.819 204.185 285.66 204.347C285.501 204.509 285.289 204.647 285.025 204.76C284.761 204.874 284.438 204.931 284.058 204.931ZM284.211 204.027C284.609 204.027 284.944 203.949 285.217 203.793C285.492 203.637 285.7 203.435 285.839 203.188C285.981 202.941 286.052 202.681 286.052 202.408V201.488C286.009 201.539 285.915 201.586 285.771 201.628C285.629 201.668 285.464 201.703 285.276 201.735C285.092 201.763 284.911 201.789 284.735 201.811C284.562 201.831 284.421 201.848 284.313 201.863C284.052 201.897 283.808 201.952 283.58 202.029C283.356 202.103 283.174 202.215 283.035 202.365C282.898 202.513 282.83 202.715 282.83 202.971C282.83 203.32 282.96 203.584 283.218 203.763C283.479 203.939 283.81 204.027 284.211 204.027ZM293.274 203.294L296.427 198.232H297.586V204.777H296.581V199.715L293.444 204.777H292.268V198.232H293.274V203.294ZM306.843 198.232V199.169H303.809V204.777H302.803V198.232H306.843ZM310.63 204.914C310.039 204.914 309.521 204.773 309.075 204.492C308.632 204.211 308.285 203.817 308.035 203.311C307.788 202.806 307.664 202.215 307.664 201.539C307.664 200.857 307.788 200.262 308.035 199.753C308.285 199.245 308.632 198.85 309.075 198.569C309.521 198.287 310.039 198.147 310.63 198.147C311.221 198.147 311.738 198.287 312.181 198.569C312.627 198.85 312.974 199.245 313.221 199.753C313.471 200.262 313.596 200.857 313.596 201.539C313.596 202.215 313.471 202.806 313.221 203.311C312.974 203.817 312.627 204.211 312.181 204.492C311.738 204.773 311.221 204.914 310.63 204.914ZM310.63 204.01C311.079 204.01 311.449 203.895 311.738 203.665C312.028 203.435 312.243 203.132 312.382 202.757C312.521 202.382 312.591 201.976 312.591 201.539C312.591 201.101 312.521 200.694 312.382 200.316C312.243 199.938 312.028 199.632 311.738 199.4C311.449 199.167 311.079 199.05 310.63 199.05C310.181 199.05 309.812 199.167 309.522 199.4C309.233 199.632 309.018 199.938 308.879 200.316C308.74 200.694 308.67 201.101 308.67 201.539C308.67 201.976 308.74 202.382 308.879 202.757C309.018 203.132 309.233 203.435 309.522 203.665C309.812 203.895 310.181 204.01 310.63 204.01ZM315.131 207.232V198.232H316.103V199.272H316.222C316.296 199.158 316.398 199.013 316.529 198.837C316.663 198.658 316.853 198.499 317.1 198.36C317.35 198.218 317.688 198.147 318.114 198.147C318.665 198.147 319.151 198.284 319.572 198.56C319.992 198.836 320.32 199.226 320.556 199.732C320.792 200.238 320.91 200.834 320.91 201.522C320.91 202.215 320.792 202.816 320.556 203.324C320.32 203.83 319.994 204.222 319.576 204.5C319.158 204.776 318.677 204.914 318.131 204.914C317.711 204.914 317.374 204.844 317.121 204.705C316.869 204.563 316.674 204.402 316.538 204.223C316.401 204.042 316.296 203.891 316.222 203.772H316.137V207.232H315.131ZM316.12 201.505C316.12 201.999 316.192 202.435 316.337 202.813C316.482 203.188 316.694 203.482 316.972 203.695C317.251 203.905 317.592 204.01 317.995 204.01C318.415 204.01 318.766 203.9 319.048 203.678C319.332 203.453 319.545 203.152 319.687 202.775C319.832 202.394 319.904 201.971 319.904 201.505C319.904 201.044 319.833 200.63 319.691 200.26C319.552 199.888 319.34 199.594 319.056 199.378C318.775 199.159 318.421 199.05 317.995 199.05C317.586 199.05 317.242 199.154 316.964 199.361C316.685 199.566 316.475 199.853 316.333 200.222C316.191 200.588 316.12 201.016 316.12 201.505ZM325.103 204.914C324.512 204.914 323.994 204.773 323.548 204.492C323.104 204.211 322.758 203.817 322.508 203.311C322.261 202.806 322.137 202.215 322.137 201.539C322.137 200.857 322.261 200.262 322.508 199.753C322.758 199.245 323.104 198.85 323.548 198.569C323.994 198.287 324.512 198.147 325.103 198.147C325.694 198.147 326.211 198.287 326.654 198.569C327.1 198.85 327.447 199.245 327.694 199.753C327.944 200.262 328.069 200.857 328.069 201.539C328.069 202.215 327.944 202.806 327.694 203.311C327.447 203.817 327.1 204.211 326.654 204.492C326.211 204.773 325.694 204.914 325.103 204.914ZM325.103 204.01C325.552 204.01 325.921 203.895 326.211 203.665C326.501 203.435 326.715 203.132 326.854 202.757C326.994 202.382 327.063 201.976 327.063 201.539C327.063 201.101 326.994 200.694 326.854 200.316C326.715 199.938 326.501 199.632 326.211 199.4C325.921 199.167 325.552 199.05 325.103 199.05C324.654 199.05 324.285 199.167 323.995 199.4C323.705 199.632 323.491 199.938 323.352 200.316C323.212 200.694 323.143 201.101 323.143 201.539C323.143 201.976 323.212 202.382 323.352 202.757C323.491 203.132 323.705 203.435 323.995 203.665C324.285 203.895 324.654 204.01 325.103 204.01ZM328.905 206.652V203.84H329.451C329.584 203.701 329.699 203.55 329.796 203.388C329.892 203.226 329.976 203.034 330.047 202.813C330.121 202.588 330.184 202.316 330.235 201.995C330.286 201.671 330.331 201.28 330.371 200.823L330.593 198.232H334.752V203.84H335.757V206.652H334.752V204.777H329.911V206.652H328.905ZM330.593 203.84H333.746V199.169H331.53L331.36 200.823C331.289 201.507 331.201 202.105 331.096 202.617C330.99 203.128 330.823 203.536 330.593 203.84ZM339.018 204.931C338.604 204.931 338.227 204.853 337.889 204.696C337.551 204.537 337.283 204.309 337.084 204.01C336.885 203.709 336.786 203.346 336.786 202.919C336.786 202.544 336.859 202.24 337.007 202.007C337.155 201.772 337.352 201.587 337.599 201.453C337.847 201.32 338.119 201.221 338.418 201.155C338.719 201.087 339.021 201.033 339.325 200.993C339.723 200.942 340.045 200.904 340.293 200.878C340.543 200.85 340.724 200.803 340.838 200.738C340.955 200.672 341.013 200.559 341.013 200.397V200.363C341.013 199.942 340.898 199.615 340.668 199.382C340.44 199.15 340.095 199.033 339.632 199.033C339.152 199.033 338.776 199.138 338.503 199.348C338.23 199.559 338.038 199.783 337.928 200.022L336.973 199.681C337.143 199.283 337.371 198.973 337.655 198.752C337.942 198.527 338.254 198.371 338.592 198.283C338.933 198.192 339.268 198.147 339.598 198.147C339.808 198.147 340.05 198.172 340.322 198.223C340.598 198.272 340.864 198.373 341.119 198.526C341.378 198.679 341.592 198.911 341.763 199.221C341.933 199.53 342.018 199.945 342.018 200.465V204.777H341.013V203.891H340.962C340.893 204.033 340.78 204.185 340.621 204.347C340.462 204.509 340.25 204.647 339.986 204.76C339.722 204.874 339.399 204.931 339.018 204.931ZM339.172 204.027C339.57 204.027 339.905 203.949 340.178 203.793C340.453 203.637 340.661 203.435 340.8 203.188C340.942 202.941 341.013 202.681 341.013 202.408V201.488C340.97 201.539 340.876 201.586 340.732 201.628C340.589 201.668 340.425 201.703 340.237 201.735C340.053 201.763 339.872 201.789 339.696 201.811C339.523 201.831 339.382 201.848 339.274 201.863C339.013 201.897 338.768 201.952 338.541 202.029C338.317 202.103 338.135 202.215 337.996 202.365C337.859 202.513 337.791 202.715 337.791 202.971C337.791 203.32 337.92 203.584 338.179 203.763C338.44 203.939 338.771 204.027 339.172 204.027Z" fill="#75797B"/>
</svg>
