<svg width="353" height="190" viewBox="0 0 353 190" fill="none" xmlns="http://www.w3.org/2000/svg">
<rect width="352" height="25" transform="translate(0.5)" fill="#A2D699"/>
<path d="M14.6875 17L11.6875 12.9943H10.6136V17H9.55682V8.27273H10.6136V12.0568H11.0739L14.5682 8.27273H15.8295L12.3011 12.108L15.9489 17H14.6875ZM19.1044 17.1534C18.6896 17.1534 18.3132 17.0753 17.9751 16.919C17.6371 16.7599 17.3686 16.5312 17.1697 16.233C16.9709 15.9318 16.8714 15.5682 16.8714 15.142C16.8714 14.767 16.9453 14.4631 17.093 14.2301C17.2408 13.9943 17.4382 13.8097 17.6854 13.6761C17.9325 13.5426 18.2053 13.4432 18.5036 13.3778C18.8047 13.3097 19.1072 13.2557 19.4112 13.2159C19.8089 13.1648 20.1314 13.1264 20.3786 13.1009C20.6286 13.0724 20.8104 13.0256 20.924 12.9602C21.0405 12.8949 21.0987 12.7812 21.0987 12.6193V12.5852C21.0987 12.1648 20.9837 11.8381 20.7536 11.6051C20.5263 11.3722 20.1811 11.2557 19.718 11.2557C19.2379 11.2557 18.8615 11.3608 18.5888 11.571C18.3161 11.7812 18.1243 12.0057 18.0135 12.2443L17.0589 11.9034C17.2294 11.5057 17.4567 11.196 17.7408 10.9744C18.0277 10.75 18.3402 10.5937 18.6783 10.5057C19.0192 10.4148 19.3544 10.3693 19.6839 10.3693C19.8942 10.3693 20.1357 10.3949 20.4084 10.446C20.6839 10.4943 20.9496 10.5952 21.2053 10.7486C21.4638 10.902 21.6783 11.1335 21.8487 11.4432C22.0192 11.7528 22.1044 12.1676 22.1044 12.6875V17H21.0987V16.1136H21.0476C20.9794 16.2557 20.8658 16.4077 20.7067 16.5696C20.5476 16.7315 20.3359 16.8693 20.0717 16.983C19.8075 17.0966 19.4851 17.1534 19.1044 17.1534ZM19.2578 16.25C19.6555 16.25 19.9908 16.1719 20.2635 16.0156C20.5391 15.8594 20.7464 15.6577 20.8857 15.4105C21.0277 15.1634 21.0987 14.9034 21.0987 14.6307V13.7102C21.0561 13.7614 20.9624 13.8082 20.8175 13.8509C20.6754 13.8906 20.5107 13.9261 20.3232 13.9574C20.1385 13.9858 19.9581 14.0114 19.782 14.0341C19.6087 14.054 19.468 14.071 19.3601 14.0852C19.0987 14.1193 18.8544 14.1747 18.6271 14.2514C18.4027 14.3253 18.2209 14.4375 18.0817 14.5881C17.9453 14.7358 17.8771 14.9375 17.8771 15.1932C17.8771 15.5426 18.0064 15.8068 18.2649 15.9858C18.5263 16.1619 18.8572 16.25 19.2578 16.25ZM26.5991 19.233V8.27273H27.6048V19.233H26.5991ZM26.5991 17.1364C26.1559 17.1364 25.7525 17.0568 25.3888 16.8977C25.0252 16.7358 24.7127 16.5071 24.4513 16.2116C24.19 15.9134 23.9883 15.5568 23.8462 15.142C23.7042 14.7273 23.6332 14.267 23.6332 13.7614C23.6332 13.25 23.7042 12.7869 23.8462 12.3722C23.9883 11.9545 24.19 11.5966 24.4513 11.2983C24.7127 11 25.0252 10.7713 25.3888 10.6122C25.7525 10.4503 26.1559 10.3693 26.5991 10.3693H26.9059V17.1364H26.5991ZM26.5991 16.233H26.7695V11.2727H26.5991C26.2638 11.2727 25.9727 11.3409 25.7255 11.4773C25.4783 11.6108 25.2738 11.794 25.1119 12.027C24.9528 12.2571 24.8335 12.5213 24.7539 12.8196C24.6772 13.1179 24.6388 13.4318 24.6388 13.7614C24.6388 14.1989 24.7085 14.6051 24.8477 14.9801C24.9869 15.3551 25.2013 15.6577 25.4911 15.8878C25.7809 16.1179 26.1502 16.233 26.5991 16.233ZM27.6048 17.1364H27.2979V10.3693H27.6048C28.0479 10.3693 28.4513 10.4503 28.815 10.6122C29.1786 10.7713 29.4911 11 29.7525 11.2983C30.0138 11.5966 30.2156 11.9545 30.3576 12.3722C30.4996 12.7869 30.5707 13.25 30.5707 13.7614C30.5707 14.267 30.4996 14.7273 30.3576 15.142C30.2156 15.5568 30.0138 15.9134 29.7525 16.2116C29.4911 16.5071 29.1786 16.7358 28.815 16.8977C28.4513 17.0568 28.0479 17.1364 27.6048 17.1364ZM27.6048 16.233C27.9428 16.233 28.234 16.1676 28.4783 16.0369C28.7255 15.9034 28.9286 15.7216 29.0877 15.4915C29.2496 15.2585 29.369 14.9943 29.4457 14.6989C29.5252 14.4006 29.565 14.0881 29.565 13.7614C29.565 13.3239 29.4954 12.9162 29.3562 12.5384C29.217 12.1605 29.0025 11.8551 28.7127 11.6222C28.4229 11.3892 28.0536 11.2727 27.6048 11.2727H27.4343V16.233H27.6048ZM34.8523 17.1364C34.2216 17.1364 33.6776 16.9972 33.2202 16.7188C32.7656 16.4375 32.4148 16.0455 32.1676 15.5426C31.9233 15.0369 31.8011 14.4489 31.8011 13.7784C31.8011 13.108 31.9233 12.517 32.1676 12.0057C32.4148 11.4915 32.7585 11.0909 33.1989 10.804C33.642 10.5142 34.1591 10.3693 34.75 10.3693C35.0909 10.3693 35.4276 10.4261 35.7599 10.5398C36.0923 10.6534 36.3949 10.8381 36.6676 11.0938C36.9403 11.3466 37.1577 11.6818 37.3196 12.0994C37.4815 12.517 37.5625 13.0312 37.5625 13.642V14.0682H32.517V13.1989H36.5398C36.5398 12.8295 36.4659 12.5 36.3182 12.2102C36.1733 11.9205 35.9659 11.6918 35.696 11.5241C35.429 11.3565 35.1136 11.2727 34.75 11.2727C34.3494 11.2727 34.0028 11.3722 33.7102 11.571C33.4205 11.767 33.1974 12.0227 33.0412 12.3381C32.8849 12.6534 32.8068 12.9915 32.8068 13.3523V13.9318C32.8068 14.4261 32.892 14.8452 33.0625 15.1889C33.2358 15.5298 33.4759 15.7898 33.7827 15.9688C34.0895 16.1449 34.446 16.233 34.8523 16.233C35.1165 16.233 35.3551 16.196 35.5682 16.1222C35.7841 16.0455 35.9702 15.9318 36.1264 15.7812C36.2827 15.6278 36.4034 15.4375 36.4886 15.2102L37.4602 15.483C37.358 15.8125 37.1861 16.1023 36.9446 16.3523C36.7031 16.5994 36.4048 16.7926 36.0497 16.9318C35.6946 17.0682 35.2955 17.1364 34.8523 17.1364Z" fill="#080809"/>
<path d="M329 8.27273V17H327.155V10.0241H327.104L325.105 11.277V9.64062L327.266 8.27273H329ZM334.871 8.27273V17H333.026V10.0241H332.975L330.977 11.277V9.64062L333.137 8.27273H334.871ZM340.368 17.1918C339.635 17.1889 339.004 17.0085 338.475 16.6506C337.95 16.2926 337.545 15.7741 337.261 15.0952C336.98 14.4162 336.841 13.5994 336.843 12.6449C336.843 11.6932 336.984 10.8821 337.265 10.2116C337.549 9.54119 337.954 9.03125 338.48 8.68182C339.008 8.32955 339.637 8.15341 340.368 8.15341C341.098 8.15341 341.725 8.32955 342.251 8.68182C342.779 9.03409 343.186 9.54545 343.47 10.2159C343.754 10.8835 343.895 11.6932 343.892 12.6449C343.892 13.6023 343.75 14.4205 343.466 15.0994C343.184 15.7784 342.781 16.2969 342.255 16.6548C341.73 17.0128 341.1 17.1918 340.368 17.1918ZM340.368 15.6619C340.868 15.6619 341.267 15.4105 341.565 14.9077C341.863 14.4048 342.011 13.6506 342.008 12.6449C342.008 11.983 341.94 11.4318 341.804 10.9915C341.67 10.5511 341.48 10.2202 341.233 9.99858C340.988 9.77699 340.7 9.66619 340.368 9.66619C339.87 9.66619 339.473 9.91477 339.174 10.4119C338.876 10.9091 338.725 11.6534 338.723 12.6449C338.723 13.3153 338.789 13.875 338.923 14.3239C339.059 14.7699 339.251 15.1051 339.498 15.3295C339.745 15.5511 340.035 15.6619 340.368 15.6619Z" fill="#080809"/>
<rect width="332" height="25" transform="translate(0.5 33)" fill="#A2D699"/>
<path d="M8.80682 52.1136V49.0625H9.36932C9.5625 48.8864 9.74432 48.6378 9.91477 48.3168C10.0881 47.9929 10.2344 47.5611 10.3537 47.0213C10.4759 46.4787 10.5568 45.7898 10.5966 44.9545L10.7841 41.2727H15.9659V49.0625H16.9716V52.0966H15.9659V50H9.8125V52.1136H8.80682ZM10.6307 49.0625H14.9602V42.2102H11.7386L11.6023 44.9545C11.5682 45.5909 11.5085 46.1676 11.4233 46.6847C11.3381 47.1989 11.2287 47.6548 11.0952 48.0526C10.9616 48.4474 10.8068 48.7841 10.6307 49.0625ZM21.0913 50.1364C20.5004 50.1364 19.9819 49.9957 19.5359 49.7145C19.0927 49.4332 18.7461 49.0398 18.4961 48.5341C18.2489 48.0284 18.1254 47.4375 18.1254 46.7614C18.1254 46.0795 18.2489 45.4844 18.4961 44.9759C18.7461 44.4673 19.0927 44.0724 19.5359 43.7912C19.9819 43.5099 20.5004 43.3693 21.0913 43.3693C21.6822 43.3693 22.1992 43.5099 22.6424 43.7912C23.0884 44.0724 23.435 44.4673 23.6822 44.9759C23.9322 45.4844 24.0572 46.0795 24.0572 46.7614C24.0572 47.4375 23.9322 48.0284 23.6822 48.5341C23.435 49.0398 23.0884 49.4332 22.6424 49.7145C22.1992 49.9957 21.6822 50.1364 21.0913 50.1364ZM21.0913 49.233C21.5401 49.233 21.9094 49.1179 22.1992 48.8878C22.489 48.6577 22.7035 48.3551 22.8427 47.9801C22.9819 47.6051 23.0515 47.1989 23.0515 46.7614C23.0515 46.3239 22.9819 45.9162 22.8427 45.5384C22.7035 45.1605 22.489 44.8551 22.1992 44.6222C21.9094 44.3892 21.5401 44.2727 21.0913 44.2727C20.6424 44.2727 20.2731 44.3892 19.9833 44.6222C19.6935 44.8551 19.479 45.1605 19.3398 45.5384C19.2006 45.9162 19.131 46.3239 19.131 46.7614C19.131 47.1989 19.2006 47.6051 19.3398 47.9801C19.479 48.3551 19.6935 48.6577 19.9833 48.8878C20.2731 49.1179 20.6424 49.233 21.0913 49.233ZM28.2514 50.1364C27.6378 50.1364 27.1094 49.9915 26.6662 49.7017C26.223 49.4119 25.8821 49.0128 25.6435 48.5043C25.4048 47.9957 25.2855 47.4148 25.2855 46.7614C25.2855 46.0966 25.4077 45.5099 25.652 45.0014C25.8991 44.4901 26.2429 44.0909 26.6832 43.804C27.1264 43.5142 27.6435 43.3693 28.2344 43.3693C28.6946 43.3693 29.1094 43.4545 29.4787 43.625C29.848 43.7955 30.1506 44.0341 30.3864 44.3409C30.6222 44.6477 30.7685 45.0057 30.8253 45.4148H29.8196C29.7429 45.1165 29.5724 44.8523 29.3082 44.6222C29.0469 44.3892 28.6946 44.2727 28.2514 44.2727C27.8594 44.2727 27.5156 44.375 27.2202 44.5795C26.9276 44.7812 26.6989 45.0668 26.5341 45.4361C26.3722 45.8026 26.2912 46.233 26.2912 46.7273C26.2912 47.233 26.3707 47.6733 26.5298 48.0483C26.6918 48.4233 26.919 48.7145 27.2116 48.9219C27.5071 49.1293 27.8537 49.233 28.2514 49.233C28.5128 49.233 28.75 49.1875 28.9631 49.0966C29.1761 49.0057 29.3565 48.875 29.5043 48.7045C29.652 48.5341 29.7571 48.3295 29.8196 48.0909H30.8253C30.7685 48.4773 30.6278 48.8253 30.4034 49.1349C30.1818 49.4418 29.8878 49.6861 29.5213 49.8679C29.1577 50.0469 28.7344 50.1364 28.2514 50.1364ZM31.7798 44.392V43.4545H37.098V44.392H34.9503V50H33.9446V44.392H31.7798ZM39.2127 52.4545C39.0423 52.4545 38.8903 52.4403 38.7567 52.4119C38.6232 52.3864 38.5309 52.3608 38.4798 52.3352L38.7354 51.4489C38.9798 51.5114 39.1957 51.5341 39.3832 51.517C39.5707 51.5 39.7369 51.4162 39.8817 51.2656C40.0295 51.1179 40.1644 50.8778 40.2866 50.5455L40.4741 50.0341L38.0536 43.4545H39.1445L40.9513 48.6705H41.0195L42.8263 43.4545H43.9173L41.1388 50.9545C41.0138 51.2926 40.859 51.5724 40.6744 51.794C40.4897 52.0185 40.2752 52.1847 40.0309 52.2926C39.7894 52.4006 39.5167 52.4545 39.2127 52.4545ZM45.2447 50V43.4545H50.3924V50H49.3867V44.392H46.2504V50H45.2447ZM56.6097 46.267V47.2045H52.9961V46.267H56.6097ZM53.2347 43.4545V50H52.229V43.4545H53.2347ZM57.3768 43.4545V50H56.3711V43.4545H57.3768ZM61.1396 50.1534C60.7248 50.1534 60.3484 50.0753 60.0103 49.919C59.6722 49.7599 59.4038 49.5312 59.2049 49.233C59.006 48.9318 58.9066 48.5682 58.9066 48.142C58.9066 47.767 58.9805 47.4631 59.1282 47.2301C59.2759 46.9943 59.4734 46.8097 59.7205 46.6761C59.9677 46.5426 60.2404 46.4432 60.5387 46.3778C60.8398 46.3097 61.1424 46.2557 61.4464 46.2159C61.8441 46.1648 62.1665 46.1264 62.4137 46.1009C62.6637 46.0724 62.8455 46.0256 62.9592 45.9602C63.0756 45.8949 63.1339 45.7812 63.1339 45.6193V45.5852C63.1339 45.1648 63.0188 44.8381 62.7887 44.6051C62.5614 44.3722 62.2163 44.2557 61.7532 44.2557C61.2731 44.2557 60.8967 44.3608 60.6239 44.571C60.3512 44.7812 60.1594 45.0057 60.0487 45.2443L59.0941 44.9034C59.2646 44.5057 59.4918 44.196 59.7759 43.9744C60.0629 43.75 60.3754 43.5937 60.7134 43.5057C61.0543 43.4148 61.3896 43.3693 61.7191 43.3693C61.9293 43.3693 62.1708 43.3949 62.4435 43.446C62.7191 43.4943 62.9847 43.5952 63.2404 43.7486C63.4989 43.902 63.7134 44.1335 63.8839 44.4432C64.0543 44.7528 64.1396 45.1676 64.1396 45.6875V50H63.1339V49.1136H63.0827C63.0146 49.2557 62.9009 49.4077 62.7418 49.5696C62.5827 49.7315 62.3711 49.8693 62.1069 49.983C61.8427 50.0966 61.5202 50.1534 61.1396 50.1534ZM61.293 49.25C61.6907 49.25 62.0259 49.1719 62.2987 49.0156C62.5742 48.8594 62.7816 48.6577 62.9208 48.4105C63.0629 48.1634 63.1339 47.9034 63.1339 47.6307V46.7102C63.0913 46.7614 62.9975 46.8082 62.8526 46.8509C62.7106 46.8906 62.5458 46.9261 62.3583 46.9574C62.1737 46.9858 61.9933 47.0114 61.8171 47.0341C61.6438 47.054 61.5032 47.071 61.3952 47.0852C61.1339 47.1193 60.8896 47.1747 60.6623 47.2514C60.4379 47.3253 60.256 47.4375 60.1168 47.5881C59.9805 47.7358 59.9123 47.9375 59.9123 48.1932C59.9123 48.5426 60.0415 48.8068 60.3001 48.9858C60.5614 49.1619 60.8924 49.25 61.293 49.25ZM69.9126 50V44.375H68.174C67.782 44.375 67.4737 44.4659 67.2493 44.6477C67.0249 44.8295 66.9126 45.0795 66.9126 45.3977C66.9126 45.7102 67.0135 45.956 67.2152 46.1349C67.4197 46.3139 67.6996 46.4034 68.0547 46.4034H70.1683V47.3409H68.0547C67.6115 47.3409 67.2294 47.2628 66.9084 47.1065C66.5874 46.9503 66.3402 46.7273 66.1669 46.4375C65.9936 46.1449 65.907 45.7983 65.907 45.3977C65.907 44.9943 65.9979 44.6477 66.1797 44.358C66.3615 44.0682 66.6214 43.8452 66.9595 43.6889C67.3004 43.5327 67.7053 43.4545 68.174 43.4545H70.8672V50H69.9126ZM65.549 50L67.407 46.7443H68.4979L66.6399 50H65.549ZM78.7475 50.1364C78.1339 50.1364 77.6055 49.9915 77.1623 49.7017C76.7191 49.4119 76.3782 49.0128 76.1396 48.5043C75.9009 47.9957 75.7816 47.4148 75.7816 46.7614C75.7816 46.0966 75.9038 45.5099 76.1481 45.0014C76.3952 44.4901 76.739 44.0909 77.1793 43.804C77.6225 43.5142 78.1396 43.3693 78.7305 43.3693C79.1907 43.3693 79.6055 43.4545 79.9748 43.625C80.3441 43.7955 80.6467 44.0341 80.8825 44.3409C81.1183 44.6477 81.2646 45.0057 81.3214 45.4148H80.3157C80.239 45.1165 80.0685 44.8523 79.8043 44.6222C79.543 44.3892 79.1907 44.2727 78.7475 44.2727C78.3555 44.2727 78.0117 44.375 77.7163 44.5795C77.4237 44.7812 77.195 45.0668 77.0302 45.4361C76.8683 45.8026 76.7873 46.233 76.7873 46.7273C76.7873 47.233 76.8668 47.6733 77.0259 48.0483C77.1879 48.4233 77.4151 48.7145 77.7077 48.9219C78.0032 49.1293 78.3498 49.233 78.7475 49.233C79.0089 49.233 79.2461 49.1875 79.4592 49.0966C79.6722 49.0057 79.8526 48.875 80.0004 48.7045C80.1481 48.5341 80.2532 48.3295 80.3157 48.0909H81.3214C81.2646 48.4773 81.1239 48.8253 80.8995 49.1349C80.6779 49.4418 80.3839 49.6861 80.0174 49.8679C79.6538 50.0469 79.2305 50.1364 78.7475 50.1364ZM82.7915 52.4545V43.4545H83.7631V44.4943H83.8825C83.9563 44.3807 84.0586 44.2358 84.1893 44.0597C84.3228 43.8807 84.5131 43.7216 84.7603 43.5824C85.0103 43.4403 85.3484 43.3693 85.7745 43.3693C86.3256 43.3693 86.8114 43.5071 87.2319 43.7827C87.6523 44.0582 87.9805 44.4489 88.2163 44.9545C88.4521 45.4602 88.57 46.0568 88.57 46.7443C88.57 47.4375 88.4521 48.0384 88.2163 48.5469C87.9805 49.0526 87.6538 49.4446 87.2362 49.723C86.8185 49.9986 86.337 50.1364 85.7915 50.1364C85.3711 50.1364 85.0344 50.0668 84.7816 49.9276C84.5288 49.7855 84.3342 49.625 84.1978 49.446C84.0614 49.2642 83.9563 49.1136 83.8825 48.9943H83.7972V52.4545H82.7915ZM83.7802 46.7273C83.7802 47.2216 83.8526 47.6577 83.9975 48.0355C84.1424 48.4105 84.354 48.7045 84.6325 48.9176C84.9109 49.1278 85.2518 49.233 85.6552 49.233C86.0756 49.233 86.4265 49.1222 86.7077 48.9006C86.9918 48.6761 87.2049 48.375 87.3469 47.9972C87.4918 47.6165 87.5643 47.1932 87.5643 46.7273C87.5643 46.267 87.4933 45.8523 87.3512 45.483C87.212 45.1108 87.0004 44.8168 86.7163 44.6009C86.435 44.3821 86.0813 44.2727 85.6552 44.2727C85.2461 44.2727 84.9023 44.3764 84.6239 44.5838C84.3455 44.7884 84.1353 45.0753 83.9933 45.4446C83.8512 45.8111 83.7802 46.2386 83.7802 46.7273ZM92.8484 50.1364C92.2177 50.1364 91.6737 49.9972 91.2163 49.7188C90.7617 49.4375 90.4109 49.0455 90.1637 48.5426C89.9194 48.0369 89.7972 47.4489 89.7972 46.7784C89.7972 46.108 89.9194 45.517 90.1637 45.0057C90.4109 44.4915 90.7546 44.0909 91.195 43.804C91.6381 43.5142 92.1552 43.3693 92.7461 43.3693C93.087 43.3693 93.4237 43.4261 93.756 43.5398C94.0884 43.6534 94.391 43.8381 94.6637 44.0938C94.9364 44.3466 95.1538 44.6818 95.3157 45.0994C95.4776 45.517 95.5586 46.0312 95.5586 46.642V47.0682H90.5131V46.1989H94.5359C94.5359 45.8295 94.462 45.5 94.3143 45.2102C94.1694 44.9205 93.962 44.6918 93.6921 44.5241C93.4251 44.3565 93.1097 44.2727 92.7461 44.2727C92.3455 44.2727 91.9989 44.3722 91.7063 44.571C91.4165 44.767 91.1935 45.0227 91.0373 45.3381C90.881 45.6534 90.8029 45.9915 90.8029 46.3523V46.9318C90.8029 47.4261 90.8881 47.8452 91.0586 48.1889C91.2319 48.5298 91.4719 48.7898 91.7788 48.9688C92.0856 49.1449 92.4421 49.233 92.8484 49.233C93.1126 49.233 93.3512 49.196 93.5643 49.1222C93.7802 49.0455 93.9663 48.9318 94.1225 48.7812C94.2788 48.6278 94.3995 48.4375 94.4847 48.2102L95.4563 48.483C95.354 48.8125 95.1822 49.1023 94.9407 49.3523C94.6992 49.5994 94.4009 49.7926 94.0458 49.9318C93.6907 50.0682 93.2915 50.1364 92.8484 50.1364ZM96.3896 51.875V49.0625H96.935C97.0685 48.9233 97.1836 48.7727 97.2802 48.6108C97.3768 48.4489 97.4606 48.2571 97.5316 48.0355C97.6055 47.8111 97.668 47.5384 97.7191 47.2173C97.7702 46.8935 97.8157 46.5028 97.8555 46.0455L98.0771 43.4545H102.236V49.0625H103.242V51.875H102.236V50H97.3952V51.875H96.3896ZM98.0771 49.0625H101.23V44.392H99.0146L98.8441 46.0455C98.7731 46.7301 98.685 47.3281 98.5799 47.8395C98.4748 48.3509 98.3072 48.7585 98.0771 49.0625ZM106.503 50.1534C106.088 50.1534 105.712 50.0753 105.374 49.919C105.036 49.7599 104.767 49.5312 104.568 49.233C104.369 48.9318 104.27 48.5682 104.27 48.142C104.27 47.767 104.344 47.4631 104.491 47.2301C104.639 46.9943 104.837 46.8097 105.084 46.6761C105.331 46.5426 105.604 46.4432 105.902 46.3778C106.203 46.3097 106.506 46.2557 106.81 46.2159C107.207 46.1648 107.53 46.1264 107.777 46.1009C108.027 46.0724 108.209 46.0256 108.322 45.9602C108.439 45.8949 108.497 45.7812 108.497 45.6193V45.5852C108.497 45.1648 108.382 44.8381 108.152 44.6051C107.925 44.3722 107.58 44.2557 107.116 44.2557C106.636 44.2557 106.26 44.3608 105.987 44.571C105.714 44.7812 105.523 45.0057 105.412 45.2443L104.457 44.9034C104.628 44.5057 104.855 44.196 105.139 43.9744C105.426 43.75 105.739 43.5937 106.077 43.5057C106.418 43.4148 106.753 43.3693 107.082 43.3693C107.293 43.3693 107.534 43.3949 107.807 43.446C108.082 43.4943 108.348 43.5952 108.604 43.7486C108.862 43.902 109.077 44.1335 109.247 44.4432C109.418 44.7528 109.503 45.1676 109.503 45.6875V50H108.497V49.1136H108.446C108.378 49.2557 108.264 49.4077 108.105 49.5696C107.946 49.7315 107.734 49.8693 107.47 49.983C107.206 50.0966 106.884 50.1534 106.503 50.1534ZM106.656 49.25C107.054 49.25 107.389 49.1719 107.662 49.0156C107.938 48.8594 108.145 48.6577 108.284 48.4105C108.426 48.1634 108.497 47.9034 108.497 47.6307V46.7102C108.455 46.7614 108.361 46.8082 108.216 46.8509C108.074 46.8906 107.909 46.9261 107.722 46.9574C107.537 46.9858 107.357 47.0114 107.18 47.0341C107.007 47.054 106.866 47.071 106.759 47.0852C106.497 47.1193 106.253 47.1747 106.026 47.2514C105.801 47.3253 105.619 47.4375 105.48 47.5881C105.344 47.7358 105.276 47.9375 105.276 48.1932C105.276 48.5426 105.405 48.8068 105.663 48.9858C105.925 49.1619 106.256 49.25 106.656 49.25Z" fill="#080809"/>
<path d="M309 41.2727V50H307.155V43.0241H307.104L305.105 44.277V42.6406L307.266 41.2727H309ZM314.496 50.1918C313.763 50.1889 313.133 50.0085 312.604 49.6506C312.079 49.2926 311.674 48.7741 311.39 48.0952C311.109 47.4162 310.969 46.5994 310.972 45.6449C310.972 44.6932 311.113 43.8821 311.394 43.2116C311.678 42.5412 312.083 42.0312 312.609 41.6818C313.137 41.3295 313.766 41.1534 314.496 41.1534C315.227 41.1534 315.854 41.3295 316.38 41.6818C316.908 42.0341 317.315 42.5455 317.599 43.2159C317.883 43.8835 318.023 44.6932 318.021 45.6449C318.021 46.6023 317.879 47.4205 317.594 48.0994C317.313 48.7784 316.91 49.2969 316.384 49.6548C315.859 50.0128 315.229 50.1918 314.496 50.1918ZM314.496 48.6619C314.996 48.6619 315.396 48.4105 315.694 47.9077C315.992 47.4048 316.14 46.6506 316.137 45.6449C316.137 44.983 316.069 44.4318 315.933 43.9915C315.799 43.5511 315.609 43.2202 315.362 42.9986C315.117 42.777 314.829 42.6662 314.496 42.6662C313.999 42.6662 313.602 42.9148 313.303 43.4119C313.005 43.9091 312.854 44.6534 312.852 45.6449C312.852 46.3153 312.918 46.875 313.052 47.3239C313.188 47.7699 313.38 48.1051 313.627 48.3295C313.874 48.5511 314.164 48.6619 314.496 48.6619ZM323.133 41.2727V50H321.288V43.0241H321.237L319.238 44.277V42.6406L321.399 41.2727H323.133Z" fill="#080809"/>
<rect width="312" height="25" transform="translate(0.5 66)" fill="#C3E5BE"/>
<path d="M8.80682 85.1136V82.0625H9.36932C9.5625 81.8864 9.74432 81.6378 9.91477 81.3168C10.0881 80.9929 10.2344 80.5611 10.3537 80.0213C10.4759 79.4787 10.5568 78.7898 10.5966 77.9545L10.7841 74.2727H15.9659V82.0625H16.9716V85.0966H15.9659V83H9.8125V85.1136H8.80682ZM10.6307 82.0625H14.9602V75.2102H11.7386L11.6023 77.9545C11.5682 78.5909 11.5085 79.1676 11.4233 79.6847C11.3381 80.1989 11.2287 80.6548 11.0952 81.0526C10.9616 81.4474 10.8068 81.7841 10.6307 82.0625ZM21.1765 83.1364C20.5458 83.1364 20.0018 82.9972 19.5444 82.7188C19.0898 82.4375 18.739 82.0455 18.4918 81.5426C18.2475 81.0369 18.1254 80.4489 18.1254 79.7784C18.1254 79.108 18.2475 78.517 18.4918 78.0057C18.739 77.4915 19.0827 77.0909 19.5231 76.804C19.9663 76.5142 20.4833 76.3693 21.0742 76.3693C21.4151 76.3693 21.7518 76.4261 22.0842 76.5398C22.4165 76.6534 22.7191 76.8381 22.9918 77.0938C23.2646 77.3466 23.4819 77.6818 23.6438 78.0994C23.8058 78.517 23.8867 79.0312 23.8867 79.642V80.0682H18.8413V79.1989H22.864C22.864 78.8295 22.7901 78.5 22.6424 78.2102C22.4975 77.9205 22.2901 77.6918 22.0202 77.5241C21.7532 77.3565 21.4379 77.2727 21.0742 77.2727C20.6737 77.2727 20.3271 77.3722 20.0344 77.571C19.7447 77.767 19.5217 78.0227 19.3654 78.3381C19.2092 78.6534 19.131 78.9915 19.131 79.3523V79.9318C19.131 80.4261 19.2163 80.8452 19.3867 81.1889C19.56 81.5298 19.8001 81.7898 20.1069 81.9688C20.4137 82.1449 20.7702 82.233 21.1765 82.233C21.4407 82.233 21.6793 82.196 21.8924 82.1222C22.1083 82.0455 22.2944 81.9318 22.4506 81.7812C22.6069 81.6278 22.7276 81.4375 22.8129 81.2102L23.7844 81.483C23.6822 81.8125 23.5103 82.1023 23.2688 82.3523C23.0273 82.5994 22.729 82.7926 22.3739 82.9318C22.0188 83.0682 21.6197 83.1364 21.1765 83.1364ZM24.8072 77.392V76.4545H30.1254V77.392H27.9776V83H26.9719V77.392H24.8072ZM33.9116 83.1364C33.2979 83.1364 32.7695 82.9915 32.3263 82.7017C31.8832 82.4119 31.5423 82.0128 31.3036 81.5043C31.065 80.9957 30.9457 80.4148 30.9457 79.7614C30.9457 79.0966 31.0678 78.5099 31.3121 78.0014C31.5593 77.4901 31.9031 77.0909 32.3434 76.804C32.7866 76.5142 33.3036 76.3693 33.8945 76.3693C34.3548 76.3693 34.7695 76.4545 35.1388 76.625C35.5082 76.7955 35.8107 77.0341 36.0465 77.3409C36.2823 77.6477 36.4286 78.0057 36.4854 78.4148H35.4798C35.4031 78.1165 35.2326 77.8523 34.9684 77.6222C34.707 77.3892 34.3548 77.2727 33.9116 77.2727C33.5195 77.2727 33.1758 77.375 32.8803 77.5795C32.5877 77.7812 32.359 78.0668 32.1942 78.4361C32.0323 78.8026 31.9513 79.233 31.9513 79.7273C31.9513 80.233 32.0309 80.6733 32.19 81.0483C32.3519 81.4233 32.5792 81.7145 32.8718 81.9219C33.1673 82.1293 33.5138 82.233 33.9116 82.233C34.1729 82.233 34.4102 82.1875 34.6232 82.0966C34.8363 82.0057 35.0167 81.875 35.1644 81.7045C35.3121 81.5341 35.4173 81.3295 35.4798 81.0909H36.4854C36.4286 81.4773 36.288 81.8253 36.0636 82.1349C35.842 82.4418 35.5479 82.6861 35.1815 82.8679C34.8178 83.0469 34.3945 83.1364 33.9116 83.1364ZM37.9556 83V76.4545H38.9613V79.3011H39.6261L41.9783 76.4545H43.2738L40.6317 79.608L43.3079 83H42.0124L39.8647 80.2386H38.9613V83H37.9556ZM46.3271 83.1534C45.9123 83.1534 45.5359 83.0753 45.1978 82.919C44.8597 82.7599 44.5913 82.5312 44.3924 82.233C44.1935 81.9318 44.0941 81.5682 44.0941 81.142C44.0941 80.767 44.168 80.4631 44.3157 80.2301C44.4634 79.9943 44.6609 79.8097 44.908 79.6761C45.1552 79.5426 45.4279 79.4432 45.7262 79.3778C46.0273 79.3097 46.3299 79.2557 46.6339 79.2159C47.0316 79.1648 47.354 79.1264 47.6012 79.1009C47.8512 79.0724 48.033 79.0256 48.1467 78.9602C48.2631 78.8949 48.3214 78.7812 48.3214 78.6193V78.5852C48.3214 78.1648 48.2063 77.8381 47.9762 77.6051C47.7489 77.3722 47.4038 77.2557 46.9407 77.2557C46.4606 77.2557 46.0842 77.3608 45.8114 77.571C45.5387 77.7812 45.3469 78.0057 45.2362 78.2443L44.2816 77.9034C44.4521 77.5057 44.6793 77.196 44.9634 76.9744C45.2504 76.75 45.5629 76.5937 45.9009 76.5057C46.2418 76.4148 46.5771 76.3693 46.9066 76.3693C47.1168 76.3693 47.3583 76.3949 47.631 76.446C47.9066 76.4943 48.1722 76.5952 48.4279 76.7486C48.6864 76.902 48.9009 77.1335 49.0714 77.4432C49.2418 77.7528 49.3271 78.1676 49.3271 78.6875V83H48.3214V82.1136H48.2702C48.2021 82.2557 48.0884 82.4077 47.9293 82.5696C47.7702 82.7315 47.5586 82.8693 47.2944 82.983C47.0302 83.0966 46.7077 83.1534 46.3271 83.1534ZM46.4805 82.25C46.8782 82.25 47.2134 82.1719 47.4862 82.0156C47.7617 81.8594 47.9691 81.6577 48.1083 81.4105C48.2504 81.1634 48.3214 80.9034 48.3214 80.6307V79.7102C48.2788 79.7614 48.185 79.8082 48.0401 79.8509C47.8981 79.8906 47.7333 79.9261 47.5458 79.9574C47.3612 79.9858 47.1808 80.0114 47.0046 80.0341C46.8313 80.054 46.6907 80.071 46.5827 80.0852C46.3214 80.1193 46.0771 80.1747 45.8498 80.2514C45.6254 80.3253 45.4435 80.4375 45.3043 80.5881C45.168 80.7358 45.0998 80.9375 45.0998 81.1932C45.0998 81.5426 45.229 81.8068 45.4876 81.9858C45.7489 82.1619 46.0799 82.25 46.4805 82.25ZM55.1001 83V77.375H53.3615C52.9695 77.375 52.6612 77.4659 52.4368 77.6477C52.2124 77.8295 52.1001 78.0795 52.1001 78.3977C52.1001 78.7102 52.201 78.956 52.4027 79.1349C52.6072 79.3139 52.8871 79.4034 53.2422 79.4034H55.3558V80.3409H53.2422C52.799 80.3409 52.4169 80.2628 52.0959 80.1065C51.7749 79.9503 51.5277 79.7273 51.3544 79.4375C51.1811 79.1449 51.0945 78.7983 51.0945 78.3977C51.0945 77.9943 51.1854 77.6477 51.3672 77.358C51.549 77.0682 51.8089 76.8452 52.147 76.6889C52.4879 76.5327 52.8928 76.4545 53.3615 76.4545H56.0547V83H55.1001ZM50.7365 83L52.5945 79.7443H53.6854L51.8274 83H50.7365ZM61.2759 83V76.4545H66.4237V83H65.418V77.392H62.2816V83H61.2759ZM67.6808 83V82.0625H67.9194C68.1154 82.0625 68.2788 82.0241 68.4094 81.9474C68.5401 81.8679 68.6452 81.7301 68.7248 81.5341C68.8072 81.3352 68.8697 81.0597 68.9123 80.7074C68.9577 80.3523 68.9904 79.9006 69.0103 79.3523L69.1296 76.4545H73.4933V83H72.4876V77.392H70.0842L69.9819 79.7273C69.9592 80.2642 69.9109 80.7372 69.837 81.1463C69.766 81.5526 69.6566 81.8935 69.5089 82.169C69.364 82.4446 69.1708 82.652 68.9293 82.7912C68.6879 82.9304 68.3853 83 68.0217 83H67.6808ZM77.9975 83.1364C77.4066 83.1364 76.8881 82.9957 76.4421 82.7145C75.9989 82.4332 75.6523 82.0398 75.4023 81.5341C75.1552 81.0284 75.0316 80.4375 75.0316 79.7614C75.0316 79.0795 75.1552 78.4844 75.4023 77.9759C75.6523 77.4673 75.9989 77.0724 76.4421 76.7912C76.8881 76.5099 77.4066 76.3693 77.9975 76.3693C78.5884 76.3693 79.1055 76.5099 79.5487 76.7912C79.9947 77.0724 80.3413 77.4673 80.5884 77.9759C80.8384 78.4844 80.9634 79.0795 80.9634 79.7614C80.9634 80.4375 80.8384 81.0284 80.5884 81.5341C80.3413 82.0398 79.9947 82.4332 79.5487 82.7145C79.1055 82.9957 78.5884 83.1364 77.9975 83.1364ZM77.9975 82.233C78.4464 82.233 78.8157 82.1179 79.1055 81.8878C79.3952 81.6577 79.6097 81.3551 79.7489 80.9801C79.8881 80.6051 79.9577 80.1989 79.9577 79.7614C79.9577 79.3239 79.8881 78.9162 79.7489 78.5384C79.6097 78.1605 79.3952 77.8551 79.1055 77.6222C78.8157 77.3892 78.4464 77.2727 77.9975 77.2727C77.5487 77.2727 77.1793 77.3892 76.8896 77.6222C76.5998 77.8551 76.3853 78.1605 76.2461 78.5384C76.1069 78.9162 76.0373 79.3239 76.0373 79.7614C76.0373 80.1989 76.1069 80.6051 76.2461 80.9801C76.3853 81.3551 76.5998 81.6577 76.8896 81.8878C77.1793 82.1179 77.5487 82.233 77.9975 82.233ZM91.4304 82.0625L91.3111 84.875H90.2713V83H89.419V82.0625H91.4304ZM82.4986 76.4545H83.5043V82.0625H85.9759V76.4545H86.9815V82.0625H89.4531V76.4545H90.4588V83H82.4986V76.4545ZM94.8192 83.1534C94.4045 83.1534 94.0281 83.0753 93.69 82.919C93.3519 82.7599 93.0835 82.5312 92.8846 82.233C92.6857 81.9318 92.5863 81.5682 92.5863 81.142C92.5863 80.767 92.6602 80.4631 92.8079 80.2301C92.9556 79.9943 93.1531 79.8097 93.4002 79.6761C93.6474 79.5426 93.9201 79.4432 94.2184 79.3778C94.5195 79.3097 94.8221 79.2557 95.1261 79.2159C95.5238 79.1648 95.8462 79.1264 96.0934 79.1009C96.3434 79.0724 96.5252 79.0256 96.6388 78.9602C96.7553 78.8949 96.8136 78.7812 96.8136 78.6193V78.5852C96.8136 78.1648 96.6985 77.8381 96.4684 77.6051C96.2411 77.3722 95.896 77.2557 95.4329 77.2557C94.9528 77.2557 94.5763 77.3608 94.3036 77.571C94.0309 77.7812 93.8391 78.0057 93.7283 78.2443L92.7738 77.9034C92.9442 77.5057 93.1715 77.196 93.4556 76.9744C93.7425 76.75 94.055 76.5937 94.3931 76.5057C94.734 76.4148 95.0692 76.3693 95.3988 76.3693C95.609 76.3693 95.8505 76.3949 96.1232 76.446C96.3988 76.4943 96.6644 76.5952 96.9201 76.7486C97.1786 76.902 97.3931 77.1335 97.5636 77.4432C97.734 77.7528 97.8192 78.1676 97.8192 78.6875V83H96.8136V82.1136H96.7624C96.6942 82.2557 96.5806 82.4077 96.4215 82.5696C96.2624 82.7315 96.0508 82.8693 95.7866 82.983C95.5224 83.0966 95.1999 83.1534 94.8192 83.1534ZM94.9727 82.25C95.3704 82.25 95.7056 82.1719 95.9783 82.0156C96.2539 81.8594 96.4613 81.6577 96.6005 81.4105C96.7425 81.1634 96.8136 80.9034 96.8136 80.6307V79.7102C96.771 79.7614 96.6772 79.8082 96.5323 79.8509C96.3903 79.8906 96.2255 79.9261 96.038 79.9574C95.8533 79.9858 95.6729 80.0114 95.4968 80.0341C95.3235 80.054 95.1829 80.071 95.0749 80.0852C94.8136 80.1193 94.5692 80.1747 94.342 80.2514C94.1175 80.3253 93.9357 80.4375 93.7965 80.5881C93.6602 80.7358 93.592 80.9375 93.592 81.1932C93.592 81.5426 93.7212 81.8068 93.9798 81.9858C94.2411 82.1619 94.5721 82.25 94.9727 82.25ZM98.956 84.875V82.0625H99.5014C99.6349 81.9233 99.75 81.7727 99.8466 81.6108C99.9432 81.4489 100.027 81.2571 100.098 81.0355C100.172 80.8111 100.234 80.5384 100.286 80.2173C100.337 79.8935 100.382 79.5028 100.422 79.0455L100.643 76.4545H104.803V82.0625H105.808V84.875H104.803V83H99.9616V84.875H98.956ZM100.643 82.0625H103.797V77.392H101.581L101.411 79.0455C101.339 79.7301 101.251 80.3281 101.146 80.8395C101.041 81.3509 100.874 81.7585 100.643 82.0625ZM107.143 83V76.4545H108.149V79.3011H108.814L111.166 76.4545H112.461L109.819 79.608L112.495 83H111.2L109.052 80.2386H108.149V83H107.143ZM115.515 83.1534C115.1 83.1534 114.723 83.0753 114.385 82.919C114.047 82.7599 113.779 82.5312 113.58 82.233C113.381 81.9318 113.282 81.5682 113.282 81.142C113.282 80.767 113.355 80.4631 113.503 80.2301C113.651 79.9943 113.848 79.8097 114.096 79.6761C114.343 79.5426 114.615 79.4432 114.914 79.3778C115.215 79.3097 115.517 79.2557 115.821 79.2159C116.219 79.1648 116.542 79.1264 116.789 79.1009C117.039 79.0724 117.221 79.0256 117.334 78.9602C117.451 78.8949 117.509 78.7812 117.509 78.6193V78.5852C117.509 78.1648 117.394 77.8381 117.164 77.6051C116.936 77.3722 116.591 77.2557 116.128 77.2557C115.648 77.2557 115.272 77.3608 114.999 77.571C114.726 77.7812 114.534 78.0057 114.424 78.2443L113.469 77.9034C113.64 77.5057 113.867 77.196 114.151 76.9744C114.438 76.75 114.75 76.5937 115.088 76.5057C115.429 76.4148 115.765 76.3693 116.094 76.3693C116.304 76.3693 116.546 76.3949 116.819 76.446C117.094 76.4943 117.36 76.5952 117.615 76.7486C117.874 76.902 118.088 77.1335 118.259 77.4432C118.429 77.7528 118.515 78.1676 118.515 78.6875V83H117.509V82.1136H117.458C117.39 82.2557 117.276 82.4077 117.117 82.5696C116.958 82.7315 116.746 82.8693 116.482 82.983C116.218 83.0966 115.895 83.1534 115.515 83.1534ZM115.668 82.25C116.066 82.25 116.401 82.1719 116.674 82.0156C116.949 81.8594 117.157 81.6577 117.296 81.4105C117.438 81.1634 117.509 80.9034 117.509 80.6307V79.7102C117.466 79.7614 117.373 79.8082 117.228 79.8509C117.086 79.8906 116.921 79.9261 116.733 79.9574C116.549 79.9858 116.368 80.0114 116.192 80.0341C116.019 80.054 115.878 80.071 115.77 80.0852C115.509 80.1193 115.265 80.1747 115.037 80.2514C114.813 80.3253 114.631 80.4375 114.492 80.5881C114.355 80.7358 114.287 80.9375 114.287 81.1932C114.287 81.5426 114.417 81.8068 114.675 81.9858C114.936 82.1619 115.267 82.25 115.668 82.25Z" fill="#080809"/>
<path d="M292.885 74.1534C293.333 74.1534 293.765 74.2287 294.18 74.3793C294.598 74.5298 294.97 74.7699 295.297 75.0994C295.626 75.429 295.886 75.8665 296.076 76.4119C296.27 76.9545 296.368 77.6207 296.37 78.4105C296.37 79.152 296.287 79.8139 296.119 80.3963C295.954 80.9759 295.717 81.4688 295.407 81.875C295.098 82.2812 294.724 82.5909 294.287 82.804C293.849 83.0142 293.36 83.1193 292.821 83.1193C292.238 83.1193 291.724 83.0071 291.278 82.7827C290.832 82.5554 290.473 82.2472 290.2 81.858C289.93 81.4659 289.767 81.0256 289.71 80.5369H291.529C291.6 80.8551 291.75 81.1023 291.977 81.2784C292.204 81.4517 292.485 81.5384 292.821 81.5384C293.389 81.5384 293.821 81.2912 294.116 80.7969C294.412 80.2997 294.561 79.6193 294.564 78.7557H294.504C294.373 79.0114 294.197 79.2315 293.975 79.4162C293.754 79.598 293.5 79.7386 293.213 79.8381C292.929 79.9375 292.626 79.9872 292.305 79.9872C291.791 79.9872 291.332 79.8665 290.929 79.625C290.525 79.3835 290.207 79.0511 289.974 78.6278C289.741 78.2045 289.625 77.7216 289.625 77.179C289.622 76.5938 289.757 76.0724 290.029 75.6151C290.302 75.1577 290.683 74.7997 291.172 74.5412C291.663 74.2798 292.234 74.1506 292.885 74.1534ZM292.897 75.6023C292.61 75.6023 292.355 75.6705 292.13 75.8068C291.909 75.9432 291.733 76.1264 291.602 76.3565C291.474 76.5866 291.412 76.8437 291.414 77.1278C291.414 77.4148 291.477 77.6733 291.602 77.9034C291.73 78.1307 291.903 78.3125 292.122 78.4489C292.343 78.5824 292.596 78.6491 292.88 78.6491C293.093 78.6491 293.291 78.6094 293.473 78.5298C293.654 78.4503 293.812 78.3409 293.946 78.2017C294.082 78.0597 294.189 77.8963 294.265 77.7116C294.342 77.527 294.38 77.331 294.38 77.1236C294.377 76.848 294.312 76.5952 294.184 76.3651C294.056 76.1349 293.88 75.9503 293.656 75.8111C293.431 75.6719 293.179 75.6023 292.897 75.6023ZM297.649 83V81.6705L300.755 78.794C301.02 78.5384 301.241 78.3082 301.42 78.1037C301.602 77.8991 301.74 77.6989 301.833 77.5028C301.927 77.304 301.974 77.0895 301.974 76.8594C301.974 76.6037 301.916 76.3835 301.799 76.1989C301.683 76.0114 301.524 75.8679 301.322 75.7685C301.12 75.6662 300.892 75.6151 300.636 75.6151C300.369 75.6151 300.136 75.669 299.937 75.777C299.738 75.8849 299.585 76.0398 299.477 76.2415C299.369 76.4432 299.315 76.6832 299.315 76.9616H297.564C297.564 76.3906 297.693 75.8949 297.951 75.4744C298.21 75.054 298.572 74.7287 299.038 74.4986C299.504 74.2685 300.041 74.1534 300.649 74.1534C301.274 74.1534 301.818 74.2642 302.281 74.4858C302.747 74.7045 303.109 75.0085 303.368 75.3977C303.626 75.7869 303.755 76.233 303.755 76.7358C303.755 77.0653 303.69 77.3906 303.559 77.7116C303.431 78.0327 303.203 78.3892 302.873 78.7812C302.544 79.1705 302.079 79.6378 301.48 80.1832L300.206 81.4318V81.4915H303.87V83H297.649Z" fill="#080809"/>
<rect width="257" height="25" transform="translate(0.5 99)" fill="#C3E5BE"/>
<path d="M16.5795 110H15.5227C15.4602 109.696 15.3509 109.429 15.1946 109.199C15.0412 108.969 14.8537 108.776 14.6321 108.619C14.4134 108.46 14.1705 108.341 13.9034 108.261C13.6364 108.182 13.358 108.142 13.0682 108.142C12.5398 108.142 12.0611 108.276 11.6321 108.543C11.206 108.81 10.8665 109.203 10.6136 109.723C10.3636 110.243 10.2386 110.881 10.2386 111.636C10.2386 112.392 10.3636 113.03 10.6136 113.55C10.8665 114.07 11.206 114.463 11.6321 114.73C12.0611 114.997 12.5398 115.131 13.0682 115.131C13.358 115.131 13.6364 115.091 13.9034 115.011C14.1705 114.932 14.4134 114.814 14.6321 114.658C14.8537 114.499 15.0412 114.304 15.1946 114.074C15.3509 113.841 15.4602 113.574 15.5227 113.273H16.5795C16.5 113.719 16.3551 114.118 16.1449 114.47C15.9347 114.822 15.6733 115.122 15.3608 115.369C15.0483 115.614 14.6974 115.8 14.3082 115.928C13.9219 116.055 13.5085 116.119 13.0682 116.119C12.3239 116.119 11.6619 115.938 11.0824 115.574C10.5028 115.21 10.0469 114.693 9.71449 114.023C9.3821 113.352 9.21591 112.557 9.21591 111.636C9.21591 110.716 9.3821 109.92 9.71449 109.25C10.0469 108.58 10.5028 108.062 11.0824 107.699C11.6619 107.335 12.3239 107.153 13.0682 107.153C13.5085 107.153 13.9219 107.217 14.3082 107.345C14.6974 107.473 15.0483 107.661 15.3608 107.908C15.6733 108.152 15.9347 108.45 16.1449 108.803C16.3551 109.152 16.5 109.551 16.5795 110ZM18.1509 116V109.455H23.2987V116H22.293V110.392H19.1566V116H18.1509ZM27.7944 116.136C27.2035 116.136 26.685 115.996 26.239 115.714C25.7958 115.433 25.4492 115.04 25.1992 114.534C24.9521 114.028 24.8285 113.437 24.8285 112.761C24.8285 112.08 24.9521 111.484 25.1992 110.976C25.4492 110.467 25.7958 110.072 26.239 109.791C26.685 109.51 27.2035 109.369 27.7944 109.369C28.3853 109.369 28.9023 109.51 29.3455 109.791C29.7915 110.072 30.1381 110.467 30.3853 110.976C30.6353 111.484 30.7603 112.08 30.7603 112.761C30.7603 113.437 30.6353 114.028 30.3853 114.534C30.1381 115.04 29.7915 115.433 29.3455 115.714C28.9023 115.996 28.3853 116.136 27.7944 116.136ZM27.7944 115.233C28.2433 115.233 28.6126 115.118 28.9023 114.888C29.1921 114.658 29.4066 114.355 29.5458 113.98C29.685 113.605 29.7546 113.199 29.7546 112.761C29.7546 112.324 29.685 111.916 29.5458 111.538C29.4066 111.161 29.1921 110.855 28.9023 110.622C28.6126 110.389 28.2433 110.273 27.7944 110.273C27.3455 110.273 26.9762 110.389 26.6864 110.622C26.3967 110.855 26.1822 111.161 26.043 111.538C25.9038 111.916 25.8342 112.324 25.8342 112.761C25.8342 113.199 25.9038 113.605 26.043 113.98C26.1822 114.355 26.3967 114.658 26.6864 114.888C26.9762 115.118 27.3455 115.233 27.7944 115.233ZM32.2955 118.455V109.455H33.267V110.494H33.3864C33.4602 110.381 33.5625 110.236 33.6932 110.06C33.8267 109.881 34.017 109.722 34.2642 109.582C34.5142 109.44 34.8523 109.369 35.2784 109.369C35.8295 109.369 36.3153 109.507 36.7358 109.783C37.1563 110.058 37.4844 110.449 37.7202 110.955C37.956 111.46 38.0739 112.057 38.0739 112.744C38.0739 113.438 37.956 114.038 37.7202 114.547C37.4844 115.053 37.1577 115.445 36.7401 115.723C36.3224 115.999 35.8409 116.136 35.2955 116.136C34.875 116.136 34.5384 116.067 34.2855 115.928C34.0327 115.786 33.8381 115.625 33.7017 115.446C33.5653 115.264 33.4602 115.114 33.3864 114.994H33.3011V118.455H32.2955ZM33.2841 112.727C33.2841 113.222 33.3565 113.658 33.5014 114.036C33.6463 114.411 33.858 114.705 34.1364 114.918C34.4148 115.128 34.7557 115.233 35.1591 115.233C35.5795 115.233 35.9304 115.122 36.2116 114.901C36.4957 114.676 36.7088 114.375 36.8509 113.997C36.9957 113.616 37.0682 113.193 37.0682 112.727C37.0682 112.267 36.9972 111.852 36.8551 111.483C36.7159 111.111 36.5043 110.817 36.2202 110.601C35.9389 110.382 35.5852 110.273 35.1591 110.273C34.75 110.273 34.4063 110.376 34.1278 110.584C33.8494 110.788 33.6392 111.075 33.4972 111.445C33.3551 111.811 33.2841 112.239 33.2841 112.727ZM38.7525 110.392V109.455H44.0707V110.392H41.9229V116H40.9173V110.392H38.7525ZM46.5433 114.517L49.6967 109.455H50.8558V116H49.8501V110.938L46.7138 116H45.5376V109.455H46.5433V114.517ZM52.6978 116V109.455H55.3739C56.0785 109.455 56.6381 109.614 57.0529 109.932C57.4677 110.25 57.6751 110.67 57.6751 111.193C57.6751 111.591 57.5572 111.899 57.3214 112.118C57.0856 112.334 56.783 112.48 56.4137 112.557C56.6552 112.591 56.8896 112.676 57.1168 112.812C57.3469 112.949 57.5373 113.136 57.6879 113.375C57.8384 113.611 57.9137 113.901 57.9137 114.244C57.9137 114.58 57.8285 114.879 57.658 115.143C57.4876 115.408 57.2433 115.616 56.9251 115.77C56.6069 115.923 56.2262 116 55.783 116H52.6978ZM53.6523 115.08H55.783C56.1296 115.08 56.4009 114.997 56.5969 114.832C56.793 114.668 56.891 114.443 56.891 114.159C56.891 113.821 56.793 113.555 56.5969 113.362C56.4009 113.166 56.1296 113.068 55.783 113.068H53.6523V115.08ZM53.6523 112.199H55.3739C55.6438 112.199 55.8754 112.162 56.0685 112.088C56.2617 112.011 56.4094 111.903 56.5117 111.764C56.6168 111.622 56.6694 111.455 56.6694 111.261C56.6694 110.986 56.5543 110.77 56.3242 110.614C56.0941 110.455 55.7773 110.375 55.3739 110.375H53.6523V112.199ZM63.8168 112.267V113.205H60.2031V112.267H63.8168ZM60.4418 109.455V116H59.4361V109.455H60.4418ZM64.5838 109.455V116H63.5781V109.455H64.5838ZM68.3466 116.153C67.9318 116.153 67.5554 116.075 67.2173 115.919C66.8793 115.76 66.6108 115.531 66.4119 115.233C66.2131 114.932 66.1136 114.568 66.1136 114.142C66.1136 113.767 66.1875 113.463 66.3352 113.23C66.483 112.994 66.6804 112.81 66.9276 112.676C67.1747 112.543 67.4474 112.443 67.7457 112.378C68.0469 112.31 68.3494 112.256 68.6534 112.216C69.0511 112.165 69.3736 112.126 69.6207 112.101C69.8707 112.072 70.0526 112.026 70.1662 111.96C70.2827 111.895 70.3409 111.781 70.3409 111.619V111.585C70.3409 111.165 70.2259 110.838 69.9957 110.605C69.7685 110.372 69.4233 110.256 68.9602 110.256C68.4801 110.256 68.1037 110.361 67.831 110.571C67.5582 110.781 67.3665 111.006 67.2557 111.244L66.3011 110.903C66.4716 110.506 66.6989 110.196 66.983 109.974C67.2699 109.75 67.5824 109.594 67.9205 109.506C68.2614 109.415 68.5966 109.369 68.9261 109.369C69.1364 109.369 69.3778 109.395 69.6506 109.446C69.9261 109.494 70.1918 109.595 70.4474 109.749C70.706 109.902 70.9205 110.134 71.0909 110.443C71.2614 110.753 71.3466 111.168 71.3466 111.688V116H70.3409V115.114H70.2898C70.2216 115.256 70.108 115.408 69.9489 115.57C69.7898 115.732 69.5781 115.869 69.3139 115.983C69.0497 116.097 68.7273 116.153 68.3466 116.153ZM68.5 115.25C68.8977 115.25 69.233 115.172 69.5057 115.016C69.7813 114.859 69.9886 114.658 70.1278 114.411C70.2699 114.163 70.3409 113.903 70.3409 113.631V112.71C70.2983 112.761 70.2045 112.808 70.0597 112.851C69.9176 112.891 69.7528 112.926 69.5653 112.957C69.3807 112.986 69.2003 113.011 69.0241 113.034C68.8509 113.054 68.7102 113.071 68.6023 113.085C68.3409 113.119 68.0966 113.175 67.8693 113.251C67.6449 113.325 67.4631 113.437 67.3239 113.588C67.1875 113.736 67.1193 113.937 67.1193 114.193C67.1193 114.543 67.2486 114.807 67.5071 114.986C67.7685 115.162 68.0994 115.25 68.5 115.25ZM77.1197 116V110.375H75.381C74.989 110.375 74.6808 110.466 74.4563 110.648C74.2319 110.83 74.1197 111.08 74.1197 111.398C74.1197 111.71 74.2205 111.956 74.4222 112.135C74.6268 112.314 74.9066 112.403 75.2617 112.403H77.3754V113.341H75.2617C74.8185 113.341 74.4364 113.263 74.1154 113.107C73.7944 112.95 73.5472 112.727 73.3739 112.438C73.2006 112.145 73.114 111.798 73.114 111.398C73.114 110.994 73.2049 110.648 73.3867 110.358C73.5685 110.068 73.8285 109.845 74.1665 109.689C74.5075 109.533 74.9123 109.455 75.381 109.455H78.0742V116H77.1197ZM72.756 116L74.614 112.744H75.7049L73.8469 116H72.756ZM83.2955 116V109.455H88.4432V116H87.4375V110.392H84.3011V116H83.2955ZM89.7003 116V115.062H89.9389C90.1349 115.062 90.2983 115.024 90.429 114.947C90.5597 114.868 90.6648 114.73 90.7443 114.534C90.8267 114.335 90.8892 114.06 90.9318 113.707C90.9773 113.352 91.0099 112.901 91.0298 112.352L91.1491 109.455H95.5128V116H94.5071V110.392H92.1037L92.0014 112.727C91.9787 113.264 91.9304 113.737 91.8565 114.146C91.7855 114.553 91.6761 114.893 91.5284 115.169C91.3835 115.445 91.1903 115.652 90.9489 115.791C90.7074 115.93 90.4048 116 90.0412 116H89.7003ZM100.017 116.136C99.4261 116.136 98.9077 115.996 98.4616 115.714C98.0185 115.433 97.6719 115.04 97.4219 114.534C97.1747 114.028 97.0511 113.437 97.0511 112.761C97.0511 112.08 97.1747 111.484 97.4219 110.976C97.6719 110.467 98.0185 110.072 98.4616 109.791C98.9077 109.51 99.4261 109.369 100.017 109.369C100.608 109.369 101.125 109.51 101.568 109.791C102.014 110.072 102.361 110.467 102.608 110.976C102.858 111.484 102.983 112.08 102.983 112.761C102.983 113.437 102.858 114.028 102.608 114.534C102.361 115.04 102.014 115.433 101.568 115.714C101.125 115.996 100.608 116.136 100.017 116.136ZM100.017 115.233C100.466 115.233 100.835 115.118 101.125 114.888C101.415 114.658 101.629 114.355 101.768 113.98C101.908 113.605 101.977 113.199 101.977 112.761C101.977 112.324 101.908 111.916 101.768 111.538C101.629 111.161 101.415 110.855 101.125 110.622C100.835 110.389 100.466 110.273 100.017 110.273C99.5682 110.273 99.1989 110.389 98.9091 110.622C98.6193 110.855 98.4048 111.161 98.2656 111.538C98.1264 111.916 98.0568 112.324 98.0568 112.761C98.0568 113.199 98.1264 113.605 98.2656 113.98C98.4048 114.355 98.6193 114.658 98.9091 114.888C99.1989 115.118 99.5682 115.233 100.017 115.233ZM113.45 115.062L113.331 117.875H112.291V116H111.439V115.062H113.45ZM104.518 109.455H105.524V115.062H107.995V109.455H109.001V115.062H111.473V109.455H112.478V116H104.518V109.455ZM116.839 116.153C116.424 116.153 116.048 116.075 115.71 115.919C115.371 115.76 115.103 115.531 114.904 115.233C114.705 114.932 114.606 114.568 114.606 114.142C114.606 113.767 114.68 113.463 114.827 113.23C114.975 112.994 115.173 112.81 115.42 112.676C115.667 112.543 115.94 112.443 116.238 112.378C116.539 112.31 116.842 112.256 117.146 112.216C117.543 112.165 117.866 112.126 118.113 112.101C118.363 112.072 118.545 112.026 118.658 111.96C118.775 111.895 118.833 111.781 118.833 111.619V111.585C118.833 111.165 118.718 110.838 118.488 110.605C118.261 110.372 117.915 110.256 117.452 110.256C116.972 110.256 116.596 110.361 116.323 110.571C116.05 110.781 115.859 111.006 115.748 111.244L114.793 110.903C114.964 110.506 115.191 110.196 115.475 109.974C115.762 109.75 116.075 109.594 116.413 109.506C116.754 109.415 117.089 109.369 117.418 109.369C117.629 109.369 117.87 109.395 118.143 109.446C118.418 109.494 118.684 109.595 118.94 109.749C119.198 109.902 119.413 110.134 119.583 110.443C119.754 110.753 119.839 111.168 119.839 111.688V116H118.833V115.114H118.782C118.714 115.256 118.6 115.408 118.441 115.57C118.282 115.732 118.07 115.869 117.806 115.983C117.542 116.097 117.219 116.153 116.839 116.153ZM116.992 115.25C117.39 115.25 117.725 115.172 117.998 115.016C118.273 114.859 118.481 114.658 118.62 114.411C118.762 114.163 118.833 113.903 118.833 113.631V112.71C118.79 112.761 118.697 112.808 118.552 112.851C118.41 112.891 118.245 112.926 118.058 112.957C117.873 112.986 117.692 113.011 117.516 113.034C117.343 113.054 117.202 113.071 117.094 113.085C116.833 113.119 116.589 113.175 116.362 113.251C116.137 113.325 115.955 113.437 115.816 113.588C115.68 113.736 115.612 113.937 115.612 114.193C115.612 114.543 115.741 114.807 115.999 114.986C116.261 115.162 116.592 115.25 116.992 115.25ZM120.975 117.875V115.062H121.521C121.654 114.923 121.77 114.773 121.866 114.611C121.963 114.449 122.047 114.257 122.118 114.036C122.191 113.811 122.254 113.538 122.305 113.217C122.356 112.893 122.402 112.503 122.441 112.045L122.663 109.455H126.822V115.062H127.828V117.875H126.822V116H121.981V117.875H120.975ZM122.663 115.062H125.816V110.392H123.6L123.43 112.045C123.359 112.73 123.271 113.328 123.166 113.839C123.061 114.351 122.893 114.759 122.663 115.062ZM129.163 116V109.455H130.168V112.301H130.833L133.185 109.455H134.481L131.839 112.608L134.515 116H133.219L131.072 113.239H130.168V116H129.163ZM137.534 116.153C137.119 116.153 136.743 116.075 136.405 115.919C136.067 115.76 135.798 115.531 135.599 115.233C135.401 114.932 135.301 114.568 135.301 114.142C135.301 113.767 135.375 113.463 135.523 113.23C135.67 112.994 135.868 112.81 136.115 112.676C136.362 112.543 136.635 112.443 136.933 112.378C137.234 112.31 137.537 112.256 137.841 112.216C138.239 112.165 138.561 112.126 138.808 112.101C139.058 112.072 139.24 112.026 139.354 111.96C139.47 111.895 139.528 111.781 139.528 111.619V111.585C139.528 111.165 139.413 110.838 139.183 110.605C138.956 110.372 138.611 110.256 138.148 110.256C137.668 110.256 137.291 110.361 137.018 110.571C136.746 110.781 136.554 111.006 136.443 111.244L135.489 110.903C135.659 110.506 135.886 110.196 136.17 109.974C136.457 109.75 136.77 109.594 137.108 109.506C137.449 109.415 137.784 109.369 138.114 109.369C138.324 109.369 138.565 109.395 138.838 109.446C139.114 109.494 139.379 109.595 139.635 109.749C139.893 109.902 140.108 110.134 140.278 110.443C140.449 110.753 140.534 111.168 140.534 111.688V116H139.528V115.114H139.477C139.409 115.256 139.295 115.408 139.136 115.57C138.977 115.732 138.766 115.869 138.501 115.983C138.237 116.097 137.915 116.153 137.534 116.153ZM137.688 115.25C138.085 115.25 138.42 115.172 138.693 115.016C138.969 114.859 139.176 114.658 139.315 114.411C139.457 114.163 139.528 113.903 139.528 113.631V112.71C139.486 112.761 139.392 112.808 139.247 112.851C139.105 112.891 138.94 112.926 138.753 112.957C138.568 112.986 138.388 113.011 138.212 113.034C138.038 113.054 137.898 113.071 137.79 113.085C137.528 113.119 137.284 113.175 137.057 113.251C136.832 113.325 136.651 113.437 136.511 113.588C136.375 113.736 136.307 113.937 136.307 114.193C136.307 114.543 136.436 114.807 136.695 114.986C136.956 115.162 137.287 115.25 137.688 115.25Z" fill="#080809"/>
<path d="M235.681 116L239.299 108.841V108.781H235.085V107.273H241.208V108.803L237.586 116H235.681ZM245.635 116.119C245.186 116.116 244.753 116.041 244.335 115.893C243.92 115.746 243.548 115.506 243.219 115.173C242.889 114.841 242.628 114.401 242.435 113.852C242.244 113.304 242.149 112.631 242.149 111.832C242.152 111.099 242.236 110.445 242.401 109.868C242.568 109.288 242.807 108.797 243.116 108.393C243.429 107.99 243.803 107.683 244.237 107.473C244.672 107.26 245.159 107.153 245.699 107.153C246.281 107.153 246.795 107.267 247.241 107.494C247.688 107.719 248.045 108.024 248.315 108.411C248.588 108.797 248.753 109.23 248.81 109.71H246.99C246.919 109.406 246.77 109.168 246.543 108.994C246.315 108.821 246.034 108.734 245.699 108.734C245.131 108.734 244.699 108.982 244.403 109.476C244.111 109.97 243.962 110.642 243.956 111.491H244.016C244.146 111.233 244.322 111.013 244.544 110.831C244.768 110.646 245.023 110.506 245.307 110.409C245.594 110.31 245.896 110.26 246.214 110.26C246.732 110.26 247.192 110.382 247.595 110.626C247.999 110.868 248.317 111.2 248.55 111.624C248.783 112.047 248.899 112.531 248.899 113.077C248.899 113.668 248.761 114.193 248.486 114.653C248.213 115.114 247.831 115.474 247.339 115.736C246.851 115.994 246.283 116.122 245.635 116.119ZM245.626 114.67C245.911 114.67 246.165 114.602 246.389 114.466C246.614 114.33 246.79 114.145 246.918 113.912C247.045 113.679 247.109 113.418 247.109 113.128C247.109 112.838 247.045 112.578 246.918 112.348C246.793 112.118 246.619 111.935 246.398 111.798C246.176 111.662 245.923 111.594 245.639 111.594C245.426 111.594 245.229 111.634 245.047 111.713C244.868 111.793 244.71 111.903 244.574 112.045C244.44 112.187 244.335 112.352 244.259 112.54C244.182 112.724 244.143 112.922 244.143 113.132C244.143 113.413 244.207 113.67 244.335 113.903C244.466 114.136 244.642 114.322 244.864 114.462C245.088 114.601 245.342 114.67 245.626 114.67Z" fill="#080809"/>
<rect width="201" height="25" transform="translate(0.5 132)" fill="#E0F1DD"/>
<path d="M16.0852 140.273V149H15.0284V141.21H10.6307V149H9.57386V140.273H16.0852ZM18.7283 151.455C18.5579 151.455 18.4059 151.44 18.2724 151.412C18.1388 151.386 18.0465 151.361 17.9954 151.335L18.2511 150.449C18.4954 150.511 18.7113 150.534 18.8988 150.517C19.0863 150.5 19.2525 150.416 19.3974 150.266C19.5451 150.118 19.68 149.878 19.8022 149.545L19.9897 149.034L17.5692 142.455H18.6602L20.467 147.67H20.5352L22.342 142.455H23.4329L20.6545 149.955C20.5295 150.293 20.3746 150.572 20.19 150.794C20.0053 151.018 19.7908 151.185 19.5465 151.293C19.305 151.401 19.0323 151.455 18.7283 151.455ZM29.141 145.267V146.205H25.5273V145.267H29.141ZM25.766 142.455V149H24.7603V142.455H25.766ZM29.908 142.455V149H28.9023V142.455H29.908ZM31.7447 149V142.455H32.7504V145.301H33.4151L35.7674 142.455H37.0629L34.4208 145.608L37.0969 149H35.8015L33.6538 146.239H32.7504V149H31.7447ZM37.815 143.392V142.455H43.1332V143.392H40.9854V149H39.9798V143.392H37.815ZM47.9751 149V142.455H53.1229V149H52.1172V143.392H48.9808V149H47.9751ZM54.9595 151.455V142.455H55.9311V143.494H56.0504C56.1243 143.381 56.2266 143.236 56.3572 143.06C56.4908 142.881 56.6811 142.722 56.9283 142.582C57.1783 142.44 57.5163 142.369 57.9425 142.369C58.4936 142.369 58.9794 142.507 59.3999 142.783C59.8203 143.058 60.1484 143.449 60.3842 143.955C60.62 144.46 60.7379 145.057 60.7379 145.744C60.7379 146.438 60.62 147.038 60.3842 147.547C60.1484 148.053 59.8217 148.445 59.4041 148.723C58.9865 148.999 58.505 149.136 57.9595 149.136C57.5391 149.136 57.2024 149.067 56.9496 148.928C56.6967 148.786 56.5021 148.625 56.3658 148.446C56.2294 148.264 56.1243 148.114 56.0504 147.994H55.9652V151.455H54.9595ZM55.9482 145.727C55.9482 146.222 56.0206 146.658 56.1655 147.036C56.3104 147.411 56.522 147.705 56.8004 147.918C57.0788 148.128 57.4197 148.233 57.8232 148.233C58.2436 148.233 58.5945 148.122 58.8757 147.901C59.1598 147.676 59.3729 147.375 59.5149 146.997C59.6598 146.616 59.7322 146.193 59.7322 145.727C59.7322 145.267 59.6612 144.852 59.5192 144.483C59.38 144.111 59.1683 143.817 58.8842 143.601C58.603 143.382 58.2493 143.273 57.8232 143.273C57.4141 143.273 57.0703 143.376 56.7919 143.584C56.5135 143.788 56.3033 144.075 56.1612 144.445C56.0192 144.811 55.9482 145.239 55.9482 145.727ZM64.9311 149.136C64.3402 149.136 63.8217 148.996 63.3757 148.714C62.9325 148.433 62.5859 148.04 62.3359 147.534C62.0888 147.028 61.9652 146.437 61.9652 145.761C61.9652 145.08 62.0888 144.484 62.3359 143.976C62.5859 143.467 62.9325 143.072 63.3757 142.791C63.8217 142.51 64.3402 142.369 64.9311 142.369C65.522 142.369 66.0391 142.51 66.4822 142.791C66.9283 143.072 67.2749 143.467 67.522 143.976C67.772 144.484 67.897 145.08 67.897 145.761C67.897 146.437 67.772 147.028 67.522 147.534C67.2749 148.04 66.9283 148.433 66.4822 148.714C66.0391 148.996 65.522 149.136 64.9311 149.136ZM64.9311 148.233C65.38 148.233 65.7493 148.118 66.0391 147.888C66.3288 147.658 66.5433 147.355 66.6825 146.98C66.8217 146.605 66.8913 146.199 66.8913 145.761C66.8913 145.324 66.8217 144.916 66.6825 144.538C66.5433 144.161 66.3288 143.855 66.0391 143.622C65.7493 143.389 65.38 143.273 64.9311 143.273C64.4822 143.273 64.1129 143.389 63.8232 143.622C63.5334 143.855 63.3189 144.161 63.1797 144.538C63.0405 144.916 62.9709 145.324 62.9709 145.761C62.9709 146.199 63.0405 146.605 63.1797 146.98C63.3189 147.355 63.5334 147.658 63.8232 147.888C64.1129 148.118 64.4822 148.233 64.9311 148.233ZM69.4322 149V142.455H70.4379V145.301H71.1026L73.4549 142.455H74.7504L72.1083 145.608L74.7844 149H73.489L71.3413 146.239H70.4379V149H69.4322ZM77.8036 149.153C77.3888 149.153 77.0124 149.075 76.6744 148.919C76.3363 148.76 76.0678 148.531 75.869 148.233C75.6701 147.932 75.5707 147.568 75.5707 147.142C75.5707 146.767 75.6445 146.463 75.7923 146.23C75.94 145.994 76.1374 145.81 76.3846 145.676C76.6317 145.543 76.9045 145.443 77.2028 145.378C77.5039 145.31 77.8065 145.256 78.1104 145.216C78.5082 145.165 78.8306 145.126 79.0778 145.101C79.3278 145.072 79.5096 145.026 79.6232 144.96C79.7397 144.895 79.7979 144.781 79.7979 144.619V144.585C79.7979 144.165 79.6829 143.838 79.4528 143.605C79.2255 143.372 78.8803 143.256 78.4173 143.256C77.9371 143.256 77.5607 143.361 77.288 143.571C77.0153 143.781 76.8235 144.006 76.7127 144.244L75.7582 143.903C75.9286 143.506 76.1559 143.196 76.44 142.974C76.7269 142.75 77.0394 142.594 77.3775 142.506C77.7184 142.415 78.0536 142.369 78.3832 142.369C78.5934 142.369 78.8349 142.395 79.1076 142.446C79.3832 142.494 79.6488 142.595 79.9045 142.749C80.163 142.902 80.3775 143.134 80.5479 143.443C80.7184 143.753 80.8036 144.168 80.8036 144.688V149H79.7979V148.114H79.7468C79.6786 148.256 79.565 148.408 79.4059 148.57C79.2468 148.732 79.0352 148.869 78.771 148.983C78.5067 149.097 78.1843 149.153 77.8036 149.153ZM77.957 148.25C78.3548 148.25 78.69 148.172 78.9627 148.016C79.2383 147.859 79.4457 147.658 79.5849 147.411C79.7269 147.163 79.7979 146.903 79.7979 146.631V145.71C79.7553 145.761 79.6616 145.808 79.5167 145.851C79.3746 145.891 79.2099 145.926 79.0224 145.957C78.8377 145.986 78.6573 146.011 78.4812 146.034C78.3079 146.054 78.1673 146.071 78.0593 146.085C77.7979 146.119 77.5536 146.175 77.3263 146.251C77.1019 146.325 76.9201 146.437 76.7809 146.588C76.6445 146.736 76.5763 146.937 76.5763 147.193C76.5763 147.543 76.7056 147.807 76.9641 147.986C77.2255 148.162 77.5565 148.25 77.957 148.25ZM81.7486 143.392V142.455H87.0668V143.392H84.919V149H83.9134V143.392H81.7486ZM90.12 149.153C89.7053 149.153 89.3288 149.075 88.9908 148.919C88.6527 148.76 88.3842 148.531 88.1854 148.233C87.9865 147.932 87.8871 147.568 87.8871 147.142C87.8871 146.767 87.9609 146.463 88.1087 146.23C88.2564 145.994 88.4538 145.81 88.701 145.676C88.9482 145.543 89.2209 145.443 89.5192 145.378C89.8203 145.31 90.1229 145.256 90.4268 145.216C90.8246 145.165 91.147 145.126 91.3942 145.101C91.6442 145.072 91.826 145.026 91.9396 144.96C92.0561 144.895 92.1143 144.781 92.1143 144.619V144.585C92.1143 144.165 91.9993 143.838 91.7692 143.605C91.5419 143.372 91.1967 143.256 90.7337 143.256C90.2536 143.256 89.8771 143.361 89.6044 143.571C89.3317 143.781 89.1399 144.006 89.0291 144.244L88.0746 143.903C88.245 143.506 88.4723 143.196 88.7564 142.974C89.0433 142.75 89.3558 142.594 89.6939 142.506C90.0348 142.415 90.37 142.369 90.6996 142.369C90.9098 142.369 91.1513 142.395 91.424 142.446C91.6996 142.494 91.9652 142.595 92.2209 142.749C92.4794 142.902 92.6939 143.134 92.8643 143.443C93.0348 143.753 93.12 144.168 93.12 144.688V149H92.1143V148.114H92.0632C91.995 148.256 91.8814 148.408 91.7223 148.57C91.5632 148.732 91.3516 148.869 91.0874 148.983C90.8232 149.097 90.5007 149.153 90.12 149.153ZM90.2734 148.25C90.6712 148.25 91.0064 148.172 91.2791 148.016C91.5547 147.859 91.7621 147.658 91.9013 147.411C92.0433 147.163 92.1143 146.903 92.1143 146.631V145.71C92.0717 145.761 91.978 145.808 91.8331 145.851C91.6911 145.891 91.5263 145.926 91.3388 145.957C91.1541 145.986 90.9737 146.011 90.7976 146.034C90.6243 146.054 90.4837 146.071 90.3757 146.085C90.1143 146.119 89.87 146.175 89.6428 146.251C89.4183 146.325 89.2365 146.437 89.0973 146.588C88.9609 146.736 88.8928 146.937 88.8928 147.193C88.8928 147.543 89.022 147.807 89.2805 147.986C89.5419 148.162 89.8729 148.25 90.2734 148.25Z" fill="#080809"/>
<path d="M178.009 147.466V146.013L181.652 140.273H182.905V142.284H182.164L179.867 145.919V145.987H185.044V147.466H178.009ZM182.198 149V147.023L182.232 146.379V140.273H183.962V149H182.198ZM189.529 149.119C188.873 149.119 188.289 149.013 187.778 148.8C187.27 148.584 186.87 148.29 186.581 147.918C186.291 147.545 186.146 147.124 186.146 146.652C186.146 146.288 186.228 145.955 186.393 145.651C186.561 145.344 186.788 145.089 187.075 144.888C187.362 144.683 187.683 144.553 188.038 144.496V144.436C187.572 144.342 187.194 144.116 186.904 143.759C186.615 143.398 186.47 142.979 186.47 142.501C186.47 142.05 186.602 141.648 186.866 141.295C187.13 140.94 187.493 140.662 187.953 140.46C188.416 140.256 188.941 140.153 189.529 140.153C190.118 140.153 190.642 140.256 191.102 140.46C191.565 140.665 191.929 140.945 192.193 141.3C192.457 141.652 192.591 142.053 192.593 142.501C192.591 142.982 192.443 143.401 192.15 143.759C191.858 144.116 191.483 144.342 191.025 144.436V144.496C191.375 144.553 191.691 144.683 191.975 144.888C192.262 145.089 192.49 145.344 192.657 145.651C192.828 145.955 192.914 146.288 192.917 146.652C192.914 147.124 192.768 147.545 192.478 147.918C192.189 148.29 191.788 148.584 191.277 148.8C190.768 149.013 190.186 149.119 189.529 149.119ZM189.529 147.764C189.822 147.764 190.078 147.712 190.297 147.607C190.515 147.499 190.686 147.351 190.808 147.163C190.933 146.973 190.995 146.754 190.995 146.507C190.995 146.254 190.931 146.031 190.804 145.838C190.676 145.642 190.502 145.489 190.284 145.378C190.065 145.264 189.814 145.207 189.529 145.207C189.248 145.207 188.997 145.264 188.775 145.378C188.554 145.489 188.379 145.642 188.251 145.838C188.126 146.031 188.064 146.254 188.064 146.507C188.064 146.754 188.125 146.973 188.247 147.163C188.369 147.351 188.541 147.499 188.762 147.607C188.984 147.712 189.24 147.764 189.529 147.764ZM189.529 143.865C189.774 143.865 189.991 143.815 190.181 143.716C190.372 143.616 190.521 143.479 190.629 143.303C190.737 143.126 190.791 142.923 190.791 142.693C190.791 142.466 190.737 142.267 190.629 142.097C190.521 141.923 190.373 141.788 190.186 141.692C189.998 141.592 189.779 141.543 189.529 141.543C189.282 141.543 189.064 141.592 188.873 141.692C188.683 141.788 188.534 141.923 188.426 142.097C188.321 142.267 188.268 142.466 188.268 142.693C188.268 142.923 188.322 143.126 188.43 143.303C188.538 143.479 188.687 143.616 188.877 143.716C189.068 143.815 189.285 143.865 189.529 143.865Z" fill="#080809"/>
<rect width="183" height="25" transform="translate(0.5 165)" fill="#E0F1DD"/>
<path d="M16.0852 173.273V182H15.0284V174.21H10.6307V182H9.57386V173.273H16.0852ZM17.5011 182V181.062H17.7397C17.9357 181.062 18.0991 181.024 18.2298 180.947C18.3604 180.868 18.4656 180.73 18.5451 180.534C18.6275 180.335 18.69 180.06 18.7326 179.707C18.7781 179.352 18.8107 178.901 18.8306 178.352L18.9499 175.455H23.3136V182H22.3079V176.392H19.9045L19.8022 178.727C19.7795 179.264 19.7312 179.737 19.6573 180.146C19.5863 180.553 19.4769 180.893 19.3292 181.169C19.1843 181.445 18.9911 181.652 18.7496 181.791C18.5082 181.93 18.2056 182 17.842 182H17.5011ZM27.8178 182.136C27.2269 182.136 26.7085 181.996 26.2624 181.714C25.8192 181.433 25.4727 181.04 25.2227 180.534C24.9755 180.028 24.8519 179.437 24.8519 178.761C24.8519 178.08 24.9755 177.484 25.2227 176.976C25.4727 176.467 25.8192 176.072 26.2624 175.791C26.7085 175.51 27.2269 175.369 27.8178 175.369C28.4087 175.369 28.9258 175.51 29.369 175.791C29.815 176.072 30.1616 176.467 30.4087 176.976C30.6587 177.484 30.7837 178.08 30.7837 178.761C30.7837 179.437 30.6587 180.028 30.4087 180.534C30.1616 181.04 29.815 181.433 29.369 181.714C28.9258 181.996 28.4087 182.136 27.8178 182.136ZM27.8178 181.233C28.2667 181.233 28.636 181.118 28.9258 180.888C29.2156 180.658 29.43 180.355 29.5692 179.98C29.7085 179.605 29.7781 179.199 29.7781 178.761C29.7781 178.324 29.7085 177.916 29.5692 177.538C29.43 177.161 29.2156 176.855 28.9258 176.622C28.636 176.389 28.2667 176.273 27.8178 176.273C27.369 176.273 26.9996 176.389 26.7099 176.622C26.4201 176.855 26.2056 177.161 26.0664 177.538C25.9272 177.916 25.8576 178.324 25.8576 178.761C25.8576 179.199 25.9272 179.605 26.0664 179.98C26.2056 180.355 26.4201 180.658 26.7099 180.888C26.9996 181.118 27.369 181.233 27.8178 181.233ZM41.2507 181.062L41.1314 183.875H40.0916V182H39.2393V181.062H41.2507ZM32.3189 175.455H33.3246V181.062H35.7962V175.455H36.8018V181.062H39.2734V175.455H40.2791V182H32.3189V175.455ZM44.6396 182.153C44.2248 182.153 43.8484 182.075 43.5103 181.919C43.1722 181.76 42.9038 181.531 42.7049 181.233C42.506 180.932 42.4066 180.568 42.4066 180.142C42.4066 179.767 42.4805 179.463 42.6282 179.23C42.7759 178.994 42.9734 178.81 43.2205 178.676C43.4677 178.543 43.7404 178.443 44.0387 178.378C44.3398 178.31 44.6424 178.256 44.9464 178.216C45.3441 178.165 45.6665 178.126 45.9137 178.101C46.1637 178.072 46.3455 178.026 46.4592 177.96C46.5756 177.895 46.6339 177.781 46.6339 177.619V177.585C46.6339 177.165 46.5188 176.838 46.2887 176.605C46.0614 176.372 45.7163 176.256 45.2532 176.256C44.7731 176.256 44.3967 176.361 44.1239 176.571C43.8512 176.781 43.6594 177.006 43.5487 177.244L42.5941 176.903C42.7646 176.506 42.9918 176.196 43.2759 175.974C43.5629 175.75 43.8754 175.594 44.2134 175.506C44.5543 175.415 44.8896 175.369 45.2191 175.369C45.4293 175.369 45.6708 175.395 45.9435 175.446C46.2191 175.494 46.4847 175.595 46.7404 175.749C46.9989 175.902 47.2134 176.134 47.3839 176.443C47.5543 176.753 47.6396 177.168 47.6396 177.688V182H46.6339V181.114H46.5827C46.5146 181.256 46.4009 181.408 46.2418 181.57C46.0827 181.732 45.8711 181.869 45.6069 181.983C45.3427 182.097 45.0202 182.153 44.6396 182.153ZM44.793 181.25C45.1907 181.25 45.5259 181.172 45.7987 181.016C46.0742 180.859 46.2816 180.658 46.4208 180.411C46.5629 180.163 46.6339 179.903 46.6339 179.631V178.71C46.5913 178.761 46.4975 178.808 46.3526 178.851C46.2106 178.891 46.0458 178.926 45.8583 178.957C45.6737 178.986 45.4933 179.011 45.3171 179.034C45.1438 179.054 45.0032 179.071 44.8952 179.085C44.6339 179.119 44.3896 179.175 44.1623 179.251C43.9379 179.325 43.756 179.437 43.6168 179.588C43.4805 179.736 43.4123 179.937 43.4123 180.193C43.4123 180.543 43.5415 180.807 43.8001 180.986C44.0614 181.162 44.3924 181.25 44.793 181.25ZM48.7763 183.875V181.062H49.3217C49.4553 180.923 49.5703 180.773 49.6669 180.611C49.7635 180.449 49.8473 180.257 49.9183 180.036C49.9922 179.811 50.0547 179.538 50.1058 179.217C50.157 178.893 50.2024 178.503 50.2422 178.045L50.4638 175.455H54.6229V181.062H55.6286V183.875H54.6229V182H49.782V183.875H48.7763ZM50.4638 181.062H53.6172V176.392H51.4013L51.2308 178.045C51.1598 178.73 51.0717 179.328 50.9666 179.839C50.8615 180.351 50.6939 180.759 50.4638 181.062ZM56.9634 182V175.455H57.9691V178.301H58.6339L60.9862 175.455H62.2816L59.6396 178.608L62.3157 182H61.0202L58.8725 179.239H57.9691V182H56.9634ZM65.3349 182.153C64.9201 182.153 64.5437 182.075 64.2056 181.919C63.8675 181.76 63.5991 181.531 63.4002 181.233C63.2013 180.932 63.1019 180.568 63.1019 180.142C63.1019 179.767 63.1758 179.463 63.3235 179.23C63.4712 178.994 63.6687 178.81 63.9158 178.676C64.163 178.543 64.4357 178.443 64.734 178.378C65.0352 178.31 65.3377 178.256 65.6417 178.216C66.0394 178.165 66.3619 178.126 66.609 178.101C66.859 178.072 67.0408 178.026 67.1545 177.96C67.271 177.895 67.3292 177.781 67.3292 177.619V177.585C67.3292 177.165 67.2141 176.838 66.984 176.605C66.7567 176.372 66.4116 176.256 65.9485 176.256C65.4684 176.256 65.092 176.361 64.8192 176.571C64.5465 176.781 64.3548 177.006 64.244 177.244L63.2894 176.903C63.4599 176.506 63.6871 176.196 63.9712 175.974C64.2582 175.75 64.5707 175.594 64.9087 175.506C65.2496 175.415 65.5849 175.369 65.9144 175.369C66.1246 175.369 66.3661 175.395 66.6388 175.446C66.9144 175.494 67.18 175.595 67.4357 175.749C67.6942 175.902 67.9087 176.134 68.0792 176.443C68.2496 176.753 68.3349 177.168 68.3349 177.688V182H67.3292V181.114H67.2781C67.2099 181.256 67.0962 181.408 66.9371 181.57C66.7781 181.732 66.5664 181.869 66.3022 181.983C66.038 182.097 65.7156 182.153 65.3349 182.153ZM65.4883 181.25C65.886 181.25 66.2212 181.172 66.494 181.016C66.7695 180.859 66.9769 180.658 67.1161 180.411C67.2582 180.163 67.3292 179.903 67.3292 179.631V178.71C67.2866 178.761 67.1928 178.808 67.0479 178.851C66.9059 178.891 66.7411 178.926 66.5536 178.957C66.369 178.986 66.1886 179.011 66.0124 179.034C65.8391 179.054 65.6985 179.071 65.5906 179.085C65.3292 179.119 65.0849 179.175 64.8576 179.251C64.6332 179.325 64.4513 179.437 64.3121 179.588C64.1758 179.736 64.1076 179.937 64.1076 180.193C64.1076 180.543 64.2369 180.807 64.4954 180.986C64.7567 181.162 65.0877 181.25 65.4883 181.25ZM72.8466 183.875V181.062H73.392C73.5256 180.923 73.6406 180.773 73.7372 180.611C73.8338 180.449 73.9176 180.257 73.9886 180.036C74.0625 179.811 74.125 179.538 74.1761 179.217C74.2273 178.893 74.2727 178.503 74.3125 178.045L74.5341 175.455H78.6932V181.062H79.6989V183.875H78.6932V182H73.8523V183.875H72.8466ZM74.5341 181.062H77.6875V176.392H75.4716L75.3011 178.045C75.2301 178.73 75.142 179.328 75.0369 179.839C74.9318 180.351 74.7642 180.759 74.5341 181.062ZM80.4542 182V181.062H80.6928C80.8888 181.062 81.0522 181.024 81.1829 180.947C81.3136 180.868 81.4187 180.73 81.4982 180.534C81.5806 180.335 81.6431 180.06 81.6857 179.707C81.7312 179.352 81.7638 178.901 81.7837 178.352L81.9031 175.455H86.2667V182H85.261V176.392H82.8576L82.7553 178.727C82.7326 179.264 82.6843 179.737 82.6104 180.146C82.5394 180.553 82.43 180.893 82.2823 181.169C82.1374 181.445 81.9442 181.652 81.7028 181.791C81.4613 181.93 81.1587 182 80.7951 182H80.4542ZM92.0494 182V176.375H90.3107C89.9187 176.375 89.6104 176.466 89.386 176.648C89.1616 176.83 89.0494 177.08 89.0494 177.398C89.0494 177.71 89.1502 177.956 89.3519 178.135C89.5565 178.314 89.8363 178.403 90.1914 178.403H92.305V179.341H90.1914C89.7482 179.341 89.3661 179.263 89.0451 179.107C88.7241 178.95 88.4769 178.727 88.3036 178.438C88.1303 178.145 88.0437 177.798 88.0437 177.398C88.0437 176.994 88.1346 176.648 88.3164 176.358C88.4982 176.068 88.7582 175.845 89.0962 175.689C89.4371 175.533 89.842 175.455 90.3107 175.455H93.0039V182H92.0494ZM87.6857 182L89.5437 178.744H90.6346L88.7766 182H87.6857ZM100.884 182.136C100.271 182.136 99.7422 181.991 99.299 181.702C98.8558 181.412 98.5149 181.013 98.2763 180.504C98.0376 179.996 97.9183 179.415 97.9183 178.761C97.9183 178.097 98.0405 177.51 98.2848 177.001C98.532 176.49 98.8757 176.091 99.3161 175.804C99.7592 175.514 100.276 175.369 100.867 175.369C101.327 175.369 101.742 175.455 102.112 175.625C102.481 175.795 102.783 176.034 103.019 176.341C103.255 176.648 103.401 177.006 103.458 177.415H102.452C102.376 177.116 102.205 176.852 101.941 176.622C101.68 176.389 101.327 176.273 100.884 176.273C100.492 176.273 100.148 176.375 99.853 176.58C99.5604 176.781 99.3317 177.067 99.1669 177.436C99.005 177.803 98.924 178.233 98.924 178.727C98.924 179.233 99.0036 179.673 99.1626 180.048C99.3246 180.423 99.5518 180.714 99.8445 180.922C100.14 181.129 100.487 181.233 100.884 181.233C101.146 181.233 101.383 181.188 101.596 181.097C101.809 181.006 101.989 180.875 102.137 180.705C102.285 180.534 102.39 180.33 102.452 180.091H103.458C103.401 180.477 103.261 180.825 103.036 181.135C102.815 181.442 102.521 181.686 102.154 181.868C101.79 182.047 101.367 182.136 100.884 182.136ZM107.587 182.136C106.996 182.136 106.478 181.996 106.032 181.714C105.589 181.433 105.242 181.04 104.992 180.534C104.745 180.028 104.621 179.437 104.621 178.761C104.621 178.08 104.745 177.484 104.992 176.976C105.242 176.467 105.589 176.072 106.032 175.791C106.478 175.51 106.996 175.369 107.587 175.369C108.178 175.369 108.695 175.51 109.138 175.791C109.585 176.072 109.931 176.467 110.178 176.976C110.428 177.484 110.553 178.08 110.553 178.761C110.553 179.437 110.428 180.028 110.178 180.534C109.931 181.04 109.585 181.433 109.138 181.714C108.695 181.996 108.178 182.136 107.587 182.136ZM107.587 181.233C108.036 181.233 108.406 181.118 108.695 180.888C108.985 180.658 109.2 180.355 109.339 179.98C109.478 179.605 109.548 179.199 109.548 178.761C109.548 178.324 109.478 177.916 109.339 177.538C109.2 177.161 108.985 176.855 108.695 176.622C108.406 176.389 108.036 176.273 107.587 176.273C107.138 176.273 106.769 176.389 106.479 176.622C106.19 176.855 105.975 177.161 105.836 177.538C105.697 177.916 105.627 178.324 105.627 178.761C105.627 179.199 105.697 179.605 105.836 179.98C105.975 180.355 106.19 180.658 106.479 180.888C106.769 181.118 107.138 181.233 107.587 181.233ZM116.946 173L117.458 173.614C117.259 173.807 117.029 173.942 116.767 174.018C116.506 174.095 116.211 174.142 115.881 174.159C115.551 174.176 115.185 174.193 114.782 174.21C114.327 174.227 113.951 174.338 113.652 174.543C113.354 174.747 113.124 175.043 112.962 175.429C112.8 175.815 112.696 176.29 112.651 176.852H112.736C112.958 176.443 113.265 176.142 113.657 175.949C114.049 175.756 114.469 175.659 114.918 175.659C115.429 175.659 115.89 175.778 116.299 176.017C116.708 176.256 117.032 176.609 117.27 177.078C117.509 177.547 117.628 178.125 117.628 178.812C117.628 179.497 117.506 180.088 117.262 180.585C117.02 181.082 116.681 181.466 116.243 181.736C115.809 182.003 115.299 182.136 114.713 182.136C114.128 182.136 113.615 181.999 113.175 181.723C112.735 181.445 112.392 181.033 112.148 180.487C111.904 179.939 111.782 179.261 111.782 178.455V177.756C111.782 176.298 112.029 175.193 112.523 174.44C113.02 173.687 113.767 173.298 114.765 173.273C115.117 173.261 115.431 173.259 115.706 173.264C115.982 173.27 116.222 173.257 116.426 173.226C116.631 173.195 116.804 173.119 116.946 173ZM114.713 181.233C115.108 181.233 115.448 181.134 115.732 180.935C116.019 180.736 116.239 180.456 116.392 180.095C116.546 179.732 116.623 179.304 116.623 178.812C116.623 178.335 116.544 177.929 116.388 177.594C116.235 177.259 116.015 177.003 115.728 176.827C115.441 176.651 115.097 176.562 114.696 176.562C114.404 176.562 114.141 176.612 113.908 176.712C113.675 176.811 113.476 176.957 113.311 177.151C113.147 177.344 113.019 177.58 112.928 177.858C112.84 178.136 112.793 178.455 112.787 178.812C112.787 179.545 112.959 180.132 113.303 180.572C113.647 181.013 114.117 181.233 114.713 181.233ZM121.093 182.153C120.678 182.153 120.301 182.075 119.963 181.919C119.625 181.76 119.357 181.531 119.158 181.233C118.959 180.932 118.86 180.568 118.86 180.142C118.86 179.767 118.934 179.463 119.081 179.23C119.229 178.994 119.426 178.81 119.674 178.676C119.921 178.543 120.194 178.443 120.492 178.378C120.793 178.31 121.096 178.256 121.4 178.216C121.797 178.165 122.12 178.126 122.367 178.101C122.617 178.072 122.799 178.026 122.912 177.96C123.029 177.895 123.087 177.781 123.087 177.619V177.585C123.087 177.165 122.972 176.838 122.742 176.605C122.515 176.372 122.169 176.256 121.706 176.256C121.226 176.256 120.85 176.361 120.577 176.571C120.304 176.781 120.113 177.006 120.002 177.244L119.047 176.903C119.218 176.506 119.445 176.196 119.729 175.974C120.016 175.75 120.328 175.594 120.667 175.506C121.007 175.415 121.343 175.369 121.672 175.369C121.882 175.369 122.124 175.395 122.397 175.446C122.672 175.494 122.938 175.595 123.194 175.749C123.452 175.902 123.667 176.134 123.837 176.443C124.007 176.753 124.093 177.168 124.093 177.688V182H123.087V181.114H123.036C122.968 181.256 122.854 181.408 122.695 181.57C122.536 181.732 122.324 181.869 122.06 181.983C121.796 182.097 121.473 182.153 121.093 182.153ZM121.246 181.25C121.644 181.25 121.979 181.172 122.252 181.016C122.527 180.859 122.735 180.658 122.874 180.411C123.016 180.163 123.087 179.903 123.087 179.631V178.71C123.044 178.761 122.951 178.808 122.806 178.851C122.664 178.891 122.499 178.926 122.311 178.957C122.127 178.986 121.946 179.011 121.77 179.034C121.597 179.054 121.456 179.071 121.348 179.085C121.087 179.119 120.843 179.175 120.615 179.251C120.391 179.325 120.209 179.437 120.07 179.588C119.934 179.736 119.865 179.937 119.865 180.193C119.865 180.543 119.995 180.807 120.253 180.986C120.515 181.162 120.846 181.25 121.246 181.25ZM125.928 182V175.455H126.934V178.301H127.599L129.951 175.455H131.246L128.604 178.608L131.281 182H129.985L127.837 179.239H126.934V182H125.928Z" fill="#080809"/>
<path d="M163.789 182.119C163.152 182.119 162.586 182.01 162.088 181.791C161.594 181.57 161.203 181.266 160.917 180.879C160.632 180.49 160.486 180.041 160.478 179.533H162.336C162.347 179.746 162.417 179.933 162.544 180.095C162.675 180.254 162.848 180.378 163.064 180.466C163.28 180.554 163.523 180.598 163.793 180.598C164.074 180.598 164.323 180.548 164.539 180.449C164.755 180.349 164.924 180.212 165.046 180.036C165.168 179.859 165.229 179.656 165.229 179.426C165.229 179.193 165.164 178.987 165.033 178.808C164.905 178.626 164.721 178.484 164.479 178.382C164.24 178.28 163.956 178.229 163.627 178.229H162.813V176.874H163.627C163.905 176.874 164.151 176.825 164.364 176.729C164.58 176.632 164.748 176.499 164.867 176.328C164.986 176.155 165.046 175.953 165.046 175.723C165.046 175.504 164.993 175.312 164.888 175.148C164.786 174.98 164.641 174.849 164.453 174.756C164.269 174.662 164.053 174.615 163.806 174.615C163.556 174.615 163.327 174.661 163.12 174.751C162.912 174.839 162.746 174.966 162.621 175.131C162.496 175.295 162.429 175.489 162.421 175.71H160.652C160.661 175.207 160.804 174.764 161.083 174.381C161.361 173.997 161.736 173.697 162.208 173.482C162.682 173.263 163.218 173.153 163.814 173.153C164.417 173.153 164.944 173.263 165.395 173.482C165.847 173.7 166.198 173.996 166.448 174.368C166.701 174.737 166.826 175.152 166.823 175.612C166.826 176.101 166.674 176.509 166.367 176.835C166.063 177.162 165.667 177.369 165.178 177.457V177.526C165.82 177.608 166.309 177.831 166.644 178.195C166.982 178.555 167.15 179.007 167.147 179.55C167.15 180.047 167.006 180.489 166.716 180.875C166.429 181.261 166.033 181.565 165.527 181.787C165.022 182.009 164.442 182.119 163.789 182.119ZM171.661 182.119C171.058 182.119 170.521 182.009 170.05 181.787C169.581 181.565 169.209 181.26 168.933 180.871C168.658 180.482 168.514 180.036 168.503 179.533H170.293C170.313 179.871 170.455 180.145 170.719 180.355C170.983 180.565 171.297 180.67 171.661 180.67C171.95 180.67 172.206 180.607 172.428 180.479C172.652 180.348 172.827 180.168 172.952 179.938C173.08 179.705 173.143 179.437 173.143 179.136C173.143 178.83 173.078 178.56 172.947 178.327C172.82 178.094 172.642 177.912 172.415 177.781C172.188 177.651 171.928 177.584 171.635 177.581C171.379 177.581 171.131 177.634 170.889 177.739C170.651 177.844 170.464 177.987 170.331 178.169L168.69 177.875L169.104 173.273H174.439V174.781H170.625L170.399 176.967H170.45C170.604 176.751 170.835 176.572 171.145 176.43C171.455 176.288 171.801 176.217 172.185 176.217C172.71 176.217 173.179 176.341 173.591 176.588C174.003 176.835 174.328 177.175 174.567 177.607C174.805 178.036 174.923 178.53 174.92 179.089C174.923 179.678 174.787 180.2 174.511 180.658C174.239 181.112 173.857 181.47 173.365 181.732C172.876 181.99 172.308 182.119 171.661 182.119Z" fill="#080809"/>
</svg>
